G04 ( created by brdgerber.py ( brdgerber.py v0.1 2014-03-12 ) ) date 2021-05-04 13:10:20 EDT*
G04 Gerber Fmt 3.4, Leading zero omitted, Abs format*
%MOIN*%
%FSLAX34Y34*%
G01*
G70*
G90*
G04 APERTURE LIST*
%ADD23C,0.0100*%
%ADD16C,0.0050*%
%ADD18C,0.0200*%
%ADD15C,0.0000*%
%ADD14C,0.0032*%
%ADD17R,0.0354X0.0590*%
%ADD12C,0.0120*%
%ADD22R,0.0709X0.0629*%
%ADD20R,0.0629X0.0709*%
%ADD19C,0.0059*%
%ADD11C,0.0550*%
%ADD10R,0.0550X0.0550*%
%ADD13R,0.0590X0.0354*%
%ADD21C,0.0060*%
G04 APERTURE END LIST*
G54D23*
D18*
G01X-38500Y14100D02*
G01X-36200Y19550D01*
D18*
G01X-33050Y15950D02*
G01X-33100Y17150D01*
D18*
G01X-32700Y14750D02*
G01X-33050Y15950D01*
D18*
G01X-32200Y13700D02*
G01X-32700Y14750D01*
D18*
G01X-31500Y12700D02*
G01X-32200Y13700D01*
D18*
G01X-30650Y11850D02*
G01X-31500Y12700D01*
D18*
G01X-29650Y11150D02*
G01X-30650Y11850D01*
D18*
G01X-28600Y10650D02*
G01X-29650Y11150D01*
D18*
G01X-27350Y10300D02*
G01X-28600Y10650D01*
D18*
G01X-26150Y10250D02*
G01X-27350Y10300D01*
D18*
G01X-24950Y10350D02*
G01X-26150Y10250D01*
D18*
G01X-23750Y10650D02*
G01X-24950Y10350D01*
D18*
G01X-22700Y11150D02*
G01X-23750Y10650D01*
D18*
G01X-21750Y11850D02*
G01X-22700Y11150D01*
D18*
G01X-20900Y12700D02*
G01X-21750Y11850D01*
D18*
G01X-20200Y13700D02*
G01X-20900Y12700D01*
D18*
G01X-19700Y14800D02*
G01X-20200Y13700D01*
D18*
G01X-19400Y16000D02*
G01X-19700Y14800D01*
D18*
G01X-19300Y17200D02*
G01X-19400Y16000D01*
D18*
G01X-19400Y18400D02*
G01X-19300Y17200D01*
D18*
G01X-19750Y19550D02*
G01X-19400Y18400D01*
D18*
G01X-20250Y20650D02*
G01X-19750Y19550D01*
D18*
G01X-20950Y21650D02*
G01X-20250Y20650D01*
D18*
G01X-21750Y22450D02*
G01X-20950Y21650D01*
D18*
G01X-22750Y23150D02*
G01X-21750Y22450D01*
D18*
G01X-23850Y23650D02*
G01X-22750Y23150D01*
D18*
G01X-25000Y23950D02*
G01X-23850Y23650D01*
D18*
G01X-33100Y17150D02*
G01X-33000Y18350D01*
D18*
G01X-33000Y18350D02*
G01X-32700Y19500D01*
D18*
G01X-32700Y19500D02*
G01X-32200Y20600D01*
D18*
G01X-32200Y20600D02*
G01X-31500Y21600D01*
D18*
G01X-31500Y21600D02*
G01X-30650Y22450D01*
D18*
G01X-30650Y22450D02*
G01X-29650Y23150D01*
D18*
G01X-29650Y23150D02*
G01X-28650Y23600D01*
D18*
G01X-28650Y23600D02*
G01X-27400Y23950D01*
D18*
G01X-27400Y23950D02*
G01X-26200Y24050D01*
D18*
G01X-26200Y24050D02*
G01X-25000Y23950D01*
D18*
G01X-36200Y19550D02*
G01X-30500Y30800D01*
D18*
G01X-30500Y30800D02*
G01X-26200Y37800D01*
D18*
G01X-26200Y37800D02*
G01X-21850Y30650D01*
D18*
G01X-21850Y30650D02*
G01X-16150Y19450D01*
D18*
G01X-16150Y19450D02*
G01X-13850Y14100D01*
D18*
G01X-13850Y14100D02*
G01X-11750Y08300D01*
D18*
G01X-11750Y08300D02*
G01X-09600Y00700D01*
D18*
G01X-09600Y00700D02*
G01X-08950Y-02850D01*
D18*
G01X-08950Y-02850D02*
G01X-08800Y-04850D01*
D18*
G01X-08800Y-04850D02*
G01X-08800Y-06150D01*
D18*
G01X-08800Y-06150D02*
G01X-08950Y-07250D01*
D18*
G01X-08950Y-07250D02*
G01X-09100Y-07950D01*
D18*
G01X-09100Y-07950D02*
G01X-09550Y-09150D01*
D18*
G01X-09550Y-09150D02*
G01X-09900Y-09700D01*
D18*
G01X-09900Y-09700D02*
G01X-10450Y-10400D01*
D18*
G01X-10450Y-10400D02*
G01X-10950Y-10850D01*
D18*
G01X-10950Y-10850D02*
G01X-11450Y-11200D01*
D18*
G01X-11450Y-11200D02*
G01X-12300Y-11700D01*
D18*
G01X-12300Y-11700D02*
G01X-12900Y-11950D01*
D18*
G01X-12900Y-11950D02*
G01X-13900Y-12300D01*
D18*
G01X-13900Y-12300D02*
G01X-14400Y-12400D01*
D18*
G01X-14400Y-12400D02*
G01X-14900Y-12450D01*
D18*
G01X-14900Y-12450D02*
G01X-15650Y-12450D01*
D18*
G01X-15650Y-12450D02*
G01X-16950Y-12350D01*
D18*
G01X-16950Y-12350D02*
G01X-21100Y-11600D01*
D18*
G01X-21100Y-11600D02*
G01X-26000Y-11250D01*
D18*
G01X-26000Y-11250D02*
G01X-26400Y-11250D01*
D18*
G01X-26400Y-11250D02*
G01X-31250Y-11600D01*
D18*
G01X-31250Y-11600D02*
G01X-35450Y-12350D01*
D18*
G01X-35450Y-12350D02*
G01X-36700Y-12500D01*
D18*
G01X-36700Y-12500D02*
G01X-37450Y-12500D01*
D18*
G01X-37450Y-12500D02*
G01X-37950Y-12450D01*
D18*
G01X-37950Y-12450D02*
G01X-38450Y-12300D01*
D18*
G01X-38450Y-12300D02*
G01X-40050Y-11700D01*
D18*
G01X-40050Y-11700D02*
G01X-40850Y-11250D01*
D18*
G01X-40850Y-11250D02*
G01X-41750Y-10550D01*
D18*
G01X-41750Y-10550D02*
G01X-42200Y-10100D01*
D18*
G01X-42200Y-10100D02*
G01X-42550Y-09650D01*
D18*
G01X-42550Y-09650D02*
G01X-42850Y-09100D01*
D18*
G01X-42850Y-09100D02*
G01X-43050Y-08600D01*
D18*
G01X-43050Y-08600D02*
G01X-43250Y-07950D01*
D18*
G01X-43250Y-07950D02*
G01X-43400Y-07300D01*
D18*
G01X-43400Y-07300D02*
G01X-43550Y-06150D01*
D18*
G01X-43550Y-06150D02*
G01X-43600Y-04850D01*
D18*
G01X-43600Y-04850D02*
G01X-43450Y-02900D01*
D18*
G01X-43450Y-02900D02*
G01X-42800Y00650D01*
D18*
G01X-42800Y00650D02*
G01X-40600Y08300D01*
D18*
G01X-40600Y08300D02*
G01X-38500Y14100D01*
M02*
