G04 ( created by brdgerber.py ( brdgerber.py v0.1 2014-03-12 ) ) date 2021-05-05 23:48:44 EDT*
G04 Gerber Fmt 3.4, Leading zero omitted, Abs format*
%MOIN*%
%FSLAX34Y34*%
G01*
G70*
G90*
G04 APERTURE LIST*
%ADD13R,0.0590X0.0354*%
%ADD14C,0.0032*%
%ADD18C,0.0200*%
%ADD17R,0.0354X0.0590*%
%ADD12C,0.0120*%
%ADD16C,0.0050*%
%ADD10R,0.0550X0.0550*%
%ADD11C,0.0550*%
%ADD23C,0.0100*%
%ADD15C,0.0000*%
%ADD22R,0.0709X0.0629*%
%ADD20R,0.0629X0.0709*%
%ADD21C,0.0060*%
%ADD19C,0.0059*%
G04 APERTURE END LIST*
G54D13*
D10*
X-27200Y31200D03*
D11*
X-26200Y31200D03*
D11*
X-25200Y31200D03*
D13*
X-31536Y00701D03*
D13*
X-31536Y01999D03*
D13*
X-33464Y00701D03*
D13*
X-33464Y01999D03*
D13*
X-25236Y26401D03*
D13*
X-25236Y27699D03*
D13*
X-27164Y26401D03*
D13*
X-27164Y27699D03*
D17*
X-16001Y07214D03*
D17*
X-17299Y07214D03*
D17*
X-16001Y05286D03*
D17*
X-17299Y05286D03*
D13*
X-18064Y-01701D03*
D13*
X-18064Y-02999D03*
D13*
X-16136Y-01701D03*
D13*
X-16136Y-02999D03*
D13*
X-18886Y00751D03*
D13*
X-18886Y02049D03*
D13*
X-20814Y00751D03*
D13*
X-20814Y02049D03*
D13*
X-38186Y-06049D03*
D13*
X-38186Y-04751D03*
D13*
X-40114Y-06049D03*
D13*
X-40114Y-04751D03*
D13*
X-25236Y00701D03*
D13*
X-25236Y01999D03*
D13*
X-27164Y00701D03*
D13*
X-27164Y01999D03*
D13*
X-24464Y-01251D03*
D13*
X-24464Y-02549D03*
D13*
X-22536Y-01251D03*
D13*
X-22536Y-02549D03*
D17*
X-26799Y-08114D03*
D17*
X-25501Y-08114D03*
D17*
X-26799Y-06186D03*
D17*
X-25501Y-06186D03*
D17*
X-22099Y-05864D03*
D17*
X-20801Y-05864D03*
D17*
X-22099Y-03936D03*
D17*
X-20801Y-03936D03*
D13*
X-29936Y-05499D03*
D13*
X-29936Y-04201D03*
D13*
X-31864Y-05499D03*
D13*
X-31864Y-04201D03*
D17*
X-34651Y-01436D03*
D17*
X-35949Y-01436D03*
D17*
X-34651Y-03364D03*
D17*
X-35949Y-03364D03*
D17*
X-34901Y07264D03*
D17*
X-36199Y07264D03*
D17*
X-34901Y05336D03*
D17*
X-36199Y05336D03*
D17*
X-12501Y-04486D03*
D17*
X-13799Y-04486D03*
D17*
X-12501Y-06414D03*
D17*
X-13799Y-06414D03*
D13*
X-18286Y-09199D03*
D13*
X-18286Y-07901D03*
D13*
X-20214Y-09199D03*
D13*
X-20214Y-07901D03*
D13*
X-32186Y-09249D03*
D13*
X-32186Y-07951D03*
D13*
X-34114Y-09249D03*
D13*
X-34114Y-07951D03*
D13*
X-24264Y05049D03*
D13*
X-24264Y03751D03*
D13*
X-22336Y05049D03*
D13*
X-22336Y03751D03*
D13*
X-29564Y-01351D03*
D13*
X-29564Y-02649D03*
D13*
X-27636Y-01351D03*
D13*
X-27636Y-02649D03*
D18*
G01X-26500Y27050D02*
G01X-27150Y27700D01*
D13*
X-29914Y05099D03*
D13*
X-29914Y03801D03*
D13*
X-27986Y05099D03*
D13*
X-27986Y03801D03*
D18*
G01X-35550Y04900D02*
G01X-35550Y06600D01*
D18*
G01X-31550Y00700D02*
G01X-31550Y00650D01*
D20*
X-25541Y25150D03*
D20*
X-26659Y25150D03*
D22*
X-37450Y06759D03*
D22*
X-37450Y05641D03*
D20*
X-29509Y06450D03*
D20*
X-28391Y06450D03*
D20*
X-23809Y06350D03*
D20*
X-22691Y06350D03*
D22*
X-14450Y06659D03*
D22*
X-14450Y05541D03*
D20*
X-31941Y03150D03*
D20*
X-33059Y03150D03*
D20*
X-25741Y03100D03*
D20*
X-26859Y03100D03*
D20*
X-19341Y-00400D03*
D20*
X-20459Y-00400D03*
D22*
X-36950Y-01941D03*
D22*
X-36950Y-03059D03*
D20*
X-28759Y-03650D03*
D20*
X-27641Y-03650D03*
D20*
X-24659Y-03600D03*
D20*
X-23541Y-03600D03*
D20*
X-17559Y-04150D03*
D20*
X-16441Y-04150D03*
D20*
X-18841Y-10350D03*
D20*
X-19959Y-10350D03*
D22*
X-11200Y-05141D03*
D22*
X-11200Y-06259D03*
D22*
X-19600Y-05559D03*
D22*
X-19600Y-04441D03*
D22*
X-24200Y-07759D03*
D22*
X-24200Y-06641D03*
D20*
X-30441Y-06650D03*
D20*
X-31559Y-06650D03*
D20*
X-32691Y-10450D03*
D20*
X-33809Y-10450D03*
D20*
X-38641Y-07400D03*
D20*
X-39759Y-07400D03*
D18*
G01X-40100Y-04750D02*
G01X-40100Y-04800D01*
D18*
G01X-40100Y-04800D02*
G01X-39550Y-05350D01*
D18*
G01X-39550Y-05350D02*
G01X-39550Y-07200D01*
D18*
G01X-39550Y-07200D02*
G01X-39750Y-07400D01*
D18*
G01X-38650Y-07400D02*
G01X-38650Y-06500D01*
D18*
G01X-38650Y-06500D02*
G01X-38200Y-06050D01*
D18*
G01X-36950Y-01950D02*
G01X-36400Y-01950D01*
D18*
G01X-36400Y-01950D02*
G01X-36200Y-02150D01*
D18*
G01X-36200Y-02150D02*
G01X-35350Y-02150D01*
D18*
G01X-35350Y-02150D02*
G01X-34650Y-01450D01*
D18*
G01X-36950Y-03050D02*
G01X-36250Y-03050D01*
D18*
G01X-36250Y-03050D02*
G01X-35950Y-03350D01*
D18*
G01X-31850Y-04200D02*
G01X-31850Y-04450D01*
D18*
G01X-31850Y-04450D02*
G01X-31350Y-04950D01*
D18*
G01X-31350Y-04950D02*
G01X-31350Y-06450D01*
D18*
G01X-31350Y-06450D02*
G01X-31550Y-06650D01*
D18*
G01X-30450Y-06650D02*
G01X-30450Y-06000D01*
D18*
G01X-30450Y-06000D02*
G01X-29950Y-05500D01*
D18*
G01X-32700Y-10450D02*
G01X-32700Y-09750D01*
D18*
G01X-32700Y-09750D02*
G01X-32200Y-09250D01*
D18*
G01X-33800Y-10450D02*
G01X-33800Y-10150D01*
D18*
G01X-33800Y-10150D02*
G01X-33400Y-09750D01*
D18*
G01X-33400Y-09750D02*
G01X-33400Y-08650D01*
D18*
G01X-33400Y-08650D02*
G01X-34100Y-07950D01*
D18*
G01X-24200Y-06650D02*
G01X-25050Y-06650D01*
D18*
G01X-25050Y-06650D02*
G01X-25500Y-06200D01*
D18*
G01X-24200Y-07750D02*
G01X-24900Y-07750D01*
D18*
G01X-24900Y-07750D02*
G01X-25200Y-07450D01*
D18*
G01X-25200Y-07450D02*
G01X-26150Y-07450D01*
D18*
G01X-26150Y-07450D02*
G01X-26800Y-08100D01*
D18*
G01X-19950Y-10350D02*
G01X-19950Y-09850D01*
D18*
G01X-19950Y-09850D02*
G01X-19650Y-09550D01*
D18*
G01X-19650Y-09550D02*
G01X-19650Y-08450D01*
D18*
G01X-19650Y-08450D02*
G01X-20200Y-07900D01*
D18*
G01X-18300Y-09200D02*
G01X-18300Y-09800D01*
D18*
G01X-18300Y-09800D02*
G01X-18850Y-10350D01*
D18*
G01X-12500Y-04500D02*
G01X-11850Y-04500D01*
D18*
G01X-11850Y-04500D02*
G01X-11200Y-05150D01*
D18*
G01X-13800Y-06400D02*
G01X-13400Y-06400D01*
D18*
G01X-13400Y-06400D02*
G01X-12900Y-05900D01*
D18*
G01X-12900Y-05900D02*
G01X-11550Y-05900D01*
D18*
G01X-11550Y-05900D02*
G01X-11200Y-06250D01*
D18*
G01X-16150Y-03000D02*
G01X-16150Y-03850D01*
D18*
G01X-16150Y-03850D02*
G01X-16450Y-04150D01*
D18*
G01X-18050Y-01700D02*
G01X-18050Y-02100D01*
D18*
G01X-18050Y-02100D02*
G01X-17500Y-02650D01*
D18*
G01X-17500Y-02650D02*
G01X-17500Y-04100D01*
D18*
G01X-17500Y-04100D02*
G01X-17550Y-04150D01*
D18*
G01X-20800Y-03950D02*
G01X-20100Y-03950D01*
D18*
G01X-20100Y-03950D02*
G01X-19600Y-04450D01*
D18*
G01X-22100Y-05850D02*
G01X-21550Y-05850D01*
D18*
G01X-21550Y-05850D02*
G01X-20950Y-05250D01*
D18*
G01X-20950Y-05250D02*
G01X-19900Y-05250D01*
D18*
G01X-19900Y-05250D02*
G01X-19600Y-05550D01*
D18*
G01X-23550Y-03600D02*
G01X-23550Y-03550D01*
D18*
G01X-23550Y-03550D02*
G01X-22550Y-02550D01*
D18*
G01X-24650Y-03600D02*
G01X-24500Y-03600D01*
D18*
G01X-24500Y-03600D02*
G01X-23900Y-03000D01*
D18*
G01X-23900Y-03000D02*
G01X-23900Y-01800D01*
D18*
G01X-23900Y-01800D02*
G01X-24450Y-01250D01*
D18*
G01X-27650Y-03650D02*
G01X-27650Y-02650D01*
D18*
G01X-29550Y-01350D02*
G01X-29550Y-01550D01*
D18*
G01X-29550Y-01550D02*
G01X-28750Y-02350D01*
D18*
G01X-28750Y-02350D02*
G01X-28750Y-03650D01*
D18*
G01X-27150Y02000D02*
G01X-27150Y02800D01*
D18*
G01X-27150Y02800D02*
G01X-26850Y03100D01*
D18*
G01X-25750Y03100D02*
G01X-25750Y02600D01*
D18*
G01X-25750Y02600D02*
G01X-26000Y02350D01*
D18*
G01X-26000Y02350D02*
G01X-26000Y01450D01*
D18*
G01X-26000Y01450D02*
G01X-25250Y00700D01*
D18*
G01X-23800Y06350D02*
G01X-23800Y05500D01*
D18*
G01X-23800Y05500D02*
G01X-24250Y05050D01*
D18*
G01X-22350Y03750D02*
G01X-22350Y03950D01*
D18*
G01X-22350Y03950D02*
G01X-22950Y04550D01*
D18*
G01X-22950Y04550D02*
G01X-22950Y06100D01*
D18*
G01X-22950Y06100D02*
G01X-22700Y06350D01*
D18*
G01X-18900Y00750D02*
G01X-18900Y00050D01*
D18*
G01X-18900Y00050D02*
G01X-19350Y-00400D01*
D18*
G01X-20800Y02050D02*
G01X-20800Y01600D01*
D18*
G01X-20800Y01600D02*
G01X-20200Y01000D01*
D18*
G01X-20200Y01000D02*
G01X-20200Y-00150D01*
D18*
G01X-20200Y-00150D02*
G01X-20450Y-00400D01*
D18*
G01X-16000Y07200D02*
G01X-15000Y07200D01*
D18*
G01X-15000Y07200D02*
G01X-14450Y06650D01*
D18*
G01X-17300Y05300D02*
G01X-16900Y05300D01*
D18*
G01X-16900Y05300D02*
G01X-16250Y05950D01*
D18*
G01X-16250Y05950D02*
G01X-14850Y05950D01*
D18*
G01X-14850Y05950D02*
G01X-14450Y05550D01*
D18*
G01X-36200Y05350D02*
G01X-37150Y05350D01*
D18*
G01X-37150Y05350D02*
G01X-37450Y05650D01*
D18*
G01X-37450Y06750D02*
G01X-36800Y06750D01*
D18*
G01X-36800Y06750D02*
G01X-36600Y06550D01*
D18*
G01X-36600Y06550D02*
G01X-35600Y06550D01*
D18*
G01X-35600Y06550D02*
G01X-34900Y07250D01*
D18*
G01X-29900Y05100D02*
G01X-29900Y06050D01*
D18*
G01X-29900Y06050D02*
G01X-29500Y06450D01*
D18*
G01X-28400Y06450D02*
G01X-28400Y05850D01*
D18*
G01X-28400Y05850D02*
G01X-28700Y05550D01*
D18*
G01X-28700Y05550D02*
G01X-28700Y04500D01*
D18*
G01X-28700Y04500D02*
G01X-28000Y03800D01*
D18*
G01X-33450Y02000D02*
G01X-33450Y02750D01*
D18*
G01X-33450Y02750D02*
G01X-33050Y03150D01*
D18*
G01X-31950Y03150D02*
G01X-31950Y02700D01*
D18*
G01X-31950Y02700D02*
G01X-32250Y02400D01*
D18*
G01X-32250Y02400D02*
G01X-32250Y01400D01*
D18*
G01X-32250Y01400D02*
G01X-31550Y00700D01*
D18*
G01X-25250Y26400D02*
G01X-25250Y25450D01*
D18*
G01X-25250Y25450D02*
G01X-25550Y25150D01*
D18*
G01X-26650Y25150D02*
G01X-26650Y25800D01*
D18*
G01X-26650Y25800D02*
G01X-26500Y25950D01*
D18*
G01X-26500Y25950D02*
G01X-26500Y27050D01*
D18*
G01X-27200Y31200D02*
G01X-27200Y27750D01*
D18*
G01X-27200Y27750D02*
G01X-27150Y27700D01*
D18*
G01X-25200Y31200D02*
G01X-25200Y30300D01*
D18*
G01X-25200Y30300D02*
G01X-26150Y29350D01*
D18*
G01X-26150Y29350D02*
G01X-26150Y27300D01*
D18*
G01X-26150Y27300D02*
G01X-25250Y26400D01*
D18*
G01X-26200Y31200D02*
G01X-26200Y31350D01*
D18*
G01X-26200Y31350D02*
G01X-25600Y31950D01*
D18*
G01X-25600Y31950D02*
G01X-24550Y31950D01*
D18*
G01X-24550Y31950D02*
G01X-24300Y31700D01*
D18*
G01X-24300Y31700D02*
G01X-24300Y28650D01*
D18*
G01X-24300Y28650D02*
G01X-25250Y27700D01*
D18*
G01X-27150Y26400D02*
G01X-27200Y26400D01*
D18*
G01X-27200Y26400D02*
G01X-29350Y24250D01*
D18*
G01X-29350Y24250D02*
G01X-30150Y24250D01*
D18*
G01X-30150Y24250D02*
G01X-32250Y22150D01*
D18*
G01X-32250Y22150D02*
G01X-32250Y21750D01*
D18*
G01X-32250Y21750D02*
G01X-33100Y20900D01*
D18*
G01X-33100Y20900D02*
G01X-33100Y20050D01*
D18*
G01X-33100Y20050D02*
G01X-33750Y19400D01*
D18*
G01X-33750Y19400D02*
G01X-33750Y10850D01*
D18*
G01X-33750Y10850D02*
G01X-36200Y08400D01*
D18*
G01X-36200Y08400D02*
G01X-36200Y07250D01*
D18*
G01X-27200Y31200D02*
G01X-28050Y31200D01*
D18*
G01X-28050Y31200D02*
G01X-29500Y29750D01*
D18*
G01X-29500Y29750D02*
G01X-29500Y26950D01*
D18*
G01X-29500Y26950D02*
G01X-30200Y26250D01*
D18*
G01X-30200Y26250D02*
G01X-30200Y25000D01*
D18*
G01X-30200Y25000D02*
G01X-32700Y22500D01*
D18*
G01X-32700Y22500D02*
G01X-32700Y21800D01*
D18*
G01X-32700Y21800D02*
G01X-33600Y20900D01*
D18*
G01X-33600Y20900D02*
G01X-33600Y20150D01*
D18*
G01X-33600Y20150D02*
G01X-34350Y19400D01*
D18*
G01X-34350Y19400D02*
G01X-34350Y12050D01*
D18*
G01X-34350Y12050D02*
G01X-38400Y08000D01*
D18*
G01X-38400Y08000D02*
G01X-38400Y06600D01*
D18*
G01X-38400Y06600D02*
G01X-37450Y05650D01*
D18*
G01X-34900Y05350D02*
G01X-32650Y05350D01*
D18*
G01X-32650Y05350D02*
G01X-31500Y04200D01*
D18*
G01X-31500Y04200D02*
G01X-30300Y04200D01*
D18*
G01X-30300Y04200D02*
G01X-29900Y03800D01*
D18*
G01X-28000Y05100D02*
G01X-27050Y05100D01*
D18*
G01X-27050Y05100D02*
G01X-26150Y04200D01*
D18*
G01X-26150Y04200D02*
G01X-24700Y04200D01*
D18*
G01X-24700Y04200D02*
G01X-24250Y03750D01*
D18*
G01X-22350Y05050D02*
G01X-20000Y05050D01*
D18*
G01X-20000Y05050D02*
G01X-17850Y07200D01*
D18*
G01X-17850Y07200D02*
G01X-17300Y07200D01*
D18*
G01X-16000Y05300D02*
G01X-16000Y04000D01*
D18*
G01X-16000Y04000D02*
G01X-17950Y02050D01*
D18*
G01X-17950Y02050D02*
G01X-18900Y02050D01*
D18*
G01X-20800Y00750D02*
G01X-22150Y00750D01*
D18*
G01X-22150Y00750D02*
G01X-23400Y02000D01*
D18*
G01X-23400Y02000D02*
G01X-25250Y02000D01*
D18*
G01X-27150Y00700D02*
G01X-28500Y00700D01*
D18*
G01X-28500Y00700D02*
G01X-29800Y02000D01*
D18*
G01X-29800Y02000D02*
G01X-31550Y02000D01*
D18*
G01X-33450Y00700D02*
G01X-34500Y00700D01*
D18*
G01X-34500Y00700D02*
G01X-35950Y-00750D01*
D18*
G01X-35950Y-00750D02*
G01X-35950Y-01450D01*
D18*
G01X-34650Y-03350D02*
G01X-33500Y-03350D01*
D18*
G01X-33500Y-03350D02*
G01X-32800Y-02650D01*
D18*
G01X-32800Y-02650D02*
G01X-29550Y-02650D01*
D18*
G01X-27650Y-01350D02*
G01X-26650Y-01350D01*
D18*
G01X-26650Y-01350D02*
G01X-25450Y-02550D01*
D18*
G01X-25450Y-02550D02*
G01X-24450Y-02550D01*
D18*
G01X-22550Y-01250D02*
G01X-21400Y-01250D01*
D18*
G01X-21400Y-01250D02*
G01X-19650Y-03000D01*
D18*
G01X-19650Y-03000D02*
G01X-18050Y-03000D01*
D18*
G01X-16150Y-01700D02*
G01X-15500Y-01700D01*
D18*
G01X-15500Y-01700D02*
G01X-13800Y-03400D01*
D18*
G01X-13800Y-03400D02*
G01X-13800Y-04500D01*
D18*
G01X-18300Y-07900D02*
G01X-13500Y-07900D01*
D18*
G01X-13500Y-07900D02*
G01X-12500Y-06900D01*
D18*
G01X-12500Y-06900D02*
G01X-12500Y-06400D01*
D18*
G01X-20200Y-09200D02*
G01X-20450Y-09200D01*
D18*
G01X-20450Y-09200D02*
G01X-21050Y-08600D01*
D18*
G01X-21050Y-08600D02*
G01X-21050Y-06100D01*
D18*
G01X-21050Y-06100D02*
G01X-20800Y-05850D01*
D18*
G01X-25500Y-08100D02*
G01X-25500Y-08250D01*
D18*
G01X-25500Y-08250D02*
G01X-24950Y-08800D01*
D18*
G01X-24950Y-08800D02*
G01X-23600Y-08800D01*
D18*
G01X-23600Y-08800D02*
G01X-23100Y-08300D01*
D18*
G01X-23100Y-08300D02*
G01X-23100Y-04950D01*
D18*
G01X-23100Y-04950D02*
G01X-22100Y-03950D01*
D18*
G01X-29950Y-04200D02*
G01X-29950Y-04650D01*
D18*
G01X-29950Y-04650D02*
G01X-29650Y-04950D01*
D18*
G01X-29650Y-04950D02*
G01X-28050Y-04950D01*
D18*
G01X-28050Y-04950D02*
G01X-26800Y-06200D01*
D18*
G01X-31850Y-05500D02*
G01X-32350Y-05500D01*
D18*
G01X-32350Y-05500D02*
G01X-32650Y-05800D01*
D18*
G01X-32650Y-05800D02*
G01X-32650Y-07500D01*
D18*
G01X-32650Y-07500D02*
G01X-32200Y-07950D01*
D18*
G01X-34100Y-09250D02*
G01X-34250Y-09250D01*
D18*
G01X-34250Y-09250D02*
G01X-36750Y-06750D01*
D18*
G01X-36750Y-06750D02*
G01X-36750Y-05400D01*
D18*
G01X-36750Y-05400D02*
G01X-37400Y-04750D01*
D18*
G01X-37400Y-04750D02*
G01X-38200Y-04750D01*
D18*
G01X-36200Y05350D02*
G01X-36200Y04600D01*
D18*
G01X-36200Y04600D02*
G01X-34750Y03150D01*
D18*
G01X-34750Y03150D02*
G01X-33050Y03150D01*
D18*
G01X-40100Y-04750D02*
G01X-40100Y-04100D01*
D18*
G01X-40100Y-04100D02*
G01X-39050Y-03050D01*
D18*
G01X-39050Y-03050D02*
G01X-36950Y-03050D01*
D18*
G01X-38200Y-06050D02*
G01X-38200Y-05950D01*
D18*
G01X-38200Y-05950D02*
G01X-39200Y-04950D01*
D18*
G01X-39200Y-04950D02*
G01X-39200Y-04400D01*
D18*
G01X-39200Y-04400D02*
G01X-38800Y-04000D01*
D18*
G01X-38800Y-04000D02*
G01X-36700Y-04000D01*
D18*
G01X-36700Y-04000D02*
G01X-36300Y-04400D01*
D18*
G01X-36300Y-04400D02*
G01X-35500Y-04400D01*
D18*
G01X-35500Y-04400D02*
G01X-35350Y-04250D01*
D18*
G01X-35350Y-04250D02*
G01X-35350Y-02150D01*
D18*
G01X-38400Y06600D02*
G01X-38400Y-02400D01*
D18*
G01X-38400Y-02400D02*
G01X-39050Y-03050D01*
D18*
G01X-31950Y03150D02*
G01X-31950Y03300D01*
D18*
G01X-31950Y03300D02*
G01X-32900Y04250D01*
D18*
G01X-32900Y04250D02*
G01X-34900Y04250D01*
D18*
G01X-34900Y04250D02*
G01X-35550Y04900D01*
D18*
G01X-29900Y05100D02*
G01X-29900Y04950D01*
D18*
G01X-29900Y04950D02*
G01X-29100Y04150D01*
D18*
G01X-29100Y04150D02*
G01X-29100Y03500D01*
D18*
G01X-29100Y03500D02*
G01X-29450Y03150D01*
D18*
G01X-29450Y03150D02*
G01X-31950Y03150D01*
D18*
G01X-28000Y03800D02*
G01X-27550Y03800D01*
D18*
G01X-27550Y03800D02*
G01X-26850Y03100D01*
D18*
G01X-26000Y01450D02*
G01X-27600Y01450D01*
D18*
G01X-27600Y01450D02*
G01X-29300Y03150D01*
D18*
G01X-29300Y03150D02*
G01X-29450Y03150D01*
D18*
G01X-25750Y03100D02*
G01X-23700Y03100D01*
D18*
G01X-23700Y03100D02*
G01X-23500Y03300D01*
D18*
G01X-23500Y03300D02*
G01X-23500Y04300D01*
D18*
G01X-23500Y04300D02*
G01X-24250Y05050D01*
D18*
G01X-22350Y03750D02*
G01X-22350Y03050D01*
D18*
G01X-22350Y03050D02*
G01X-21350Y02050D01*
D18*
G01X-21350Y02050D02*
G01X-20800Y02050D01*
D18*
G01X-31550Y00700D02*
G01X-31100Y00700D01*
D18*
G01X-31100Y00700D02*
G01X-29550Y-00850D01*
D18*
G01X-29550Y-00850D02*
G01X-29550Y-01350D01*
D18*
G01X-29950Y-05500D02*
G01X-30000Y-05500D01*
D18*
G01X-30000Y-05500D02*
G01X-30800Y-04700D01*
D18*
G01X-30800Y-04700D02*
G01X-30800Y-03850D01*
D18*
G01X-30800Y-03850D02*
G01X-30600Y-03650D01*
D18*
G01X-30600Y-03650D02*
G01X-28750Y-03650D01*
D18*
G01X-32200Y-09250D02*
G01X-31200Y-09250D01*
D18*
G01X-31200Y-09250D02*
G01X-30450Y-08500D01*
D18*
G01X-30450Y-08500D02*
G01X-30450Y-06650D01*
D18*
G01X-34100Y-07950D02*
G01X-34100Y-05800D01*
D18*
G01X-34100Y-05800D02*
G01X-32500Y-04200D01*
D18*
G01X-32500Y-04200D02*
G01X-31850Y-04200D01*
D18*
G01X-39750Y-07400D02*
G01X-39750Y-07800D01*
D18*
G01X-39750Y-07800D02*
G01X-37100Y-10450D01*
D18*
G01X-37100Y-10450D02*
G01X-33800Y-10450D01*
D18*
G01X-27650Y-03650D02*
G01X-27650Y-04000D01*
D18*
G01X-27650Y-04000D02*
G01X-25500Y-06150D01*
D18*
G01X-25500Y-06150D02*
G01X-25500Y-06200D01*
D18*
G01X-24200Y-06650D02*
G01X-24200Y-05200D01*
D18*
G01X-24200Y-05200D02*
G01X-23550Y-04550D01*
D18*
G01X-23550Y-04550D02*
G01X-23550Y-03600D01*
D18*
G01X-22550Y-02550D02*
G01X-21450Y-02550D01*
D18*
G01X-21450Y-02550D02*
G01X-20800Y-03200D01*
D18*
G01X-20800Y-03200D02*
G01X-20800Y-03950D01*
D18*
G01X-19600Y-04450D02*
G01X-18950Y-04450D01*
D18*
G01X-18950Y-04450D02*
G01X-18150Y-05250D01*
D18*
G01X-18150Y-05250D02*
G01X-17550Y-05250D01*
D18*
G01X-17550Y-05250D02*
G01X-16450Y-04150D01*
D18*
G01X-20200Y-07900D02*
G01X-20200Y-07700D01*
D18*
G01X-20200Y-07700D02*
G01X-18850Y-06350D01*
D18*
G01X-18850Y-06350D02*
G01X-18800Y-06350D01*
D18*
G01X-18800Y-06350D02*
G01X-18150Y-05700D01*
D18*
G01X-18150Y-05700D02*
G01X-18150Y-05250D01*
D18*
G01X-22100Y-05850D02*
G01X-22100Y-09500D01*
D18*
G01X-22100Y-09500D02*
G01X-20450Y-11150D01*
D18*
G01X-20450Y-11150D02*
G01X-19650Y-11150D01*
D18*
G01X-19650Y-11150D02*
G01X-18850Y-10350D01*
D18*
G01X-26800Y-08100D02*
G01X-26800Y-08650D01*
D18*
G01X-26800Y-08650D02*
G01X-25950Y-09500D01*
D18*
G01X-25950Y-09500D02*
G01X-22100Y-09500D01*
D18*
G01X-33800Y-10450D02*
G01X-33800Y-10650D01*
D18*
G01X-33800Y-10650D02*
G01X-33150Y-11300D01*
D18*
G01X-33150Y-11300D02*
G01X-32750Y-11300D01*
D18*
G01X-32750Y-11300D02*
G01X-32550Y-11100D01*
D18*
G01X-32550Y-11100D02*
G01X-32050Y-11100D01*
D18*
G01X-32050Y-11100D02*
G01X-28200Y-07250D01*
D18*
G01X-28200Y-07250D02*
G01X-27000Y-07250D01*
D18*
G01X-27000Y-07250D02*
G01X-26400Y-06650D01*
D18*
G01X-26400Y-06650D02*
G01X-25950Y-06650D01*
D18*
G01X-25950Y-06650D02*
G01X-25500Y-06200D01*
D18*
G01X-25250Y00700D02*
G01X-25250Y-00450D01*
D18*
G01X-25250Y-00450D02*
G01X-24450Y-01250D01*
D18*
G01X-19350Y-00400D02*
G01X-19350Y-01150D01*
D18*
G01X-19350Y-01150D02*
G01X-18800Y-01700D01*
D18*
G01X-18800Y-01700D02*
G01X-18050Y-01700D01*
D18*
G01X-22550Y-02550D02*
G01X-22600Y-02550D01*
D18*
G01X-22600Y-02550D02*
G01X-23350Y-01800D01*
D18*
G01X-23350Y-01800D02*
G01X-23350Y-00650D01*
D18*
G01X-23350Y-00650D02*
G01X-23100Y-00400D01*
D18*
G01X-23100Y-00400D02*
G01X-20450Y-00400D01*
D18*
G01X-18900Y00750D02*
G01X-17400Y00750D01*
D18*
G01X-17400Y00750D02*
G01X-13650Y04500D01*
D18*
G01X-13650Y04500D02*
G01X-13650Y05850D01*
D18*
G01X-13650Y05850D02*
G01X-14450Y06650D01*
D18*
G01X-20800Y02050D02*
G01X-20550Y02050D01*
D18*
G01X-20550Y02050D02*
G01X-17300Y05300D01*
D18*
G01X-28400Y06450D02*
G01X-28150Y06450D01*
D18*
G01X-28150Y06450D02*
G01X-26850Y07750D01*
D18*
G01X-26850Y07750D02*
G01X-24100Y07750D01*
D18*
G01X-24100Y07750D02*
G01X-22700Y06350D01*
D18*
G01X-25250Y26400D02*
G01X-23950Y26400D01*
D18*
G01X-23950Y26400D02*
G01X-19250Y21700D01*
D18*
G01X-19250Y21700D02*
G01X-19250Y21100D01*
D18*
G01X-19250Y21100D02*
G01X-18350Y20200D01*
D18*
G01X-18350Y20200D02*
G01X-18350Y17700D01*
D18*
G01X-18350Y17700D02*
G01X-17750Y17100D01*
D18*
G01X-17750Y17100D02*
G01X-17750Y08950D01*
D18*
G01X-17750Y08950D02*
G01X-16000Y07200D01*
D18*
G01X-16150Y-03000D02*
G01X-15750Y-03000D01*
D18*
G01X-15750Y-03000D02*
G01X-15100Y-03650D01*
D18*
G01X-15100Y-03650D02*
G01X-15100Y-05600D01*
D18*
G01X-15100Y-05600D02*
G01X-14300Y-06400D01*
D18*
G01X-14300Y-06400D02*
G01X-13800Y-06400D01*
D18*
G01X-18050Y-01700D02*
G01X-18050Y-01550D01*
D18*
G01X-18050Y-01550D02*
G01X-17250Y-00750D01*
D18*
G01X-17250Y-00750D02*
G01X-14100Y-00750D01*
D18*
G01X-14100Y-00750D02*
G01X-12500Y-02350D01*
D18*
G01X-12500Y-02350D02*
G01X-12500Y-04500D01*
D18*
G01X-18300Y-09200D02*
G01X-12850Y-09200D01*
D18*
G01X-12850Y-09200D02*
G01X-10250Y-06600D01*
D18*
G01X-10250Y-06600D02*
G01X-10250Y-06100D01*
D18*
G01X-10250Y-06100D02*
G01X-11200Y-05150D01*
D18*
G01X-29500Y06450D02*
G01X-29500Y07200D01*
D18*
G01X-29500Y07200D02*
G01X-27900Y08800D01*
D18*
G01X-27900Y08800D02*
G01X-17900Y08800D01*
D18*
G01X-17900Y08800D02*
G01X-17750Y08950D01*
D18*
G01X-34650Y-01450D02*
G01X-33400Y-01450D01*
D18*
G01X-33400Y-01450D02*
G01X-31550Y00400D01*
D18*
G01X-31550Y00400D02*
G01X-31550Y00700D01*
G36*
G01X-35510Y-12005D02*
G01X-33398Y-11626D01*
G01X-33377Y-11588D01*
G01X-33393Y-11548D01*
G01X-33886Y-11060D01*
G01X-34122Y-11055D01*
G01X-34202Y-11041D01*
G01X-34269Y-11007D01*
G01X-34326Y-10950D01*
G01X-34361Y-10880D01*
G01X-34380Y-10812D01*
G01X-34403Y-10797D01*
G01X-37115Y-10800D01*
G01X-37180Y-10790D01*
G01X-37249Y-10766D01*
G01X-37310Y-10729D01*
G01X-40040Y-08008D01*
G01X-40152Y-07991D01*
G01X-40219Y-07957D01*
G01X-40276Y-07900D01*
G01X-40310Y-07833D01*
G01X-40324Y-07755D01*
G01X-40324Y-07053D01*
G01X-40310Y-06967D01*
G01X-40276Y-06900D01*
G01X-40219Y-06843D01*
G01X-40151Y-06809D01*
G01X-40072Y-06796D01*
G01X-39947Y-06796D01*
G01X-39918Y-06786D01*
G01X-39899Y-06761D01*
G01X-39897Y-06526D01*
G01X-39907Y-06497D01*
G01X-39932Y-06478D01*
G01X-40407Y-06476D01*
G01X-40484Y-06464D01*
G01X-40558Y-06426D01*
G01X-40609Y-06375D01*
G01X-40647Y-06299D01*
G01X-40659Y-06226D01*
G01X-40659Y-05872D01*
G01X-40647Y-05797D01*
G01X-40609Y-05723D01*
G01X-40558Y-05672D01*
G01X-40484Y-05634D01*
G01X-40407Y-05622D01*
G01X-39949Y-05622D01*
G01X-39920Y-05612D01*
G01X-39901Y-05587D01*
G01X-39899Y-05513D01*
G01X-39909Y-05483D01*
G01X-40214Y-05183D01*
G01X-40407Y-05178D01*
G01X-40484Y-05166D01*
G01X-40558Y-05128D01*
G01X-40609Y-05077D01*
G01X-40647Y-05001D01*
G01X-40659Y-04928D01*
G01X-40659Y-04574D01*
G01X-40647Y-04499D01*
G01X-40609Y-04425D01*
G01X-40558Y-04374D01*
G01X-40474Y-04332D01*
G01X-40455Y-04313D01*
G01X-40448Y-04288D01*
G01X-40449Y-04075D01*
G01X-40419Y-03959D01*
G01X-40373Y-03882D01*
G01X-38755Y-02260D01*
G01X-38746Y-02231D01*
G01X-38749Y08007D01*
G01X-38738Y08090D01*
G01X-38713Y08155D01*
G01X-38626Y08267D01*
G01X-34701Y12197D01*
G01X-34699Y19405D01*
G01X-34689Y19487D01*
G01X-34665Y19550D01*
G01X-34623Y19618D01*
G01X-33952Y20295D01*
G01X-33949Y20910D01*
G01X-33939Y20987D01*
G01X-33917Y21046D01*
G01X-33873Y21118D01*
G01X-33052Y21945D01*
G01X-33049Y22506D01*
G01X-33039Y22587D01*
G01X-33016Y22649D01*
G01X-32977Y22714D01*
G01X-30552Y25146D01*
G01X-30549Y26255D01*
G01X-30542Y26317D01*
G01X-30520Y26388D01*
G01X-30473Y26468D01*
G01X-29851Y27096D01*
G01X-29849Y29755D01*
G01X-29839Y29837D01*
G01X-29817Y29896D01*
G01X-29773Y29968D01*
G01X-28275Y31467D01*
G01X-28177Y31524D01*
G01X-28073Y31549D01*
G01X-27745Y31548D01*
G01X-27706Y31566D01*
G01X-27675Y31624D01*
G01X-27624Y31675D01*
G01X-27550Y31713D01*
G01X-27473Y31725D01*
G01X-26927Y31725D01*
G01X-26850Y31713D01*
G01X-26776Y31675D01*
G01X-26725Y31624D01*
G01X-26669Y31524D01*
G01X-26647Y31515D01*
G01X-26623Y31518D01*
G01X-26535Y31604D01*
G01X-26471Y31651D01*
G01X-26330Y31710D01*
G01X-25821Y32221D01*
G01X-25727Y32274D01*
G01X-25623Y32299D01*
G01X-24499Y32296D01*
G01X-24398Y32265D01*
G01X-24339Y32229D01*
G01X-24052Y31947D01*
G01X-23985Y31851D01*
G01X-23954Y31741D01*
G01X-23956Y28712D01*
G01X-23950Y28635D01*
G01X-23974Y28523D01*
G01X-24006Y28460D01*
G01X-24691Y26351D01*
G01X-25186Y26451D01*
G01X-25286Y26828D01*
G01X-25286Y26451D01*
G01X-25286Y26351D01*
G01X-25286Y25974D01*
G01X-25234Y25755D01*
G01X-25149Y25741D01*
G01X-25081Y25707D01*
G01X-25024Y25650D01*
G01X-24990Y25582D01*
G01X-24977Y25505D01*
G01X-24977Y25200D01*
G01X-24976Y25100D01*
G01X-24976Y24803D01*
G01X-24990Y24718D01*
G01X-25024Y24650D01*
G01X-25081Y24593D01*
G01X-25148Y24559D01*
G01X-25229Y24546D01*
G01X-25491Y24546D01*
G01X-25491Y25100D01*
G01X-24976Y25100D01*
G01X-24977Y25200D01*
G01X-25491Y25200D01*
G01X-25491Y25755D01*
G01X-25234Y25755D01*
G01X-25286Y25974D01*
G01X-25529Y25974D01*
G01X-25606Y25986D01*
G01X-25680Y26024D01*
G01X-25731Y26075D01*
G01X-25769Y26149D01*
G01X-25781Y26224D01*
G01X-25781Y26351D01*
G01X-25286Y26351D01*
G01X-25286Y26451D01*
G01X-25781Y26451D01*
G01X-25781Y26578D01*
G01X-25769Y26653D01*
G01X-25731Y26727D01*
G01X-25680Y26778D01*
G01X-25606Y26816D01*
G01X-25529Y26828D01*
G01X-25286Y26828D01*
G01X-25186Y26451D01*
G01X-25186Y26828D01*
G01X-24943Y26828D01*
G01X-24866Y26816D01*
G01X-24792Y26778D01*
G01X-24741Y26727D01*
G01X-24703Y26653D01*
G01X-24691Y26578D01*
G01X-24691Y26451D01*
G01X-25186Y26451D01*
G01X-24691Y26351D01*
G01X-24691Y26224D01*
G01X-24703Y26149D01*
G01X-24741Y26075D01*
G01X-24792Y26024D01*
G01X-24866Y25986D01*
G01X-24943Y25974D01*
G01X-25186Y25974D01*
G01X-25186Y26351D01*
G01X-24691Y26351D01*
G01X-24006Y28460D01*
G01X-24048Y28409D01*
G01X-24686Y27768D01*
G01X-24691Y27522D01*
G01X-24703Y27447D01*
G01X-24741Y27373D01*
G01X-24792Y27322D01*
G01X-24866Y27284D01*
G01X-24943Y27272D01*
G01X-25529Y27272D01*
G01X-25606Y27284D01*
G01X-25680Y27322D01*
G01X-25731Y27373D01*
G01X-25769Y27447D01*
G01X-25781Y27522D01*
G01X-25781Y27876D01*
G01X-25769Y27951D01*
G01X-25731Y28025D01*
G01X-25680Y28076D01*
G01X-25606Y28114D01*
G01X-25529Y28126D01*
G01X-25312Y28131D01*
G01X-24651Y28796D01*
G01X-25390Y30711D01*
G01X-25481Y30757D01*
G01X-25534Y30796D01*
G01X-25200Y31129D01*
G01X-24866Y30795D01*
G01X-24929Y30749D01*
G01X-25017Y30708D01*
G01X-25107Y30684D01*
G01X-25214Y30675D01*
G01X-25302Y30686D01*
G01X-25390Y30711D01*
G01X-24651Y28796D01*
G01X-24648Y30925D01*
G01X-24655Y30950D01*
G01X-24673Y30968D01*
G01X-24698Y30975D01*
G01X-24723Y30969D01*
G01X-24776Y30891D01*
G01X-24797Y30868D01*
G01X-25164Y31235D01*
G01X-25200Y31200D01*
G01X-25235Y31235D01*
G01X-25603Y30868D01*
G01X-25630Y30899D01*
G01X-25657Y30946D01*
G01X-25689Y30970D01*
G01X-25729Y30962D01*
G01X-25776Y30891D01*
G01X-25864Y30797D01*
G01X-25929Y30749D01*
G01X-26017Y30708D01*
G01X-26107Y30684D01*
G01X-26214Y30675D01*
G01X-26302Y30686D01*
G01X-26390Y30711D01*
G01X-26481Y30757D01*
G01X-26548Y30806D01*
G01X-26622Y30882D01*
G01X-26646Y30885D01*
G01X-26668Y30876D01*
G01X-26725Y30776D01*
G01X-26777Y30724D01*
G01X-26833Y30695D01*
G01X-26846Y30677D01*
G01X-26853Y28152D01*
G01X-26838Y28129D01*
G01X-26720Y28076D01*
G01X-26669Y28025D01*
G01X-26631Y27951D01*
G01X-26619Y27876D01*
G01X-26619Y27682D01*
G01X-26609Y27652D01*
G01X-26223Y27263D01*
G01X-26180Y27190D01*
G01X-26154Y27087D01*
G01X-26155Y25902D01*
G01X-26168Y25846D01*
G01X-26210Y25737D01*
G01X-26203Y25713D01*
G01X-26137Y25645D01*
G01X-26110Y25629D01*
G01X-26071Y25637D01*
G01X-26001Y25707D01*
G01X-25934Y25741D01*
G01X-25854Y25755D01*
G01X-25591Y25755D01*
G01X-25591Y24545D01*
G01X-25848Y24545D01*
G01X-25933Y24559D01*
G01X-26001Y24593D01*
G01X-26071Y24663D01*
G01X-26090Y24671D01*
G01X-26129Y24663D01*
G01X-26199Y24593D01*
G01X-26266Y24559D01*
G01X-26347Y24546D01*
G01X-26966Y24545D01*
G01X-27051Y24559D01*
G01X-27119Y24593D01*
G01X-27176Y24650D01*
G01X-27210Y24717D01*
G01X-27224Y24796D01*
G01X-27224Y25497D01*
G01X-27210Y25582D01*
G01X-27176Y25650D01*
G01X-27119Y25707D01*
G01X-27028Y25747D01*
G01X-27007Y25765D01*
G01X-26979Y25926D01*
G01X-26994Y25960D01*
G01X-27029Y25974D01*
G01X-27138Y25969D01*
G01X-29099Y24005D01*
G01X-29160Y23956D01*
G01X-29249Y23917D01*
G01X-29347Y23900D01*
G01X-29996Y23900D01*
G01X-30023Y23886D01*
G01X-31899Y21998D01*
G01X-31904Y21787D01*
G01X-31893Y21761D01*
G01X-31853Y21742D01*
G01X-31830Y21748D01*
G01X-31717Y21873D01*
G01X-30863Y22728D01*
G01X-29830Y23449D01*
G01X-28755Y23932D01*
G01X-27486Y24289D01*
G01X-26229Y24399D01*
G01X-24909Y24288D01*
G01X-23702Y23968D01*
G01X-22564Y23445D01*
G01X-21506Y22700D01*
G01X-20680Y21872D01*
G01X-19955Y20838D01*
G01X-19435Y19701D01*
G01X-19062Y18492D01*
G01X-18951Y17214D01*
G01X-19052Y15965D01*
G01X-19370Y14688D01*
G01X-19898Y13525D01*
G01X-20627Y12482D01*
G01X-21523Y11585D01*
G01X-22524Y10850D01*
G01X-23618Y10326D01*
G01X-24910Y10003D01*
G01X-26144Y09901D01*
G01X-27430Y09959D01*
G01X-28736Y10328D01*
G01X-29559Y07055D01*
G01X-29559Y06500D01*
G01X-29559Y06400D01*
G01X-29559Y05845D01*
G01X-29544Y05514D01*
G01X-29470Y05476D01*
G01X-29419Y05425D01*
G01X-29381Y05351D01*
G01X-29369Y05276D01*
G01X-29369Y05149D01*
G01X-29369Y05049D01*
G01X-29369Y04922D01*
G01X-29381Y04848D01*
G01X-29419Y04773D01*
G01X-29470Y04722D01*
G01X-29470Y04178D01*
G01X-29419Y04127D01*
G01X-29381Y04053D01*
G01X-29369Y03978D01*
G01X-29369Y03624D01*
G01X-29381Y03549D01*
G01X-29419Y03475D01*
G01X-29470Y03424D01*
G01X-29588Y02278D01*
G01X-28368Y01064D01*
G01X-28333Y01049D01*
G01X-27636Y01052D01*
G01X-27608Y01078D01*
G01X-27534Y01116D01*
G01X-27457Y01128D01*
G01X-26871Y01128D01*
G01X-26794Y01116D01*
G01X-26720Y01078D01*
G01X-26669Y01027D01*
G01X-25781Y00878D01*
G01X-25769Y00953D01*
G01X-25731Y01027D01*
G01X-25680Y01078D01*
G01X-25606Y01116D01*
G01X-25529Y01128D01*
G01X-25286Y01128D01*
G01X-25186Y01128D01*
G01X-24943Y01128D01*
G01X-24866Y01116D01*
G01X-24792Y01078D01*
G01X-24741Y01027D01*
G01X-24703Y00953D01*
G01X-24691Y00878D01*
G01X-24414Y-00824D01*
G01X-24792Y00324D01*
G01X-24514Y-00824D01*
G01X-24514Y-01201D01*
G01X-24414Y-01301D01*
G01X-24514Y-01301D01*
G01X-24514Y-01678D01*
G01X-24757Y-01678D01*
G01X-24834Y-01666D01*
G01X-24908Y-01628D01*
G01X-24959Y-01577D01*
G01X-24997Y-01503D01*
G01X-25009Y-01428D01*
G01X-25009Y-01301D01*
G01X-24514Y-01301D01*
G01X-24414Y-01301D01*
G01X-23919Y-01301D01*
G01X-23919Y-01428D01*
G01X-23931Y-01503D01*
G01X-23969Y-01577D01*
G01X-24020Y-01628D01*
G01X-24094Y-01666D01*
G01X-24171Y-01678D01*
G01X-24414Y-01678D01*
G01X-24414Y-01301D01*
G01X-24514Y-01201D01*
G01X-25009Y-01201D01*
G01X-25009Y-01074D01*
G01X-24997Y-00999D01*
G01X-24959Y-00925D01*
G01X-25606Y00286D01*
G01X-25680Y00324D01*
G01X-25732Y00376D01*
G01X-25769Y00449D01*
G01X-25781Y00527D01*
G01X-25781Y00650D01*
G01X-25286Y00650D01*
G01X-25286Y00274D01*
G01X-25529Y00274D01*
G01X-25606Y00286D01*
G01X-24959Y-00925D01*
G01X-24908Y-00874D01*
G01X-24834Y-00836D01*
G01X-24757Y-00824D01*
G01X-24514Y-00824D01*
G01X-24792Y00324D01*
G01X-24866Y00286D01*
G01X-24943Y00274D01*
G01X-25186Y00274D01*
G01X-25186Y00650D01*
G01X-24691Y00650D01*
G01X-24691Y00527D01*
G01X-24703Y00449D01*
G01X-24740Y00376D01*
G01X-24792Y00324D01*
G01X-24414Y-00824D01*
G01X-24171Y-00824D01*
G01X-24094Y-00836D01*
G01X-24020Y-00874D01*
G01X-23969Y-00925D01*
G01X-23931Y-00999D01*
G01X-23919Y-01074D01*
G01X-23919Y-01201D01*
G01X-24414Y-01201D01*
G01X-24414Y-00824D01*
G01X-24691Y00878D01*
G01X-24691Y00750D01*
G01X-25186Y00750D01*
G01X-25186Y01128D01*
G01X-25286Y01128D01*
G01X-25286Y00750D01*
G01X-25781Y00750D01*
G01X-25781Y00878D01*
G01X-26669Y01027D01*
G01X-26631Y00953D01*
G01X-26619Y00878D01*
G01X-26619Y00524D01*
G01X-26631Y00449D01*
G01X-26668Y00376D01*
G01X-26720Y00324D01*
G01X-26794Y00286D01*
G01X-26871Y00274D01*
G01X-27457Y00274D01*
G01X-27534Y00286D01*
G01X-27608Y00324D01*
G01X-27635Y00349D01*
G01X-28515Y00350D01*
G01X-29120Y-00974D01*
G01X-29069Y-01025D01*
G01X-29031Y-01099D01*
G01X-29019Y-01174D01*
G01X-29019Y-01301D01*
G01X-29019Y-01401D01*
G01X-29019Y-01528D01*
G01X-29031Y-01602D01*
G01X-29069Y-01677D01*
G01X-29120Y-02272D01*
G01X-29069Y-02323D01*
G01X-29032Y-02396D01*
G01X-29019Y-02472D01*
G01X-29019Y-02826D01*
G01X-29031Y-02899D01*
G01X-29068Y-02973D01*
G01X-29070Y-03013D01*
G01X-29043Y-03042D01*
G01X-28809Y-03043D01*
G01X-28809Y-03600D01*
G01X-29324Y-03600D01*
G01X-29324Y-03303D01*
G01X-29310Y-03218D01*
G01X-29274Y-03149D01*
G01X-29272Y-03109D01*
G01X-29299Y-03080D01*
G01X-29857Y-03076D01*
G01X-29934Y-03064D01*
G01X-30008Y-03026D01*
G01X-30036Y-03000D01*
G01X-32638Y-03000D01*
G01X-32668Y-03010D01*
G01X-33249Y-03595D01*
G01X-33310Y-03644D01*
G01X-33399Y-03683D01*
G01X-33497Y-03700D01*
G01X-34188Y-03698D01*
G01X-34213Y-03705D01*
G01X-34232Y-03724D01*
G01X-34274Y-03808D01*
G01X-34325Y-03859D01*
G01X-34399Y-03897D01*
G01X-34476Y-03909D01*
G01X-34826Y-03909D01*
G01X-34903Y-03897D01*
G01X-34977Y-03859D01*
G01X-35028Y-03808D01*
G01X-35066Y-03734D01*
G01X-35078Y-03659D01*
G01X-35078Y-03069D01*
G01X-35066Y-02994D01*
G01X-35028Y-02920D01*
G01X-34977Y-02869D01*
G01X-34977Y-01931D01*
G01X-35029Y-01879D01*
G01X-35066Y-01805D01*
G01X-35078Y-01731D01*
G01X-35078Y-01486D01*
G01X-35078Y-01386D01*
G01X-35078Y-01141D01*
G01X-35066Y-01066D01*
G01X-35028Y-00992D01*
G01X-34977Y-00941D01*
G01X-34903Y-00903D01*
G01X-34826Y-00891D01*
G01X-34701Y-00891D01*
G01X-34601Y-00891D01*
G01X-34476Y-00891D01*
G01X-34399Y-00903D01*
G01X-34325Y-00941D01*
G01X-34274Y-00992D01*
G01X-34236Y-01066D01*
G01X-34224Y-01141D01*
G01X-34224Y-01386D01*
G01X-34224Y-01486D01*
G01X-34224Y-01731D01*
G01X-34236Y-01805D01*
G01X-34273Y-01879D01*
G01X-34325Y-01931D01*
G01X-34399Y-01969D01*
G01X-34476Y-01981D01*
G01X-34601Y-01981D01*
G01X-34601Y-01486D01*
G01X-34224Y-01486D01*
G01X-34224Y-01386D01*
G01X-34601Y-01386D01*
G01X-34601Y-00891D01*
G01X-34701Y-00891D01*
G01X-34701Y-01386D01*
G01X-35078Y-01386D01*
G01X-35078Y-01486D01*
G01X-34701Y-01486D01*
G01X-34701Y-01981D01*
G01X-34826Y-01981D01*
G01X-34903Y-01969D01*
G01X-34977Y-01931D01*
G01X-34977Y-02869D01*
G01X-34903Y-02831D01*
G01X-34826Y-02819D01*
G01X-34476Y-02819D01*
G01X-34399Y-02831D01*
G01X-34325Y-02869D01*
G01X-34274Y-02920D01*
G01X-34240Y-02984D01*
G01X-34201Y-03002D01*
G01X-33642Y-02998D01*
G01X-33007Y-02368D01*
G01X-32942Y-02331D01*
G01X-32842Y-02304D01*
G01X-30109Y-01401D01*
G01X-30109Y-01301D01*
G01X-31586Y00274D01*
G01X-31486Y00274D01*
G01X-31486Y00650D01*
G01X-31586Y00750D01*
G01X-31486Y00750D01*
G01X-31486Y01128D01*
G01X-31243Y01128D01*
G01X-31166Y01116D01*
G01X-31092Y01078D01*
G01X-31041Y01027D01*
G01X-31003Y00953D01*
G01X-30991Y00878D01*
G01X-30991Y00750D01*
G01X-31486Y00750D01*
G01X-31586Y00750D01*
G01X-32081Y00750D01*
G01X-32081Y00878D01*
G01X-32069Y00953D01*
G01X-32031Y01027D01*
G01X-31980Y01078D01*
G01X-31906Y01116D01*
G01X-31829Y01128D01*
G01X-31586Y01128D01*
G01X-31586Y00750D01*
G01X-31486Y00650D01*
G01X-30991Y00650D01*
G01X-30991Y00527D01*
G01X-31003Y00449D01*
G01X-31040Y00376D01*
G01X-31092Y00324D01*
G01X-31166Y00286D01*
G01X-31243Y00274D01*
G01X-31486Y00274D01*
G01X-31586Y00274D01*
G01X-31829Y00274D01*
G01X-31906Y00286D01*
G01X-31980Y00324D01*
G01X-32032Y00376D01*
G01X-32069Y00449D01*
G01X-32081Y00527D01*
G01X-32081Y00650D01*
G01X-31586Y00650D01*
G01X-31586Y00274D01*
G01X-30109Y-01301D01*
G01X-30109Y-01174D01*
G01X-30097Y-01099D01*
G01X-30059Y-01025D01*
G01X-30008Y-00974D01*
G01X-29934Y-00936D01*
G01X-29857Y-00924D01*
G01X-29614Y-00924D01*
G01X-29614Y-01301D01*
G01X-30109Y-01301D01*
G01X-30109Y-01401D01*
G01X-29614Y-01401D01*
G01X-29614Y-01778D01*
G01X-29857Y-01778D01*
G01X-29934Y-01766D01*
G01X-30008Y-01728D01*
G01X-30059Y-01677D01*
G01X-30097Y-01602D01*
G01X-30109Y-01528D01*
G01X-30109Y-01401D01*
G01X-32842Y-02304D01*
G01X-30036Y-02298D01*
G01X-30008Y-02272D01*
G01X-29934Y-02234D01*
G01X-29857Y-02222D01*
G01X-29271Y-02222D01*
G01X-29194Y-02234D01*
G01X-29120Y-02272D01*
G01X-29069Y-01677D01*
G01X-29120Y-01728D01*
G01X-29194Y-01766D01*
G01X-29271Y-01778D01*
G01X-29514Y-01778D01*
G01X-29514Y-01401D01*
G01X-29019Y-01401D01*
G01X-29019Y-01301D01*
G01X-29514Y-01301D01*
G01X-29514Y-00924D01*
G01X-29271Y-00924D01*
G01X-29194Y-00936D01*
G01X-29120Y-00974D01*
G01X-28515Y00350D01*
G01X-28580Y00360D01*
G01X-28649Y00384D01*
G01X-28710Y00421D01*
G01X-29936Y01640D01*
G01X-29963Y01654D01*
G01X-31065Y01647D01*
G01X-31092Y01622D01*
G01X-31166Y01584D01*
G01X-31243Y01572D01*
G01X-31829Y01572D01*
G01X-31906Y01584D01*
G01X-31980Y01622D01*
G01X-32032Y01674D01*
G01X-32069Y01747D01*
G01X-32081Y01822D01*
G01X-32081Y02176D01*
G01X-32069Y02251D01*
G01X-32031Y02325D01*
G01X-31980Y02376D01*
G01X-31906Y02414D01*
G01X-31891Y02546D01*
G01X-31891Y03100D01*
G01X-31891Y03200D01*
G01X-31891Y03755D01*
G01X-31634Y03755D01*
G01X-31549Y03741D01*
G01X-31481Y03707D01*
G01X-31424Y03650D01*
G01X-31390Y03582D01*
G01X-31377Y03505D01*
G01X-31377Y03200D01*
G01X-31891Y03200D01*
G01X-31891Y03100D01*
G01X-31376Y03100D01*
G01X-31376Y02803D01*
G01X-31390Y02718D01*
G01X-31424Y02650D01*
G01X-31481Y02593D01*
G01X-31548Y02559D01*
G01X-31629Y02546D01*
G01X-31891Y02546D01*
G01X-31906Y02414D01*
G01X-31829Y02426D01*
G01X-31243Y02426D01*
G01X-31166Y02414D01*
G01X-31092Y02376D01*
G01X-31067Y02353D01*
G01X-29749Y02346D01*
G01X-29648Y02315D01*
G01X-29588Y02278D01*
G01X-29470Y03424D01*
G01X-29544Y03386D01*
G01X-29621Y03374D01*
G01X-30207Y03374D01*
G01X-30284Y03386D01*
G01X-30358Y03424D01*
G01X-30409Y03475D01*
G01X-30447Y03549D01*
G01X-30459Y03624D01*
G01X-30459Y03805D01*
G01X-30469Y03834D01*
G01X-30494Y03853D01*
G01X-31515Y03850D01*
G01X-31580Y03860D01*
G01X-31649Y03884D01*
G01X-31710Y03921D01*
G01X-32798Y05000D01*
G01X-34438Y05001D01*
G01X-34462Y04995D01*
G01X-34480Y04978D01*
G01X-34524Y04892D01*
G01X-34575Y04841D01*
G01X-34649Y04803D01*
G01X-34726Y04791D01*
G01X-35076Y04791D01*
G01X-35153Y04803D01*
G01X-35227Y04841D01*
G01X-35278Y04892D01*
G01X-35316Y04967D01*
G01X-35328Y05041D01*
G01X-35328Y05631D01*
G01X-35316Y05706D01*
G01X-35278Y05780D01*
G01X-35227Y05831D01*
G01X-35227Y06769D01*
G01X-35278Y06820D01*
G01X-35316Y06894D01*
G01X-35328Y06969D01*
G01X-35328Y07214D01*
G01X-35328Y07314D01*
G01X-35328Y07559D01*
G01X-35316Y07634D01*
G01X-35278Y07708D01*
G01X-35227Y07759D01*
G01X-35153Y07797D01*
G01X-35076Y07809D01*
G01X-34951Y07809D01*
G01X-34851Y07809D01*
G01X-34726Y07809D01*
G01X-34649Y07797D01*
G01X-34575Y07759D01*
G01X-34524Y07708D01*
G01X-34486Y07634D01*
G01X-34474Y07559D01*
G01X-34474Y07314D01*
G01X-34474Y07214D01*
G01X-34474Y06969D01*
G01X-34486Y06894D01*
G01X-34524Y06820D01*
G01X-34575Y06769D01*
G01X-34649Y06731D01*
G01X-34726Y06719D01*
G01X-34851Y06719D01*
G01X-34851Y07214D01*
G01X-34474Y07214D01*
G01X-34474Y07314D01*
G01X-34851Y07314D01*
G01X-34851Y07809D01*
G01X-34951Y07809D01*
G01X-34951Y07314D01*
G01X-35328Y07314D01*
G01X-35328Y07214D01*
G01X-34951Y07214D01*
G01X-34951Y06719D01*
G01X-35076Y06719D01*
G01X-35153Y06731D01*
G01X-35227Y06769D01*
G01X-35227Y05831D01*
G01X-35153Y05869D01*
G01X-35076Y05881D01*
G01X-34726Y05881D01*
G01X-34649Y05869D01*
G01X-34575Y05831D01*
G01X-34524Y05780D01*
G01X-34496Y05725D01*
G01X-34462Y05699D01*
G01X-32599Y05696D01*
G01X-32498Y05665D01*
G01X-32438Y05628D01*
G01X-30409Y05425D01*
G01X-30358Y05476D01*
G01X-30284Y05514D01*
G01X-30207Y05526D01*
G01X-29964Y05526D01*
G01X-29964Y05149D01*
G01X-29964Y05049D01*
G01X-29964Y04672D01*
G01X-30207Y04672D01*
G01X-30284Y04684D01*
G01X-30358Y04722D01*
G01X-30409Y04773D01*
G01X-30447Y04848D01*
G01X-30459Y04922D01*
G01X-30459Y05049D01*
G01X-29964Y05049D01*
G01X-29964Y05149D01*
G01X-30459Y05149D01*
G01X-30459Y05276D01*
G01X-30447Y05351D01*
G01X-30409Y05425D01*
G01X-32438Y05628D01*
G01X-31368Y04564D01*
G01X-31341Y04550D01*
G01X-30267Y04547D01*
G01X-30179Y04528D01*
G01X-30119Y04499D01*
G01X-30064Y04457D01*
G01X-29837Y04233D01*
G01X-29621Y04228D01*
G01X-29544Y04216D01*
G01X-29470Y04178D01*
G01X-29470Y04722D01*
G01X-29544Y04684D01*
G01X-29621Y04672D01*
G01X-29864Y04672D01*
G01X-29864Y05049D01*
G01X-29369Y05049D01*
G01X-29369Y05149D01*
G01X-29864Y05149D01*
G01X-29864Y05526D01*
G01X-29621Y05526D01*
G01X-29544Y05514D01*
G01X-29559Y05845D01*
G01X-29816Y05845D01*
G01X-29901Y05859D01*
G01X-29969Y05893D01*
G01X-30026Y05950D01*
G01X-30060Y06017D01*
G01X-30074Y06096D01*
G01X-30074Y06400D01*
G01X-29559Y06400D01*
G01X-29559Y06500D01*
G01X-30074Y06500D01*
G01X-30074Y06797D01*
G01X-30060Y06882D01*
G01X-30026Y06950D01*
G01X-29969Y07007D01*
G01X-29902Y07041D01*
G01X-29822Y07055D01*
G01X-29559Y07055D01*
G01X-28736Y10328D01*
G01X-29818Y10844D01*
G01X-30863Y11572D01*
G01X-31765Y12473D01*
G01X-32487Y13500D01*
G01X-33028Y14632D01*
G01X-33305Y15583D01*
G01X-33320Y15607D01*
G01X-33346Y15618D01*
G01X-33374Y15615D01*
G01X-33395Y15596D01*
G01X-33403Y15569D01*
G01X-33406Y10912D01*
G01X-33400Y10836D01*
G01X-33408Y10781D01*
G01X-33431Y10709D01*
G01X-33455Y10663D01*
G01X-35846Y08256D01*
G01X-35848Y07736D01*
G01X-35822Y07708D01*
G01X-35784Y07634D01*
G01X-35772Y07559D01*
G01X-35772Y06969D01*
G01X-35784Y06894D01*
G01X-35822Y06820D01*
G01X-35873Y06769D01*
G01X-35947Y06731D01*
G01X-36024Y06719D01*
G01X-36374Y06719D01*
G01X-36451Y06731D01*
G01X-36525Y06769D01*
G01X-36576Y06820D01*
G01X-36846Y06809D01*
G01X-37400Y06809D01*
G01X-37400Y07324D01*
G01X-37103Y07324D01*
G01X-37018Y07310D01*
G01X-36950Y07276D01*
G01X-36893Y07219D01*
G01X-36859Y07151D01*
G01X-36846Y07074D01*
G01X-36846Y06809D01*
G01X-36576Y06820D01*
G01X-36614Y06894D01*
G01X-36626Y06969D01*
G01X-36626Y07559D01*
G01X-36614Y07634D01*
G01X-36549Y07742D01*
G01X-36549Y08412D01*
G01X-36539Y08487D01*
G01X-36516Y08547D01*
G01X-36473Y08618D01*
G01X-34098Y11005D01*
G01X-34101Y11717D01*
G01X-34138Y11743D01*
G01X-34161Y11742D01*
G01X-38046Y07856D01*
G01X-38048Y07271D01*
G01X-38011Y07245D01*
G01X-37988Y07246D01*
G01X-37950Y07276D01*
G01X-37883Y07310D01*
G01X-37803Y07324D01*
G01X-37500Y07324D01*
G01X-37500Y06759D01*
G01X-37450Y06759D01*
G01X-37450Y06709D01*
G01X-36845Y06709D01*
G01X-36845Y06452D01*
G01X-36859Y06367D01*
G01X-36892Y06300D01*
G01X-36963Y06229D01*
G01X-36971Y06210D01*
G01X-36963Y06171D01*
G01X-36893Y06101D01*
G01X-36859Y06033D01*
G01X-36846Y05956D01*
G01X-36846Y05748D01*
G01X-36837Y05719D01*
G01X-36812Y05701D01*
G01X-36649Y05697D01*
G01X-36610Y05715D01*
G01X-36577Y05779D01*
G01X-36525Y05831D01*
G01X-36451Y05869D01*
G01X-36374Y05881D01*
G01X-36024Y05881D01*
G01X-35947Y05869D01*
G01X-35873Y05831D01*
G01X-35822Y05780D01*
G01X-35784Y05706D01*
G01X-35772Y05631D01*
G01X-35772Y05041D01*
G01X-35784Y04967D01*
G01X-35822Y04892D01*
G01X-35849Y04863D01*
G01X-35852Y04750D01*
G01X-34606Y03504D01*
G01X-33667Y03497D01*
G01X-33640Y03505D01*
G01X-33622Y03525D01*
G01X-33610Y03583D01*
G01X-33576Y03650D01*
G01X-33519Y03707D01*
G01X-33452Y03741D01*
G01X-33372Y03755D01*
G01X-32752Y03755D01*
G01X-32667Y03741D01*
G01X-32599Y03707D01*
G01X-32529Y03637D01*
G01X-32510Y03629D01*
G01X-32471Y03637D01*
G01X-32401Y03707D01*
G01X-32334Y03741D01*
G01X-32254Y03755D01*
G01X-31991Y03755D01*
G01X-31991Y02545D01*
G01X-32248Y02545D01*
G01X-32333Y02559D01*
G01X-32401Y02593D01*
G01X-32471Y02663D01*
G01X-32490Y02671D01*
G01X-32529Y02663D01*
G01X-32599Y02593D01*
G01X-32666Y02559D01*
G01X-32747Y02546D01*
G01X-33052Y02546D01*
G01X-33081Y02536D01*
G01X-33100Y02511D01*
G01X-33102Y02449D01*
G01X-33084Y02410D01*
G01X-33020Y02376D01*
G01X-32969Y02325D01*
G01X-32931Y02251D01*
G01X-32919Y02176D01*
G01X-32919Y01822D01*
G01X-32931Y01747D01*
G01X-32968Y01674D01*
G01X-33020Y01622D01*
G01X-33094Y01584D01*
G01X-33171Y01572D01*
G01X-33757Y01572D01*
G01X-33834Y01584D01*
G01X-33908Y01622D01*
G01X-33960Y01674D01*
G01X-33997Y01747D01*
G01X-34009Y01822D01*
G01X-34009Y02176D01*
G01X-33997Y02251D01*
G01X-33959Y02325D01*
G01X-33908Y02376D01*
G01X-33813Y02426D01*
G01X-33800Y02449D01*
G01X-33799Y02753D01*
G01X-33809Y02783D01*
G01X-33834Y02801D01*
G01X-34765Y02800D01*
G01X-34830Y02810D01*
G01X-34899Y02834D01*
G01X-34960Y02871D01*
G01X-36455Y04360D01*
G01X-36499Y04418D01*
G01X-36542Y04526D01*
G01X-37000Y-01377D01*
G01X-37000Y-01891D01*
G01X-37555Y-01891D01*
G01X-37555Y-01634D01*
G01X-37541Y-01549D01*
G01X-37507Y-01481D01*
G01X-37450Y-01424D01*
G01X-37382Y-01390D01*
G01X-37303Y-01377D01*
G01X-37000Y-01377D01*
G01X-36542Y04526D01*
G01X-36549Y04859D01*
G01X-36625Y04987D01*
G01X-36649Y05001D01*
G01X-37165Y05000D01*
G01X-37230Y05010D01*
G01X-37299Y05034D01*
G01X-37373Y05076D01*
G01X-37797Y05076D01*
G01X-37882Y05090D01*
G01X-37950Y05124D01*
G01X-37986Y05152D01*
G01X-38009Y05153D01*
G01X-38046Y05127D01*
G01X-38056Y-02338D01*
G01X-38050Y-02415D01*
G01X-38058Y-02469D01*
G01X-38080Y-02538D01*
G01X-38140Y-02637D01*
G01X-38141Y-02660D01*
G01X-38115Y-02697D01*
G01X-37590Y-02703D01*
G01X-37566Y-02697D01*
G01X-37548Y-02680D01*
G01X-37507Y-02599D01*
G01X-37437Y-02529D01*
G01X-37429Y-02510D01*
G01X-37437Y-02471D01*
G01X-37507Y-02401D01*
G01X-37541Y-02333D01*
G01X-37555Y-02256D01*
G01X-37555Y-01991D01*
G01X-36950Y-01991D01*
G01X-36950Y-01941D01*
G01X-36900Y-01941D01*
G01X-36900Y-01376D01*
G01X-36603Y-01376D01*
G01X-36518Y-01390D01*
G01X-36448Y-01425D01*
G01X-36409Y-01427D01*
G01X-36380Y-01400D01*
G01X-36376Y-01141D01*
G01X-36364Y-01066D01*
G01X-36326Y-00992D01*
G01X-36303Y-00967D01*
G01X-36299Y-00747D01*
G01X-36289Y-00663D01*
G01X-36270Y-00612D01*
G01X-36232Y-00545D01*
G01X-34707Y00982D01*
G01X-34642Y01019D01*
G01X-34542Y01046D01*
G01X-33936Y01052D01*
G01X-33908Y01078D01*
G01X-33834Y01116D01*
G01X-33757Y01128D01*
G01X-33171Y01128D01*
G01X-33094Y01116D01*
G01X-33020Y01078D01*
G01X-32969Y01027D01*
G01X-32931Y00953D01*
G01X-32919Y00878D01*
G01X-32919Y00524D01*
G01X-32931Y00449D01*
G01X-32968Y00376D01*
G01X-33020Y00324D01*
G01X-33094Y00286D01*
G01X-33171Y00274D01*
G01X-33757Y00274D01*
G01X-33834Y00286D01*
G01X-33942Y00351D01*
G01X-34346Y00350D01*
G01X-34373Y00336D01*
G01X-35598Y-00900D01*
G01X-35602Y-00948D01*
G01X-35534Y-01066D01*
G01X-35522Y-01141D01*
G01X-35522Y-01731D01*
G01X-35534Y-01805D01*
G01X-35571Y-01879D01*
G01X-35623Y-01931D01*
G01X-35697Y-01969D01*
G01X-35774Y-01981D01*
G01X-36124Y-01981D01*
G01X-36201Y-01969D01*
G01X-36273Y-01932D01*
G01X-36313Y-01930D01*
G01X-36342Y-01957D01*
G01X-36345Y-02248D01*
G01X-36359Y-02333D01*
G01X-36393Y-02401D01*
G01X-36463Y-02471D01*
G01X-36471Y-02490D01*
G01X-36463Y-02529D01*
G01X-36393Y-02599D01*
G01X-36355Y-02677D01*
G01X-36336Y-02697D01*
G01X-36310Y-02704D01*
G01X-36235Y-02700D01*
G01X-36184Y-02708D01*
G01X-36083Y-02744D01*
G01X-35991Y-02813D01*
G01X-35774Y-02819D01*
G01X-35697Y-02831D01*
G01X-35623Y-02869D01*
G01X-35572Y-02920D01*
G01X-35534Y-02994D01*
G01X-35522Y-03069D01*
G01X-35522Y-03659D01*
G01X-35534Y-03734D01*
G01X-35572Y-03808D01*
G01X-35623Y-03859D01*
G01X-35697Y-03897D01*
G01X-35774Y-03909D01*
G01X-36124Y-03909D01*
G01X-36201Y-03897D01*
G01X-36275Y-03859D01*
G01X-36326Y-03808D01*
G01X-36364Y-03734D01*
G01X-36376Y-03620D01*
G01X-36392Y-03584D01*
G01X-36429Y-03570D01*
G01X-36517Y-03610D01*
G01X-36598Y-03624D01*
G01X-37303Y-03624D01*
G01X-37383Y-03610D01*
G01X-37450Y-03576D01*
G01X-37507Y-03519D01*
G01X-37556Y-03413D01*
G01X-37579Y-03398D01*
G01X-38889Y-03400D01*
G01X-38919Y-03410D01*
G01X-39736Y-04232D01*
G01X-39750Y-04258D01*
G01X-39748Y-04322D01*
G01X-39734Y-04339D01*
G01X-39670Y-04374D01*
G01X-39619Y-04425D01*
G01X-39581Y-04499D01*
G01X-39569Y-04574D01*
G01X-39567Y-04834D01*
G01X-39277Y-05132D01*
G01X-39235Y-05199D01*
G01X-39209Y-05273D01*
G01X-39200Y-05335D01*
G01X-38630Y-05672D01*
G01X-38556Y-05634D01*
G01X-38479Y-05622D01*
G01X-38236Y-05622D01*
G01X-38136Y-05622D01*
G01X-37893Y-05622D01*
G01X-37816Y-05634D01*
G01X-37742Y-05672D01*
G01X-37691Y-05723D01*
G01X-37653Y-05797D01*
G01X-37641Y-05872D01*
G01X-37641Y-05999D01*
G01X-37641Y-06099D01*
G01X-37641Y-06226D01*
G01X-37653Y-06299D01*
G01X-37691Y-06375D01*
G01X-37742Y-06426D01*
G01X-37816Y-06464D01*
G01X-38090Y-06967D01*
G01X-38077Y-07046D01*
G01X-38077Y-07350D01*
G01X-38076Y-07450D01*
G01X-38076Y-07747D01*
G01X-38090Y-07832D01*
G01X-38124Y-07900D01*
G01X-38181Y-07957D01*
G01X-38248Y-07991D01*
G01X-38329Y-08005D01*
G01X-38591Y-08007D01*
G01X-38591Y-07450D01*
G01X-38076Y-07450D01*
G01X-38077Y-07350D01*
G01X-38591Y-07350D01*
G01X-38591Y-06795D01*
G01X-38556Y-06464D01*
G01X-38630Y-06426D01*
G01X-38681Y-06375D01*
G01X-38719Y-06299D01*
G01X-38731Y-06226D01*
G01X-38731Y-06099D01*
G01X-38236Y-06099D01*
G01X-38236Y-06476D01*
G01X-38479Y-06476D01*
G01X-38556Y-06464D01*
G01X-38591Y-06795D01*
G01X-38334Y-06795D01*
G01X-38249Y-06809D01*
G01X-38181Y-06843D01*
G01X-38124Y-06900D01*
G01X-38090Y-06967D01*
G01X-37816Y-06464D01*
G01X-37893Y-06476D01*
G01X-38136Y-06476D01*
G01X-38136Y-06099D01*
G01X-37641Y-06099D01*
G01X-37641Y-05999D01*
G01X-38136Y-05999D01*
G01X-38136Y-05622D01*
G01X-38236Y-05622D01*
G01X-38236Y-05999D01*
G01X-38731Y-05999D01*
G01X-38731Y-05872D01*
G01X-38719Y-05797D01*
G01X-38681Y-05723D01*
G01X-38630Y-05672D01*
G01X-39200Y-05335D01*
G01X-39200Y-06849D01*
G01X-39163Y-06875D01*
G01X-39140Y-06874D01*
G01X-39101Y-06843D01*
G01X-39033Y-06809D01*
G01X-38954Y-06796D01*
G01X-38691Y-06796D01*
G01X-38691Y-08007D01*
G01X-38643Y-08007D01*
G01X-38957Y-08010D01*
G01X-38983Y-08047D01*
G01X-38982Y-08070D01*
G01X-36956Y-10096D01*
G01X-34417Y-10103D01*
G01X-34390Y-10095D01*
G01X-34372Y-10075D01*
G01X-34360Y-10017D01*
G01X-34326Y-09950D01*
G01X-34268Y-09892D01*
G01X-34201Y-09859D01*
G01X-34122Y-09846D01*
G01X-33991Y-09844D01*
G01X-33971Y-09831D01*
G01X-33890Y-09741D01*
G01X-33889Y-09718D01*
G01X-33898Y-09696D01*
G01X-33915Y-09681D01*
G01X-34407Y-09676D01*
G01X-34484Y-09664D01*
G01X-34558Y-09626D01*
G01X-34610Y-09574D01*
G01X-34647Y-09501D01*
G01X-34664Y-09329D01*
G01X-36995Y-07000D01*
G01X-37042Y-06941D01*
G01X-37092Y-06824D01*
G01X-37101Y-05547D01*
G01X-37540Y-05105D01*
G01X-37569Y-05096D01*
G01X-37713Y-05101D01*
G01X-37742Y-05128D01*
G01X-37816Y-05166D01*
G01X-37893Y-05178D01*
G01X-38479Y-05178D01*
G01X-38556Y-05166D01*
G01X-38630Y-05128D01*
G01X-38681Y-05077D01*
G01X-38719Y-05001D01*
G01X-38731Y-04928D01*
G01X-38731Y-04574D01*
G01X-38719Y-04499D01*
G01X-38681Y-04425D01*
G01X-38630Y-04374D01*
G01X-38556Y-04336D01*
G01X-38479Y-04324D01*
G01X-37893Y-04324D01*
G01X-37816Y-04336D01*
G01X-37742Y-04374D01*
G01X-37716Y-04398D01*
G01X-37385Y-04400D01*
G01X-37334Y-04408D01*
G01X-37233Y-04444D01*
G01X-37179Y-04481D01*
G01X-36480Y-05180D01*
G01X-36454Y-05218D01*
G01X-36409Y-05322D01*
G01X-36400Y-05385D01*
G01X-36400Y-06608D01*
G01X-34708Y-08298D01*
G01X-34684Y-08312D01*
G01X-34656Y-08310D01*
G01X-34634Y-08294D01*
G01X-34623Y-08268D01*
G01X-34647Y-08203D01*
G01X-34659Y-08128D01*
G01X-34659Y-07774D01*
G01X-34647Y-07699D01*
G01X-34609Y-07625D01*
G01X-34558Y-07574D01*
G01X-34463Y-07525D01*
G01X-34449Y-07502D01*
G01X-34449Y-05792D01*
G01X-34439Y-05715D01*
G01X-34419Y-05659D01*
G01X-34377Y-05588D01*
G01X-32712Y-03923D01*
G01X-32647Y-03883D01*
G01X-32577Y-03859D01*
G01X-32503Y-03850D01*
G01X-32341Y-03850D01*
G01X-32234Y-03786D01*
G01X-32157Y-03774D01*
G01X-31571Y-03774D01*
G01X-31494Y-03786D01*
G01X-31420Y-03824D01*
G01X-31369Y-03875D01*
G01X-31332Y-03948D01*
G01X-31319Y-04024D01*
G01X-31319Y-04378D01*
G01X-31331Y-04457D01*
G01X-31327Y-04475D01*
G01X-31076Y-04734D01*
G01X-31033Y-04802D01*
G01X-31009Y-04871D01*
G01X-31000Y-04935D01*
G01X-30481Y-05549D01*
G01X-29986Y-05549D01*
G01X-29886Y-05549D01*
G01X-29390Y-05549D01*
G01X-29391Y-05676D01*
G01X-29403Y-05750D01*
G01X-29441Y-05825D01*
G01X-29492Y-05876D01*
G01X-29877Y-06600D01*
G01X-29876Y-06700D01*
G01X-29876Y-06997D01*
G01X-29890Y-07082D01*
G01X-29924Y-07150D01*
G01X-29981Y-07207D01*
G01X-30048Y-07241D01*
G01X-30129Y-07255D01*
G01X-30391Y-07255D01*
G01X-30391Y-06700D01*
G01X-29876Y-06700D01*
G01X-29877Y-06600D01*
G01X-30391Y-06600D01*
G01X-30391Y-06045D01*
G01X-30134Y-06045D01*
G01X-30049Y-06059D01*
G01X-29981Y-06093D01*
G01X-29924Y-06150D01*
G01X-29890Y-06217D01*
G01X-29877Y-06296D01*
G01X-29877Y-06600D01*
G01X-29492Y-05876D01*
G01X-29566Y-05914D01*
G01X-29643Y-05926D01*
G01X-29886Y-05926D01*
G01X-29886Y-05549D01*
G01X-29986Y-05549D01*
G01X-29986Y-05926D01*
G01X-30229Y-05926D01*
G01X-30306Y-05914D01*
G01X-30380Y-05876D01*
G01X-30431Y-05825D01*
G01X-30469Y-05750D01*
G01X-30481Y-05676D01*
G01X-30481Y-05549D01*
G01X-31000Y-04935D01*
G01X-30999Y-06098D01*
G01X-30962Y-06124D01*
G01X-30939Y-06123D01*
G01X-30901Y-06093D01*
G01X-30833Y-06059D01*
G01X-30754Y-06046D01*
G01X-30491Y-06046D01*
G01X-30491Y-07255D01*
G01X-30754Y-07255D01*
G01X-30834Y-07241D01*
G01X-30901Y-07207D01*
G01X-30971Y-07137D01*
G01X-30990Y-07129D01*
G01X-31029Y-07137D01*
G01X-31099Y-07207D01*
G01X-31166Y-07241D01*
G01X-31247Y-07255D01*
G01X-31872Y-07255D01*
G01X-31952Y-07241D01*
G01X-32019Y-07207D01*
G01X-32076Y-07150D01*
G01X-32110Y-07083D01*
G01X-32124Y-07005D01*
G01X-32124Y-06303D01*
G01X-32110Y-06218D01*
G01X-32076Y-06150D01*
G01X-32019Y-06093D01*
G01X-31951Y-06059D01*
G01X-31872Y-06046D01*
G01X-31747Y-06046D01*
G01X-31718Y-06036D01*
G01X-31699Y-06011D01*
G01X-31697Y-05976D01*
G01X-31707Y-05947D01*
G01X-31732Y-05928D01*
G01X-32157Y-05926D01*
G01X-32250Y-05912D01*
G01X-32268Y-05916D01*
G01X-32299Y-05949D01*
G01X-32305Y-07333D01*
G01X-32295Y-07363D01*
G01X-32135Y-07519D01*
G01X-31893Y-07524D01*
G01X-31816Y-07536D01*
G01X-31742Y-07574D01*
G01X-31691Y-07625D01*
G01X-31653Y-07699D01*
G01X-31641Y-07774D01*
G01X-31641Y-08128D01*
G01X-31653Y-08203D01*
G01X-31653Y-08997D01*
G01X-31641Y-09072D01*
G01X-31641Y-09199D01*
G01X-31641Y-09299D01*
G01X-31641Y-09426D01*
G01X-31653Y-09501D01*
G01X-31690Y-09574D01*
G01X-31742Y-09626D01*
G01X-31816Y-09664D01*
G01X-32140Y-10017D01*
G01X-32127Y-10096D01*
G01X-32124Y-10400D01*
G01X-32641Y-10400D01*
G01X-32641Y-09844D01*
G01X-32630Y-09626D01*
G01X-32682Y-09574D01*
G01X-32719Y-09501D01*
G01X-32731Y-09426D01*
G01X-32731Y-09299D01*
G01X-32731Y-09199D01*
G01X-32731Y-09072D01*
G01X-32719Y-08997D01*
G01X-32681Y-08923D01*
G01X-32630Y-08872D01*
G01X-32556Y-08834D01*
G01X-32479Y-08822D01*
G01X-32236Y-08822D01*
G01X-32236Y-09199D01*
G01X-32731Y-09199D01*
G01X-32731Y-09299D01*
G01X-32236Y-09299D01*
G01X-32236Y-09676D01*
G01X-32479Y-09676D01*
G01X-32556Y-09664D01*
G01X-32630Y-09626D01*
G01X-32641Y-09844D01*
G01X-32384Y-09845D01*
G01X-32299Y-09859D01*
G01X-32232Y-09892D01*
G01X-32174Y-09950D01*
G01X-32140Y-10017D01*
G01X-31816Y-09664D01*
G01X-31893Y-09676D01*
G01X-32136Y-09676D01*
G01X-32136Y-09299D01*
G01X-31641Y-09299D01*
G01X-31641Y-09199D01*
G01X-32136Y-09199D01*
G01X-32136Y-08822D01*
G01X-31893Y-08822D01*
G01X-31816Y-08834D01*
G01X-31742Y-08872D01*
G01X-31691Y-08923D01*
G01X-31653Y-08997D01*
G01X-31653Y-08203D01*
G01X-31690Y-08276D01*
G01X-31742Y-08328D01*
G01X-31816Y-08366D01*
G01X-31893Y-08378D01*
G01X-32479Y-08378D01*
G01X-32556Y-08366D01*
G01X-32630Y-08328D01*
G01X-32682Y-08276D01*
G01X-32719Y-08203D01*
G01X-32731Y-08128D01*
G01X-32733Y-07917D01*
G01X-32934Y-07705D01*
G01X-32970Y-07641D01*
G01X-32996Y-07549D01*
G01X-32999Y-05792D01*
G01X-32989Y-05715D01*
G01X-32969Y-05659D01*
G01X-32927Y-05588D01*
G01X-32597Y-05252D01*
G01X-32553Y-05216D01*
G01X-32492Y-05181D01*
G01X-32343Y-05148D01*
G01X-32234Y-05084D01*
G01X-32157Y-05072D01*
G01X-31818Y-05067D01*
G01X-31800Y-05051D01*
G01X-31792Y-05030D01*
G01X-31794Y-05006D01*
G01X-31806Y-04986D01*
G01X-32105Y-04690D01*
G01X-32149Y-04636D01*
G01X-32233Y-04616D01*
G01X-32340Y-04559D01*
G01X-32371Y-04563D01*
G01X-33748Y-05950D01*
G01X-33755Y-07500D01*
G01X-33737Y-07539D01*
G01X-33671Y-07573D01*
G01X-33619Y-07625D01*
G01X-33581Y-07699D01*
G01X-33569Y-07774D01*
G01X-33567Y-07984D01*
G01X-33123Y-08437D01*
G01X-33083Y-08504D01*
G01X-33059Y-08573D01*
G01X-33050Y-08635D01*
G01X-33055Y-09694D01*
G01X-33048Y-09821D01*
G01X-33022Y-09843D01*
G01X-32741Y-09844D01*
G01X-32741Y-10450D01*
G01X-32691Y-10450D01*
G01X-32691Y-10500D01*
G01X-32123Y-10500D01*
G01X-32123Y-10441D01*
G01X-32122Y-10589D01*
G01X-32085Y-10615D01*
G01X-32062Y-10614D01*
G01X-28408Y-06969D01*
G01X-28342Y-06931D01*
G01X-28242Y-06904D01*
G01X-27142Y-06898D01*
G01X-27040Y-06798D01*
G01X-27025Y-06765D01*
G01X-27038Y-06730D01*
G01X-27125Y-06681D01*
G01X-27176Y-06630D01*
G01X-27214Y-06556D01*
G01X-27226Y-06481D01*
G01X-27231Y-06262D01*
G01X-28198Y-05300D01*
G01X-29341Y-05299D01*
G01X-29370Y-05309D01*
G01X-29389Y-05334D01*
G01X-29390Y-05449D01*
G01X-30481Y-05449D01*
G01X-30481Y-05322D01*
G01X-30469Y-05247D01*
G01X-30431Y-05173D01*
G01X-30380Y-05122D01*
G01X-30306Y-05084D01*
G01X-30119Y-05066D01*
G01X-30101Y-05051D01*
G01X-30093Y-05029D01*
G01X-30095Y-05006D01*
G01X-30235Y-04853D01*
G01X-30279Y-04768D01*
G01X-30300Y-04649D01*
G01X-30318Y-04611D01*
G01X-30380Y-04578D01*
G01X-30431Y-04527D01*
G01X-30469Y-04453D01*
G01X-30481Y-04378D01*
G01X-30481Y-04024D01*
G01X-30468Y-03948D01*
G01X-30431Y-03875D01*
G01X-30380Y-03824D01*
G01X-30306Y-03786D01*
G01X-30229Y-03774D01*
G01X-29643Y-03774D01*
G01X-29566Y-03786D01*
G01X-29492Y-03824D01*
G01X-29441Y-03875D01*
G01X-29401Y-03938D01*
G01X-29376Y-03946D01*
G01X-29350Y-03940D01*
G01X-29331Y-03922D01*
G01X-29324Y-03896D01*
G01X-29324Y-03700D01*
G01X-28809Y-03700D01*
G01X-28809Y-04255D01*
G01X-29072Y-04255D01*
G01X-29152Y-04241D01*
G01X-29219Y-04207D01*
G01X-29276Y-04150D01*
G01X-29296Y-04109D01*
G01X-29314Y-04090D01*
G01X-29339Y-04082D01*
G01X-29365Y-04088D01*
G01X-29384Y-04107D01*
G01X-29391Y-04132D01*
G01X-29391Y-04378D01*
G01X-29403Y-04453D01*
G01X-29441Y-04528D01*
G01X-29444Y-04568D01*
G01X-29417Y-04597D01*
G01X-27999Y-04604D01*
G01X-27898Y-04635D01*
G01X-27838Y-04672D01*
G01X-26880Y-05626D01*
G01X-26845Y-05641D01*
G01X-26598Y-05636D01*
G01X-26572Y-05599D01*
G01X-26573Y-05575D01*
G01X-27896Y-04257D01*
G01X-28034Y-04241D01*
G01X-28101Y-04207D01*
G01X-28171Y-04137D01*
G01X-28190Y-04129D01*
G01X-28229Y-04137D01*
G01X-28299Y-04207D01*
G01X-28366Y-04241D01*
G01X-28447Y-04255D01*
G01X-28709Y-04255D01*
G01X-28709Y-03044D01*
G01X-28452Y-03045D01*
G01X-28367Y-03059D01*
G01X-28299Y-03093D01*
G01X-28229Y-03163D01*
G01X-28210Y-03171D01*
G01X-28171Y-03163D01*
G01X-28079Y-03068D01*
G01X-28080Y-03031D01*
G01X-28132Y-02974D01*
G01X-28169Y-02899D01*
G01X-28181Y-02826D01*
G01X-28181Y-02472D01*
G01X-28168Y-02396D01*
G01X-28131Y-02323D01*
G01X-28080Y-02272D01*
G01X-28006Y-02234D01*
G01X-27929Y-02222D01*
G01X-27343Y-02222D01*
G01X-27266Y-02234D01*
G01X-27192Y-02272D01*
G01X-27141Y-02323D01*
G01X-27104Y-02396D01*
G01X-27091Y-02472D01*
G01X-27091Y-02826D01*
G01X-27103Y-02899D01*
G01X-27140Y-02974D01*
G01X-27185Y-03019D01*
G01X-27199Y-03046D01*
G01X-27194Y-03077D01*
G01X-27124Y-03150D01*
G01X-27090Y-03217D01*
G01X-27077Y-03296D01*
G01X-25224Y-03650D01*
G01X-24709Y-03650D01*
G01X-24709Y-04205D01*
G01X-24972Y-04205D01*
G01X-25052Y-04191D01*
G01X-25119Y-04157D01*
G01X-25177Y-04099D01*
G01X-25210Y-04032D01*
G01X-25224Y-03955D01*
G01X-25224Y-03650D01*
G01X-27077Y-03296D01*
G01X-27076Y-03996D01*
G01X-27085Y-04055D01*
G01X-27081Y-04074D01*
G01X-25517Y-05636D01*
G01X-25326Y-05641D01*
G01X-25249Y-05653D01*
G01X-25175Y-05691D01*
G01X-25124Y-05742D01*
G01X-25086Y-05816D01*
G01X-25074Y-05891D01*
G01X-25074Y-06113D01*
G01X-25059Y-06148D01*
G01X-24899Y-06300D01*
G01X-24828Y-06300D01*
G01X-24804Y-06285D01*
G01X-24757Y-06181D01*
G01X-24700Y-06124D01*
G01X-24633Y-06090D01*
G01X-24564Y-06072D01*
G01X-24549Y-06048D01*
G01X-24549Y-05193D01*
G01X-24539Y-05117D01*
G01X-24519Y-05059D01*
G01X-24473Y-04982D01*
G01X-23902Y-04405D01*
G01X-23897Y-04240D01*
G01X-23903Y-04216D01*
G01X-23920Y-04198D01*
G01X-24001Y-04157D01*
G01X-24071Y-04087D01*
G01X-24090Y-04079D01*
G01X-24129Y-04087D01*
G01X-24199Y-04157D01*
G01X-24266Y-04191D01*
G01X-24347Y-04205D01*
G01X-24609Y-04205D01*
G01X-24609Y-03600D01*
G01X-24659Y-03600D01*
G01X-24659Y-03550D01*
G01X-25224Y-03550D01*
G01X-25224Y-03253D01*
G01X-25210Y-03167D01*
G01X-25176Y-03100D01*
G01X-25119Y-03043D01*
G01X-25051Y-03009D01*
G01X-24974Y-02996D01*
G01X-24948Y-02983D01*
G01X-24933Y-02958D01*
G01X-24936Y-02928D01*
G01X-24954Y-02905D01*
G01X-24982Y-02897D01*
G01X-25465Y-02900D01*
G01X-25530Y-02890D01*
G01X-25599Y-02866D01*
G01X-25660Y-02829D01*
G01X-26785Y-01710D01*
G01X-26812Y-01696D01*
G01X-27157Y-01700D01*
G01X-27192Y-01728D01*
G01X-27266Y-01766D01*
G01X-27343Y-01778D01*
G01X-27929Y-01778D01*
G01X-28006Y-01766D01*
G01X-28080Y-01728D01*
G01X-28131Y-01677D01*
G01X-28169Y-01602D01*
G01X-28181Y-01528D01*
G01X-28181Y-01174D01*
G01X-28169Y-01099D01*
G01X-28131Y-01025D01*
G01X-28080Y-00974D01*
G01X-28006Y-00936D01*
G01X-27929Y-00924D01*
G01X-27343Y-00924D01*
G01X-27266Y-00936D01*
G01X-27192Y-00974D01*
G01X-27167Y-00997D01*
G01X-26635Y-01000D01*
G01X-26584Y-01008D01*
G01X-26483Y-01044D01*
G01X-26429Y-01081D01*
G01X-25312Y-02193D01*
G01X-25283Y-02202D01*
G01X-24935Y-02197D01*
G01X-24908Y-02172D01*
G01X-24834Y-02134D01*
G01X-24757Y-02122D01*
G01X-24171Y-02122D01*
G01X-24094Y-02134D01*
G01X-24020Y-02172D01*
G01X-23969Y-02223D01*
G01X-23931Y-02297D01*
G01X-23919Y-02372D01*
G01X-23919Y-02726D01*
G01X-23931Y-02801D01*
G01X-23969Y-02875D01*
G01X-24020Y-02926D01*
G01X-24095Y-02964D01*
G01X-24176Y-02982D01*
G01X-24198Y-03018D01*
G01X-24195Y-03040D01*
G01X-24137Y-03105D01*
G01X-24110Y-03121D01*
G01X-24071Y-03113D01*
G01X-24001Y-03043D01*
G01X-23933Y-03009D01*
G01X-23854Y-02996D01*
G01X-23492Y-02994D01*
G01X-23093Y-02597D01*
G01X-23089Y-02566D01*
G01X-23103Y-02539D01*
G01X-23605Y-02040D01*
G01X-23669Y-01943D01*
G01X-23696Y-01849D01*
G01X-23699Y-00640D01*
G01X-23691Y-00584D01*
G01X-23662Y-00491D01*
G01X-23623Y-00432D01*
G01X-23325Y-00133D01*
G01X-23227Y-00076D01*
G01X-23123Y-00051D01*
G01X-21067Y-00053D01*
G01X-21040Y-00045D01*
G01X-21022Y-00025D01*
G01X-21010Y00033D01*
G01X-20976Y00100D01*
G01X-20919Y00157D01*
G01X-20852Y00191D01*
G01X-20772Y00205D01*
G01X-20597Y00205D01*
G01X-20568Y00215D01*
G01X-20549Y00240D01*
G01X-20547Y00274D01*
G01X-20557Y00303D01*
G01X-20582Y00322D01*
G01X-21107Y00324D01*
G01X-21184Y00336D01*
G01X-21258Y00374D01*
G01X-21285Y00399D01*
G01X-22165Y00400D01*
G01X-22230Y00410D01*
G01X-22299Y00434D01*
G01X-22363Y00474D01*
G01X-23536Y01640D01*
G01X-23563Y01654D01*
G01X-24765Y01647D01*
G01X-24792Y01622D01*
G01X-24866Y01584D01*
G01X-24943Y01572D01*
G01X-25529Y01572D01*
G01X-25606Y01584D01*
G01X-25680Y01622D01*
G01X-25732Y01674D01*
G01X-25769Y01747D01*
G01X-25781Y01822D01*
G01X-25781Y02176D01*
G01X-25769Y02251D01*
G01X-25731Y02325D01*
G01X-25680Y02376D01*
G01X-25631Y02401D01*
G01X-25612Y02419D01*
G01X-25604Y02444D01*
G01X-25610Y02470D01*
G01X-25629Y02489D01*
G01X-25654Y02496D01*
G01X-25691Y02496D01*
G01X-25691Y03050D01*
G01X-25691Y03150D01*
G01X-25691Y03705D01*
G01X-25434Y03705D01*
G01X-25349Y03691D01*
G01X-25281Y03657D01*
G01X-25224Y03600D01*
G01X-25190Y03532D01*
G01X-25177Y03455D01*
G01X-25177Y03150D01*
G01X-25691Y03150D01*
G01X-25691Y03050D01*
G01X-25176Y03050D01*
G01X-25176Y02753D01*
G01X-25190Y02668D01*
G01X-25224Y02600D01*
G01X-25281Y02543D01*
G01X-25325Y02521D01*
G01X-25344Y02503D01*
G01X-25352Y02478D01*
G01X-25346Y02452D01*
G01X-25327Y02433D01*
G01X-25302Y02426D01*
G01X-24943Y02426D01*
G01X-24866Y02414D01*
G01X-24759Y02350D01*
G01X-23384Y02350D01*
G01X-23334Y02342D01*
G01X-23233Y02306D01*
G01X-23178Y02268D01*
G01X-22006Y01104D01*
G01X-21309Y01097D01*
G01X-21286Y01102D01*
G01X-21258Y01128D01*
G01X-21184Y01166D01*
G01X-21107Y01178D01*
G01X-20970Y01183D01*
G01X-20952Y01199D01*
G01X-20944Y01220D01*
G01X-20946Y01244D01*
G01X-21084Y01395D01*
G01X-21131Y01485D01*
G01X-21153Y01607D01*
G01X-21171Y01629D01*
G01X-21258Y01672D01*
G01X-21292Y01699D01*
G01X-21430Y01710D01*
G01X-21499Y01734D01*
G01X-21560Y01771D01*
G01X-22606Y02811D01*
G01X-22669Y02907D01*
G01X-22696Y03001D01*
G01X-22697Y03301D01*
G01X-22715Y03340D01*
G01X-22779Y03373D01*
G01X-22832Y03426D01*
G01X-22869Y03501D01*
G01X-22881Y03574D01*
G01X-22881Y03925D01*
G01X-22875Y03963D01*
G01X-22890Y03998D01*
G01X-23234Y04345D01*
G01X-23262Y04396D01*
G01X-23296Y04501D01*
G01X-23820Y04672D01*
G01X-23894Y04634D01*
G01X-23971Y04622D01*
G01X-24214Y04622D01*
G01X-24214Y04999D01*
G01X-24214Y05099D01*
G01X-24314Y05099D01*
G01X-24809Y05099D01*
G01X-24809Y05226D01*
G01X-24797Y05301D01*
G01X-24759Y05375D01*
G01X-24708Y05426D01*
G01X-24634Y05464D01*
G01X-24374Y06300D01*
G01X-23859Y06300D01*
G01X-23859Y05745D01*
G01X-24116Y05745D01*
G01X-24201Y05759D01*
G01X-24269Y05793D01*
G01X-24326Y05850D01*
G01X-24360Y05917D01*
G01X-24374Y05996D01*
G01X-24374Y06300D01*
G01X-24634Y05464D01*
G01X-24557Y05476D01*
G01X-24314Y05476D01*
G01X-24314Y05099D01*
G01X-24214Y05099D01*
G01X-24214Y05476D01*
G01X-23971Y05476D01*
G01X-23894Y05464D01*
G01X-23820Y05426D01*
G01X-23769Y05375D01*
G01X-23731Y05301D01*
G01X-23719Y05226D01*
G01X-23719Y05099D01*
G01X-24214Y05099D01*
G01X-24214Y04999D01*
G01X-23719Y04999D01*
G01X-23719Y04872D01*
G01X-23731Y04798D01*
G01X-23768Y04724D01*
G01X-23820Y04672D01*
G01X-23296Y04501D01*
G01X-23298Y05737D01*
G01X-23314Y05773D01*
G01X-23351Y05787D01*
G01X-23416Y05759D01*
G01X-23497Y05746D01*
G01X-23759Y05746D01*
G01X-23759Y06350D01*
G01X-23809Y06350D01*
G01X-23809Y06400D01*
G01X-24374Y06400D01*
G01X-24374Y06697D01*
G01X-24360Y06783D01*
G01X-24326Y06850D01*
G01X-24269Y06907D01*
G01X-24202Y06941D01*
G01X-24122Y06955D01*
G01X-23896Y06960D01*
G01X-23870Y06997D01*
G01X-23871Y07021D01*
G01X-24236Y07390D01*
G01X-24263Y07404D01*
G01X-26712Y07395D01*
G01X-27822Y06281D01*
G01X-27826Y06103D01*
G01X-27840Y06018D01*
G01X-27874Y05950D01*
G01X-27931Y05893D01*
G01X-28024Y05853D01*
G01X-28043Y05838D01*
G01X-28081Y05709D01*
G01X-28159Y05588D01*
G01X-28159Y05565D01*
G01X-28132Y05531D01*
G01X-27693Y05526D01*
G01X-27616Y05514D01*
G01X-27509Y05449D01*
G01X-26999Y05446D01*
G01X-26898Y05415D01*
G01X-26838Y05378D01*
G01X-26018Y04564D01*
G01X-25991Y04550D01*
G01X-24657Y04551D01*
G01X-24634Y04569D01*
G01X-24625Y04595D01*
G01X-24632Y04623D01*
G01X-24652Y04642D01*
G01X-24706Y04670D01*
G01X-24760Y04724D01*
G01X-24797Y04798D01*
G01X-24809Y04872D01*
G01X-24809Y04999D01*
G01X-24314Y04999D01*
G01X-24314Y04622D01*
G01X-24556Y04622D01*
G01X-24582Y04615D01*
G01X-24600Y04595D01*
G01X-24606Y04569D01*
G01X-24597Y04544D01*
G01X-24577Y04526D01*
G01X-24519Y04499D01*
G01X-24460Y04455D01*
G01X-24187Y04183D01*
G01X-23971Y04178D01*
G01X-23894Y04166D01*
G01X-23820Y04128D01*
G01X-23769Y04077D01*
G01X-23731Y04003D01*
G01X-23719Y03928D01*
G01X-23719Y03574D01*
G01X-23731Y03501D01*
G01X-23768Y03426D01*
G01X-23820Y03374D01*
G01X-23894Y03336D01*
G01X-23971Y03324D01*
G01X-24557Y03324D01*
G01X-24634Y03336D01*
G01X-24708Y03374D01*
G01X-24760Y03426D01*
G01X-24797Y03501D01*
G01X-24809Y03574D01*
G01X-24809Y03795D01*
G01X-24820Y03826D01*
G01X-24856Y03853D01*
G01X-26165Y03850D01*
G01X-26230Y03860D01*
G01X-26299Y03884D01*
G01X-26360Y03921D01*
G01X-27185Y04740D01*
G01X-27212Y04754D01*
G01X-27507Y04750D01*
G01X-27542Y04722D01*
G01X-27616Y04684D01*
G01X-27693Y04672D01*
G01X-28283Y04667D01*
G01X-28309Y04630D01*
G01X-28308Y04606D01*
G01X-27937Y04233D01*
G01X-27693Y04228D01*
G01X-27616Y04216D01*
G01X-27542Y04178D01*
G01X-27512Y04151D01*
G01X-27429Y04128D01*
G01X-27369Y04099D01*
G01X-27310Y04055D01*
G01X-26965Y03710D01*
G01X-26552Y03705D01*
G01X-26467Y03691D01*
G01X-26399Y03657D01*
G01X-26329Y03587D01*
G01X-26310Y03579D01*
G01X-26271Y03587D01*
G01X-26201Y03657D01*
G01X-26134Y03691D01*
G01X-26054Y03705D01*
G01X-25791Y03705D01*
G01X-25791Y02496D01*
G01X-26048Y02495D01*
G01X-26133Y02509D01*
G01X-26201Y02543D01*
G01X-26271Y02613D01*
G01X-26290Y02621D01*
G01X-26329Y02613D01*
G01X-26399Y02543D01*
G01X-26466Y02509D01*
G01X-26547Y02496D01*
G01X-26746Y02496D01*
G01X-26771Y02489D01*
G01X-26790Y02470D01*
G01X-26796Y02444D01*
G01X-26788Y02419D01*
G01X-26769Y02401D01*
G01X-26720Y02376D01*
G01X-26669Y02325D01*
G01X-26631Y02251D01*
G01X-26619Y02176D01*
G01X-26619Y01822D01*
G01X-26631Y01747D01*
G01X-26668Y01674D01*
G01X-26720Y01622D01*
G01X-26794Y01584D01*
G01X-26871Y01572D01*
G01X-27457Y01572D01*
G01X-27534Y01584D01*
G01X-27608Y01622D01*
G01X-27660Y01674D01*
G01X-27697Y01747D01*
G01X-27709Y01822D01*
G01X-27709Y02176D01*
G01X-27697Y02251D01*
G01X-27659Y02325D01*
G01X-27608Y02376D01*
G01X-27513Y02426D01*
G01X-27500Y02449D01*
G01X-27499Y02803D01*
G01X-27488Y02889D01*
G01X-27466Y02947D01*
G01X-27429Y03011D01*
G01X-27424Y03161D01*
G01X-27434Y03191D01*
G01X-27626Y03377D01*
G01X-28279Y03374D01*
G01X-28356Y03386D01*
G01X-28430Y03424D01*
G01X-28481Y03475D01*
G01X-28519Y03549D01*
G01X-28531Y03624D01*
G01X-28533Y03834D01*
G01X-28984Y04295D01*
G01X-29036Y04408D01*
G01X-29046Y04466D01*
G01X-29049Y05575D01*
G01X-29019Y05691D01*
G01X-28976Y05763D01*
G01X-28885Y05855D01*
G01X-28871Y05883D01*
G01X-28875Y05914D01*
G01X-28913Y05955D01*
G01X-28940Y05971D01*
G01X-28979Y05963D01*
G01X-29049Y05893D01*
G01X-29116Y05859D01*
G01X-29197Y05846D01*
G01X-29459Y05846D01*
G01X-29459Y07055D01*
G01X-29202Y07055D01*
G01X-29117Y07041D01*
G01X-29049Y07007D01*
G01X-28979Y06937D01*
G01X-28960Y06929D01*
G01X-28921Y06937D01*
G01X-28851Y07007D01*
G01X-28784Y07041D01*
G01X-28704Y07055D01*
G01X-28058Y07052D01*
G01X-28025Y07067D01*
G01X-27062Y08027D01*
G01X-27007Y08063D01*
G01X-26939Y08088D01*
G01X-26858Y08099D01*
G01X-24084Y08100D01*
G01X-24034Y08092D01*
G01X-23933Y08056D01*
G01X-23878Y08018D01*
G01X-22813Y06960D01*
G01X-22384Y06955D01*
G01X-22299Y06941D01*
G01X-22231Y06907D01*
G01X-22174Y06850D01*
G01X-22140Y06783D01*
G01X-22127Y06705D01*
G01X-22126Y06003D01*
G01X-22139Y05919D01*
G01X-22174Y05850D01*
G01X-22231Y05793D01*
G01X-22298Y05759D01*
G01X-22379Y05746D01*
G01X-22552Y05746D01*
G01X-22581Y05736D01*
G01X-22600Y05711D01*
G01X-22602Y05526D01*
G01X-22592Y05497D01*
G01X-22567Y05478D01*
G01X-22043Y05476D01*
G01X-21966Y05464D01*
G01X-21892Y05426D01*
G01X-21867Y05403D01*
G01X-20149Y05398D01*
G01X-18075Y07467D01*
G01X-17977Y07524D01*
G01X-17873Y07549D01*
G01X-17763Y07548D01*
G01X-17737Y07555D01*
G01X-17718Y07573D01*
G01X-17676Y07658D01*
G01X-17625Y07709D01*
G01X-17551Y07747D01*
G01X-17474Y07759D01*
G01X-17124Y07759D01*
G01X-16176Y07759D01*
G01X-16051Y07759D01*
G01X-15951Y07759D01*
G01X-15826Y07759D01*
G01X-15749Y07747D01*
G01X-15675Y07709D01*
G01X-14103Y07224D01*
G01X-14018Y07210D01*
G01X-13950Y07176D01*
G01X-13893Y07119D01*
G01X-13859Y07052D01*
G01X-13846Y06974D01*
G01X-13846Y06709D01*
G01X-14400Y06709D01*
G01X-14500Y07224D01*
G01X-14500Y06709D01*
G01X-15056Y06709D01*
G01X-15574Y06919D01*
G01X-15586Y06845D01*
G01X-15623Y06771D01*
G01X-15675Y06719D01*
G01X-15749Y06681D01*
G01X-15826Y06669D01*
G01X-15951Y06669D01*
G01X-16051Y06669D01*
G01X-16176Y06669D01*
G01X-16253Y06681D01*
G01X-16327Y06719D01*
G01X-16379Y06771D01*
G01X-16416Y06845D01*
G01X-16428Y06919D01*
G01X-16428Y07164D01*
G01X-16051Y07164D01*
G01X-16051Y06669D01*
G01X-15951Y06669D01*
G01X-15951Y07164D01*
G01X-15574Y07164D01*
G01X-15574Y06919D01*
G01X-15056Y06709D01*
G01X-15055Y06966D01*
G01X-15041Y07052D01*
G01X-15007Y07119D01*
G01X-14950Y07176D01*
G01X-14883Y07210D01*
G01X-14803Y07224D01*
G01X-14500Y07224D01*
G01X-14400Y06709D01*
G01X-14400Y07224D01*
G01X-14103Y07224D01*
G01X-15675Y07709D01*
G01X-15624Y07658D01*
G01X-15586Y07584D01*
G01X-15574Y07509D01*
G01X-15574Y07264D01*
G01X-15951Y07264D01*
G01X-15951Y07759D01*
G01X-16051Y07759D01*
G01X-16051Y07264D01*
G01X-16428Y07264D01*
G01X-16428Y07509D01*
G01X-16416Y07584D01*
G01X-16378Y07658D01*
G01X-16327Y07709D01*
G01X-16253Y07747D01*
G01X-16176Y07759D01*
G01X-17124Y07759D01*
G01X-17047Y07747D01*
G01X-16973Y07709D01*
G01X-16922Y07658D01*
G01X-16884Y07584D01*
G01X-16872Y07509D01*
G01X-16872Y06919D01*
G01X-16884Y06845D01*
G01X-16921Y06771D01*
G01X-16973Y06719D01*
G01X-17047Y06681D01*
G01X-17124Y06669D01*
G01X-17474Y06669D01*
G01X-17551Y06681D01*
G01X-17625Y06719D01*
G01X-17711Y06808D01*
G01X-17748Y06807D01*
G01X-19749Y04805D01*
G01X-19810Y04756D01*
G01X-19875Y04724D01*
G01X-19948Y04706D01*
G01X-21859Y04699D01*
G01X-21966Y04634D01*
G01X-22043Y04622D01*
G01X-22432Y04617D01*
G01X-22450Y04601D01*
G01X-22458Y04580D01*
G01X-22456Y04556D01*
G01X-22444Y04536D01*
G01X-22081Y04181D01*
G01X-21966Y04166D01*
G01X-21892Y04128D01*
G01X-21841Y04077D01*
G01X-21803Y04003D01*
G01X-21791Y03928D01*
G01X-21791Y03574D01*
G01X-21803Y03501D01*
G01X-21840Y03426D01*
G01X-21892Y03374D01*
G01X-21987Y03325D01*
G01X-22002Y03302D01*
G01X-21999Y03192D01*
G01X-21266Y02461D01*
G01X-21245Y02448D01*
G01X-21220Y02447D01*
G01X-21186Y02463D01*
G01X-21107Y02476D01*
G01X-20619Y02478D01*
G01X-17731Y05367D01*
G01X-17726Y05581D01*
G01X-17714Y05656D01*
G01X-17676Y05730D01*
G01X-17625Y05781D01*
G01X-17551Y05819D01*
G01X-17474Y05831D01*
G01X-17124Y05831D01*
G01X-17047Y05819D01*
G01X-16965Y05775D01*
G01X-16934Y05771D01*
G01X-16906Y05785D01*
G01X-16475Y06217D01*
G01X-16377Y06274D01*
G01X-16273Y06299D01*
G01X-15105Y06297D01*
G01X-15076Y06307D01*
G01X-15057Y06332D01*
G01X-15056Y06609D01*
G01X-13845Y06609D01*
G01X-13845Y06352D01*
G01X-13859Y06267D01*
G01X-13893Y06199D01*
G01X-13963Y06129D01*
G01X-13971Y06110D01*
G01X-13963Y06071D01*
G01X-13893Y06001D01*
G01X-13859Y05933D01*
G01X-13846Y05856D01*
G01X-13845Y05234D01*
G01X-13859Y05149D01*
G01X-13893Y05081D01*
G01X-13950Y05024D01*
G01X-14017Y04990D01*
G01X-15288Y-01422D01*
G01X-13552Y-03152D01*
G01X-12249Y-03953D01*
G01X-12175Y-03991D01*
G01X-12124Y-04042D01*
G01X-11250Y-04577D01*
G01X-11150Y-04576D01*
G01X-10853Y-04576D01*
G01X-10768Y-04590D01*
G01X-10700Y-04624D01*
G01X-10643Y-04681D01*
G01X-10609Y-04747D01*
G01X-10596Y-04827D01*
G01X-10596Y-05091D01*
G01X-11150Y-05091D01*
G01X-11150Y-04576D01*
G01X-11250Y-04577D01*
G01X-11250Y-05091D01*
G01X-11805Y-05091D01*
G01X-12175Y-04981D01*
G01X-12249Y-05019D01*
G01X-12326Y-05031D01*
G01X-12451Y-05031D01*
G01X-12551Y-05031D01*
G01X-12676Y-05031D01*
G01X-12753Y-05019D01*
G01X-12827Y-04981D01*
G01X-12878Y-04930D01*
G01X-12916Y-04854D01*
G01X-12928Y-04781D01*
G01X-12928Y-04536D01*
G01X-12928Y-04436D01*
G01X-12928Y-04191D01*
G01X-12916Y-04116D01*
G01X-12878Y-04042D01*
G01X-12827Y-03991D01*
G01X-12753Y-03953D01*
G01X-12676Y-03941D01*
G01X-12551Y-03941D01*
G01X-12551Y-04436D01*
G01X-12928Y-04436D01*
G01X-12928Y-04536D01*
G01X-12551Y-04536D01*
G01X-12551Y-05031D01*
G01X-12451Y-05031D01*
G01X-12451Y-04536D01*
G01X-12074Y-04536D01*
G01X-12074Y-04781D01*
G01X-12086Y-04854D01*
G01X-12124Y-04930D01*
G01X-12175Y-04981D01*
G01X-11805Y-05091D01*
G01X-11805Y-04834D01*
G01X-11791Y-04747D01*
G01X-11757Y-04681D01*
G01X-11700Y-04624D01*
G01X-11632Y-04590D01*
G01X-11553Y-04577D01*
G01X-11250Y-04577D01*
G01X-12124Y-04042D01*
G01X-12086Y-04116D01*
G01X-12074Y-04191D01*
G01X-12074Y-04436D01*
G01X-12451Y-04436D01*
G01X-12451Y-03941D01*
G01X-12326Y-03941D01*
G01X-12249Y-03953D01*
G01X-13552Y-03152D01*
G01X-13506Y-03214D01*
G01X-13474Y-03279D01*
G01X-13450Y-03385D01*
G01X-13448Y-04014D01*
G01X-13422Y-04042D01*
G01X-13384Y-04116D01*
G01X-13372Y-04191D01*
G01X-13372Y-04781D01*
G01X-13384Y-04854D01*
G01X-13422Y-04930D01*
G01X-13473Y-04981D01*
G01X-13547Y-05019D01*
G01X-13624Y-05031D01*
G01X-13974Y-05031D01*
G01X-14051Y-05019D01*
G01X-14125Y-04981D01*
G01X-14176Y-04930D01*
G01X-14214Y-04854D01*
G01X-14226Y-04781D01*
G01X-14226Y-04191D01*
G01X-14214Y-04116D01*
G01X-14176Y-04042D01*
G01X-14152Y-04016D01*
G01X-14152Y-03546D01*
G01X-15620Y-02076D01*
G01X-15647Y-02062D01*
G01X-15678Y-02066D01*
G01X-15766Y-02116D01*
G01X-15843Y-02128D01*
G01X-16429Y-02128D01*
G01X-16506Y-02116D01*
G01X-16580Y-02078D01*
G01X-16631Y-02027D01*
G01X-17531Y-01952D01*
G01X-17569Y-02027D01*
G01X-17620Y-02078D01*
G01X-17694Y-02116D01*
G01X-17771Y-02128D01*
G01X-18014Y-02128D01*
G01X-18114Y-02128D01*
G01X-18357Y-02128D01*
G01X-18434Y-02116D01*
G01X-18508Y-02078D01*
G01X-18559Y-02027D01*
G01X-18597Y-01952D01*
G01X-18609Y-01878D01*
G01X-18609Y-01751D01*
G01X-18609Y-01651D01*
G01X-18609Y-01524D01*
G01X-19291Y-01005D01*
G01X-19291Y-00450D01*
G01X-19291Y-00350D01*
G01X-19291Y00205D01*
G01X-19330Y00374D01*
G01X-19381Y00425D01*
G01X-19419Y00499D01*
G01X-19431Y00576D01*
G01X-19431Y00700D01*
G01X-19431Y00800D01*
G01X-19431Y00928D01*
G01X-19419Y01003D01*
G01X-19381Y01077D01*
G01X-19330Y01128D01*
G01X-19256Y01166D01*
G01X-19179Y01178D01*
G01X-18936Y01178D01*
G01X-18836Y01178D01*
G01X-18593Y01178D01*
G01X-18516Y01166D01*
G01X-18442Y01128D01*
G01X-18391Y01077D01*
G01X-18353Y01003D01*
G01X-18341Y00928D01*
G01X-17694Y-01286D01*
G01X-17620Y-01324D01*
G01X-17569Y-01375D01*
G01X-17531Y-01449D01*
G01X-17519Y-01524D01*
G01X-17519Y-01651D01*
G01X-18014Y-01651D01*
G01X-18014Y-01274D01*
G01X-18341Y00700D01*
G01X-18341Y00576D01*
G01X-18353Y00499D01*
G01X-18391Y00425D01*
G01X-18442Y00374D01*
G01X-18516Y00336D01*
G01X-18593Y00324D01*
G01X-18836Y00324D01*
G01X-18836Y00700D01*
G01X-18341Y00700D01*
G01X-18014Y-01274D01*
G01X-17771Y-01274D01*
G01X-17694Y-01286D01*
G01X-18341Y00928D01*
G01X-18341Y00800D01*
G01X-18836Y00800D01*
G01X-18836Y01178D01*
G01X-18936Y01178D01*
G01X-18936Y00800D01*
G01X-19431Y00800D01*
G01X-19431Y00700D01*
G01X-18936Y00700D01*
G01X-18936Y00324D01*
G01X-19179Y00324D01*
G01X-19256Y00336D01*
G01X-19330Y00374D01*
G01X-19291Y00205D01*
G01X-19034Y00205D01*
G01X-18949Y00191D01*
G01X-18881Y00157D01*
G01X-18824Y00100D01*
G01X-18790Y00033D01*
G01X-18777Y-00046D01*
G01X-18777Y-00350D01*
G01X-19291Y-00350D01*
G01X-19291Y-00450D01*
G01X-18776Y-00450D01*
G01X-18776Y-00747D01*
G01X-18790Y-00832D01*
G01X-18823Y-00899D01*
G01X-18881Y-00957D01*
G01X-18948Y-00991D01*
G01X-19029Y-01005D01*
G01X-19291Y-01005D01*
G01X-18609Y-01524D01*
G01X-18597Y-01449D01*
G01X-18559Y-01375D01*
G01X-18508Y-01324D01*
G01X-18434Y-01286D01*
G01X-18357Y-01274D01*
G01X-18114Y-01274D01*
G01X-18114Y-01651D01*
G01X-18609Y-01651D01*
G01X-18609Y-01751D01*
G01X-18114Y-01751D01*
G01X-18114Y-02128D01*
G01X-18014Y-02128D01*
G01X-18014Y-01751D01*
G01X-17519Y-01751D01*
G01X-17519Y-01878D01*
G01X-17531Y-01952D01*
G01X-16631Y-02027D01*
G01X-16669Y-01952D01*
G01X-16681Y-01878D01*
G01X-16681Y-01524D01*
G01X-16669Y-01449D01*
G01X-16631Y-01375D01*
G01X-16580Y-01324D01*
G01X-16506Y-01286D01*
G01X-16429Y-01274D01*
G01X-15843Y-01274D01*
G01X-15766Y-01286D01*
G01X-15666Y-01347D01*
G01X-15449Y-01354D01*
G01X-15348Y-01385D01*
G01X-15288Y-01422D01*
G01X-14017Y04990D01*
G01X-14098Y04977D01*
G01X-14797Y04976D01*
G01X-14882Y04990D01*
G01X-14950Y05024D01*
G01X-15007Y05081D01*
G01X-15041Y05148D01*
G01X-15055Y05227D01*
G01X-15055Y05555D01*
G01X-15065Y05584D01*
G01X-15090Y05603D01*
G01X-15524Y05603D01*
G01X-15554Y05593D01*
G01X-15572Y05568D01*
G01X-15574Y04991D01*
G01X-15586Y04916D01*
G01X-15650Y04810D01*
G01X-15655Y03952D01*
G01X-15667Y03898D01*
G01X-15694Y03834D01*
G01X-15732Y03778D01*
G01X-17744Y01767D01*
G01X-17849Y01717D01*
G01X-17947Y01700D01*
G01X-18414Y01698D01*
G01X-18442Y01672D01*
G01X-18516Y01634D01*
G01X-18593Y01622D01*
G01X-19179Y01622D01*
G01X-19256Y01634D01*
G01X-19330Y01672D01*
G01X-19381Y01723D01*
G01X-19419Y01797D01*
G01X-19431Y01872D01*
G01X-19431Y02226D01*
G01X-19418Y02302D01*
G01X-19381Y02375D01*
G01X-19330Y02426D01*
G01X-19256Y02464D01*
G01X-19179Y02476D01*
G01X-18593Y02476D01*
G01X-18516Y02464D01*
G01X-18442Y02426D01*
G01X-18416Y02402D01*
G01X-18099Y02399D01*
G01X-16351Y04146D01*
G01X-16353Y04815D01*
G01X-16379Y04843D01*
G01X-16416Y04916D01*
G01X-16428Y04991D01*
G01X-16433Y05180D01*
G01X-16470Y05206D01*
G01X-16494Y05205D01*
G01X-16649Y05055D01*
G01X-16710Y05006D01*
G01X-16863Y04948D01*
G01X-16882Y04926D01*
G01X-16921Y04843D01*
G01X-16973Y04791D01*
G01X-17047Y04753D01*
G01X-17124Y04741D01*
G01X-17348Y04741D01*
G01X-17383Y04726D01*
G01X-20276Y01824D01*
G01X-20319Y01723D01*
G01X-20354Y01675D01*
G01X-20349Y01644D01*
G01X-19918Y01207D01*
G01X-19884Y01149D01*
G01X-19859Y01077D01*
G01X-19850Y01015D01*
G01X-19854Y00211D01*
G01X-19838Y00175D01*
G01X-19801Y00161D01*
G01X-19734Y00191D01*
G01X-19654Y00205D01*
G01X-19391Y00205D01*
G01X-19391Y-01005D01*
G01X-19654Y-01005D01*
G01X-19734Y-00991D01*
G01X-19801Y-00957D01*
G01X-19871Y-00887D01*
G01X-19890Y-00879D01*
G01X-19929Y-00887D01*
G01X-19999Y-00957D01*
G01X-20066Y-00991D01*
G01X-20147Y-01005D01*
G01X-20772Y-01005D01*
G01X-20852Y-00991D01*
G01X-20919Y-00957D01*
G01X-20977Y-00899D01*
G01X-21010Y-00833D01*
G01X-21030Y-00763D01*
G01X-21053Y-00748D01*
G01X-22131Y-00748D01*
G01X-22157Y-00755D01*
G01X-22175Y-00774D01*
G01X-22181Y-00800D01*
G01X-22173Y-00825D01*
G01X-22060Y-00900D01*
G01X-21349Y-00904D01*
G01X-21248Y-00935D01*
G01X-21188Y-00972D01*
G01X-19518Y-02636D01*
G01X-19483Y-02651D01*
G01X-18536Y-02648D01*
G01X-18508Y-02622D01*
G01X-18434Y-02584D01*
G01X-18357Y-02572D01*
G01X-17771Y-02572D01*
G01X-17694Y-02584D01*
G01X-17620Y-02622D01*
G01X-17569Y-02673D01*
G01X-17531Y-02747D01*
G01X-17519Y-02822D01*
G01X-17519Y-03176D01*
G01X-17531Y-03249D01*
G01X-17569Y-03325D01*
G01X-17620Y-03376D01*
G01X-17609Y-03546D01*
G01X-17609Y-04100D01*
G01X-18124Y-04100D01*
G01X-18124Y-03803D01*
G01X-18110Y-03718D01*
G01X-18076Y-03650D01*
G01X-18019Y-03593D01*
G01X-17951Y-03559D01*
G01X-17872Y-03546D01*
G01X-17609Y-03546D01*
G01X-17620Y-03376D01*
G01X-17694Y-03414D01*
G01X-17771Y-03426D01*
G01X-18357Y-03426D01*
G01X-18434Y-03414D01*
G01X-18508Y-03376D01*
G01X-18535Y-03351D01*
G01X-19665Y-03350D01*
G01X-19730Y-03340D01*
G01X-19799Y-03316D01*
G01X-19860Y-03279D01*
G01X-21535Y-01610D01*
G01X-21562Y-01596D01*
G01X-22064Y-01602D01*
G01X-22092Y-01628D01*
G01X-22166Y-01666D01*
G01X-22243Y-01678D01*
G01X-22882Y-01675D01*
G01X-22903Y-01689D01*
G01X-22915Y-01711D01*
G01X-22914Y-01736D01*
G01X-22901Y-01758D01*
G01X-22536Y-02117D01*
G01X-22243Y-02122D01*
G01X-22166Y-02134D01*
G01X-22092Y-02172D01*
G01X-22065Y-02197D01*
G01X-21435Y-02200D01*
G01X-21384Y-02208D01*
G01X-21283Y-02244D01*
G01X-21228Y-02282D01*
G01X-20530Y-02980D01*
G01X-20481Y-03058D01*
G01X-20455Y-03152D01*
G01X-20452Y-03444D01*
G01X-20375Y-03587D01*
G01X-20352Y-03601D01*
G01X-20067Y-03603D01*
G01X-19979Y-03622D01*
G01X-19919Y-03651D01*
G01X-19864Y-03693D01*
G01X-19684Y-03872D01*
G01X-19253Y-03876D01*
G01X-19168Y-03890D01*
G01X-19100Y-03924D01*
G01X-19043Y-03981D01*
G01X-19003Y-04073D01*
G01X-18983Y-04095D01*
G01X-18899Y-04104D01*
G01X-18798Y-04135D01*
G01X-18738Y-04172D01*
G01X-18018Y-04887D01*
G01X-17991Y-04901D01*
G01X-17699Y-04901D01*
G01X-17618Y-04820D01*
G01X-17617Y-04797D01*
G01X-17643Y-04760D01*
G01X-17872Y-04755D01*
G01X-17952Y-04741D01*
G01X-18019Y-04707D01*
G01X-18077Y-04649D01*
G01X-18110Y-04582D01*
G01X-18124Y-04505D01*
G01X-18124Y-04200D01*
G01X-17559Y-04200D01*
G01X-17559Y-04150D01*
G01X-17509Y-04150D01*
G01X-17509Y-03545D01*
G01X-17252Y-03545D01*
G01X-17167Y-03559D01*
G01X-17099Y-03593D01*
G01X-17029Y-03663D01*
G01X-17010Y-03671D01*
G01X-16971Y-03663D01*
G01X-16901Y-03593D01*
G01X-16833Y-03559D01*
G01X-16754Y-03546D01*
G01X-16547Y-03546D01*
G01X-16518Y-03536D01*
G01X-16499Y-03511D01*
G01X-16497Y-03449D01*
G01X-16515Y-03410D01*
G01X-16579Y-03377D01*
G01X-16631Y-03325D01*
G01X-16669Y-03249D01*
G01X-16681Y-03176D01*
G01X-16681Y-02822D01*
G01X-16669Y-02747D01*
G01X-16631Y-02673D01*
G01X-16580Y-02622D01*
G01X-16506Y-02584D01*
G01X-16429Y-02572D01*
G01X-15843Y-02572D01*
G01X-15766Y-02584D01*
G01X-15692Y-02622D01*
G01X-15642Y-02667D01*
G01X-15583Y-02694D01*
G01X-15528Y-02732D01*
G01X-14828Y-03432D01*
G01X-14771Y-03539D01*
G01X-14750Y-03635D01*
G01X-14750Y-05457D01*
G01X-14241Y-05965D01*
G01X-14214Y-05979D01*
G01X-14183Y-05975D01*
G01X-14125Y-05919D01*
G01X-14051Y-05881D01*
G01X-13974Y-05869D01*
G01X-13624Y-05869D01*
G01X-13547Y-05881D01*
G01X-13451Y-05928D01*
G01X-13420Y-05923D01*
G01X-13121Y-05629D01*
G01X-13027Y-05576D01*
G01X-12923Y-05551D01*
G01X-11847Y-05553D01*
G01X-11815Y-05541D01*
G01X-11798Y-05512D01*
G01X-11805Y-05456D01*
G01X-11805Y-05191D01*
G01X-10595Y-05191D01*
G01X-10595Y-05448D01*
G01X-10609Y-05533D01*
G01X-10642Y-05600D01*
G01X-10713Y-05671D01*
G01X-10721Y-05690D01*
G01X-10713Y-05729D01*
G01X-10643Y-05799D01*
G01X-10609Y-05866D01*
G01X-10596Y-05945D01*
G01X-10595Y-06566D01*
G01X-10609Y-06651D01*
G01X-10642Y-06718D01*
G01X-10700Y-06776D01*
G01X-10767Y-06810D01*
G01X-10848Y-06824D01*
G01X-11553Y-06824D01*
G01X-11633Y-06810D01*
G01X-11700Y-06776D01*
G01X-11758Y-06718D01*
G01X-11791Y-06652D01*
G01X-11805Y-06574D01*
G01X-11805Y-06296D01*
G01X-11815Y-06267D01*
G01X-11840Y-06248D01*
G01X-12024Y-06246D01*
G01X-12053Y-06256D01*
G01X-12072Y-06281D01*
G01X-12074Y-06709D01*
G01X-12086Y-06782D01*
G01X-12124Y-06858D01*
G01X-12146Y-06884D01*
G01X-12173Y-07024D01*
G01X-12205Y-07087D01*
G01X-13294Y-08183D01*
G01X-13399Y-08233D01*
G01X-13497Y-08249D01*
G01X-13563Y-08244D01*
G01X-17741Y-09022D01*
G01X-17741Y-09149D01*
G01X-17741Y-09249D01*
G01X-17741Y-09376D01*
G01X-17753Y-09450D01*
G01X-17791Y-09525D01*
G01X-17842Y-09576D01*
G01X-18277Y-09996D01*
G01X-18277Y-10300D01*
G01X-18276Y-10400D01*
G01X-18276Y-10697D01*
G01X-18290Y-10782D01*
G01X-18323Y-10849D01*
G01X-18381Y-10907D01*
G01X-18448Y-10941D01*
G01X-18529Y-10955D01*
G01X-18791Y-10955D01*
G01X-18791Y-10400D01*
G01X-18276Y-10400D01*
G01X-18277Y-10300D01*
G01X-18791Y-10300D01*
G01X-18791Y-09745D01*
G01X-18781Y-09525D01*
G01X-18819Y-09450D01*
G01X-18831Y-09376D01*
G01X-18831Y-09249D01*
G01X-18831Y-09149D01*
G01X-18831Y-09022D01*
G01X-18819Y-08947D01*
G01X-18781Y-08873D01*
G01X-18730Y-08822D01*
G01X-18656Y-08784D01*
G01X-18579Y-08772D01*
G01X-18336Y-08772D01*
G01X-18336Y-09149D01*
G01X-18831Y-09149D01*
G01X-18831Y-09249D01*
G01X-18336Y-09249D01*
G01X-18336Y-09626D01*
G01X-18579Y-09626D01*
G01X-18656Y-09614D01*
G01X-18730Y-09576D01*
G01X-18781Y-09525D01*
G01X-18791Y-09745D01*
G01X-18534Y-09745D01*
G01X-18449Y-09759D01*
G01X-18381Y-09793D01*
G01X-18324Y-09850D01*
G01X-18290Y-09917D01*
G01X-18277Y-09996D01*
G01X-17842Y-09576D01*
G01X-17916Y-09614D01*
G01X-17993Y-09626D01*
G01X-18236Y-09626D01*
G01X-18236Y-09249D01*
G01X-17741Y-09249D01*
G01X-17741Y-09149D01*
G01X-18236Y-09149D01*
G01X-18236Y-08772D01*
G01X-17993Y-08772D01*
G01X-17916Y-08784D01*
G01X-17842Y-08822D01*
G01X-17791Y-08873D01*
G01X-17753Y-08947D01*
G01X-17741Y-09022D01*
G01X-13563Y-08244D01*
G01X-17808Y-08251D01*
G01X-17916Y-08316D01*
G01X-17993Y-08328D01*
G01X-18579Y-08328D01*
G01X-18656Y-08316D01*
G01X-18730Y-08278D01*
G01X-18781Y-08227D01*
G01X-18819Y-08153D01*
G01X-18831Y-08078D01*
G01X-18831Y-07724D01*
G01X-18818Y-07648D01*
G01X-18781Y-07575D01*
G01X-18730Y-07524D01*
G01X-18656Y-07486D01*
G01X-18579Y-07474D01*
G01X-17993Y-07474D01*
G01X-17916Y-07486D01*
G01X-17795Y-07551D01*
G01X-13642Y-07549D01*
G01X-12929Y-06834D01*
G01X-12914Y-06801D01*
G01X-12928Y-06709D01*
G01X-12933Y-06519D01*
G01X-12949Y-06501D01*
G01X-12970Y-06493D01*
G01X-12994Y-06495D01*
G01X-13194Y-06683D01*
G01X-13244Y-06711D01*
G01X-13363Y-06752D01*
G01X-13382Y-06774D01*
G01X-13422Y-06858D01*
G01X-13473Y-06909D01*
G01X-13547Y-06947D01*
G01X-13624Y-06959D01*
G01X-13974Y-06959D01*
G01X-14051Y-06947D01*
G01X-14125Y-06909D01*
G01X-14176Y-06858D01*
G01X-14221Y-06769D01*
G01X-14246Y-06751D01*
G01X-14380Y-06740D01*
G01X-14449Y-06716D01*
G01X-14510Y-06679D01*
G01X-15354Y-05839D01*
G01X-15393Y-05789D01*
G01X-15423Y-05731D01*
G01X-15446Y-05632D01*
G01X-15451Y-03797D01*
G01X-15739Y-03512D01*
G01X-15762Y-03511D01*
G01X-15798Y-03537D01*
G01X-15804Y-03560D01*
G01X-15806Y-03908D01*
G01X-15823Y-03974D01*
G01X-15874Y-04066D01*
G01X-15876Y-04497D01*
G01X-15890Y-04582D01*
G01X-15923Y-04649D01*
G01X-15981Y-04707D01*
G01X-16048Y-04741D01*
G01X-16129Y-04755D01*
G01X-16559Y-04757D01*
G01X-17344Y-05533D01*
G01X-17449Y-05583D01*
G01X-17547Y-05600D01*
G01X-17755Y-05596D01*
G01X-17786Y-05607D01*
G01X-17803Y-05633D01*
G01X-17800Y-05713D01*
G01X-17838Y-05856D01*
G01X-17880Y-05919D01*
G01X-18594Y-06633D01*
G01X-18687Y-06680D01*
G01X-19666Y-07661D01*
G01X-19674Y-07679D01*
G01X-19669Y-07918D01*
G01X-19659Y-07948D01*
G01X-19368Y-08243D01*
G01X-19335Y-08300D01*
G01X-19309Y-08371D01*
G01X-19300Y-08435D01*
G01X-19300Y-09565D01*
G01X-19308Y-09619D01*
G01X-19347Y-09733D01*
G01X-19341Y-09758D01*
G01X-19324Y-09777D01*
G01X-19300Y-09785D01*
G01X-19233Y-09759D01*
G01X-19154Y-09746D01*
G01X-18891Y-09746D01*
G01X-18891Y-10955D01*
G01X-19154Y-10955D01*
G01X-19234Y-10941D01*
G01X-19301Y-10907D01*
G01X-19371Y-10837D01*
G01X-19390Y-10829D01*
G01X-19429Y-10837D01*
G01X-19499Y-10907D01*
G01X-19566Y-10941D01*
G01X-19647Y-10955D01*
G01X-20272Y-10955D01*
G01X-20352Y-10941D01*
G01X-20419Y-10907D01*
G01X-20477Y-10849D01*
G01X-20510Y-10783D01*
G01X-20524Y-10705D01*
G01X-20524Y-10003D01*
G01X-20510Y-09918D01*
G01X-20476Y-09850D01*
G01X-20419Y-09793D01*
G01X-20351Y-09759D01*
G01X-20302Y-09749D01*
G01X-20284Y-09737D01*
G01X-20264Y-09696D01*
G01X-20263Y-09659D01*
G01X-20290Y-09630D01*
G01X-20507Y-09626D01*
G01X-20584Y-09614D01*
G01X-20658Y-09576D01*
G01X-20709Y-09525D01*
G01X-20747Y-09450D01*
G01X-20758Y-09387D01*
G01X-21304Y-08841D01*
G01X-21343Y-08789D01*
G01X-21392Y-08673D01*
G01X-21924Y-06409D01*
G01X-22049Y-06409D01*
G01X-22149Y-06409D01*
G01X-22274Y-06409D01*
G01X-22351Y-06397D01*
G01X-22425Y-06359D01*
G01X-22476Y-06308D01*
G01X-22514Y-06233D01*
G01X-22526Y-06159D01*
G01X-22526Y-05914D01*
G01X-22526Y-05814D01*
G01X-22526Y-05569D01*
G01X-22513Y-05493D01*
G01X-22476Y-05420D01*
G01X-22425Y-05369D01*
G01X-22351Y-05331D01*
G01X-22274Y-05319D01*
G01X-22149Y-05319D01*
G01X-22049Y-05814D01*
G01X-22049Y-05319D01*
G01X-21924Y-05319D01*
G01X-21847Y-05331D01*
G01X-21773Y-05369D01*
G01X-21722Y-05420D01*
G01X-21685Y-05493D01*
G01X-21672Y-05569D01*
G01X-21672Y-05814D01*
G01X-22049Y-05814D01*
G01X-22149Y-05319D01*
G01X-22149Y-05814D01*
G01X-22526Y-05814D01*
G01X-22526Y-05914D01*
G01X-22149Y-05914D01*
G01X-22149Y-06409D01*
G01X-22049Y-06409D01*
G01X-22049Y-05914D01*
G01X-21672Y-05914D01*
G01X-21672Y-06159D01*
G01X-21684Y-06233D01*
G01X-21722Y-06308D01*
G01X-21773Y-06359D01*
G01X-21847Y-06397D01*
G01X-21924Y-06409D01*
G01X-21392Y-08673D01*
G01X-21400Y-06083D01*
G01X-21389Y-06017D01*
G01X-21369Y-05959D01*
G01X-21330Y-05891D01*
G01X-21233Y-05788D01*
G01X-21228Y-05569D01*
G01X-21215Y-05493D01*
G01X-21178Y-05420D01*
G01X-21127Y-05369D01*
G01X-21053Y-05331D01*
G01X-20976Y-05319D01*
G01X-20626Y-05319D01*
G01X-20549Y-05331D01*
G01X-20475Y-05369D01*
G01X-20424Y-05420D01*
G01X-20387Y-05493D01*
G01X-20374Y-05569D01*
G01X-20205Y-05609D01*
G01X-19650Y-05609D01*
G01X-19650Y-06125D01*
G01X-19953Y-06124D01*
G01X-20033Y-06110D01*
G01X-20100Y-06076D01*
G01X-20157Y-06019D01*
G01X-20191Y-05952D01*
G01X-20205Y-05874D01*
G01X-20205Y-05609D01*
G01X-20374Y-05569D01*
G01X-20374Y-06159D01*
G01X-20386Y-06233D01*
G01X-20424Y-06308D01*
G01X-20475Y-06359D01*
G01X-20549Y-06397D01*
G01X-20651Y-06409D01*
G01X-20680Y-06419D01*
G01X-20699Y-06443D01*
G01X-20703Y-07465D01*
G01X-20687Y-07501D01*
G01X-20650Y-07515D01*
G01X-20584Y-07486D01*
G01X-20457Y-07464D01*
G01X-19203Y-06208D01*
G01X-19190Y-06187D01*
G01X-19189Y-06163D01*
G01X-19200Y-06141D01*
G01X-19220Y-06126D01*
G01X-19550Y-06125D01*
G01X-19550Y-05609D01*
G01X-18995Y-05609D01*
G01X-18995Y-05866D01*
G01X-19004Y-05963D01*
G01X-18990Y-05984D01*
G01X-18968Y-05995D01*
G01X-18943Y-05994D01*
G01X-18921Y-05981D01*
G01X-18511Y-05567D01*
G01X-18498Y-05539D01*
G01X-18501Y-05397D01*
G01X-18983Y-04911D01*
G01X-19010Y-04898D01*
G01X-19041Y-04902D01*
G01X-19105Y-04963D01*
G01X-19121Y-04990D01*
G01X-19113Y-05029D01*
G01X-19043Y-05099D01*
G01X-19009Y-05166D01*
G01X-18996Y-05245D01*
G01X-18996Y-05509D01*
G01X-20205Y-05509D01*
G01X-20205Y-05252D01*
G01X-20191Y-05166D01*
G01X-20157Y-05099D01*
G01X-20087Y-05029D01*
G01X-20079Y-05010D01*
G01X-20087Y-04971D01*
G01X-20158Y-04900D01*
G01X-20191Y-04834D01*
G01X-20205Y-04756D01*
G01X-20207Y-04345D01*
G01X-20246Y-04301D01*
G01X-20350Y-04296D01*
G01X-20389Y-04314D01*
G01X-20424Y-04380D01*
G01X-20475Y-04431D01*
G01X-20549Y-04469D01*
G01X-20626Y-04481D01*
G01X-20976Y-04481D01*
G01X-21053Y-04469D01*
G01X-21127Y-04431D01*
G01X-21178Y-04380D01*
G01X-21216Y-04305D01*
G01X-21228Y-04231D01*
G01X-21228Y-03641D01*
G01X-21215Y-03565D01*
G01X-21178Y-03492D01*
G01X-21150Y-03457D01*
G01X-21150Y-03347D01*
G01X-21163Y-03327D01*
G01X-21605Y-02897D01*
G01X-22059Y-02899D01*
G01X-22166Y-02964D01*
G01X-22243Y-02976D01*
G01X-22488Y-02981D01*
G01X-22972Y-03468D01*
G01X-22976Y-03947D01*
G01X-22990Y-04032D01*
G01X-23023Y-04099D01*
G01X-23081Y-04157D01*
G01X-23176Y-04198D01*
G01X-23196Y-04216D01*
G01X-23204Y-04243D01*
G01X-23200Y-04466D01*
G01X-23163Y-04492D01*
G01X-23139Y-04491D01*
G01X-22531Y-03884D01*
G01X-22526Y-03641D01*
G01X-22513Y-03565D01*
G01X-22476Y-03492D01*
G01X-22425Y-03441D01*
G01X-22351Y-03403D01*
G01X-22274Y-03391D01*
G01X-21924Y-03391D01*
G01X-21847Y-03403D01*
G01X-21773Y-03441D01*
G01X-21722Y-03492D01*
G01X-21685Y-03565D01*
G01X-21672Y-03641D01*
G01X-21672Y-04231D01*
G01X-21684Y-04305D01*
G01X-21722Y-04380D01*
G01X-21773Y-04431D01*
G01X-21847Y-04469D01*
G01X-21924Y-04481D01*
G01X-22142Y-04486D01*
G01X-22745Y-05092D01*
G01X-22756Y-08238D01*
G01X-22750Y-08314D01*
G01X-22773Y-08425D01*
G01X-22820Y-08510D01*
G01X-23353Y-09048D01*
G01X-23410Y-09094D01*
G01X-23499Y-09133D01*
G01X-23597Y-09150D01*
G01X-24965Y-09150D01*
G01X-25030Y-09140D01*
G01X-25099Y-09116D01*
G01X-25160Y-09079D01*
G01X-26624Y-08659D01*
G01X-26749Y-08659D01*
G01X-26849Y-08659D01*
G01X-26974Y-08659D01*
G01X-27051Y-08647D01*
G01X-27125Y-08609D01*
G01X-27176Y-08558D01*
G01X-27214Y-08484D01*
G01X-27226Y-08409D01*
G01X-27226Y-08164D01*
G01X-26849Y-08164D01*
G01X-26849Y-08659D01*
G01X-26749Y-08659D01*
G01X-26749Y-08164D01*
G01X-26372Y-08164D01*
G01X-26372Y-08409D01*
G01X-26384Y-08484D01*
G01X-26422Y-08558D01*
G01X-26473Y-08609D01*
G01X-26547Y-08647D01*
G01X-26624Y-08659D01*
G01X-25160Y-09079D01*
G01X-25582Y-08664D01*
G01X-25753Y-08647D01*
G01X-25827Y-08609D01*
G01X-25878Y-08558D01*
G01X-25916Y-08484D01*
G01X-25928Y-08409D01*
G01X-25928Y-07819D01*
G01X-25916Y-07744D01*
G01X-25878Y-07670D01*
G01X-25827Y-07619D01*
G01X-25753Y-07581D01*
G01X-25676Y-07569D01*
G01X-25326Y-07569D01*
G01X-25249Y-07581D01*
G01X-25175Y-07619D01*
G01X-25124Y-07670D01*
G01X-25086Y-07744D01*
G01X-24805Y-07809D01*
G01X-24250Y-07809D01*
G01X-24250Y-08324D01*
G01X-24553Y-08324D01*
G01X-24633Y-08310D01*
G01X-24700Y-08276D01*
G01X-24758Y-08218D01*
G01X-24791Y-08152D01*
G01X-24805Y-08074D01*
G01X-24805Y-07809D01*
G01X-25086Y-07744D01*
G01X-25074Y-07819D01*
G01X-25074Y-08164D01*
G01X-25064Y-08194D01*
G01X-24819Y-08437D01*
G01X-24792Y-08450D01*
G01X-23749Y-08451D01*
G01X-23653Y-08361D01*
G01X-23640Y-08336D01*
G01X-23642Y-08309D01*
G01X-23659Y-08286D01*
G01X-23684Y-08276D01*
G01X-23712Y-08281D01*
G01X-23768Y-08310D01*
G01X-23848Y-08324D01*
G01X-24150Y-08324D01*
G01X-24150Y-07809D01*
G01X-23595Y-07809D01*
G01X-23595Y-08066D01*
G01X-23609Y-08151D01*
G01X-23637Y-08205D01*
G01X-23642Y-08233D01*
G01X-23631Y-08259D01*
G01X-23609Y-08275D01*
G01X-23581Y-08277D01*
G01X-23556Y-08263D01*
G01X-23448Y-08146D01*
G01X-23454Y-05038D01*
G01X-23470Y-05020D01*
G01X-23491Y-05012D01*
G01X-23515Y-05014D01*
G01X-23535Y-05026D01*
G01X-23846Y-05343D01*
G01X-23853Y-06033D01*
G01X-23845Y-06060D01*
G01X-23825Y-06078D01*
G01X-23767Y-06090D01*
G01X-23700Y-06124D01*
G01X-23643Y-06181D01*
G01X-23609Y-06248D01*
G01X-23596Y-06327D01*
G01X-23595Y-06948D01*
G01X-23608Y-07031D01*
G01X-23642Y-07100D01*
G01X-23713Y-07171D01*
G01X-23721Y-07190D01*
G01X-23713Y-07229D01*
G01X-23643Y-07299D01*
G01X-23609Y-07366D01*
G01X-23596Y-07445D01*
G01X-23596Y-07709D01*
G01X-24805Y-07709D01*
G01X-24805Y-07452D01*
G01X-24791Y-07367D01*
G01X-24757Y-07299D01*
G01X-24687Y-07229D01*
G01X-24679Y-07210D01*
G01X-24687Y-07171D01*
G01X-24758Y-07100D01*
G01X-24794Y-07027D01*
G01X-24828Y-07000D01*
G01X-25065Y-07000D01*
G01X-25130Y-06990D01*
G01X-25199Y-06966D01*
G01X-25260Y-06929D01*
G01X-25458Y-06736D01*
G01X-25517Y-06731D01*
G01X-25547Y-06741D01*
G01X-25749Y-06936D01*
G01X-25810Y-06970D01*
G01X-25880Y-06993D01*
G01X-26253Y-07001D01*
G01X-26739Y-07484D01*
G01X-26751Y-07504D01*
G01X-26752Y-07527D01*
G01X-26726Y-07564D01*
G01X-26547Y-07581D01*
G01X-26473Y-07619D01*
G01X-26422Y-07670D01*
G01X-26384Y-07744D01*
G01X-26372Y-07819D01*
G01X-26372Y-08064D01*
G01X-27226Y-08064D01*
G01X-27226Y-07819D01*
G01X-27214Y-07744D01*
G01X-27170Y-07648D01*
G01X-27184Y-07611D01*
G01X-27220Y-07595D01*
G01X-28055Y-07601D01*
G01X-31690Y-11236D01*
G01X-31703Y-11257D01*
G01X-31704Y-11282D01*
G01X-31692Y-11304D01*
G01X-31671Y-11318D01*
G01X-31646Y-11320D01*
G01X-31330Y-11259D01*
G01X-26458Y-10907D01*
G01X-25988Y-10900D01*
G01X-21047Y-11254D01*
G01X-16918Y-12001D01*
G01X-15631Y-12101D01*
G01X-14949Y-12104D01*
G01X-14476Y-12058D01*
G01X-14026Y-11972D01*
G01X-13026Y-11628D01*
G01X-12454Y-11385D01*
G01X-11640Y-10906D01*
G01X-11174Y-10580D01*
G01X-10699Y-10156D01*
G01X-10171Y-09479D01*
G01X-09867Y-08997D01*
G01X-09430Y-07835D01*
G01X-09291Y-07169D01*
G01X-09146Y-06103D01*
G01X-09149Y-04821D01*
G01X-09298Y-02887D01*
G01X-09933Y00593D01*
G01X-12092Y08228D01*
G01X-14180Y13984D01*
G01X-16471Y19313D01*
G01X-22159Y30485D01*
G01X-26158Y37060D01*
G01X-26191Y37083D01*
G01X-26230Y37075D01*
G01X-30181Y30659D01*
G01X-35899Y19374D01*
G01X-38178Y13961D01*
G01X-40259Y08224D01*
G01X-42458Y00574D01*
G01X-43100Y-02914D01*
G01X-43250Y-04847D01*
G01X-43202Y-06111D01*
G01X-43059Y-07241D01*
G01X-42903Y-07900D01*
G01X-42717Y-08491D01*
G01X-42534Y-08948D01*
G01X-42260Y-09457D01*
G01X-41922Y-09886D01*
G01X-41518Y-10287D01*
G01X-40673Y-10948D01*
G01X-39884Y-11392D01*
G01X-38324Y-11973D01*
G01X-37886Y-12105D01*
G01X-37448Y-12151D01*
G01X-36751Y-12154D01*
G01X-35510Y-12005D01*
G01X-35510Y-12005D01*
G37*
D23*
G01X-25107Y30684D02*
G01X-25107Y30684D01*
G01X-25017Y30708D01*
G01X-24929Y30749D01*
G01X-24866Y30795D01*
G01X-25200Y31129D01*
G01X-25534Y30796D01*
G01X-25481Y30757D01*
G01X-25390Y30711D01*
G01X-25302Y30686D01*
G01X-25214Y30675D01*
G01X-25107Y30684D01*
D23*
G01X-25286Y26451D02*
G01X-25286Y26451D01*
G01X-25286Y26828D01*
G01X-25529Y26828D01*
G01X-25606Y26816D01*
G01X-25680Y26778D01*
G01X-25731Y26727D01*
G01X-25769Y26653D01*
G01X-25781Y26578D01*
G01X-25781Y26451D01*
G01X-25781Y26451D01*
G01X-25286Y26451D01*
D23*
G01X-24691Y26451D02*
G01X-24691Y26451D01*
G01X-24691Y26578D01*
G01X-24703Y26653D01*
G01X-24741Y26727D01*
G01X-24792Y26778D01*
G01X-24866Y26816D01*
G01X-24943Y26828D01*
G01X-25186Y26828D01*
G01X-25186Y26451D01*
G01X-25186Y26451D01*
G01X-24691Y26451D01*
D23*
G01X-24943Y25974D02*
G01X-24943Y25974D01*
G01X-24866Y25986D01*
G01X-24792Y26024D01*
G01X-24741Y26075D01*
G01X-24703Y26149D01*
G01X-24691Y26224D01*
G01X-24691Y26351D01*
G01X-25186Y26351D01*
G01X-25186Y25974D01*
G01X-25186Y25974D01*
G01X-24943Y25974D01*
D23*
G01X-25286Y25974D02*
G01X-25286Y25974D01*
G01X-25286Y26351D01*
G01X-25781Y26351D01*
G01X-25781Y26224D01*
G01X-25769Y26149D01*
G01X-25731Y26075D01*
G01X-25680Y26024D01*
G01X-25606Y25986D01*
G01X-25529Y25974D01*
G01X-25529Y25974D01*
G01X-25286Y25974D01*
D23*
G01X-24977Y25200D02*
G01X-24977Y25200D01*
G01X-24977Y25505D01*
G01X-24990Y25582D01*
G01X-25024Y25650D01*
G01X-25081Y25707D01*
G01X-25149Y25741D01*
G01X-25234Y25755D01*
G01X-25491Y25755D01*
G01X-25491Y25200D01*
G01X-25491Y25200D01*
G01X-24977Y25200D01*
D23*
G01X-25229Y24546D02*
G01X-25229Y24546D01*
G01X-25148Y24559D01*
G01X-25081Y24593D01*
G01X-25024Y24650D01*
G01X-24990Y24718D01*
G01X-24976Y24803D01*
G01X-24976Y25100D01*
G01X-25491Y25100D01*
G01X-25491Y24546D01*
G01X-25491Y24546D01*
G01X-25229Y24546D01*
D23*
G01X-34951Y07314D02*
G01X-34951Y07314D01*
G01X-34951Y07809D01*
G01X-35076Y07809D01*
G01X-35153Y07797D01*
G01X-35227Y07759D01*
G01X-35278Y07708D01*
G01X-35316Y07634D01*
G01X-35328Y07559D01*
G01X-35328Y07314D01*
G01X-35328Y07314D01*
G01X-34951Y07314D01*
D23*
G01X-34474Y07314D02*
G01X-34474Y07314D01*
G01X-34474Y07559D01*
G01X-34486Y07634D01*
G01X-34524Y07708D01*
G01X-34575Y07759D01*
G01X-34649Y07797D01*
G01X-34726Y07809D01*
G01X-34851Y07809D01*
G01X-34851Y07314D01*
G01X-34851Y07314D01*
G01X-34474Y07314D01*
D23*
G01X-16051Y07264D02*
G01X-16051Y07264D01*
G01X-16051Y07759D01*
G01X-16176Y07759D01*
G01X-16253Y07747D01*
G01X-16327Y07709D01*
G01X-16378Y07658D01*
G01X-16416Y07584D01*
G01X-16428Y07509D01*
G01X-16428Y07264D01*
G01X-16428Y07264D01*
G01X-16051Y07264D01*
D23*
G01X-15574Y07264D02*
G01X-15574Y07264D01*
G01X-15574Y07509D01*
G01X-15586Y07584D01*
G01X-15624Y07658D01*
G01X-15675Y07709D01*
G01X-15749Y07747D01*
G01X-15826Y07759D01*
G01X-15951Y07759D01*
G01X-15951Y07264D01*
G01X-15951Y07264D01*
G01X-15574Y07264D01*
D23*
G01X-36846Y06809D02*
G01X-36846Y06809D01*
G01X-36846Y07074D01*
G01X-36859Y07151D01*
G01X-36893Y07219D01*
G01X-36950Y07276D01*
G01X-37018Y07310D01*
G01X-37103Y07324D01*
G01X-37400Y07324D01*
G01X-37400Y06809D01*
G01X-37400Y06809D01*
G01X-36846Y06809D01*
D23*
G01X-34726Y06719D02*
G01X-34726Y06719D01*
G01X-34649Y06731D01*
G01X-34575Y06769D01*
G01X-34524Y06820D01*
G01X-34486Y06894D01*
G01X-34474Y06969D01*
G01X-34474Y07214D01*
G01X-34851Y07214D01*
G01X-34851Y06719D01*
G01X-34851Y06719D01*
G01X-34726Y06719D01*
D23*
G01X-34951Y06719D02*
G01X-34951Y06719D01*
G01X-34951Y07214D01*
G01X-35328Y07214D01*
G01X-35328Y06969D01*
G01X-35316Y06894D01*
G01X-35278Y06820D01*
G01X-35227Y06769D01*
G01X-35153Y06731D01*
G01X-35076Y06719D01*
G01X-35076Y06719D01*
G01X-34951Y06719D01*
D23*
G01X-14500Y06709D02*
G01X-14500Y06709D01*
G01X-14500Y07224D01*
G01X-14803Y07224D01*
G01X-14883Y07210D01*
G01X-14950Y07176D01*
G01X-15007Y07119D01*
G01X-15041Y07052D01*
G01X-15055Y06966D01*
G01X-15056Y06709D01*
G01X-15056Y06709D01*
G01X-14500Y06709D01*
D23*
G01X-13846Y06709D02*
G01X-13846Y06709D01*
G01X-13846Y06974D01*
G01X-13859Y07052D01*
G01X-13893Y07119D01*
G01X-13950Y07176D01*
G01X-14018Y07210D01*
G01X-14103Y07224D01*
G01X-14400Y07224D01*
G01X-14400Y06709D01*
G01X-14400Y06709D01*
G01X-13846Y06709D01*
D23*
G01X-15826Y06669D02*
G01X-15826Y06669D01*
G01X-15749Y06681D01*
G01X-15675Y06719D01*
G01X-15623Y06771D01*
G01X-15586Y06845D01*
G01X-15574Y06919D01*
G01X-15574Y07164D01*
G01X-15951Y07164D01*
G01X-15951Y06669D01*
G01X-15951Y06669D01*
G01X-15826Y06669D01*
D23*
G01X-16051Y06669D02*
G01X-16051Y06669D01*
G01X-16051Y07164D01*
G01X-16428Y07164D01*
G01X-16428Y06919D01*
G01X-16416Y06845D01*
G01X-16379Y06771D01*
G01X-16327Y06719D01*
G01X-16253Y06681D01*
G01X-16176Y06669D01*
G01X-16176Y06669D01*
G01X-16051Y06669D01*
D23*
G01X-29559Y06500D02*
G01X-29559Y06500D01*
G01X-29559Y07055D01*
G01X-29822Y07055D01*
G01X-29902Y07041D01*
G01X-29969Y07007D01*
G01X-30026Y06950D01*
G01X-30060Y06882D01*
G01X-30074Y06797D01*
G01X-30074Y06500D01*
G01X-30074Y06500D01*
G01X-29559Y06500D01*
D23*
G01X-29559Y05845D02*
G01X-29559Y05845D01*
G01X-29559Y06400D01*
G01X-30074Y06400D01*
G01X-30074Y06096D01*
G01X-30060Y06017D01*
G01X-30026Y05950D01*
G01X-29969Y05893D01*
G01X-29901Y05859D01*
G01X-29816Y05845D01*
G01X-29816Y05845D01*
G01X-29559Y05845D01*
D23*
G01X-23859Y05745D02*
G01X-23859Y05745D01*
G01X-23859Y06300D01*
G01X-24374Y06300D01*
G01X-24374Y05996D01*
G01X-24360Y05917D01*
G01X-24326Y05850D01*
G01X-24269Y05793D01*
G01X-24201Y05759D01*
G01X-24116Y05745D01*
G01X-24116Y05745D01*
G01X-23859Y05745D01*
D23*
G01X-29964Y05149D02*
G01X-29964Y05149D01*
G01X-29964Y05526D01*
G01X-30207Y05526D01*
G01X-30284Y05514D01*
G01X-30358Y05476D01*
G01X-30409Y05425D01*
G01X-30447Y05351D01*
G01X-30459Y05276D01*
G01X-30459Y05149D01*
G01X-30459Y05149D01*
G01X-29964Y05149D01*
D23*
G01X-29369Y05149D02*
G01X-29369Y05149D01*
G01X-29369Y05276D01*
G01X-29381Y05351D01*
G01X-29419Y05425D01*
G01X-29470Y05476D01*
G01X-29544Y05514D01*
G01X-29621Y05526D01*
G01X-29864Y05526D01*
G01X-29864Y05149D01*
G01X-29864Y05149D01*
G01X-29369Y05149D01*
D23*
G01X-24314Y05099D02*
G01X-24314Y05099D01*
G01X-24314Y05476D01*
G01X-24557Y05476D01*
G01X-24634Y05464D01*
G01X-24708Y05426D01*
G01X-24759Y05375D01*
G01X-24797Y05301D01*
G01X-24809Y05226D01*
G01X-24809Y05099D01*
G01X-24809Y05099D01*
G01X-24314Y05099D01*
D23*
G01X-23719Y05099D02*
G01X-23719Y05099D01*
G01X-23719Y05226D01*
G01X-23731Y05301D01*
G01X-23769Y05375D01*
G01X-23820Y05426D01*
G01X-23894Y05464D01*
G01X-23971Y05476D01*
G01X-24214Y05476D01*
G01X-24214Y05099D01*
G01X-24214Y05099D01*
G01X-23719Y05099D01*
D23*
G01X-29621Y04672D02*
G01X-29621Y04672D01*
G01X-29544Y04684D01*
G01X-29470Y04722D01*
G01X-29419Y04773D01*
G01X-29381Y04848D01*
G01X-29369Y04922D01*
G01X-29369Y05049D01*
G01X-29864Y05049D01*
G01X-29864Y04672D01*
G01X-29864Y04672D01*
G01X-29621Y04672D01*
D23*
G01X-29964Y04672D02*
G01X-29964Y04672D01*
G01X-29964Y05049D01*
G01X-30459Y05049D01*
G01X-30459Y04922D01*
G01X-30447Y04848D01*
G01X-30409Y04773D01*
G01X-30358Y04722D01*
G01X-30284Y04684D01*
G01X-30207Y04672D01*
G01X-30207Y04672D01*
G01X-29964Y04672D01*
D23*
G01X-23971Y04622D02*
G01X-23971Y04622D01*
G01X-23894Y04634D01*
G01X-23820Y04672D01*
G01X-23768Y04724D01*
G01X-23731Y04798D01*
G01X-23719Y04872D01*
G01X-23719Y04999D01*
G01X-24214Y04999D01*
G01X-24214Y04622D01*
G01X-24214Y04622D01*
G01X-23971Y04622D01*
D23*
G01X-29621Y03374D02*
G01X-29621Y03374D01*
G01X-29544Y03386D01*
G01X-29470Y03424D01*
G01X-29419Y03475D01*
G01X-29381Y03549D01*
G01X-29369Y03624D01*
G01X-29369Y03978D01*
G01X-29381Y04053D01*
G01X-29419Y04127D01*
G01X-29470Y04178D01*
G01X-29544Y04216D01*
G01X-29621Y04228D01*
G01X-29837Y04233D01*
G01X-30064Y04457D01*
G01X-30119Y04499D01*
G01X-30179Y04528D01*
G01X-30267Y04547D01*
G01X-31341Y04550D01*
G01X-31368Y04564D01*
G01X-32438Y05628D01*
G01X-32498Y05665D01*
G01X-32599Y05696D01*
G01X-34462Y05699D01*
G01X-34496Y05725D01*
G01X-34524Y05780D01*
G01X-34575Y05831D01*
G01X-34649Y05869D01*
G01X-34726Y05881D01*
G01X-35076Y05881D01*
G01X-35153Y05869D01*
G01X-35227Y05831D01*
G01X-35278Y05780D01*
G01X-35316Y05706D01*
G01X-35328Y05631D01*
G01X-35328Y05041D01*
G01X-35316Y04967D01*
G01X-35278Y04892D01*
G01X-35227Y04841D01*
G01X-35153Y04803D01*
G01X-35076Y04791D01*
G01X-34726Y04791D01*
G01X-34649Y04803D01*
G01X-34575Y04841D01*
G01X-34524Y04892D01*
G01X-34480Y04978D01*
G01X-34462Y04995D01*
G01X-34438Y05001D01*
G01X-32798Y05000D01*
G01X-31710Y03921D01*
G01X-31649Y03884D01*
G01X-31580Y03860D01*
G01X-31515Y03850D01*
G01X-30494Y03853D01*
G01X-30469Y03834D01*
G01X-30459Y03805D01*
G01X-30459Y03624D01*
G01X-30447Y03549D01*
G01X-30409Y03475D01*
G01X-30358Y03424D01*
G01X-30284Y03386D01*
G01X-30207Y03374D01*
G01X-30207Y03374D01*
G01X-29621Y03374D01*
D23*
G01X-31377Y03200D02*
G01X-31377Y03200D01*
G01X-31377Y03505D01*
G01X-31390Y03582D01*
G01X-31424Y03650D01*
G01X-31481Y03707D01*
G01X-31549Y03741D01*
G01X-31634Y03755D01*
G01X-31891Y03755D01*
G01X-31891Y03200D01*
G01X-31891Y03200D01*
G01X-31377Y03200D01*
D23*
G01X-25177Y03150D02*
G01X-25177Y03150D01*
G01X-25177Y03455D01*
G01X-25190Y03532D01*
G01X-25224Y03600D01*
G01X-25281Y03657D01*
G01X-25349Y03691D01*
G01X-25434Y03705D01*
G01X-25691Y03705D01*
G01X-25691Y03150D01*
G01X-25691Y03150D01*
G01X-25177Y03150D01*
D23*
G01X-31629Y02546D02*
G01X-31629Y02546D01*
G01X-31548Y02559D01*
G01X-31481Y02593D01*
G01X-31424Y02650D01*
G01X-31390Y02718D01*
G01X-31376Y02803D01*
G01X-31376Y03100D01*
G01X-31891Y03100D01*
G01X-31891Y02546D01*
G01X-31891Y02546D01*
G01X-31629Y02546D01*
D23*
G01X-18936Y00801D02*
G01X-18936Y00801D01*
G01X-18936Y01178D01*
G01X-19179Y01178D01*
G01X-19256Y01166D01*
G01X-19330Y01128D01*
G01X-19381Y01077D01*
G01X-19419Y01003D01*
G01X-19431Y00928D01*
G01X-19431Y00801D01*
G01X-19431Y00801D01*
G01X-18936Y00801D01*
D23*
G01X-18341Y00801D02*
G01X-18341Y00801D01*
G01X-18341Y00928D01*
G01X-18353Y01003D01*
G01X-18391Y01077D01*
G01X-18442Y01128D01*
G01X-18516Y01166D01*
G01X-18593Y01178D01*
G01X-18836Y01178D01*
G01X-18836Y00801D01*
G01X-18836Y00801D01*
G01X-18341Y00801D01*
D23*
G01X-31586Y00751D02*
G01X-31586Y00751D01*
G01X-31586Y01128D01*
G01X-31829Y01128D01*
G01X-31906Y01116D01*
G01X-31980Y01078D01*
G01X-32031Y01027D01*
G01X-32069Y00953D01*
G01X-32081Y00878D01*
G01X-32081Y00751D01*
G01X-32081Y00751D01*
G01X-31586Y00751D01*
D23*
G01X-30991Y00751D02*
G01X-30991Y00751D01*
G01X-30991Y00878D01*
G01X-31003Y00953D01*
G01X-31041Y01027D01*
G01X-31092Y01078D01*
G01X-31166Y01116D01*
G01X-31243Y01128D01*
G01X-31486Y01128D01*
G01X-31486Y00751D01*
G01X-31486Y00751D01*
G01X-30991Y00751D01*
D23*
G01X-25286Y00751D02*
G01X-25286Y00751D01*
G01X-25286Y01128D01*
G01X-25529Y01128D01*
G01X-25606Y01116D01*
G01X-25680Y01078D01*
G01X-25731Y01027D01*
G01X-25769Y00953D01*
G01X-25781Y00878D01*
G01X-25781Y00751D01*
G01X-25781Y00751D01*
G01X-25286Y00751D01*
D23*
G01X-24691Y00751D02*
G01X-24691Y00751D01*
G01X-24691Y00878D01*
G01X-24703Y00953D01*
G01X-24741Y01027D01*
G01X-24792Y01078D01*
G01X-24866Y01116D01*
G01X-24943Y01128D01*
G01X-25186Y01128D01*
G01X-25186Y00751D01*
G01X-25186Y00751D01*
G01X-24691Y00751D01*
D23*
G01X-18593Y00324D02*
G01X-18593Y00324D01*
G01X-18516Y00336D01*
G01X-18442Y00374D01*
G01X-18391Y00425D01*
G01X-18353Y00499D01*
G01X-18341Y00576D01*
G01X-18341Y00701D01*
G01X-18836Y00701D01*
G01X-18836Y00324D01*
G01X-18836Y00324D01*
G01X-18593Y00324D01*
D23*
G01X-18936Y00324D02*
G01X-18936Y00324D01*
G01X-18936Y00701D01*
G01X-19431Y00701D01*
G01X-19431Y00576D01*
G01X-19419Y00499D01*
G01X-19381Y00425D01*
G01X-19330Y00374D01*
G01X-19256Y00336D01*
G01X-19179Y00324D01*
G01X-19179Y00324D01*
G01X-18936Y00324D01*
D23*
G01X-24943Y00274D02*
G01X-24943Y00274D01*
G01X-24866Y00286D01*
G01X-24792Y00324D01*
G01X-24740Y00376D01*
G01X-24703Y00449D01*
G01X-24691Y00527D01*
G01X-24691Y00651D01*
G01X-25186Y00651D01*
G01X-25186Y00274D01*
G01X-25186Y00274D01*
G01X-24943Y00274D01*
D23*
G01X-31243Y00274D02*
G01X-31243Y00274D01*
G01X-31166Y00286D01*
G01X-31092Y00324D01*
G01X-31040Y00376D01*
G01X-31003Y00449D01*
G01X-30991Y00527D01*
G01X-30991Y00651D01*
G01X-31486Y00651D01*
G01X-31486Y00274D01*
G01X-31486Y00274D01*
G01X-31243Y00274D01*
D23*
G01X-31586Y00274D02*
G01X-31586Y00274D01*
G01X-31586Y00651D01*
G01X-32081Y00651D01*
G01X-32081Y00527D01*
G01X-32069Y00449D01*
G01X-32032Y00376D01*
G01X-31980Y00324D01*
G01X-31906Y00286D01*
G01X-31829Y00274D01*
G01X-31829Y00274D01*
G01X-31586Y00274D01*
D23*
G01X-26871Y00274D02*
G01X-26871Y00274D01*
G01X-26794Y00286D01*
G01X-26720Y00324D01*
G01X-26668Y00376D01*
G01X-26631Y00449D01*
G01X-26619Y00524D01*
G01X-26619Y00878D01*
G01X-26631Y00953D01*
G01X-26669Y01027D01*
G01X-26720Y01078D01*
G01X-26794Y01116D01*
G01X-26871Y01128D01*
G01X-27457Y01128D01*
G01X-27534Y01116D01*
G01X-27608Y01078D01*
G01X-27636Y01052D01*
G01X-28333Y01049D01*
G01X-28368Y01064D01*
G01X-29588Y02278D01*
G01X-29648Y02315D01*
G01X-29749Y02346D01*
G01X-31067Y02353D01*
G01X-31092Y02376D01*
G01X-31166Y02414D01*
G01X-31243Y02426D01*
G01X-31829Y02426D01*
G01X-31906Y02414D01*
G01X-31980Y02376D01*
G01X-32031Y02325D01*
G01X-32069Y02251D01*
G01X-32081Y02176D01*
G01X-32081Y01822D01*
G01X-32069Y01747D01*
G01X-32032Y01674D01*
G01X-31980Y01622D01*
G01X-31906Y01584D01*
G01X-31829Y01572D01*
G01X-31243Y01572D01*
G01X-31166Y01584D01*
G01X-31092Y01622D01*
G01X-31065Y01647D01*
G01X-29963Y01654D01*
G01X-29936Y01640D01*
G01X-28710Y00421D01*
G01X-28649Y00384D01*
G01X-28580Y00360D01*
G01X-28515Y00350D01*
G01X-27635Y00349D01*
G01X-27608Y00324D01*
G01X-27534Y00286D01*
G01X-27457Y00274D01*
G01X-27457Y00274D01*
G01X-26871Y00274D01*
D23*
G01X-25286Y00274D02*
G01X-25286Y00274D01*
G01X-25286Y00651D01*
G01X-25781Y00651D01*
G01X-25781Y00527D01*
G01X-25769Y00449D01*
G01X-25732Y00376D01*
G01X-25680Y00324D01*
G01X-25606Y00286D01*
G01X-25529Y00274D01*
G01X-25529Y00274D01*
G01X-25286Y00274D01*
D23*
G01X-18777Y-00350D02*
G01X-18777Y-00350D01*
G01X-18777Y-00046D01*
G01X-18790Y00033D01*
G01X-18824Y00100D01*
G01X-18881Y00157D01*
G01X-18949Y00191D01*
G01X-19034Y00205D01*
G01X-19291Y00205D01*
G01X-19291Y-00350D01*
G01X-19291Y-00350D01*
G01X-18777Y-00350D01*
D23*
G01X-19029Y-01005D02*
G01X-19029Y-01005D01*
G01X-18948Y-00991D01*
G01X-18881Y-00957D01*
G01X-18823Y-00899D01*
G01X-18790Y-00832D01*
G01X-18776Y-00747D01*
G01X-18776Y-00450D01*
G01X-19291Y-00450D01*
G01X-19291Y-01005D01*
G01X-19291Y-01005D01*
G01X-19029Y-01005D01*
D23*
G01X-24514Y-01201D02*
G01X-24514Y-01201D01*
G01X-24514Y-00824D01*
G01X-24757Y-00824D01*
G01X-24834Y-00836D01*
G01X-24908Y-00874D01*
G01X-24959Y-00925D01*
G01X-24997Y-00999D01*
G01X-25009Y-01074D01*
G01X-25009Y-01201D01*
G01X-25009Y-01201D01*
G01X-24514Y-01201D01*
D23*
G01X-23919Y-01201D02*
G01X-23919Y-01201D01*
G01X-23919Y-01074D01*
G01X-23931Y-00999D01*
G01X-23969Y-00925D01*
G01X-24020Y-00874D01*
G01X-24094Y-00836D01*
G01X-24171Y-00824D01*
G01X-24414Y-00824D01*
G01X-24414Y-01201D01*
G01X-24414Y-01201D01*
G01X-23919Y-01201D01*
D23*
G01X-29614Y-01301D02*
G01X-29614Y-01301D01*
G01X-29614Y-00924D01*
G01X-29857Y-00924D01*
G01X-29934Y-00936D01*
G01X-30008Y-00974D01*
G01X-30059Y-01025D01*
G01X-30097Y-01099D01*
G01X-30109Y-01174D01*
G01X-30109Y-01301D01*
G01X-30109Y-01301D01*
G01X-29614Y-01301D01*
D23*
G01X-29019Y-01301D02*
G01X-29019Y-01301D01*
G01X-29019Y-01174D01*
G01X-29031Y-01099D01*
G01X-29069Y-01025D01*
G01X-29120Y-00974D01*
G01X-29194Y-00936D01*
G01X-29271Y-00924D01*
G01X-29514Y-00924D01*
G01X-29514Y-01301D01*
G01X-29514Y-01301D01*
G01X-29019Y-01301D01*
D23*
G01X-34701Y-01386D02*
G01X-34701Y-01386D01*
G01X-34701Y-00891D01*
G01X-34826Y-00891D01*
G01X-34903Y-00903D01*
G01X-34977Y-00941D01*
G01X-35028Y-00992D01*
G01X-35066Y-01066D01*
G01X-35078Y-01141D01*
G01X-35078Y-01386D01*
G01X-35078Y-01386D01*
G01X-34701Y-01386D01*
D23*
G01X-34224Y-01386D02*
G01X-34224Y-01386D01*
G01X-34224Y-01141D01*
G01X-34236Y-01066D01*
G01X-34274Y-00992D01*
G01X-34325Y-00941D01*
G01X-34399Y-00903D01*
G01X-34476Y-00891D01*
G01X-34601Y-00891D01*
G01X-34601Y-01386D01*
G01X-34601Y-01386D01*
G01X-34224Y-01386D01*
D23*
G01X-18114Y-01651D02*
G01X-18114Y-01651D01*
G01X-18114Y-01274D01*
G01X-18357Y-01274D01*
G01X-18434Y-01286D01*
G01X-18508Y-01324D01*
G01X-18559Y-01375D01*
G01X-18597Y-01449D01*
G01X-18609Y-01524D01*
G01X-18609Y-01651D01*
G01X-18609Y-01651D01*
G01X-18114Y-01651D01*
D23*
G01X-17519Y-01651D02*
G01X-17519Y-01651D01*
G01X-17519Y-01524D01*
G01X-17531Y-01449D01*
G01X-17569Y-01375D01*
G01X-17620Y-01324D01*
G01X-17694Y-01286D01*
G01X-17771Y-01274D01*
G01X-18014Y-01274D01*
G01X-18014Y-01651D01*
G01X-18014Y-01651D01*
G01X-17519Y-01651D01*
D23*
G01X-24171Y-01678D02*
G01X-24171Y-01678D01*
G01X-24094Y-01666D01*
G01X-24020Y-01628D01*
G01X-23969Y-01577D01*
G01X-23931Y-01503D01*
G01X-23919Y-01428D01*
G01X-23919Y-01301D01*
G01X-24414Y-01301D01*
G01X-24414Y-01678D01*
G01X-24414Y-01678D01*
G01X-24171Y-01678D01*
D23*
G01X-24514Y-01678D02*
G01X-24514Y-01678D01*
G01X-24514Y-01301D01*
G01X-25009Y-01301D01*
G01X-25009Y-01428D01*
G01X-24997Y-01503D01*
G01X-24959Y-01577D01*
G01X-24908Y-01628D01*
G01X-24834Y-01666D01*
G01X-24757Y-01678D01*
G01X-24757Y-01678D01*
G01X-24514Y-01678D01*
D23*
G01X-29271Y-01778D02*
G01X-29271Y-01778D01*
G01X-29194Y-01766D01*
G01X-29120Y-01728D01*
G01X-29069Y-01677D01*
G01X-29031Y-01602D01*
G01X-29019Y-01528D01*
G01X-29019Y-01401D01*
G01X-29514Y-01401D01*
G01X-29514Y-01778D01*
G01X-29514Y-01778D01*
G01X-29271Y-01778D01*
D23*
G01X-29614Y-01778D02*
G01X-29614Y-01778D01*
G01X-29614Y-01401D01*
G01X-30109Y-01401D01*
G01X-30109Y-01528D01*
G01X-30097Y-01602D01*
G01X-30059Y-01677D01*
G01X-30008Y-01728D01*
G01X-29934Y-01766D01*
G01X-29857Y-01778D01*
G01X-29857Y-01778D01*
G01X-29614Y-01778D01*
D23*
G01X-37000Y-01891D02*
G01X-37000Y-01891D01*
G01X-37000Y-01377D01*
G01X-37303Y-01377D01*
G01X-37382Y-01390D01*
G01X-37450Y-01424D01*
G01X-37507Y-01481D01*
G01X-37541Y-01549D01*
G01X-37555Y-01634D01*
G01X-37555Y-01891D01*
G01X-37555Y-01891D01*
G01X-37000Y-01891D01*
D23*
G01X-34476Y-01981D02*
G01X-34476Y-01981D01*
G01X-34399Y-01969D01*
G01X-34325Y-01931D01*
G01X-34273Y-01879D01*
G01X-34236Y-01805D01*
G01X-34224Y-01731D01*
G01X-34224Y-01486D01*
G01X-34601Y-01486D01*
G01X-34601Y-01981D01*
G01X-34601Y-01981D01*
G01X-34476Y-01981D01*
D23*
G01X-34701Y-01981D02*
G01X-34701Y-01981D01*
G01X-34701Y-01486D01*
G01X-35078Y-01486D01*
G01X-35078Y-01731D01*
G01X-35066Y-01805D01*
G01X-35029Y-01879D01*
G01X-34977Y-01931D01*
G01X-34903Y-01969D01*
G01X-34826Y-01981D01*
G01X-34826Y-01981D01*
G01X-34701Y-01981D01*
D23*
G01X-17771Y-02128D02*
G01X-17771Y-02128D01*
G01X-17694Y-02116D01*
G01X-17620Y-02078D01*
G01X-17569Y-02027D01*
G01X-17531Y-01952D01*
G01X-17519Y-01878D01*
G01X-17519Y-01751D01*
G01X-18014Y-01751D01*
G01X-18014Y-02128D01*
G01X-18014Y-02128D01*
G01X-17771Y-02128D01*
D23*
G01X-18114Y-02128D02*
G01X-18114Y-02128D01*
G01X-18114Y-01751D01*
G01X-18609Y-01751D01*
G01X-18609Y-01878D01*
G01X-18597Y-01952D01*
G01X-18559Y-02027D01*
G01X-18508Y-02078D01*
G01X-18434Y-02116D01*
G01X-18357Y-02128D01*
G01X-18357Y-02128D01*
G01X-18114Y-02128D01*
D23*
G01X-34476Y-03909D02*
G01X-34476Y-03909D01*
G01X-34399Y-03897D01*
G01X-34325Y-03859D01*
G01X-34274Y-03808D01*
G01X-34232Y-03724D01*
G01X-34213Y-03705D01*
G01X-34188Y-03698D01*
G01X-33497Y-03700D01*
G01X-33399Y-03683D01*
G01X-33310Y-03644D01*
G01X-33249Y-03595D01*
G01X-32668Y-03010D01*
G01X-32638Y-03000D01*
G01X-30036Y-03000D01*
G01X-30008Y-03026D01*
G01X-29934Y-03064D01*
G01X-29857Y-03076D01*
G01X-29299Y-03080D01*
G01X-29272Y-03109D01*
G01X-29274Y-03149D01*
G01X-29310Y-03218D01*
G01X-29324Y-03303D01*
G01X-29324Y-03600D01*
G01X-28809Y-03600D01*
G01X-28809Y-03043D01*
G01X-29043Y-03042D01*
G01X-29070Y-03013D01*
G01X-29068Y-02973D01*
G01X-29031Y-02899D01*
G01X-29019Y-02826D01*
G01X-29019Y-02472D01*
G01X-29032Y-02396D01*
G01X-29069Y-02323D01*
G01X-29120Y-02272D01*
G01X-29194Y-02234D01*
G01X-29271Y-02222D01*
G01X-29857Y-02222D01*
G01X-29934Y-02234D01*
G01X-30008Y-02272D01*
G01X-30036Y-02298D01*
G01X-32842Y-02304D01*
G01X-32942Y-02331D01*
G01X-33007Y-02368D01*
G01X-33642Y-02998D01*
G01X-34201Y-03002D01*
G01X-34240Y-02984D01*
G01X-34274Y-02920D01*
G01X-34325Y-02869D01*
G01X-34399Y-02831D01*
G01X-34476Y-02819D01*
G01X-34826Y-02819D01*
G01X-34903Y-02831D01*
G01X-34977Y-02869D01*
G01X-35028Y-02920D01*
G01X-35066Y-02994D01*
G01X-35078Y-03069D01*
G01X-35078Y-03659D01*
G01X-35066Y-03734D01*
G01X-35028Y-03808D01*
G01X-34977Y-03859D01*
G01X-34903Y-03897D01*
G01X-34826Y-03909D01*
G01X-34826Y-03909D01*
G01X-34476Y-03909D01*
D23*
G01X-17609Y-04100D02*
G01X-17609Y-04100D01*
G01X-17609Y-03546D01*
G01X-17872Y-03546D01*
G01X-17951Y-03559D01*
G01X-18019Y-03593D01*
G01X-18076Y-03650D01*
G01X-18110Y-03718D01*
G01X-18124Y-03803D01*
G01X-18124Y-04100D01*
G01X-18124Y-04100D01*
G01X-17609Y-04100D01*
D23*
G01X-24709Y-04205D02*
G01X-24709Y-04205D01*
G01X-24709Y-03650D01*
G01X-25224Y-03650D01*
G01X-25224Y-03955D01*
G01X-25210Y-04032D01*
G01X-25177Y-04099D01*
G01X-25119Y-04157D01*
G01X-25052Y-04191D01*
G01X-24972Y-04205D01*
G01X-24972Y-04205D01*
G01X-24709Y-04205D01*
D23*
G01X-12551Y-04436D02*
G01X-12551Y-04436D01*
G01X-12551Y-03941D01*
G01X-12676Y-03941D01*
G01X-12753Y-03953D01*
G01X-12827Y-03991D01*
G01X-12878Y-04042D01*
G01X-12916Y-04116D01*
G01X-12928Y-04191D01*
G01X-12928Y-04436D01*
G01X-12928Y-04436D01*
G01X-12551Y-04436D01*
D23*
G01X-12074Y-04436D02*
G01X-12074Y-04436D01*
G01X-12074Y-04191D01*
G01X-12086Y-04116D01*
G01X-12124Y-04042D01*
G01X-12175Y-03991D01*
G01X-12249Y-03953D01*
G01X-12326Y-03941D01*
G01X-12451Y-03941D01*
G01X-12451Y-04436D01*
G01X-12451Y-04436D01*
G01X-12074Y-04436D01*
D23*
G01X-12326Y-05031D02*
G01X-12326Y-05031D01*
G01X-12249Y-05019D01*
G01X-12175Y-04981D01*
G01X-12124Y-04930D01*
G01X-12086Y-04854D01*
G01X-12074Y-04781D01*
G01X-12074Y-04536D01*
G01X-12451Y-04536D01*
G01X-12451Y-05031D01*
G01X-12451Y-05031D01*
G01X-12326Y-05031D01*
D23*
G01X-13624Y-05031D02*
G01X-13624Y-05031D01*
G01X-13547Y-05019D01*
G01X-13473Y-04981D01*
G01X-13422Y-04930D01*
G01X-13384Y-04854D01*
G01X-13372Y-04781D01*
G01X-13372Y-04191D01*
G01X-13384Y-04116D01*
G01X-13422Y-04042D01*
G01X-13448Y-04014D01*
G01X-13450Y-03385D01*
G01X-13474Y-03279D01*
G01X-13506Y-03214D01*
G01X-13552Y-03152D01*
G01X-15288Y-01422D01*
G01X-15348Y-01385D01*
G01X-15449Y-01354D01*
G01X-15666Y-01347D01*
G01X-15766Y-01286D01*
G01X-15843Y-01274D01*
G01X-16429Y-01274D01*
G01X-16506Y-01286D01*
G01X-16580Y-01324D01*
G01X-16631Y-01375D01*
G01X-16669Y-01449D01*
G01X-16681Y-01524D01*
G01X-16681Y-01878D01*
G01X-16669Y-01952D01*
G01X-16631Y-02027D01*
G01X-16580Y-02078D01*
G01X-16506Y-02116D01*
G01X-16429Y-02128D01*
G01X-15843Y-02128D01*
G01X-15766Y-02116D01*
G01X-15678Y-02066D01*
G01X-15647Y-02062D01*
G01X-15620Y-02076D01*
G01X-14152Y-03546D01*
G01X-14152Y-04016D01*
G01X-14176Y-04042D01*
G01X-14214Y-04116D01*
G01X-14226Y-04191D01*
G01X-14226Y-04781D01*
G01X-14214Y-04854D01*
G01X-14176Y-04930D01*
G01X-14125Y-04981D01*
G01X-14051Y-05019D01*
G01X-13974Y-05031D01*
G01X-13974Y-05031D01*
G01X-13624Y-05031D01*
D23*
G01X-12551Y-05031D02*
G01X-12551Y-05031D01*
G01X-12551Y-04536D01*
G01X-12928Y-04536D01*
G01X-12928Y-04781D01*
G01X-12916Y-04854D01*
G01X-12878Y-04930D01*
G01X-12827Y-04981D01*
G01X-12753Y-05019D01*
G01X-12676Y-05031D01*
G01X-12676Y-05031D01*
G01X-12551Y-05031D01*
D23*
G01X-11250Y-05091D02*
G01X-11250Y-05091D01*
G01X-11250Y-04577D01*
G01X-11553Y-04577D01*
G01X-11632Y-04590D01*
G01X-11700Y-04624D01*
G01X-11757Y-04681D01*
G01X-11791Y-04748D01*
G01X-11805Y-04834D01*
G01X-11805Y-05091D01*
G01X-11805Y-05091D01*
G01X-11250Y-05091D01*
D23*
G01X-10596Y-05091D02*
G01X-10596Y-05091D01*
G01X-10596Y-04827D01*
G01X-10609Y-04748D01*
G01X-10643Y-04681D01*
G01X-10700Y-04624D01*
G01X-10768Y-04590D01*
G01X-10853Y-04576D01*
G01X-11150Y-04576D01*
G01X-11150Y-05091D01*
G01X-11150Y-05091D01*
G01X-10596Y-05091D01*
D23*
G01X-22149Y-05814D02*
G01X-22149Y-05814D01*
G01X-22149Y-05319D01*
G01X-22274Y-05319D01*
G01X-22351Y-05331D01*
G01X-22425Y-05369D01*
G01X-22476Y-05420D01*
G01X-22513Y-05493D01*
G01X-22526Y-05569D01*
G01X-22526Y-05814D01*
G01X-22526Y-05814D01*
G01X-22149Y-05814D01*
D23*
G01X-21672Y-05814D02*
G01X-21672Y-05814D01*
G01X-21672Y-05569D01*
G01X-21685Y-05493D01*
G01X-21722Y-05420D01*
G01X-21773Y-05369D01*
G01X-21847Y-05331D01*
G01X-21924Y-05319D01*
G01X-22049Y-05319D01*
G01X-22049Y-05814D01*
G01X-22049Y-05814D01*
G01X-21672Y-05814D01*
D23*
G01X-29643Y-05926D02*
G01X-29643Y-05926D01*
G01X-29566Y-05914D01*
G01X-29492Y-05876D01*
G01X-29441Y-05825D01*
G01X-29403Y-05750D01*
G01X-29391Y-05676D01*
G01X-29390Y-05549D01*
G01X-29886Y-05549D01*
G01X-29886Y-05926D01*
G01X-29886Y-05926D01*
G01X-29643Y-05926D01*
D23*
G01X-29986Y-05926D02*
G01X-29986Y-05926D01*
G01X-29986Y-05549D01*
G01X-30481Y-05549D01*
G01X-30481Y-05676D01*
G01X-30469Y-05750D01*
G01X-30431Y-05825D01*
G01X-30380Y-05876D01*
G01X-30306Y-05914D01*
G01X-30229Y-05926D01*
G01X-30229Y-05926D01*
G01X-29986Y-05926D01*
D23*
G01X-38236Y-05999D02*
G01X-38236Y-05999D01*
G01X-38236Y-05622D01*
G01X-38479Y-05622D01*
G01X-38556Y-05634D01*
G01X-38630Y-05672D01*
G01X-38681Y-05723D01*
G01X-38719Y-05797D01*
G01X-38731Y-05872D01*
G01X-38731Y-05999D01*
G01X-38731Y-05999D01*
G01X-38236Y-05999D01*
D23*
G01X-37641Y-05999D02*
G01X-37641Y-05999D01*
G01X-37641Y-05872D01*
G01X-37653Y-05797D01*
G01X-37691Y-05723D01*
G01X-37742Y-05672D01*
G01X-37816Y-05634D01*
G01X-37893Y-05622D01*
G01X-38136Y-05622D01*
G01X-38136Y-05999D01*
G01X-38136Y-05999D01*
G01X-37641Y-05999D01*
D23*
G01X-19650Y-05609D02*
G01X-19650Y-05609D01*
G01X-20205Y-05609D01*
G01X-20205Y-05874D01*
G01X-20191Y-05952D01*
G01X-20157Y-06019D01*
G01X-20100Y-06076D01*
G01X-20033Y-06110D01*
G01X-19953Y-06124D01*
G01X-19650Y-06125D01*
G01X-19650Y-06125D01*
G01X-19650Y-05609D01*
D23*
G01X-21924Y-06409D02*
G01X-21924Y-06409D01*
G01X-21847Y-06397D01*
G01X-21773Y-06359D01*
G01X-21722Y-06308D01*
G01X-21684Y-06233D01*
G01X-21672Y-06159D01*
G01X-21672Y-05914D01*
G01X-22049Y-05914D01*
G01X-22049Y-06409D01*
G01X-22049Y-06409D01*
G01X-21924Y-06409D01*
D23*
G01X-22149Y-06409D02*
G01X-22149Y-06409D01*
G01X-22149Y-05914D01*
G01X-22526Y-05914D01*
G01X-22526Y-06159D01*
G01X-22514Y-06233D01*
G01X-22476Y-06308D01*
G01X-22425Y-06359D01*
G01X-22351Y-06397D01*
G01X-22274Y-06409D01*
G01X-22274Y-06409D01*
G01X-22149Y-06409D01*
D23*
G01X-37893Y-06476D02*
G01X-37893Y-06476D01*
G01X-37816Y-06464D01*
G01X-37742Y-06426D01*
G01X-37691Y-06375D01*
G01X-37653Y-06299D01*
G01X-37641Y-06226D01*
G01X-37641Y-06099D01*
G01X-38136Y-06099D01*
G01X-38136Y-06476D01*
G01X-38136Y-06476D01*
G01X-37893Y-06476D01*
D23*
G01X-38236Y-06476D02*
G01X-38236Y-06476D01*
G01X-38236Y-06099D01*
G01X-38731Y-06099D01*
G01X-38731Y-06226D01*
G01X-38719Y-06299D01*
G01X-38681Y-06375D01*
G01X-38630Y-06426D01*
G01X-38556Y-06464D01*
G01X-38479Y-06476D01*
G01X-38479Y-06476D01*
G01X-38236Y-06476D01*
D23*
G01X-29877Y-06600D02*
G01X-29877Y-06600D01*
G01X-29877Y-06296D01*
G01X-29890Y-06217D01*
G01X-29924Y-06150D01*
G01X-29981Y-06093D01*
G01X-30049Y-06059D01*
G01X-30134Y-06045D01*
G01X-30391Y-06045D01*
G01X-30391Y-06600D01*
G01X-30391Y-06600D01*
G01X-29877Y-06600D01*
D23*
G01X-30129Y-07255D02*
G01X-30129Y-07255D01*
G01X-30048Y-07241D01*
G01X-29981Y-07207D01*
G01X-29924Y-07150D01*
G01X-29890Y-07082D01*
G01X-29876Y-06997D01*
G01X-29876Y-06700D01*
G01X-30391Y-06700D01*
G01X-30391Y-07255D01*
G01X-30391Y-07255D01*
G01X-30129Y-07255D01*
D23*
G01X-38077Y-07350D02*
G01X-38077Y-07350D01*
G01X-38077Y-07046D01*
G01X-38090Y-06967D01*
G01X-38124Y-06900D01*
G01X-38181Y-06843D01*
G01X-38249Y-06809D01*
G01X-38334Y-06795D01*
G01X-38591Y-06795D01*
G01X-38591Y-07350D01*
G01X-38591Y-07350D01*
G01X-38077Y-07350D01*
D23*
G01X-38329Y-08005D02*
G01X-38329Y-08005D01*
G01X-38248Y-07991D01*
G01X-38181Y-07957D01*
G01X-38124Y-07900D01*
G01X-38090Y-07832D01*
G01X-38076Y-07747D01*
G01X-38076Y-07450D01*
G01X-38591Y-07450D01*
G01X-38591Y-08007D01*
G01X-38591Y-08007D01*
G01X-38329Y-08005D01*
D23*
G01X-24250Y-08324D02*
G01X-24250Y-08324D01*
G01X-24250Y-07809D01*
G01X-24805Y-07809D01*
G01X-24805Y-08074D01*
G01X-24791Y-08152D01*
G01X-24758Y-08218D01*
G01X-24700Y-08276D01*
G01X-24633Y-08310D01*
G01X-24553Y-08324D01*
G01X-24553Y-08324D01*
G01X-24250Y-08324D01*
D23*
G01X-26624Y-08659D02*
G01X-26624Y-08659D01*
G01X-26547Y-08647D01*
G01X-26473Y-08609D01*
G01X-26422Y-08558D01*
G01X-26384Y-08484D01*
G01X-26372Y-08409D01*
G01X-26372Y-08164D01*
G01X-26749Y-08164D01*
G01X-26749Y-08659D01*
G01X-26749Y-08659D01*
G01X-26624Y-08659D01*
D23*
G01X-26849Y-08659D02*
G01X-26849Y-08659D01*
G01X-26849Y-08164D01*
G01X-27226Y-08164D01*
G01X-27226Y-08409D01*
G01X-27214Y-08484D01*
G01X-27176Y-08558D01*
G01X-27125Y-08609D01*
G01X-27051Y-08647D01*
G01X-26974Y-08659D01*
G01X-26974Y-08659D01*
G01X-26849Y-08659D01*
D23*
G01X-18336Y-09149D02*
G01X-18336Y-09149D01*
G01X-18336Y-08772D01*
G01X-18579Y-08772D01*
G01X-18656Y-08784D01*
G01X-18730Y-08822D01*
G01X-18781Y-08873D01*
G01X-18819Y-08947D01*
G01X-18831Y-09022D01*
G01X-18831Y-09149D01*
G01X-18831Y-09149D01*
G01X-18336Y-09149D01*
D23*
G01X-17741Y-09149D02*
G01X-17741Y-09149D01*
G01X-17741Y-09022D01*
G01X-17753Y-08947D01*
G01X-17791Y-08873D01*
G01X-17842Y-08822D01*
G01X-17916Y-08784D01*
G01X-17993Y-08772D01*
G01X-18236Y-08772D01*
G01X-18236Y-09149D01*
G01X-18236Y-09149D01*
G01X-17741Y-09149D01*
D23*
G01X-32236Y-09199D02*
G01X-32236Y-09199D01*
G01X-32236Y-08822D01*
G01X-32479Y-08822D01*
G01X-32556Y-08834D01*
G01X-32630Y-08872D01*
G01X-32681Y-08923D01*
G01X-32719Y-08997D01*
G01X-32731Y-09072D01*
G01X-32731Y-09199D01*
G01X-32731Y-09199D01*
G01X-32236Y-09199D01*
D23*
G01X-31641Y-09199D02*
G01X-31641Y-09199D01*
G01X-31641Y-09072D01*
G01X-31653Y-08997D01*
G01X-31691Y-08923D01*
G01X-31742Y-08872D01*
G01X-31816Y-08834D01*
G01X-31893Y-08822D01*
G01X-32136Y-08822D01*
G01X-32136Y-09199D01*
G01X-32136Y-09199D01*
G01X-31641Y-09199D01*
D23*
G01X-17993Y-09626D02*
G01X-17993Y-09626D01*
G01X-17916Y-09614D01*
G01X-17842Y-09576D01*
G01X-17791Y-09525D01*
G01X-17753Y-09450D01*
G01X-17741Y-09376D01*
G01X-17741Y-09249D01*
G01X-18236Y-09249D01*
G01X-18236Y-09626D01*
G01X-18236Y-09626D01*
G01X-17993Y-09626D01*
D23*
G01X-18336Y-09626D02*
G01X-18336Y-09626D01*
G01X-18336Y-09249D01*
G01X-18831Y-09249D01*
G01X-18831Y-09376D01*
G01X-18819Y-09450D01*
G01X-18781Y-09525D01*
G01X-18730Y-09576D01*
G01X-18656Y-09614D01*
G01X-18579Y-09626D01*
G01X-18579Y-09626D01*
G01X-18336Y-09626D01*
D23*
G01X-31893Y-09676D02*
G01X-31893Y-09676D01*
G01X-31816Y-09664D01*
G01X-31742Y-09626D01*
G01X-31690Y-09574D01*
G01X-31653Y-09501D01*
G01X-31641Y-09426D01*
G01X-31641Y-09299D01*
G01X-32136Y-09299D01*
G01X-32136Y-09676D01*
G01X-32136Y-09676D01*
G01X-31893Y-09676D01*
D23*
G01X-32236Y-09676D02*
G01X-32236Y-09676D01*
G01X-32236Y-09299D01*
G01X-32731Y-09299D01*
G01X-32731Y-09426D01*
G01X-32719Y-09501D01*
G01X-32682Y-09574D01*
G01X-32630Y-09626D01*
G01X-32556Y-09664D01*
G01X-32479Y-09676D01*
G01X-32479Y-09676D01*
G01X-32236Y-09676D01*
D23*
G01X-18277Y-10300D02*
G01X-18277Y-10300D01*
G01X-18277Y-09996D01*
G01X-18290Y-09917D01*
G01X-18324Y-09850D01*
G01X-18381Y-09793D01*
G01X-18449Y-09759D01*
G01X-18534Y-09745D01*
G01X-18791Y-09745D01*
G01X-18791Y-10300D01*
G01X-18791Y-10300D01*
G01X-18277Y-10300D01*
D23*
G01X-32124Y-10400D02*
G01X-32124Y-10400D01*
G01X-32127Y-10096D01*
G01X-32140Y-10017D01*
G01X-32174Y-09950D01*
G01X-32232Y-09892D01*
G01X-32299Y-09859D01*
G01X-32384Y-09845D01*
G01X-32641Y-09844D01*
G01X-32641Y-10400D01*
G01X-32641Y-10400D01*
G01X-32124Y-10400D01*
D23*
G01X-18529Y-10955D02*
G01X-18529Y-10955D01*
G01X-18448Y-10941D01*
G01X-18381Y-10907D01*
G01X-18323Y-10849D01*
G01X-18290Y-10782D01*
G01X-18276Y-10697D01*
G01X-18276Y-10400D01*
G01X-18791Y-10400D01*
G01X-18791Y-10955D01*
G01X-18791Y-10955D01*
G01X-18529Y-10955D01*
D23*
G01X-37448Y-12151D02*
G01X-37448Y-12151D01*
G01X-37886Y-12105D01*
G01X-38324Y-11973D01*
G01X-39884Y-11392D01*
G01X-40673Y-10948D01*
G01X-41518Y-10287D01*
G01X-41922Y-09886D01*
G01X-42260Y-09457D01*
G01X-42534Y-08948D01*
G01X-42717Y-08491D01*
G01X-42903Y-07900D01*
G01X-43059Y-07241D01*
G01X-43202Y-06111D01*
G01X-43250Y-04847D01*
G01X-43100Y-02914D01*
G01X-42458Y00574D01*
G01X-40259Y08224D01*
G01X-38178Y13961D01*
G01X-35899Y19374D01*
G01X-30181Y30659D01*
G01X-26230Y37075D01*
G01X-26191Y37083D01*
G01X-26158Y37060D01*
G01X-22159Y30485D01*
G01X-16471Y19313D01*
G01X-14180Y13984D01*
G01X-12092Y08228D01*
G01X-09933Y00593D01*
G01X-09298Y-02887D01*
G01X-09149Y-04821D01*
G01X-09146Y-06103D01*
G01X-09291Y-07169D01*
G01X-09430Y-07835D01*
G01X-09867Y-08997D01*
G01X-10171Y-09479D01*
G01X-10699Y-10156D01*
G01X-11174Y-10580D01*
G01X-11640Y-10906D01*
G01X-12454Y-11385D01*
G01X-13026Y-11628D01*
G01X-14026Y-11972D01*
G01X-14476Y-12058D01*
G01X-14949Y-12104D01*
G01X-15631Y-12101D01*
G01X-16918Y-12001D01*
G01X-21047Y-11254D01*
G01X-25988Y-10900D01*
G01X-26458Y-10907D01*
G01X-31330Y-11259D01*
G01X-31646Y-11320D01*
G01X-31671Y-11318D01*
G01X-31692Y-11304D01*
G01X-31704Y-11282D01*
G01X-31703Y-11257D01*
G01X-31690Y-11236D01*
G01X-28055Y-07601D01*
G01X-27220Y-07595D01*
G01X-27184Y-07611D01*
G01X-27170Y-07648D01*
G01X-27214Y-07744D01*
G01X-27226Y-07819D01*
G01X-27226Y-08064D01*
G01X-26372Y-08064D01*
G01X-26372Y-07819D01*
G01X-26384Y-07744D01*
G01X-26422Y-07670D01*
G01X-26473Y-07619D01*
G01X-26547Y-07581D01*
G01X-26726Y-07564D01*
G01X-26752Y-07527D01*
G01X-26751Y-07504D01*
G01X-26739Y-07484D01*
G01X-26253Y-07001D01*
G01X-25880Y-06993D01*
G01X-25810Y-06970D01*
G01X-25749Y-06936D01*
G01X-25547Y-06741D01*
G01X-25517Y-06731D01*
G01X-25458Y-06736D01*
G01X-25260Y-06929D01*
G01X-25199Y-06966D01*
G01X-25130Y-06990D01*
G01X-25065Y-07000D01*
G01X-24828Y-07000D01*
G01X-24794Y-07027D01*
G01X-24758Y-07100D01*
G01X-24687Y-07171D01*
G01X-24679Y-07210D01*
G01X-24687Y-07229D01*
G01X-24757Y-07299D01*
G01X-24791Y-07367D01*
G01X-24805Y-07452D01*
G01X-24805Y-07709D01*
G01X-23596Y-07709D01*
G01X-23596Y-07445D01*
G01X-23609Y-07366D01*
G01X-23643Y-07299D01*
G01X-23713Y-07229D01*
G01X-23721Y-07190D01*
G01X-23713Y-07171D01*
G01X-23642Y-07100D01*
G01X-23608Y-07031D01*
G01X-23595Y-06948D01*
G01X-23596Y-06327D01*
G01X-23609Y-06248D01*
G01X-23643Y-06181D01*
G01X-23700Y-06124D01*
G01X-23767Y-06090D01*
G01X-23825Y-06078D01*
G01X-23845Y-06060D01*
G01X-23853Y-06033D01*
G01X-23846Y-05343D01*
G01X-23535Y-05026D01*
G01X-23515Y-05014D01*
G01X-23491Y-05012D01*
G01X-23470Y-05020D01*
G01X-23454Y-05038D01*
G01X-23448Y-08146D01*
G01X-23556Y-08263D01*
G01X-23581Y-08277D01*
G01X-23609Y-08275D01*
G01X-23631Y-08259D01*
G01X-23642Y-08233D01*
G01X-23637Y-08205D01*
G01X-23609Y-08151D01*
G01X-23595Y-08066D01*
G01X-23595Y-07809D01*
G01X-24150Y-07809D01*
G01X-24150Y-08324D01*
G01X-23848Y-08324D01*
G01X-23768Y-08310D01*
G01X-23712Y-08281D01*
G01X-23684Y-08276D01*
G01X-23659Y-08286D01*
G01X-23642Y-08309D01*
G01X-23640Y-08336D01*
G01X-23653Y-08361D01*
G01X-23749Y-08451D01*
G01X-24792Y-08450D01*
G01X-24819Y-08437D01*
G01X-25064Y-08194D01*
G01X-25074Y-08164D01*
G01X-25074Y-07819D01*
G01X-25086Y-07744D01*
G01X-25124Y-07670D01*
G01X-25175Y-07619D01*
G01X-25249Y-07581D01*
G01X-25326Y-07569D01*
G01X-25676Y-07569D01*
G01X-25753Y-07581D01*
G01X-25827Y-07619D01*
G01X-25878Y-07670D01*
G01X-25916Y-07744D01*
G01X-25928Y-07819D01*
G01X-25928Y-08409D01*
G01X-25916Y-08484D01*
G01X-25878Y-08558D01*
G01X-25827Y-08609D01*
G01X-25753Y-08647D01*
G01X-25582Y-08664D01*
G01X-25160Y-09079D01*
G01X-25099Y-09116D01*
G01X-25030Y-09140D01*
G01X-24965Y-09150D01*
G01X-23597Y-09150D01*
G01X-23499Y-09133D01*
G01X-23410Y-09094D01*
G01X-23353Y-09048D01*
G01X-22820Y-08510D01*
G01X-22773Y-08425D01*
G01X-22750Y-08314D01*
G01X-22756Y-08238D01*
G01X-22745Y-05092D01*
G01X-22142Y-04486D01*
G01X-21924Y-04481D01*
G01X-21847Y-04469D01*
G01X-21773Y-04431D01*
G01X-21722Y-04380D01*
G01X-21684Y-04305D01*
G01X-21672Y-04231D01*
G01X-21672Y-03641D01*
G01X-21685Y-03565D01*
G01X-21722Y-03492D01*
G01X-21773Y-03441D01*
G01X-21847Y-03403D01*
G01X-21924Y-03391D01*
G01X-22274Y-03391D01*
G01X-22351Y-03403D01*
G01X-22425Y-03441D01*
G01X-22476Y-03492D01*
G01X-22513Y-03565D01*
G01X-22526Y-03641D01*
G01X-22531Y-03884D01*
G01X-23139Y-04491D01*
G01X-23163Y-04492D01*
G01X-23200Y-04466D01*
G01X-23204Y-04243D01*
G01X-23196Y-04216D01*
G01X-23176Y-04198D01*
G01X-23081Y-04157D01*
G01X-23023Y-04099D01*
G01X-22990Y-04032D01*
G01X-22976Y-03947D01*
G01X-22972Y-03468D01*
G01X-22488Y-02981D01*
G01X-22243Y-02976D01*
G01X-22166Y-02964D01*
G01X-22059Y-02899D01*
G01X-21605Y-02897D01*
G01X-21163Y-03327D01*
G01X-21150Y-03347D01*
G01X-21150Y-03457D01*
G01X-21178Y-03492D01*
G01X-21215Y-03565D01*
G01X-21228Y-03641D01*
G01X-21228Y-04231D01*
G01X-21216Y-04305D01*
G01X-21178Y-04380D01*
G01X-21127Y-04431D01*
G01X-21053Y-04469D01*
G01X-20976Y-04481D01*
G01X-20626Y-04481D01*
G01X-20549Y-04469D01*
G01X-20475Y-04431D01*
G01X-20424Y-04380D01*
G01X-20389Y-04314D01*
G01X-20350Y-04296D01*
G01X-20246Y-04301D01*
G01X-20207Y-04345D01*
G01X-20205Y-04756D01*
G01X-20191Y-04834D01*
G01X-20158Y-04900D01*
G01X-20087Y-04971D01*
G01X-20079Y-05010D01*
G01X-20087Y-05029D01*
G01X-20157Y-05099D01*
G01X-20191Y-05166D01*
G01X-20205Y-05252D01*
G01X-20205Y-05509D01*
G01X-18996Y-05509D01*
G01X-18996Y-05245D01*
G01X-19009Y-05166D01*
G01X-19043Y-05099D01*
G01X-19113Y-05029D01*
G01X-19121Y-04990D01*
G01X-19105Y-04963D01*
G01X-19041Y-04902D01*
G01X-19010Y-04898D01*
G01X-18983Y-04911D01*
G01X-18501Y-05397D01*
G01X-18498Y-05539D01*
G01X-18511Y-05567D01*
G01X-18921Y-05981D01*
G01X-18943Y-05994D01*
G01X-18968Y-05995D01*
G01X-18990Y-05984D01*
G01X-19004Y-05963D01*
G01X-18995Y-05866D01*
G01X-18995Y-05609D01*
G01X-19550Y-05609D01*
G01X-19550Y-06125D01*
G01X-19220Y-06126D01*
G01X-19200Y-06141D01*
G01X-19189Y-06163D01*
G01X-19190Y-06187D01*
G01X-19203Y-06208D01*
G01X-20457Y-07464D01*
G01X-20584Y-07486D01*
G01X-20650Y-07515D01*
G01X-20687Y-07501D01*
G01X-20703Y-07465D01*
G01X-20699Y-06443D01*
G01X-20680Y-06419D01*
G01X-20651Y-06409D01*
G01X-20549Y-06397D01*
G01X-20475Y-06359D01*
G01X-20424Y-06308D01*
G01X-20386Y-06233D01*
G01X-20374Y-06159D01*
G01X-20374Y-05569D01*
G01X-20387Y-05493D01*
G01X-20424Y-05420D01*
G01X-20475Y-05369D01*
G01X-20549Y-05331D01*
G01X-20626Y-05319D01*
G01X-20976Y-05319D01*
G01X-21053Y-05331D01*
G01X-21127Y-05369D01*
G01X-21178Y-05420D01*
G01X-21215Y-05493D01*
G01X-21228Y-05569D01*
G01X-21233Y-05788D01*
G01X-21330Y-05891D01*
G01X-21369Y-05959D01*
G01X-21389Y-06017D01*
G01X-21400Y-06083D01*
G01X-21392Y-08673D01*
G01X-21343Y-08789D01*
G01X-21304Y-08841D01*
G01X-20758Y-09387D01*
G01X-20747Y-09450D01*
G01X-20709Y-09525D01*
G01X-20658Y-09576D01*
G01X-20584Y-09614D01*
G01X-20507Y-09626D01*
G01X-20290Y-09630D01*
G01X-20263Y-09659D01*
G01X-20264Y-09696D01*
G01X-20284Y-09737D01*
G01X-20302Y-09749D01*
G01X-20351Y-09759D01*
G01X-20419Y-09793D01*
G01X-20476Y-09850D01*
G01X-20510Y-09918D01*
G01X-20524Y-10003D01*
G01X-20524Y-10705D01*
G01X-20510Y-10783D01*
G01X-20477Y-10849D01*
G01X-20419Y-10907D01*
G01X-20352Y-10941D01*
G01X-20272Y-10955D01*
G01X-19647Y-10955D01*
G01X-19566Y-10941D01*
G01X-19499Y-10907D01*
G01X-19429Y-10837D01*
G01X-19390Y-10829D01*
G01X-19371Y-10837D01*
G01X-19301Y-10907D01*
G01X-19234Y-10941D01*
G01X-19154Y-10955D01*
G01X-18891Y-10955D01*
G01X-18891Y-09746D01*
G01X-19154Y-09746D01*
G01X-19233Y-09759D01*
G01X-19300Y-09785D01*
G01X-19324Y-09777D01*
G01X-19341Y-09758D01*
G01X-19347Y-09733D01*
G01X-19308Y-09619D01*
G01X-19300Y-09565D01*
G01X-19300Y-08435D01*
G01X-19309Y-08371D01*
G01X-19335Y-08300D01*
G01X-19368Y-08243D01*
G01X-19659Y-07948D01*
G01X-19669Y-07918D01*
G01X-19674Y-07679D01*
G01X-19666Y-07661D01*
G01X-18687Y-06680D01*
G01X-18594Y-06633D01*
G01X-17880Y-05919D01*
G01X-17838Y-05856D01*
G01X-17800Y-05713D01*
G01X-17803Y-05633D01*
G01X-17786Y-05607D01*
G01X-17755Y-05596D01*
G01X-17547Y-05600D01*
G01X-17449Y-05583D01*
G01X-17344Y-05533D01*
G01X-16559Y-04757D01*
G01X-16129Y-04755D01*
G01X-16048Y-04741D01*
G01X-15981Y-04707D01*
G01X-15923Y-04649D01*
G01X-15890Y-04582D01*
G01X-15876Y-04497D01*
G01X-15874Y-04066D01*
G01X-15823Y-03974D01*
G01X-15806Y-03908D01*
G01X-15804Y-03560D01*
G01X-15798Y-03537D01*
G01X-15762Y-03511D01*
G01X-15739Y-03512D01*
G01X-15451Y-03797D01*
G01X-15446Y-05632D01*
G01X-15423Y-05731D01*
G01X-15393Y-05789D01*
G01X-15354Y-05839D01*
G01X-14510Y-06679D01*
G01X-14449Y-06716D01*
G01X-14380Y-06740D01*
G01X-14246Y-06751D01*
G01X-14221Y-06769D01*
G01X-14176Y-06858D01*
G01X-14125Y-06909D01*
G01X-14051Y-06947D01*
G01X-13974Y-06959D01*
G01X-13624Y-06959D01*
G01X-13547Y-06947D01*
G01X-13473Y-06909D01*
G01X-13422Y-06858D01*
G01X-13382Y-06774D01*
G01X-13363Y-06752D01*
G01X-13244Y-06711D01*
G01X-13194Y-06683D01*
G01X-12994Y-06495D01*
G01X-12970Y-06493D01*
G01X-12949Y-06501D01*
G01X-12933Y-06519D01*
G01X-12928Y-06709D01*
G01X-12914Y-06801D01*
G01X-12929Y-06834D01*
G01X-13642Y-07549D01*
G01X-17795Y-07551D01*
G01X-17916Y-07486D01*
G01X-17993Y-07474D01*
G01X-18579Y-07474D01*
G01X-18656Y-07486D01*
G01X-18730Y-07524D01*
G01X-18781Y-07575D01*
G01X-18818Y-07648D01*
G01X-18831Y-07724D01*
G01X-18831Y-08078D01*
G01X-18819Y-08153D01*
G01X-18781Y-08227D01*
G01X-18730Y-08278D01*
G01X-18656Y-08316D01*
G01X-18579Y-08328D01*
G01X-17993Y-08328D01*
G01X-17916Y-08316D01*
G01X-17808Y-08251D01*
G01X-13563Y-08244D01*
G01X-13497Y-08249D01*
G01X-13399Y-08233D01*
G01X-13294Y-08183D01*
G01X-12205Y-07087D01*
G01X-12173Y-07024D01*
G01X-12146Y-06884D01*
G01X-12124Y-06858D01*
G01X-12086Y-06782D01*
G01X-12074Y-06709D01*
G01X-12072Y-06281D01*
G01X-12053Y-06256D01*
G01X-12024Y-06246D01*
G01X-11840Y-06248D01*
G01X-11815Y-06267D01*
G01X-11805Y-06296D01*
G01X-11805Y-06574D01*
G01X-11791Y-06652D01*
G01X-11758Y-06718D01*
G01X-11700Y-06776D01*
G01X-11633Y-06810D01*
G01X-11553Y-06824D01*
G01X-10848Y-06824D01*
G01X-10767Y-06810D01*
G01X-10700Y-06776D01*
G01X-10642Y-06718D01*
G01X-10609Y-06651D01*
G01X-10595Y-06566D01*
G01X-10596Y-05945D01*
G01X-10609Y-05866D01*
G01X-10643Y-05799D01*
G01X-10713Y-05729D01*
G01X-10721Y-05690D01*
G01X-10713Y-05671D01*
G01X-10642Y-05600D01*
G01X-10609Y-05533D01*
G01X-10595Y-05448D01*
G01X-10595Y-05191D01*
G01X-11805Y-05191D01*
G01X-11805Y-05456D01*
G01X-11798Y-05512D01*
G01X-11815Y-05541D01*
G01X-11847Y-05553D01*
G01X-12923Y-05551D01*
G01X-13027Y-05576D01*
G01X-13121Y-05629D01*
G01X-13420Y-05923D01*
G01X-13451Y-05928D01*
G01X-13547Y-05881D01*
G01X-13624Y-05869D01*
G01X-13974Y-05869D01*
G01X-14051Y-05881D01*
G01X-14125Y-05919D01*
G01X-14183Y-05975D01*
G01X-14214Y-05979D01*
G01X-14241Y-05965D01*
G01X-14750Y-05457D01*
G01X-14750Y-03635D01*
G01X-14771Y-03539D01*
G01X-14828Y-03432D01*
G01X-15528Y-02732D01*
G01X-15583Y-02694D01*
G01X-15642Y-02667D01*
G01X-15692Y-02622D01*
G01X-15766Y-02584D01*
G01X-15843Y-02572D01*
G01X-16429Y-02572D01*
G01X-16506Y-02584D01*
G01X-16580Y-02622D01*
G01X-16631Y-02673D01*
G01X-16669Y-02747D01*
G01X-16681Y-02822D01*
G01X-16681Y-03176D01*
G01X-16669Y-03249D01*
G01X-16631Y-03325D01*
G01X-16579Y-03377D01*
G01X-16515Y-03410D01*
G01X-16497Y-03449D01*
G01X-16499Y-03511D01*
G01X-16518Y-03536D01*
G01X-16547Y-03546D01*
G01X-16754Y-03546D01*
G01X-16833Y-03559D01*
G01X-16901Y-03593D01*
G01X-16971Y-03663D01*
G01X-17010Y-03671D01*
G01X-17029Y-03663D01*
G01X-17099Y-03593D01*
G01X-17167Y-03559D01*
G01X-17252Y-03545D01*
G01X-17509Y-03545D01*
G01X-17509Y-04150D01*
G01X-17559Y-04150D01*
G01X-17559Y-04200D01*
G01X-18124Y-04200D01*
G01X-18124Y-04505D01*
G01X-18110Y-04582D01*
G01X-18077Y-04649D01*
G01X-18019Y-04707D01*
G01X-17952Y-04741D01*
G01X-17872Y-04755D01*
G01X-17643Y-04760D01*
G01X-17617Y-04797D01*
G01X-17618Y-04820D01*
G01X-17699Y-04901D01*
G01X-17991Y-04901D01*
G01X-18018Y-04887D01*
G01X-18738Y-04172D01*
G01X-18798Y-04135D01*
G01X-18899Y-04104D01*
G01X-18983Y-04095D01*
G01X-19003Y-04073D01*
G01X-19043Y-03981D01*
G01X-19100Y-03924D01*
G01X-19168Y-03890D01*
G01X-19253Y-03876D01*
G01X-19684Y-03872D01*
G01X-19864Y-03693D01*
G01X-19919Y-03651D01*
G01X-19979Y-03622D01*
G01X-20067Y-03603D01*
G01X-20352Y-03601D01*
G01X-20375Y-03587D01*
G01X-20452Y-03444D01*
G01X-20455Y-03152D01*
G01X-20481Y-03058D01*
G01X-20530Y-02980D01*
G01X-21228Y-02282D01*
G01X-21283Y-02244D01*
G01X-21384Y-02208D01*
G01X-21435Y-02200D01*
G01X-22065Y-02197D01*
G01X-22092Y-02172D01*
G01X-22166Y-02134D01*
G01X-22243Y-02122D01*
G01X-22536Y-02117D01*
G01X-22901Y-01758D01*
G01X-22914Y-01736D01*
G01X-22915Y-01711D01*
G01X-22903Y-01689D01*
G01X-22882Y-01675D01*
G01X-22243Y-01678D01*
G01X-22166Y-01666D01*
G01X-22092Y-01628D01*
G01X-22064Y-01602D01*
G01X-21562Y-01596D01*
G01X-21535Y-01610D01*
G01X-19860Y-03279D01*
G01X-19799Y-03316D01*
G01X-19730Y-03340D01*
G01X-19665Y-03350D01*
G01X-18535Y-03351D01*
G01X-18508Y-03376D01*
G01X-18434Y-03414D01*
G01X-18357Y-03426D01*
G01X-17771Y-03426D01*
G01X-17694Y-03414D01*
G01X-17620Y-03376D01*
G01X-17569Y-03325D01*
G01X-17531Y-03249D01*
G01X-17519Y-03176D01*
G01X-17519Y-02822D01*
G01X-17531Y-02747D01*
G01X-17569Y-02673D01*
G01X-17620Y-02622D01*
G01X-17694Y-02584D01*
G01X-17771Y-02572D01*
G01X-18357Y-02572D01*
G01X-18434Y-02584D01*
G01X-18508Y-02622D01*
G01X-18536Y-02648D01*
G01X-19483Y-02651D01*
G01X-19518Y-02636D01*
G01X-21188Y-00972D01*
G01X-21248Y-00935D01*
G01X-21349Y-00904D01*
G01X-22060Y-00900D01*
G01X-22173Y-00825D01*
G01X-22181Y-00800D01*
G01X-22175Y-00774D01*
G01X-22157Y-00755D01*
G01X-22131Y-00748D01*
G01X-21053Y-00748D01*
G01X-21030Y-00763D01*
G01X-21010Y-00833D01*
G01X-20977Y-00899D01*
G01X-20919Y-00957D01*
G01X-20852Y-00991D01*
G01X-20772Y-01005D01*
G01X-20147Y-01005D01*
G01X-20066Y-00991D01*
G01X-19999Y-00957D01*
G01X-19929Y-00887D01*
G01X-19890Y-00879D01*
G01X-19871Y-00887D01*
G01X-19801Y-00957D01*
G01X-19734Y-00991D01*
G01X-19654Y-01005D01*
G01X-19391Y-01005D01*
G01X-19391Y00205D01*
G01X-19654Y00205D01*
G01X-19734Y00191D01*
G01X-19801Y00161D01*
G01X-19838Y00175D01*
G01X-19854Y00211D01*
G01X-19850Y01015D01*
G01X-19859Y01077D01*
G01X-19884Y01149D01*
G01X-19918Y01207D01*
G01X-20349Y01644D01*
G01X-20354Y01675D01*
G01X-20319Y01723D01*
G01X-20276Y01824D01*
G01X-17383Y04726D01*
G01X-17348Y04741D01*
G01X-17124Y04741D01*
G01X-17047Y04753D01*
G01X-16973Y04791D01*
G01X-16921Y04843D01*
G01X-16882Y04926D01*
G01X-16863Y04948D01*
G01X-16710Y05006D01*
G01X-16649Y05055D01*
G01X-16494Y05205D01*
G01X-16470Y05206D01*
G01X-16433Y05180D01*
G01X-16428Y04991D01*
G01X-16416Y04916D01*
G01X-16379Y04843D01*
G01X-16353Y04815D01*
G01X-16351Y04146D01*
G01X-18099Y02399D01*
G01X-18416Y02402D01*
G01X-18442Y02426D01*
G01X-18516Y02464D01*
G01X-18593Y02476D01*
G01X-19179Y02476D01*
G01X-19256Y02464D01*
G01X-19330Y02426D01*
G01X-19381Y02375D01*
G01X-19418Y02302D01*
G01X-19431Y02226D01*
G01X-19431Y01872D01*
G01X-19419Y01797D01*
G01X-19381Y01723D01*
G01X-19330Y01672D01*
G01X-19256Y01634D01*
G01X-19179Y01622D01*
G01X-18593Y01622D01*
G01X-18516Y01634D01*
G01X-18442Y01672D01*
G01X-18414Y01698D01*
G01X-17947Y01700D01*
G01X-17849Y01717D01*
G01X-17744Y01767D01*
G01X-15732Y03778D01*
G01X-15694Y03834D01*
G01X-15667Y03898D01*
G01X-15655Y03952D01*
G01X-15650Y04810D01*
G01X-15586Y04916D01*
G01X-15574Y04991D01*
G01X-15572Y05568D01*
G01X-15554Y05593D01*
G01X-15524Y05603D01*
G01X-15090Y05603D01*
G01X-15065Y05584D01*
G01X-15055Y05555D01*
G01X-15055Y05227D01*
G01X-15041Y05148D01*
G01X-15007Y05081D01*
G01X-14950Y05024D01*
G01X-14882Y04990D01*
G01X-14797Y04976D01*
G01X-14098Y04977D01*
G01X-14017Y04990D01*
G01X-13950Y05024D01*
G01X-13893Y05081D01*
G01X-13859Y05149D01*
G01X-13845Y05234D01*
G01X-13846Y05856D01*
G01X-13859Y05933D01*
G01X-13893Y06001D01*
G01X-13963Y06071D01*
G01X-13971Y06110D01*
G01X-13963Y06129D01*
G01X-13893Y06199D01*
G01X-13859Y06267D01*
G01X-13845Y06352D01*
G01X-13845Y06609D01*
G01X-15056Y06609D01*
G01X-15057Y06332D01*
G01X-15076Y06307D01*
G01X-15105Y06297D01*
G01X-16273Y06299D01*
G01X-16377Y06274D01*
G01X-16475Y06217D01*
G01X-16906Y05785D01*
G01X-16934Y05771D01*
G01X-16965Y05775D01*
G01X-17047Y05819D01*
G01X-17124Y05831D01*
G01X-17474Y05831D01*
G01X-17551Y05819D01*
G01X-17625Y05781D01*
G01X-17676Y05730D01*
G01X-17714Y05656D01*
G01X-17726Y05581D01*
G01X-17731Y05367D01*
G01X-20619Y02478D01*
G01X-21107Y02476D01*
G01X-21186Y02463D01*
G01X-21220Y02447D01*
G01X-21245Y02448D01*
G01X-21266Y02461D01*
G01X-21999Y03192D01*
G01X-22002Y03302D01*
G01X-21987Y03325D01*
G01X-21892Y03374D01*
G01X-21840Y03426D01*
G01X-21803Y03501D01*
G01X-21791Y03574D01*
G01X-21791Y03928D01*
G01X-21803Y04003D01*
G01X-21841Y04077D01*
G01X-21892Y04128D01*
G01X-21966Y04166D01*
G01X-22081Y04181D01*
G01X-22444Y04536D01*
G01X-22456Y04556D01*
G01X-22458Y04580D01*
G01X-22450Y04601D01*
G01X-22432Y04617D01*
G01X-22043Y04622D01*
G01X-21966Y04634D01*
G01X-21859Y04699D01*
G01X-19948Y04706D01*
G01X-19875Y04724D01*
G01X-19810Y04756D01*
G01X-19749Y04805D01*
G01X-17748Y06807D01*
G01X-17711Y06808D01*
G01X-17625Y06719D01*
G01X-17551Y06681D01*
G01X-17474Y06669D01*
G01X-17124Y06669D01*
G01X-17047Y06681D01*
G01X-16973Y06719D01*
G01X-16921Y06771D01*
G01X-16884Y06845D01*
G01X-16872Y06919D01*
G01X-16872Y07509D01*
G01X-16884Y07584D01*
G01X-16922Y07658D01*
G01X-16973Y07709D01*
G01X-17047Y07747D01*
G01X-17124Y07759D01*
G01X-17474Y07759D01*
G01X-17551Y07747D01*
G01X-17625Y07709D01*
G01X-17676Y07658D01*
G01X-17718Y07573D01*
G01X-17737Y07555D01*
G01X-17763Y07548D01*
G01X-17873Y07549D01*
G01X-17977Y07524D01*
G01X-18075Y07467D01*
G01X-20149Y05398D01*
G01X-21867Y05403D01*
G01X-21892Y05426D01*
G01X-21966Y05464D01*
G01X-22043Y05476D01*
G01X-22567Y05478D01*
G01X-22592Y05497D01*
G01X-22602Y05526D01*
G01X-22600Y05711D01*
G01X-22581Y05736D01*
G01X-22552Y05746D01*
G01X-22379Y05746D01*
G01X-22298Y05759D01*
G01X-22231Y05793D01*
G01X-22174Y05850D01*
G01X-22139Y05919D01*
G01X-22126Y06003D01*
G01X-22127Y06705D01*
G01X-22140Y06783D01*
G01X-22174Y06850D01*
G01X-22231Y06907D01*
G01X-22299Y06941D01*
G01X-22384Y06955D01*
G01X-22813Y06960D01*
G01X-23878Y08018D01*
G01X-23933Y08056D01*
G01X-24034Y08092D01*
G01X-24084Y08100D01*
G01X-26858Y08099D01*
G01X-26939Y08088D01*
G01X-27007Y08063D01*
G01X-27062Y08027D01*
G01X-28025Y07067D01*
G01X-28058Y07052D01*
G01X-28704Y07055D01*
G01X-28784Y07041D01*
G01X-28851Y07007D01*
G01X-28921Y06937D01*
G01X-28960Y06929D01*
G01X-28979Y06937D01*
G01X-29049Y07007D01*
G01X-29117Y07041D01*
G01X-29202Y07055D01*
G01X-29459Y07055D01*
G01X-29459Y05846D01*
G01X-29197Y05846D01*
G01X-29116Y05859D01*
G01X-29049Y05893D01*
G01X-28979Y05963D01*
G01X-28940Y05971D01*
G01X-28913Y05955D01*
G01X-28875Y05914D01*
G01X-28871Y05883D01*
G01X-28885Y05855D01*
G01X-28976Y05764D01*
G01X-29019Y05691D01*
G01X-29049Y05575D01*
G01X-29046Y04466D01*
G01X-29036Y04408D01*
G01X-28984Y04295D01*
G01X-28533Y03834D01*
G01X-28531Y03624D01*
G01X-28519Y03549D01*
G01X-28481Y03475D01*
G01X-28430Y03424D01*
G01X-28356Y03386D01*
G01X-28279Y03374D01*
G01X-27626Y03377D01*
G01X-27434Y03191D01*
G01X-27424Y03161D01*
G01X-27429Y03011D01*
G01X-27466Y02947D01*
G01X-27488Y02889D01*
G01X-27499Y02803D01*
G01X-27500Y02449D01*
G01X-27513Y02426D01*
G01X-27608Y02376D01*
G01X-27659Y02325D01*
G01X-27697Y02251D01*
G01X-27709Y02176D01*
G01X-27709Y01822D01*
G01X-27697Y01747D01*
G01X-27660Y01674D01*
G01X-27608Y01622D01*
G01X-27534Y01584D01*
G01X-27457Y01572D01*
G01X-26871Y01572D01*
G01X-26794Y01584D01*
G01X-26720Y01622D01*
G01X-26668Y01674D01*
G01X-26631Y01747D01*
G01X-26619Y01822D01*
G01X-26619Y02176D01*
G01X-26631Y02251D01*
G01X-26669Y02325D01*
G01X-26720Y02376D01*
G01X-26769Y02401D01*
G01X-26788Y02419D01*
G01X-26796Y02444D01*
G01X-26790Y02470D01*
G01X-26771Y02489D01*
G01X-26746Y02496D01*
G01X-26547Y02496D01*
G01X-26466Y02509D01*
G01X-26399Y02543D01*
G01X-26329Y02613D01*
G01X-26290Y02621D01*
G01X-26271Y02613D01*
G01X-26201Y02543D01*
G01X-26133Y02509D01*
G01X-26048Y02495D01*
G01X-25791Y02496D01*
G01X-25791Y03705D01*
G01X-26054Y03705D01*
G01X-26134Y03691D01*
G01X-26201Y03657D01*
G01X-26271Y03587D01*
G01X-26310Y03579D01*
G01X-26329Y03587D01*
G01X-26399Y03657D01*
G01X-26467Y03691D01*
G01X-26552Y03705D01*
G01X-26965Y03710D01*
G01X-27310Y04055D01*
G01X-27369Y04099D01*
G01X-27429Y04128D01*
G01X-27512Y04151D01*
G01X-27542Y04178D01*
G01X-27616Y04216D01*
G01X-27693Y04228D01*
G01X-27937Y04233D01*
G01X-28308Y04606D01*
G01X-28309Y04630D01*
G01X-28283Y04667D01*
G01X-27693Y04672D01*
G01X-27616Y04684D01*
G01X-27542Y04722D01*
G01X-27507Y04750D01*
G01X-27212Y04754D01*
G01X-27185Y04740D01*
G01X-26360Y03921D01*
G01X-26299Y03884D01*
G01X-26230Y03860D01*
G01X-26165Y03850D01*
G01X-24856Y03853D01*
G01X-24820Y03826D01*
G01X-24809Y03795D01*
G01X-24809Y03574D01*
G01X-24797Y03501D01*
G01X-24760Y03426D01*
G01X-24708Y03374D01*
G01X-24634Y03336D01*
G01X-24557Y03324D01*
G01X-23971Y03324D01*
G01X-23894Y03336D01*
G01X-23820Y03374D01*
G01X-23768Y03426D01*
G01X-23731Y03501D01*
G01X-23719Y03574D01*
G01X-23719Y03928D01*
G01X-23731Y04003D01*
G01X-23769Y04077D01*
G01X-23820Y04128D01*
G01X-23894Y04166D01*
G01X-23971Y04178D01*
G01X-24187Y04183D01*
G01X-24460Y04455D01*
G01X-24519Y04499D01*
G01X-24577Y04526D01*
G01X-24597Y04544D01*
G01X-24606Y04569D01*
G01X-24600Y04595D01*
G01X-24582Y04615D01*
G01X-24556Y04622D01*
G01X-24314Y04622D01*
G01X-24314Y04999D01*
G01X-24809Y04999D01*
G01X-24809Y04872D01*
G01X-24797Y04798D01*
G01X-24760Y04724D01*
G01X-24706Y04670D01*
G01X-24652Y04642D01*
G01X-24632Y04623D01*
G01X-24625Y04595D01*
G01X-24634Y04569D01*
G01X-24657Y04551D01*
G01X-25991Y04550D01*
G01X-26018Y04564D01*
G01X-26838Y05378D01*
G01X-26898Y05415D01*
G01X-26999Y05446D01*
G01X-27509Y05449D01*
G01X-27616Y05514D01*
G01X-27693Y05526D01*
G01X-28132Y05531D01*
G01X-28159Y05565D01*
G01X-28159Y05588D01*
G01X-28081Y05709D01*
G01X-28043Y05838D01*
G01X-28024Y05853D01*
G01X-27931Y05893D01*
G01X-27874Y05950D01*
G01X-27840Y06018D01*
G01X-27826Y06103D01*
G01X-27822Y06281D01*
G01X-26712Y07395D01*
G01X-24263Y07404D01*
G01X-24236Y07390D01*
G01X-23871Y07021D01*
G01X-23870Y06997D01*
G01X-23896Y06960D01*
G01X-24122Y06955D01*
G01X-24202Y06941D01*
G01X-24269Y06907D01*
G01X-24326Y06850D01*
G01X-24360Y06783D01*
G01X-24374Y06697D01*
G01X-24374Y06400D01*
G01X-23809Y06400D01*
G01X-23809Y06350D01*
G01X-23759Y06350D01*
G01X-23759Y05746D01*
G01X-23497Y05746D01*
G01X-23416Y05759D01*
G01X-23351Y05787D01*
G01X-23314Y05773D01*
G01X-23298Y05737D01*
G01X-23296Y04501D01*
G01X-23262Y04396D01*
G01X-23234Y04345D01*
G01X-22890Y03998D01*
G01X-22875Y03963D01*
G01X-22881Y03925D01*
G01X-22881Y03574D01*
G01X-22869Y03501D01*
G01X-22832Y03426D01*
G01X-22779Y03373D01*
G01X-22715Y03340D01*
G01X-22697Y03301D01*
G01X-22696Y03001D01*
G01X-22669Y02907D01*
G01X-22606Y02811D01*
G01X-21560Y01771D01*
G01X-21499Y01734D01*
G01X-21430Y01710D01*
G01X-21292Y01699D01*
G01X-21258Y01672D01*
G01X-21171Y01629D01*
G01X-21153Y01607D01*
G01X-21131Y01485D01*
G01X-21084Y01395D01*
G01X-20946Y01244D01*
G01X-20944Y01220D01*
G01X-20952Y01199D01*
G01X-20970Y01183D01*
G01X-21107Y01178D01*
G01X-21184Y01166D01*
G01X-21258Y01128D01*
G01X-21286Y01102D01*
G01X-21309Y01097D01*
G01X-22006Y01104D01*
G01X-23178Y02268D01*
G01X-23233Y02306D01*
G01X-23334Y02342D01*
G01X-23384Y02350D01*
G01X-24759Y02350D01*
G01X-24866Y02414D01*
G01X-24943Y02426D01*
G01X-25303Y02426D01*
G01X-25328Y02433D01*
G01X-25347Y02452D01*
G01X-25353Y02478D01*
G01X-25345Y02503D01*
G01X-25326Y02521D01*
G01X-25281Y02543D01*
G01X-25224Y02600D01*
G01X-25190Y02668D01*
G01X-25176Y02753D01*
G01X-25176Y03050D01*
G01X-25691Y03050D01*
G01X-25691Y02496D01*
G01X-25654Y02496D01*
G01X-25629Y02489D01*
G01X-25610Y02470D01*
G01X-25604Y02444D01*
G01X-25612Y02419D01*
G01X-25631Y02401D01*
G01X-25680Y02376D01*
G01X-25731Y02325D01*
G01X-25769Y02251D01*
G01X-25781Y02176D01*
G01X-25781Y01822D01*
G01X-25769Y01747D01*
G01X-25732Y01674D01*
G01X-25680Y01622D01*
G01X-25606Y01584D01*
G01X-25529Y01572D01*
G01X-24943Y01572D01*
G01X-24866Y01584D01*
G01X-24792Y01622D01*
G01X-24765Y01647D01*
G01X-23563Y01654D01*
G01X-23536Y01640D01*
G01X-22363Y00474D01*
G01X-22299Y00434D01*
G01X-22230Y00410D01*
G01X-22165Y00400D01*
G01X-21285Y00399D01*
G01X-21258Y00374D01*
G01X-21184Y00336D01*
G01X-21107Y00324D01*
G01X-20582Y00322D01*
G01X-20557Y00303D01*
G01X-20547Y00274D01*
G01X-20549Y00240D01*
G01X-20568Y00215D01*
G01X-20597Y00205D01*
G01X-20772Y00205D01*
G01X-20852Y00191D01*
G01X-20919Y00157D01*
G01X-20976Y00100D01*
G01X-21010Y00033D01*
G01X-21022Y-00025D01*
G01X-21040Y-00045D01*
G01X-21067Y-00053D01*
G01X-23123Y-00051D01*
G01X-23227Y-00076D01*
G01X-23325Y-00133D01*
G01X-23623Y-00432D01*
G01X-23662Y-00491D01*
G01X-23691Y-00584D01*
G01X-23699Y-00640D01*
G01X-23696Y-01849D01*
G01X-23669Y-01943D01*
G01X-23605Y-02040D01*
G01X-23103Y-02539D01*
G01X-23089Y-02566D01*
G01X-23093Y-02597D01*
G01X-23492Y-02994D01*
G01X-23854Y-02996D01*
G01X-23933Y-03009D01*
G01X-24001Y-03043D01*
G01X-24071Y-03113D01*
G01X-24110Y-03121D01*
G01X-24137Y-03105D01*
G01X-24195Y-03040D01*
G01X-24198Y-03018D01*
G01X-24176Y-02982D01*
G01X-24095Y-02964D01*
G01X-24020Y-02926D01*
G01X-23969Y-02875D01*
G01X-23931Y-02801D01*
G01X-23919Y-02726D01*
G01X-23919Y-02372D01*
G01X-23931Y-02297D01*
G01X-23969Y-02223D01*
G01X-24020Y-02172D01*
G01X-24094Y-02134D01*
G01X-24171Y-02122D01*
G01X-24757Y-02122D01*
G01X-24834Y-02134D01*
G01X-24908Y-02172D01*
G01X-24935Y-02197D01*
G01X-25283Y-02202D01*
G01X-25312Y-02193D01*
G01X-26429Y-01081D01*
G01X-26483Y-01044D01*
G01X-26584Y-01008D01*
G01X-26635Y-01000D01*
G01X-27167Y-00997D01*
G01X-27192Y-00974D01*
G01X-27266Y-00936D01*
G01X-27343Y-00924D01*
G01X-27929Y-00924D01*
G01X-28006Y-00936D01*
G01X-28080Y-00974D01*
G01X-28131Y-01025D01*
G01X-28169Y-01099D01*
G01X-28181Y-01174D01*
G01X-28181Y-01528D01*
G01X-28169Y-01602D01*
G01X-28131Y-01677D01*
G01X-28080Y-01728D01*
G01X-28006Y-01766D01*
G01X-27929Y-01778D01*
G01X-27343Y-01778D01*
G01X-27266Y-01766D01*
G01X-27192Y-01728D01*
G01X-27157Y-01700D01*
G01X-26812Y-01696D01*
G01X-26785Y-01710D01*
G01X-25660Y-02829D01*
G01X-25599Y-02866D01*
G01X-25530Y-02890D01*
G01X-25465Y-02900D01*
G01X-24982Y-02897D01*
G01X-24954Y-02905D01*
G01X-24936Y-02928D01*
G01X-24933Y-02958D01*
G01X-24948Y-02983D01*
G01X-24974Y-02996D01*
G01X-25051Y-03009D01*
G01X-25119Y-03043D01*
G01X-25176Y-03100D01*
G01X-25210Y-03167D01*
G01X-25224Y-03253D01*
G01X-25224Y-03550D01*
G01X-24659Y-03550D01*
G01X-24659Y-03600D01*
G01X-24609Y-03600D01*
G01X-24609Y-04205D01*
G01X-24347Y-04205D01*
G01X-24266Y-04191D01*
G01X-24199Y-04157D01*
G01X-24129Y-04087D01*
G01X-24090Y-04079D01*
G01X-24071Y-04087D01*
G01X-24001Y-04157D01*
G01X-23920Y-04198D01*
G01X-23903Y-04216D01*
G01X-23897Y-04240D01*
G01X-23902Y-04405D01*
G01X-24473Y-04982D01*
G01X-24519Y-05059D01*
G01X-24539Y-05117D01*
G01X-24549Y-05193D01*
G01X-24549Y-06048D01*
G01X-24564Y-06072D01*
G01X-24633Y-06090D01*
G01X-24700Y-06124D01*
G01X-24757Y-06181D01*
G01X-24804Y-06285D01*
G01X-24828Y-06300D01*
G01X-24899Y-06300D01*
G01X-25059Y-06148D01*
G01X-25074Y-06113D01*
G01X-25074Y-05891D01*
G01X-25086Y-05816D01*
G01X-25124Y-05742D01*
G01X-25175Y-05691D01*
G01X-25249Y-05653D01*
G01X-25326Y-05641D01*
G01X-25517Y-05636D01*
G01X-27081Y-04074D01*
G01X-27085Y-04055D01*
G01X-27076Y-03996D01*
G01X-27077Y-03296D01*
G01X-27090Y-03217D01*
G01X-27124Y-03150D01*
G01X-27194Y-03077D01*
G01X-27199Y-03046D01*
G01X-27185Y-03019D01*
G01X-27140Y-02974D01*
G01X-27103Y-02899D01*
G01X-27091Y-02826D01*
G01X-27091Y-02472D01*
G01X-27104Y-02396D01*
G01X-27141Y-02323D01*
G01X-27192Y-02272D01*
G01X-27266Y-02234D01*
G01X-27343Y-02222D01*
G01X-27929Y-02222D01*
G01X-28006Y-02234D01*
G01X-28080Y-02272D01*
G01X-28131Y-02323D01*
G01X-28168Y-02396D01*
G01X-28181Y-02472D01*
G01X-28181Y-02826D01*
G01X-28169Y-02899D01*
G01X-28132Y-02974D01*
G01X-28080Y-03031D01*
G01X-28079Y-03068D01*
G01X-28171Y-03163D01*
G01X-28210Y-03171D01*
G01X-28229Y-03163D01*
G01X-28299Y-03093D01*
G01X-28367Y-03059D01*
G01X-28452Y-03045D01*
G01X-28709Y-03044D01*
G01X-28709Y-04255D01*
G01X-28447Y-04255D01*
G01X-28366Y-04241D01*
G01X-28299Y-04207D01*
G01X-28229Y-04137D01*
G01X-28190Y-04129D01*
G01X-28171Y-04137D01*
G01X-28101Y-04207D01*
G01X-28034Y-04241D01*
G01X-27896Y-04257D01*
G01X-26573Y-05575D01*
G01X-26572Y-05599D01*
G01X-26598Y-05636D01*
G01X-26845Y-05641D01*
G01X-26880Y-05626D01*
G01X-27838Y-04672D01*
G01X-27898Y-04635D01*
G01X-27999Y-04604D01*
G01X-29417Y-04597D01*
G01X-29444Y-04568D01*
G01X-29441Y-04528D01*
G01X-29403Y-04453D01*
G01X-29391Y-04378D01*
G01X-29391Y-04132D01*
G01X-29384Y-04107D01*
G01X-29365Y-04088D01*
G01X-29339Y-04082D01*
G01X-29314Y-04090D01*
G01X-29296Y-04109D01*
G01X-29276Y-04150D01*
G01X-29219Y-04207D01*
G01X-29152Y-04241D01*
G01X-29072Y-04255D01*
G01X-28809Y-04255D01*
G01X-28809Y-03700D01*
G01X-29324Y-03700D01*
G01X-29324Y-03896D01*
G01X-29331Y-03922D01*
G01X-29350Y-03940D01*
G01X-29376Y-03946D01*
G01X-29401Y-03938D01*
G01X-29441Y-03875D01*
G01X-29492Y-03824D01*
G01X-29566Y-03786D01*
G01X-29643Y-03774D01*
G01X-30229Y-03774D01*
G01X-30306Y-03786D01*
G01X-30380Y-03824D01*
G01X-30431Y-03875D01*
G01X-30468Y-03948D01*
G01X-30481Y-04024D01*
G01X-30481Y-04378D01*
G01X-30469Y-04453D01*
G01X-30431Y-04527D01*
G01X-30380Y-04578D01*
G01X-30318Y-04611D01*
G01X-30300Y-04649D01*
G01X-30279Y-04768D01*
G01X-30235Y-04853D01*
G01X-30095Y-05006D01*
G01X-30093Y-05029D01*
G01X-30101Y-05051D01*
G01X-30119Y-05066D01*
G01X-30306Y-05084D01*
G01X-30380Y-05122D01*
G01X-30431Y-05173D01*
G01X-30469Y-05247D01*
G01X-30481Y-05322D01*
G01X-30481Y-05449D01*
G01X-29390Y-05449D01*
G01X-29389Y-05334D01*
G01X-29370Y-05309D01*
G01X-29341Y-05299D01*
G01X-28198Y-05300D01*
G01X-27231Y-06262D01*
G01X-27226Y-06481D01*
G01X-27214Y-06556D01*
G01X-27176Y-06630D01*
G01X-27125Y-06681D01*
G01X-27038Y-06730D01*
G01X-27025Y-06765D01*
G01X-27040Y-06798D01*
G01X-27142Y-06898D01*
G01X-28242Y-06904D01*
G01X-28342Y-06931D01*
G01X-28408Y-06969D01*
G01X-32062Y-10614D01*
G01X-32085Y-10615D01*
G01X-32122Y-10589D01*
G01X-32123Y-10441D01*
G01X-32123Y-10500D01*
G01X-32691Y-10500D01*
G01X-32691Y-10450D01*
G01X-32741Y-10450D01*
G01X-32741Y-09844D01*
G01X-33022Y-09843D01*
G01X-33048Y-09821D01*
G01X-33055Y-09694D01*
G01X-33050Y-08635D01*
G01X-33059Y-08573D01*
G01X-33083Y-08504D01*
G01X-33123Y-08437D01*
G01X-33567Y-07984D01*
G01X-33569Y-07774D01*
G01X-33581Y-07699D01*
G01X-33619Y-07625D01*
G01X-33671Y-07573D01*
G01X-33737Y-07539D01*
G01X-33755Y-07500D01*
G01X-33748Y-05950D01*
G01X-32371Y-04563D01*
G01X-32340Y-04559D01*
G01X-32233Y-04616D01*
G01X-32149Y-04636D01*
G01X-32105Y-04690D01*
G01X-31806Y-04986D01*
G01X-31794Y-05006D01*
G01X-31792Y-05030D01*
G01X-31800Y-05051D01*
G01X-31818Y-05067D01*
G01X-32157Y-05072D01*
G01X-32234Y-05084D01*
G01X-32343Y-05148D01*
G01X-32492Y-05181D01*
G01X-32553Y-05216D01*
G01X-32597Y-05252D01*
G01X-32927Y-05588D01*
G01X-32969Y-05659D01*
G01X-32989Y-05715D01*
G01X-32999Y-05792D01*
G01X-32996Y-07549D01*
G01X-32970Y-07641D01*
G01X-32934Y-07705D01*
G01X-32733Y-07917D01*
G01X-32731Y-08128D01*
G01X-32719Y-08203D01*
G01X-32682Y-08276D01*
G01X-32630Y-08328D01*
G01X-32556Y-08366D01*
G01X-32479Y-08378D01*
G01X-31893Y-08378D01*
G01X-31816Y-08366D01*
G01X-31742Y-08328D01*
G01X-31690Y-08276D01*
G01X-31653Y-08203D01*
G01X-31641Y-08128D01*
G01X-31641Y-07774D01*
G01X-31653Y-07699D01*
G01X-31691Y-07625D01*
G01X-31742Y-07574D01*
G01X-31816Y-07536D01*
G01X-31893Y-07524D01*
G01X-32135Y-07519D01*
G01X-32295Y-07363D01*
G01X-32305Y-07333D01*
G01X-32299Y-05949D01*
G01X-32268Y-05916D01*
G01X-32250Y-05912D01*
G01X-32157Y-05926D01*
G01X-31732Y-05928D01*
G01X-31707Y-05947D01*
G01X-31697Y-05976D01*
G01X-31699Y-06011D01*
G01X-31718Y-06036D01*
G01X-31747Y-06046D01*
G01X-31872Y-06046D01*
G01X-31951Y-06059D01*
G01X-32019Y-06093D01*
G01X-32076Y-06150D01*
G01X-32110Y-06218D01*
G01X-32124Y-06303D01*
G01X-32124Y-07005D01*
G01X-32110Y-07083D01*
G01X-32076Y-07150D01*
G01X-32019Y-07207D01*
G01X-31952Y-07241D01*
G01X-31872Y-07255D01*
G01X-31247Y-07255D01*
G01X-31166Y-07241D01*
G01X-31099Y-07207D01*
G01X-31029Y-07137D01*
G01X-30990Y-07129D01*
G01X-30971Y-07137D01*
G01X-30901Y-07207D01*
G01X-30834Y-07241D01*
G01X-30754Y-07255D01*
G01X-30491Y-07255D01*
G01X-30491Y-06046D01*
G01X-30754Y-06046D01*
G01X-30833Y-06059D01*
G01X-30901Y-06093D01*
G01X-30939Y-06123D01*
G01X-30962Y-06124D01*
G01X-30999Y-06098D01*
G01X-31000Y-04935D01*
G01X-31009Y-04871D01*
G01X-31033Y-04802D01*
G01X-31076Y-04734D01*
G01X-31327Y-04475D01*
G01X-31331Y-04457D01*
G01X-31319Y-04378D01*
G01X-31319Y-04024D01*
G01X-31332Y-03948D01*
G01X-31369Y-03875D01*
G01X-31420Y-03824D01*
G01X-31494Y-03786D01*
G01X-31571Y-03774D01*
G01X-32157Y-03774D01*
G01X-32234Y-03786D01*
G01X-32341Y-03850D01*
G01X-32503Y-03850D01*
G01X-32577Y-03859D01*
G01X-32647Y-03883D01*
G01X-32712Y-03923D01*
G01X-34377Y-05588D01*
G01X-34419Y-05659D01*
G01X-34439Y-05715D01*
G01X-34449Y-05792D01*
G01X-34449Y-07502D01*
G01X-34463Y-07525D01*
G01X-34558Y-07574D01*
G01X-34609Y-07625D01*
G01X-34647Y-07699D01*
G01X-34659Y-07774D01*
G01X-34659Y-08128D01*
G01X-34647Y-08203D01*
G01X-34623Y-08268D01*
G01X-34634Y-08294D01*
G01X-34656Y-08310D01*
G01X-34684Y-08312D01*
G01X-34708Y-08298D01*
G01X-36400Y-06608D01*
G01X-36400Y-05385D01*
G01X-36409Y-05322D01*
G01X-36454Y-05218D01*
G01X-36480Y-05180D01*
G01X-37179Y-04481D01*
G01X-37233Y-04444D01*
G01X-37334Y-04408D01*
G01X-37385Y-04400D01*
G01X-37716Y-04398D01*
G01X-37742Y-04374D01*
G01X-37816Y-04336D01*
G01X-37893Y-04324D01*
G01X-38479Y-04324D01*
G01X-38556Y-04336D01*
G01X-38630Y-04374D01*
G01X-38681Y-04425D01*
G01X-38719Y-04499D01*
G01X-38731Y-04574D01*
G01X-38731Y-04928D01*
G01X-38719Y-05001D01*
G01X-38681Y-05077D01*
G01X-38630Y-05128D01*
G01X-38556Y-05166D01*
G01X-38479Y-05178D01*
G01X-37893Y-05178D01*
G01X-37816Y-05166D01*
G01X-37742Y-05128D01*
G01X-37713Y-05101D01*
G01X-37569Y-05096D01*
G01X-37540Y-05105D01*
G01X-37101Y-05547D01*
G01X-37092Y-06824D01*
G01X-37042Y-06941D01*
G01X-36995Y-07000D01*
G01X-34664Y-09329D01*
G01X-34647Y-09501D01*
G01X-34610Y-09574D01*
G01X-34558Y-09626D01*
G01X-34484Y-09664D01*
G01X-34407Y-09676D01*
G01X-33915Y-09681D01*
G01X-33898Y-09696D01*
G01X-33889Y-09718D01*
G01X-33890Y-09741D01*
G01X-33971Y-09831D01*
G01X-33991Y-09844D01*
G01X-34122Y-09846D01*
G01X-34201Y-09859D01*
G01X-34268Y-09892D01*
G01X-34326Y-09950D01*
G01X-34360Y-10017D01*
G01X-34372Y-10075D01*
G01X-34390Y-10095D01*
G01X-34417Y-10103D01*
G01X-36956Y-10096D01*
G01X-38982Y-08070D01*
G01X-38983Y-08047D01*
G01X-38957Y-08010D01*
G01X-38643Y-08007D01*
G01X-38691Y-08007D01*
G01X-38691Y-06796D01*
G01X-38954Y-06796D01*
G01X-39033Y-06809D01*
G01X-39101Y-06843D01*
G01X-39140Y-06874D01*
G01X-39163Y-06875D01*
G01X-39200Y-06849D01*
G01X-39200Y-05335D01*
G01X-39209Y-05273D01*
G01X-39235Y-05199D01*
G01X-39277Y-05132D01*
G01X-39567Y-04834D01*
G01X-39569Y-04574D01*
G01X-39581Y-04499D01*
G01X-39619Y-04425D01*
G01X-39670Y-04374D01*
G01X-39734Y-04339D01*
G01X-39748Y-04322D01*
G01X-39750Y-04258D01*
G01X-39736Y-04232D01*
G01X-38919Y-03410D01*
G01X-38889Y-03400D01*
G01X-37579Y-03398D01*
G01X-37556Y-03413D01*
G01X-37507Y-03519D01*
G01X-37450Y-03576D01*
G01X-37383Y-03610D01*
G01X-37303Y-03624D01*
G01X-36598Y-03624D01*
G01X-36517Y-03610D01*
G01X-36429Y-03570D01*
G01X-36392Y-03584D01*
G01X-36376Y-03620D01*
G01X-36364Y-03734D01*
G01X-36326Y-03808D01*
G01X-36275Y-03859D01*
G01X-36201Y-03897D01*
G01X-36124Y-03909D01*
G01X-35774Y-03909D01*
G01X-35697Y-03897D01*
G01X-35623Y-03859D01*
G01X-35572Y-03808D01*
G01X-35534Y-03734D01*
G01X-35522Y-03659D01*
G01X-35522Y-03069D01*
G01X-35534Y-02994D01*
G01X-35572Y-02920D01*
G01X-35623Y-02869D01*
G01X-35697Y-02831D01*
G01X-35774Y-02819D01*
G01X-35991Y-02813D01*
G01X-36083Y-02744D01*
G01X-36184Y-02708D01*
G01X-36235Y-02700D01*
G01X-36310Y-02704D01*
G01X-36336Y-02697D01*
G01X-36355Y-02677D01*
G01X-36393Y-02599D01*
G01X-36463Y-02529D01*
G01X-36471Y-02490D01*
G01X-36463Y-02471D01*
G01X-36393Y-02401D01*
G01X-36359Y-02333D01*
G01X-36345Y-02248D01*
G01X-36342Y-01957D01*
G01X-36313Y-01930D01*
G01X-36273Y-01932D01*
G01X-36201Y-01969D01*
G01X-36124Y-01981D01*
G01X-35774Y-01981D01*
G01X-35697Y-01969D01*
G01X-35623Y-01931D01*
G01X-35571Y-01879D01*
G01X-35534Y-01805D01*
G01X-35522Y-01731D01*
G01X-35522Y-01141D01*
G01X-35534Y-01066D01*
G01X-35602Y-00948D01*
G01X-35598Y-00900D01*
G01X-34373Y00336D01*
G01X-34346Y00350D01*
G01X-33942Y00351D01*
G01X-33834Y00286D01*
G01X-33757Y00274D01*
G01X-33171Y00274D01*
G01X-33094Y00286D01*
G01X-33020Y00324D01*
G01X-32968Y00376D01*
G01X-32931Y00449D01*
G01X-32919Y00524D01*
G01X-32919Y00878D01*
G01X-32931Y00953D01*
G01X-32969Y01027D01*
G01X-33020Y01078D01*
G01X-33094Y01116D01*
G01X-33171Y01128D01*
G01X-33757Y01128D01*
G01X-33834Y01116D01*
G01X-33908Y01078D01*
G01X-33936Y01052D01*
G01X-34542Y01046D01*
G01X-34642Y01019D01*
G01X-34707Y00982D01*
G01X-36232Y-00545D01*
G01X-36270Y-00612D01*
G01X-36289Y-00663D01*
G01X-36299Y-00747D01*
G01X-36303Y-00967D01*
G01X-36326Y-00992D01*
G01X-36364Y-01066D01*
G01X-36376Y-01141D01*
G01X-36380Y-01400D01*
G01X-36409Y-01427D01*
G01X-36448Y-01425D01*
G01X-36518Y-01390D01*
G01X-36603Y-01376D01*
G01X-36900Y-01376D01*
G01X-36900Y-01941D01*
G01X-36950Y-01941D01*
G01X-36950Y-01991D01*
G01X-37555Y-01991D01*
G01X-37555Y-02256D01*
G01X-37541Y-02333D01*
G01X-37507Y-02401D01*
G01X-37437Y-02471D01*
G01X-37429Y-02510D01*
G01X-37437Y-02529D01*
G01X-37507Y-02599D01*
G01X-37548Y-02680D01*
G01X-37566Y-02697D01*
G01X-37590Y-02703D01*
G01X-38115Y-02697D01*
G01X-38141Y-02660D01*
G01X-38140Y-02637D01*
G01X-38080Y-02538D01*
G01X-38058Y-02469D01*
G01X-38050Y-02415D01*
G01X-38056Y-02338D01*
G01X-38046Y05127D01*
G01X-38009Y05153D01*
G01X-37986Y05152D01*
G01X-37950Y05124D01*
G01X-37882Y05090D01*
G01X-37797Y05076D01*
G01X-37373Y05076D01*
G01X-37299Y05034D01*
G01X-37230Y05010D01*
G01X-37165Y05000D01*
G01X-36649Y05001D01*
G01X-36625Y04987D01*
G01X-36549Y04859D01*
G01X-36542Y04526D01*
G01X-36499Y04418D01*
G01X-36455Y04360D01*
G01X-34960Y02871D01*
G01X-34899Y02834D01*
G01X-34830Y02810D01*
G01X-34765Y02800D01*
G01X-33834Y02801D01*
G01X-33809Y02783D01*
G01X-33799Y02753D01*
G01X-33800Y02449D01*
G01X-33813Y02426D01*
G01X-33908Y02376D01*
G01X-33959Y02325D01*
G01X-33997Y02251D01*
G01X-34009Y02176D01*
G01X-34009Y01822D01*
G01X-33997Y01747D01*
G01X-33960Y01674D01*
G01X-33908Y01622D01*
G01X-33834Y01584D01*
G01X-33757Y01572D01*
G01X-33171Y01572D01*
G01X-33094Y01584D01*
G01X-33020Y01622D01*
G01X-32968Y01674D01*
G01X-32931Y01747D01*
G01X-32919Y01822D01*
G01X-32919Y02176D01*
G01X-32931Y02251D01*
G01X-32969Y02325D01*
G01X-33020Y02376D01*
G01X-33084Y02410D01*
G01X-33102Y02449D01*
G01X-33100Y02511D01*
G01X-33081Y02536D01*
G01X-33052Y02546D01*
G01X-32747Y02546D01*
G01X-32666Y02559D01*
G01X-32599Y02593D01*
G01X-32529Y02663D01*
G01X-32490Y02671D01*
G01X-32471Y02663D01*
G01X-32401Y02593D01*
G01X-32333Y02559D01*
G01X-32248Y02545D01*
G01X-31991Y02545D01*
G01X-31991Y03755D01*
G01X-32254Y03755D01*
G01X-32334Y03741D01*
G01X-32401Y03707D01*
G01X-32471Y03637D01*
G01X-32510Y03629D01*
G01X-32529Y03637D01*
G01X-32599Y03707D01*
G01X-32667Y03741D01*
G01X-32752Y03755D01*
G01X-33372Y03755D01*
G01X-33452Y03741D01*
G01X-33519Y03707D01*
G01X-33576Y03650D01*
G01X-33610Y03583D01*
G01X-33622Y03525D01*
G01X-33640Y03505D01*
G01X-33667Y03497D01*
G01X-34606Y03504D01*
G01X-35852Y04750D01*
G01X-35849Y04863D01*
G01X-35822Y04892D01*
G01X-35784Y04967D01*
G01X-35772Y05041D01*
G01X-35772Y05631D01*
G01X-35784Y05706D01*
G01X-35822Y05780D01*
G01X-35873Y05831D01*
G01X-35947Y05869D01*
G01X-36024Y05881D01*
G01X-36374Y05881D01*
G01X-36451Y05869D01*
G01X-36525Y05831D01*
G01X-36577Y05779D01*
G01X-36610Y05715D01*
G01X-36649Y05697D01*
G01X-36812Y05701D01*
G01X-36837Y05719D01*
G01X-36846Y05748D01*
G01X-36846Y05956D01*
G01X-36859Y06033D01*
G01X-36893Y06101D01*
G01X-36963Y06171D01*
G01X-36971Y06210D01*
G01X-36963Y06229D01*
G01X-36892Y06300D01*
G01X-36859Y06367D01*
G01X-36845Y06452D01*
G01X-36845Y06709D01*
G01X-37450Y06709D01*
G01X-37450Y06759D01*
G01X-37500Y06759D01*
G01X-37500Y07324D01*
G01X-37803Y07324D01*
G01X-37883Y07310D01*
G01X-37950Y07276D01*
G01X-37988Y07246D01*
G01X-38011Y07245D01*
G01X-38048Y07271D01*
G01X-38046Y07856D01*
G01X-34161Y11742D01*
G01X-34138Y11743D01*
G01X-34101Y11717D01*
G01X-34098Y11005D01*
G01X-36473Y08618D01*
G01X-36516Y08547D01*
G01X-36539Y08487D01*
G01X-36549Y08412D01*
G01X-36549Y07742D01*
G01X-36614Y07634D01*
G01X-36626Y07559D01*
G01X-36626Y06969D01*
G01X-36614Y06894D01*
G01X-36576Y06820D01*
G01X-36525Y06769D01*
G01X-36451Y06731D01*
G01X-36374Y06719D01*
G01X-36024Y06719D01*
G01X-35947Y06731D01*
G01X-35873Y06769D01*
G01X-35822Y06820D01*
G01X-35784Y06894D01*
G01X-35772Y06969D01*
G01X-35772Y07559D01*
G01X-35784Y07634D01*
G01X-35822Y07708D01*
G01X-35848Y07736D01*
G01X-35846Y08256D01*
G01X-33455Y10663D01*
G01X-33431Y10709D01*
G01X-33408Y10781D01*
G01X-33400Y10836D01*
G01X-33406Y10912D01*
G01X-33403Y15569D01*
G01X-33395Y15596D01*
G01X-33374Y15615D01*
G01X-33346Y15618D01*
G01X-33320Y15607D01*
G01X-33305Y15583D01*
G01X-33028Y14632D01*
G01X-32487Y13500D01*
G01X-31765Y12473D01*
G01X-30863Y11572D01*
G01X-29818Y10844D01*
G01X-28736Y10328D01*
G01X-27430Y09959D01*
G01X-26144Y09901D01*
G01X-24910Y10003D01*
G01X-23618Y10326D01*
G01X-22524Y10850D01*
G01X-21523Y11585D01*
G01X-20627Y12482D01*
G01X-19898Y13525D01*
G01X-19370Y14688D01*
G01X-19052Y15965D01*
G01X-18951Y17214D01*
G01X-19062Y18492D01*
G01X-19435Y19701D01*
G01X-19955Y20838D01*
G01X-20680Y21872D01*
G01X-21506Y22700D01*
G01X-22564Y23445D01*
G01X-23702Y23968D01*
G01X-24909Y24288D01*
G01X-26229Y24399D01*
G01X-27486Y24289D01*
G01X-28755Y23932D01*
G01X-29830Y23449D01*
G01X-30863Y22728D01*
G01X-31717Y21873D01*
G01X-31830Y21748D01*
G01X-31853Y21742D01*
G01X-31893Y21761D01*
G01X-31904Y21787D01*
G01X-31899Y21998D01*
G01X-30023Y23886D01*
G01X-29996Y23900D01*
G01X-29347Y23900D01*
G01X-29249Y23917D01*
G01X-29160Y23956D01*
G01X-29099Y24005D01*
G01X-27138Y25969D01*
G01X-27029Y25974D01*
G01X-26994Y25960D01*
G01X-26979Y25926D01*
G01X-27007Y25765D01*
G01X-27028Y25747D01*
G01X-27119Y25707D01*
G01X-27176Y25650D01*
G01X-27210Y25582D01*
G01X-27224Y25497D01*
G01X-27224Y24796D01*
G01X-27210Y24717D01*
G01X-27176Y24650D01*
G01X-27119Y24593D01*
G01X-27051Y24559D01*
G01X-26966Y24545D01*
G01X-26347Y24546D01*
G01X-26266Y24559D01*
G01X-26199Y24593D01*
G01X-26129Y24663D01*
G01X-26090Y24671D01*
G01X-26071Y24663D01*
G01X-26001Y24593D01*
G01X-25933Y24559D01*
G01X-25848Y24545D01*
G01X-25591Y24545D01*
G01X-25591Y25755D01*
G01X-25854Y25755D01*
G01X-25934Y25741D01*
G01X-26001Y25707D01*
G01X-26071Y25637D01*
G01X-26110Y25629D01*
G01X-26137Y25645D01*
G01X-26203Y25713D01*
G01X-26210Y25737D01*
G01X-26168Y25846D01*
G01X-26155Y25902D01*
G01X-26154Y27087D01*
G01X-26180Y27190D01*
G01X-26223Y27263D01*
G01X-26609Y27652D01*
G01X-26619Y27682D01*
G01X-26619Y27876D01*
G01X-26631Y27951D01*
G01X-26669Y28025D01*
G01X-26720Y28076D01*
G01X-26838Y28129D01*
G01X-26853Y28152D01*
G01X-26846Y30677D01*
G01X-26833Y30695D01*
G01X-26777Y30724D01*
G01X-26725Y30776D01*
G01X-26668Y30876D01*
G01X-26646Y30885D01*
G01X-26622Y30882D01*
G01X-26548Y30806D01*
G01X-26481Y30757D01*
G01X-26390Y30711D01*
G01X-26302Y30686D01*
G01X-26214Y30675D01*
G01X-26107Y30684D01*
G01X-26017Y30708D01*
G01X-25929Y30749D01*
G01X-25864Y30797D01*
G01X-25776Y30891D01*
G01X-25729Y30962D01*
G01X-25689Y30970D01*
G01X-25657Y30946D01*
G01X-25630Y30899D01*
G01X-25603Y30868D01*
G01X-25235Y31235D01*
G01X-25200Y31200D01*
G01X-25165Y31235D01*
G01X-24797Y30868D01*
G01X-24776Y30891D01*
G01X-24723Y30969D01*
G01X-24698Y30975D01*
G01X-24673Y30968D01*
G01X-24655Y30950D01*
G01X-24648Y30925D01*
G01X-24651Y28796D01*
G01X-25312Y28131D01*
G01X-25529Y28126D01*
G01X-25606Y28114D01*
G01X-25680Y28076D01*
G01X-25731Y28025D01*
G01X-25769Y27951D01*
G01X-25781Y27876D01*
G01X-25781Y27522D01*
G01X-25769Y27447D01*
G01X-25731Y27373D01*
G01X-25680Y27322D01*
G01X-25606Y27284D01*
G01X-25529Y27272D01*
G01X-24943Y27272D01*
G01X-24866Y27284D01*
G01X-24792Y27322D01*
G01X-24741Y27373D01*
G01X-24703Y27447D01*
G01X-24691Y27522D01*
G01X-24686Y27768D01*
G01X-24048Y28409D01*
G01X-24006Y28460D01*
G01X-23974Y28523D01*
G01X-23950Y28635D01*
G01X-23956Y28712D01*
G01X-23954Y31741D01*
G01X-23985Y31851D01*
G01X-24052Y31947D01*
G01X-24339Y32229D01*
G01X-24398Y32265D01*
G01X-24499Y32296D01*
G01X-25623Y32299D01*
G01X-25727Y32274D01*
G01X-25821Y32221D01*
G01X-26330Y31710D01*
G01X-26471Y31651D01*
G01X-26535Y31604D01*
G01X-26623Y31518D01*
G01X-26647Y31515D01*
G01X-26669Y31524D01*
G01X-26725Y31624D01*
G01X-26776Y31675D01*
G01X-26850Y31713D01*
G01X-26927Y31725D01*
G01X-27473Y31725D01*
G01X-27550Y31713D01*
G01X-27624Y31675D01*
G01X-27675Y31624D01*
G01X-27706Y31566D01*
G01X-27745Y31548D01*
G01X-28073Y31549D01*
G01X-28177Y31524D01*
G01X-28275Y31467D01*
G01X-29773Y29968D01*
G01X-29817Y29896D01*
G01X-29839Y29837D01*
G01X-29849Y29755D01*
G01X-29851Y27096D01*
G01X-30473Y26468D01*
G01X-30520Y26388D01*
G01X-30542Y26317D01*
G01X-30549Y26255D01*
G01X-30552Y25146D01*
G01X-32977Y22714D01*
G01X-33016Y22649D01*
G01X-33039Y22587D01*
G01X-33049Y22506D01*
G01X-33052Y21945D01*
G01X-33873Y21118D01*
G01X-33917Y21046D01*
G01X-33939Y20987D01*
G01X-33949Y20910D01*
G01X-33952Y20295D01*
G01X-34623Y19618D01*
G01X-34665Y19550D01*
G01X-34689Y19487D01*
G01X-34699Y19405D01*
G01X-34701Y12197D01*
G01X-38626Y08267D01*
G01X-38713Y08155D01*
G01X-38738Y08090D01*
G01X-38749Y08007D01*
G01X-38746Y-02231D01*
G01X-38755Y-02260D01*
G01X-40373Y-03882D01*
G01X-40419Y-03959D01*
G01X-40449Y-04075D01*
G01X-40448Y-04288D01*
G01X-40455Y-04313D01*
G01X-40474Y-04332D01*
G01X-40558Y-04374D01*
G01X-40609Y-04425D01*
G01X-40647Y-04499D01*
G01X-40659Y-04574D01*
G01X-40659Y-04928D01*
G01X-40647Y-05001D01*
G01X-40609Y-05077D01*
G01X-40558Y-05128D01*
G01X-40484Y-05166D01*
G01X-40407Y-05178D01*
G01X-40214Y-05183D01*
G01X-39909Y-05483D01*
G01X-39899Y-05513D01*
G01X-39901Y-05587D01*
G01X-39920Y-05612D01*
G01X-39949Y-05622D01*
G01X-40407Y-05622D01*
G01X-40484Y-05634D01*
G01X-40558Y-05672D01*
G01X-40609Y-05723D01*
G01X-40647Y-05797D01*
G01X-40659Y-05872D01*
G01X-40659Y-06226D01*
G01X-40647Y-06299D01*
G01X-40609Y-06375D01*
G01X-40558Y-06426D01*
G01X-40484Y-06464D01*
G01X-40407Y-06476D01*
G01X-39932Y-06478D01*
G01X-39907Y-06497D01*
G01X-39897Y-06526D01*
G01X-39899Y-06761D01*
G01X-39918Y-06786D01*
G01X-39947Y-06796D01*
G01X-40072Y-06796D01*
G01X-40151Y-06809D01*
G01X-40219Y-06843D01*
G01X-40276Y-06900D01*
G01X-40310Y-06967D01*
G01X-40324Y-07053D01*
G01X-40324Y-07755D01*
G01X-40310Y-07833D01*
G01X-40276Y-07900D01*
G01X-40219Y-07957D01*
G01X-40152Y-07991D01*
G01X-40040Y-08008D01*
G01X-37310Y-10729D01*
G01X-37249Y-10766D01*
G01X-37180Y-10790D01*
G01X-37115Y-10800D01*
G01X-34403Y-10797D01*
G01X-34380Y-10812D01*
G01X-34361Y-10880D01*
G01X-34326Y-10950D01*
G01X-34269Y-11007D01*
G01X-34202Y-11041D01*
G01X-34122Y-11055D01*
G01X-33886Y-11060D01*
G01X-33393Y-11548D01*
G01X-33377Y-11588D01*
G01X-33398Y-11626D01*
G01X-35510Y-12005D01*
G01X-36751Y-12154D01*
G01X-36751Y-12154D01*
G01X-37448Y-12151D01*
M02*
