<?xml version="1.0" encoding="UTF-8" standalone="no"?>
<!-- Created with Inkscape (http://www.inkscape.org/) -->

<svg
   xmlns:dc="http://purl.org/dc/elements/1.1/"
   xmlns:cc="http://creativecommons.org/ns#"
   xmlns:rdf="http://www.w3.org/1999/02/22-rdf-syntax-ns#"
   xmlns:svg="http://www.w3.org/2000/svg"
   xmlns="http://www.w3.org/2000/svg"
   xmlns:sodipodi="http://sodipodi.sourceforge.net/DTD/sodipodi-0.dtd"
   xmlns:inkscape="http://www.inkscape.org/namespaces/inkscape"
   width="210mm"
   height="297mm"
   viewBox="0 0 210 297"
   version="1.1"
   id="svg8"
   inkscape:version="0.92.4 (unknown)"
   sodipodi:docname="vampirepuff.svg">
  <defs
     id="defs2" />
  <sodipodi:namedview
     id="base"
     pagecolor="#ffffff"
     bordercolor="#666666"
     borderopacity="1.0"
     inkscape:pageopacity="0.0"
     inkscape:pageshadow="2"
     inkscape:zoom="0.49497475"
     inkscape:cx="520.71399"
     inkscape:cy="561.61675"
     inkscape:document-units="mm"
     inkscape:current-layer="layer1"
     showgrid="false"
     inkscape:window-width="1507"
     inkscape:window-height="1002"
     inkscape:window-x="52"
     inkscape:window-y="23"
     inkscape:window-maximized="0" />
  <metadata
     id="metadata5">
    <rdf:RDF>
      <cc:Work
         rdf:about="">
        <dc:format>image/svg+xml</dc:format>
        <dc:type
           rdf:resource="http://purl.org/dc/dcmitype/StillImage" />
        <dc:title></dc:title>
      </cc:Work>
    </rdf:RDF>
  </metadata>
  <g
     inkscape:label="Layer 1"
     inkscape:groupmode="layer"
     id="layer1">
    <path
       style="opacity:1;vector-effect:none;fill:none;fill-opacity:1;fill-rule:nonzero;stroke:#000000;stroke-width:2;stroke-linecap:round;stroke-linejoin:round;stroke-miterlimit:4;stroke-dasharray:none;stroke-dashoffset:0;stroke-opacity:1"
       d="m 145.94759,163.06793 a 7.3705359,7.3705359 0 0 0 -7.06572,5.2865 52.349704,52.349704 0 0 0 -0.12868,0.0155 7.3705359,7.3705359 0 0 0 -5.65702,-2.65669 7.3705359,7.3705359 0 0 0 -6.56084,4.0287 7.3705359,7.3705359 0 0 0 -5.53454,-2.51665 7.3705359,7.3705359 0 0 0 -7.04453,5.20434 7.3705359,7.3705359 0 0 0 -2.02675,-0.29042 7.3705359,7.3705359 0 0 0 -7.37061,7.37061 7.3705359,7.3705359 0 0 0 2.13527,5.18366 7.3705359,7.3705359 0 0 0 -1.94614,-0.27027 7.3705359,7.3705359 0 0 0 -7.370605,7.37061 7.3705359,7.3705359 0 0 0 1.969905,5.00589 52.349704,52.349704 0 0 0 -0.371552,0.76895 7.3705359,7.3705359 0 0 0 -6.133994,7.26519 7.3705359,7.3705359 0 0 0 0.78445,3.30419 7.3705359,7.3705359 0 0 0 -3.619418,6.3345 7.3705359,7.3705359 0 0 0 2.961576,5.89473 7.3705359,7.3705359 0 0 0 -2.205551,5.25549 7.3705359,7.3705359 0 0 0 4.545976,6.80527 52.349704,52.349704 0 0 0 0.06563,0.29197 7.3705359,7.3705359 0 0 0 -1.965772,4.99815 7.3705359,7.3705359 0 0 0 5.088577,7.00319 7.3705359,7.3705359 0 0 0 -0.930693,3.58014 7.3705359,7.3705359 0 0 0 7.370611,7.3701 7.3705359,7.3705359 0 0 0 1.90221,-0.2527 7.3705359,7.3705359 0 0 0 -0.0124,0.2527 7.3705359,7.3705359 0 0 0 7.37061,7.37061 7.3705359,7.3705359 0 0 0 0.96221,-0.0718 7.3705359,7.3705359 0 0 0 7.35304,6.87554 7.3705359,7.3705359 0 0 0 4.02508,-1.19888 52.349704,52.349704 0 0 0 0.35864,0.13073 7.3705359,7.3705359 0 0 0 6.76651,4.47003 7.3705359,7.3705359 0 0 0 4.37802,-1.45108 52.349704,52.349704 0 0 0 0.48886,0.0739 7.3705359,7.3705359 0 0 0 4.77181,1.75493 7.3705359,7.3705359 0 0 0 3.99097,-1.17462 52.349704,52.349704 0 0 0 0.15296,-0.006 7.3705359,7.3705359 0 0 0 6.81715,4.58213 7.3705359,7.3705359 0 0 0 6.86315,-4.70461 7.3705359,7.3705359 0 0 0 2.77502,0.54674 7.3705359,7.3705359 0 0 0 7.16338,-5.66944 7.3705359,7.3705359 0 0 0 3.23133,0.75605 7.3705359,7.3705359 0 0 0 7.37061,-7.37063 7.3705359,7.3705359 0 0 0 -0.16846,-1.52496 7.3705359,7.3705359 0 0 0 1.68,0.20204 7.3705359,7.3705359 0 0 0 7.37061,-7.3706 7.3705359,7.3705359 0 0 0 -0.44494,-2.5027 7.3705359,7.3705359 0 0 0 5.54747,-7.13547 7.3705359,7.3705359 0 0 0 -0.74931,-3.2272 52.349704,52.349704 0 0 0 0.35502,-0.97306 7.3705359,7.3705359 0 0 0 0.77256,0.0424 7.3705359,7.3705359 0 0 0 7.37061,-7.37061 7.3705359,7.3705359 0 0 0 -4.4111,-6.74584 7.3705359,7.3705359 0 0 0 2.52129,-5.53816 7.3705359,7.3705359 0 0 0 -2.51768,-5.53971 7.3705359,7.3705359 0 0 0 1.38338,-4.2876 7.3705359,7.3705359 0 0 0 -2.98328,-5.9123 7.3705359,7.3705359 0 0 0 0.90434,-3.53725 7.3705359,7.3705359 0 0 0 -7.37009,-7.37061 7.3705359,7.3705359 0 0 0 -0.38551,0.014 7.3705359,7.3705359 0 0 0 0.57413,-2.84892 7.3705359,7.3705359 0 0 0 -6.63009,-7.33289 7.3705359,7.3705359 0 0 0 0.58239,-2.87217 7.3705359,7.3705359 0 0 0 -7.37009,-7.37061 7.3705359,7.3705359 0 0 0 -4.21628,1.33532 7.3705359,7.3705359 0 0 0 -7.12307,-5.49321 7.3705359,7.3705359 0 0 0 -3.36672,0.81546 7.3705359,7.3705359 0 0 0 -6.46059,-3.83904 7.3705359,7.3705359 0 0 0 -4.74751,1.74252 7.3705359,7.3705359 0 0 0 -5.83582,-2.87631 z"
       id="path815"
       inkscape:connector-curvature="0" />
    <g
       id="g1150">
      <g
         id="g1144" />
    </g>
    <path
       style="fill:none;fill-rule:evenodd;stroke:#000000;stroke-width:2;stroke-linecap:butt;stroke-linejoin:miter;stroke-miterlimit:4;stroke-dasharray:none;stroke-opacity:1"
       d="m 16.065419,229.97483 c 1e-6,1.84511 -1.495758,3.34087 -3.340869,3.34087 -1.845111,0 -3.3408698,-1.49576 -3.3408688,-3.34087 v -23.38609 c -10e-7,-1.84511 1.4957578,-3.34087 3.3408688,-3.34087 1.845111,0 3.34087,1.49576 3.340869,3.34087 z"
       id="path1115-3-7"
       inkscape:connector-curvature="0"
       sodipodi:nodetypes="csccscc" />
    <path
       style="fill:none;fill-rule:evenodd;stroke:#000000;stroke-width:2;stroke-linecap:butt;stroke-linejoin:miter;stroke-miterlimit:4;stroke-dasharray:none;stroke-opacity:1"
       d="m 59.133383,244.14745 c 10e-7,1.84511 -1.495758,3.34087 -3.340869,3.34087 -1.845111,0 -3.34087,-1.49576 -3.340869,-3.34087 v -23.38609 c -10e-7,-1.84511 1.495758,-3.34087 3.340869,-3.34087 1.845111,0 3.34087,1.49576 3.340869,3.34087 z"
       id="path1115-3-7-8"
       inkscape:connector-curvature="0"
       sodipodi:nodetypes="csccscc" />
    <path
       style="fill:none;fill-rule:evenodd;stroke:#000000;stroke-width:2;stroke-linecap:butt;stroke-linejoin:miter;stroke-miterlimit:4;stroke-dasharray:none;stroke-opacity:1"
       d="m 41.894493,162.56343 c 0.19937,1.65118 -1.80359,2.77591 -3.48261,2.98652 -2.17083,0.22575 -2.75028,-2.46681 -3.15188,-3.17551 -0.80272,-2.19087 -1.95727,-6.79777 -1.98495,-11.50406 0.0196,-5.63957 1.11633,-9.6256 1.93771,-11.69304 0.51832,-1.3335 1.49575,-3.34087 3.34087,-3.34087 1.84511,0 4.07586,1.02804 3.34086,3.34087 -1.06907,3.0736 -2.09496,6.25583 -1.9377,11.69304 0.0473,5.064 1.5368,9.08717 1.9377,11.69305 z"
       id="path1115-3-7-7"
       inkscape:connector-curvature="0"
       sodipodi:nodetypes="cccccsccc" />
    <path
       style="fill:none;fill-rule:evenodd;stroke:#000000;stroke-width:2;stroke-linecap:butt;stroke-linejoin:miter;stroke-miterlimit:4;stroke-dasharray:none;stroke-opacity:1"
       d="m 64.651616,162.66749 c 0.19936,1.65118 -1.8036,2.77591 -3.48262,2.98652 -2.17083,0.22575 -2.75028,-2.46681 -3.15187,-3.17551 -0.80273,-2.19087 -1.95728,-6.79777 -1.98496,-11.50406 0.0196,-5.63957 1.11633,-9.6256 1.93771,-11.69304 0.51832,-1.3335 1.49575,-3.34087 3.34087,-3.34087 1.84511,0 4.07586,1.02804 3.34087,3.34087 -1.06908,3.0736 -2.09497,6.25583 -1.93771,11.69304 0.0473,5.064 1.5368,9.08717 1.93771,11.69305 z"
       id="path1115-3-7-7-4"
       inkscape:connector-curvature="0"
       sodipodi:nodetypes="cccccsccc" />
    <path
       style="fill:#000000;fill-opacity:1;fill-rule:evenodd;stroke:#000000;stroke-width:2;stroke-linecap:butt;stroke-linejoin:miter;stroke-miterlimit:4;stroke-dasharray:none;stroke-opacity:1"
       d="m 161.21469,230.97864 c 0.0657,1.48414 -0.90155,2.7425 -2.64739,2.95311 -2.03719,0.22574 -3.218,-0.96342 -3.65301,-2.10643 -0.90294,-2.45671 -1.25569,-8.95102 -1.28337,-12.53973 0.053,-3.60164 0.2143,-7.78812 0.90204,-11.69304 0.61855,-2.8703 2.36414,-3.52211 4.04246,-3.34087 2.31386,0.51454 2.63928,2.49802 2.30519,4.2429 -0.30067,1.73725 -0.65839,8.16013 -0.56795,10.79101 -0.0529,2.85903 0.46773,8.85331 0.90203,11.69305 z"
       id="path1115-3-7-7-1"
       inkscape:connector-curvature="0"
       sodipodi:nodetypes="ccccccccc" />
    <path
       style="fill:#000000;fill-opacity:1;fill-rule:evenodd;stroke:#000000;stroke-width:2;stroke-linecap:butt;stroke-linejoin:miter;stroke-miterlimit:4;stroke-dasharray:none;stroke-opacity:1"
       d="m 112.83654,230.97864 c 0.0657,1.48414 -0.90156,2.7425 -2.64739,2.95311 -2.0372,0.22574 -3.218,-0.96342 -3.65301,-2.10643 -0.90295,-2.45671 -1.25569,-8.95102 -1.28337,-12.53973 0.053,-3.60164 0.21429,-7.78812 0.90204,-11.69304 0.61855,-2.8703 2.36413,-3.52211 4.04245,-3.34087 2.31386,0.51454 2.63929,2.49802 2.30519,4.2429 -0.30067,1.73725 -0.65838,8.16013 -0.56794,10.79101 -0.0529,2.85903 0.46772,8.85331 0.90203,11.69305 z"
       id="path1115-3-7-7-1-9"
       inkscape:connector-curvature="0"
       sodipodi:nodetypes="ccccccccc" />
    <path
       style="fill:none;fill-rule:evenodd;stroke:#000000;stroke-width:3.56597042;stroke-linecap:round;stroke-linejoin:miter;stroke-miterlimit:4;stroke-dasharray:none;stroke-opacity:1"
       d="m 121.56308,223.21493 c 1.50339,0.30068 8.26749,0.46772 11.67517,0.43431 3.9686,0 8.6684,-0.0668 11.67518,-0.43431"
       id="path1242"
       inkscape:connector-curvature="0"
       sodipodi:nodetypes="ccc" />
    <path
       style="fill:#000000;fill-opacity:1;fill-rule:evenodd;stroke:#000000;stroke-width:1;stroke-linecap:round;stroke-linejoin:round;stroke-miterlimit:4;stroke-dasharray:none;stroke-opacity:1"
       d="m 121.56308,223.64838 1.79539,9.26042 2.26786,-9.16592"
       id="path1269"
       inkscape:connector-curvature="0" />
    <path
       style="fill:#000000;fill-opacity:1;fill-rule:evenodd;stroke:#000000;stroke-width:1;stroke-linecap:round;stroke-linejoin:round;stroke-miterlimit:4;stroke-dasharray:none;stroke-opacity:1"
       d="m 139.82731,223.55388 1.79539,9.26042 2.26786,-9.16592"
       id="path1269-9"
       inkscape:connector-curvature="0" />
  </g>
</svg>
