<?xml version="1.0" encoding="UTF-8" standalone="no"?>
<!-- Created with Inkscape (http://www.inkscape.org/) -->

<svg
   xmlns:dc="http://purl.org/dc/elements/1.1/"
   xmlns:cc="http://creativecommons.org/ns#"
   xmlns:rdf="http://www.w3.org/1999/02/22-rdf-syntax-ns#"
   xmlns:svg="http://www.w3.org/2000/svg"
   xmlns="http://www.w3.org/2000/svg"
   xmlns:sodipodi="http://sodipodi.sourceforge.net/DTD/sodipodi-0.dtd"
   xmlns:inkscape="http://www.inkscape.org/namespaces/inkscape"
   width="16"
   height="16"
   viewBox="0 0 4.2333332 4.2333335"
   version="1.1"
   id="svg844"
   inkscape:version="0.92.5 (0.92.5+68)"
   sodipodi:docname="vampirepuff_s.svg">
  <defs
     id="defs838" />
  <sodipodi:namedview
     id="base"
     pagecolor="#ffffff"
     bordercolor="#666666"
     borderopacity="1.0"
     inkscape:pageopacity="0.0"
     inkscape:pageshadow="2"
     inkscape:zoom="22.4"
     inkscape:cx="3.3002485"
     inkscape:cy="15.150209"
     inkscape:document-units="mm"
     inkscape:current-layer="layer1"
     showgrid="false"
     inkscape:window-width="1920"
     inkscape:window-height="1055"
     inkscape:window-x="1920"
     inkscape:window-y="0"
     inkscape:window-maximized="1"
     units="px" />
  <metadata
     id="metadata841">
    <rdf:RDF>
      <cc:Work
         rdf:about="">
        <dc:format>image/svg+xml</dc:format>
        <dc:type
           rdf:resource="http://purl.org/dc/dcmitype/StillImage" />
        <dc:title></dc:title>
      </cc:Work>
    </rdf:RDF>
  </metadata>
  <g
     inkscape:label="Layer 1"
     inkscape:groupmode="layer"
     id="layer1"
     transform="translate(0,-292.76665)">
    <path
       style="opacity:1;vector-effect:none;fill:none;fill-opacity:1;fill-rule:nonzero;stroke:#464646;stroke-width:0.0366862;stroke-linecap:round;stroke-linejoin:round;stroke-miterlimit:4;stroke-dasharray:none;stroke-dashoffset:0;stroke-opacity:1"
       d="m 2.0641682,293.88306 a 0.13519847,0.13519847 0 0 0 -0.129607,0.097 0.96025578,0.96025578 0 0 0 -0.0024,2.9e-4 0.13519847,0.13519847 0 0 0 -0.103768,-0.0487 0.13519847,0.13519847 0 0 0 -0.120346,0.0739 0.13519847,0.13519847 0 0 0 -0.10152,-0.0462 0.13519847,0.13519847 0 0 0 -0.129219,0.0955 0.13519847,0.13519847 0 0 0 -0.03718,-0.005 0.13519847,0.13519847 0 0 0 -0.1352,0.1352 0.13519847,0.13519847 0 0 0 0.03917,0.0951 0.13519847,0.13519847 0 0 0 -0.0357,-0.005 0.13519847,0.13519847 0 0 0 -0.1352,0.13519 0.13519847,0.13519847 0 0 0 0.03613,0.0918 0.96025578,0.96025578 0 0 0 -0.0068,0.0141 0.13519847,0.13519847 0 0 0 -0.112517,0.13327 0.13519847,0.13519847 0 0 0 0.01439,0.0606 0.13519847,0.13519847 0 0 0 -0.06639,0.11619 0.13519847,0.13519847 0 0 0 0.05432,0.10813 0.13519847,0.13519847 0 0 0 -0.04046,0.0964 0.13519847,0.13519847 0 0 0 0.08339,0.12483 0.96025578,0.96025578 0 0 0 0.0012,0.005 0.13519847,0.13519847 0 0 0 -0.03606,0.0917 0.13519847,0.13519847 0 0 0 0.09334,0.12846 0.13519847,0.13519847 0 0 0 -0.01707,0.0657 0.13519847,0.13519847 0 0 0 0.1352,0.13519 0.13519847,0.13519847 0 0 0 0.03489,-0.005 0.13519847,0.13519847 0 0 0 -2.27e-4,0.005 0.13519847,0.13519847 0 0 0 0.1352,0.1352 0.13519847,0.13519847 0 0 0 0.01765,-10e-4 0.13519847,0.13519847 0 0 0 0.134877,0.12612 0.13519847,0.13519847 0 0 0 0.07383,-0.022 0.96025578,0.96025578 0 0 0 0.0066,0.002 0.13519847,0.13519847 0 0 0 0.124119,0.082 0.13519847,0.13519847 0 0 0 0.08031,-0.0266 0.96025578,0.96025578 0 0 0 0.009,10e-4 0.13519847,0.13519847 0 0 0 0.08753,0.0322 0.13519847,0.13519847 0 0 0 0.07321,-0.0215 0.96025578,0.96025578 0 0 0 0.0028,-1.1e-4 0.13519847,0.13519847 0 0 0 0.125048,0.084 0.13519847,0.13519847 0 0 0 0.125891,-0.0863 0.13519847,0.13519847 0 0 0 0.0509,0.01 0.13519847,0.13519847 0 0 0 0.131398,-0.104 0.13519847,0.13519847 0 0 0 0.05927,0.0139 0.13519847,0.13519847 0 0 0 0.1352,-0.1352 0.13519847,0.13519847 0 0 0 -0.0031,-0.028 0.13519847,0.13519847 0 0 0 0.03082,0.004 0.13519847,0.13519847 0 0 0 0.1352,-0.1352 0.13519847,0.13519847 0 0 0 -0.0082,-0.0459 0.13519847,0.13519847 0 0 0 0.101758,-0.13089 0.13519847,0.13519847 0 0 0 -0.01375,-0.0592 0.96025578,0.96025578 0 0 0 0.0065,-0.0178 0.13519847,0.13519847 0 0 0 0.01417,7.7e-4 0.13519847,0.13519847 0 0 0 0.1352,-0.1352 0.13519847,0.13519847 0 0 0 -0.08091,-0.12374 0.13519847,0.13519847 0 0 0 0.04625,-0.10158 0.13519847,0.13519847 0 0 0 -0.04618,-0.10162 0.13519847,0.13519847 0 0 0 0.02538,-0.0787 0.13519847,0.13519847 0 0 0 -0.05472,-0.10845 0.13519847,0.13519847 0 0 0 0.01659,-0.0649 0.13519847,0.13519847 0 0 0 -0.135191,-0.1352 0.13519847,0.13519847 0 0 0 -0.0071,2.6e-4 0.13519847,0.13519847 0 0 0 0.01053,-0.0523 0.13519847,0.13519847 0 0 0 -0.121616,-0.13451 0.13519847,0.13519847 0 0 0 0.01068,-0.0527 0.13519847,0.13519847 0 0 0 -0.135191,-0.1352 0.13519847,0.13519847 0 0 0 -0.07734,0.0245 0.13519847,0.13519847 0 0 0 -0.130659,-0.10076 0.13519847,0.13519847 0 0 0 -0.06176,0.015 0.13519847,0.13519847 0 0 0 -0.118507,-0.0704 0.13519847,0.13519847 0 0 0 -0.08708,0.032 0.13519847,0.13519847 0 0 0 -0.107047,-0.0528 z"
       id="path815"
       inkscape:connector-curvature="0" />
    <path
       style="fill:#464646;fill-opacity:1;fill-rule:evenodd;stroke:#464646;stroke-width:0.0366862;stroke-linecap:butt;stroke-linejoin:miter;stroke-miterlimit:4;stroke-dasharray:none;stroke-opacity:1"
       d="m 2.3442142,295.12876 c 0.0012,0.0272 -0.01654,0.0503 -0.04856,0.0542 -0.03737,0.004 -0.05903,-0.0177 -0.06701,-0.0386 -0.01656,-0.0451 -0.02303,-0.16419 -0.02354,-0.23002 9.72e-4,-0.0661 0.0039,-0.14286 0.01655,-0.21449 0.01135,-0.0526 0.04337,-0.0646 0.07415,-0.0613 0.04244,0.009 0.04841,0.0458 0.04228,0.0778 -0.0055,0.0319 -0.01208,0.14968 -0.01042,0.19794 -9.7e-4,0.0524 0.0086,0.1624 0.01655,0.21449 z"
       id="path1115-3-7-7-1"
       inkscape:connector-curvature="0"
       sodipodi:nodetypes="ccccccccc" />
    <path
       style="fill:#464646;fill-opacity:1;fill-rule:evenodd;stroke:#464646;stroke-width:0.0366862;stroke-linecap:butt;stroke-linejoin:miter;stroke-miterlimit:4;stroke-dasharray:none;stroke-opacity:1"
       d="m 1.4568092,295.12876 c 0.0012,0.0272 -0.01654,0.0503 -0.04856,0.0542 -0.03737,0.004 -0.05903,-0.0177 -0.06701,-0.0386 -0.01656,-0.0451 -0.02303,-0.16419 -0.02354,-0.23002 9.72e-4,-0.0661 0.0039,-0.14286 0.01655,-0.21449 0.01135,-0.0526 0.04337,-0.0646 0.07415,-0.0613 0.04244,0.009 0.04841,0.0458 0.04229,0.0778 -0.0055,0.0319 -0.01208,0.14968 -0.01042,0.19794 -9.7e-4,0.0524 0.0086,0.1624 0.01655,0.21449 z"
       id="path1115-3-7-7-1-9"
       inkscape:connector-curvature="0"
       sodipodi:nodetypes="ccccccccc" />
    <path
       style="fill:none;fill-rule:evenodd;stroke:#464646;stroke-width:0.06541095;stroke-linecap:round;stroke-linejoin:miter;stroke-miterlimit:4;stroke-dasharray:none;stroke-opacity:1"
       d="m 1.6168812,294.98635 c 0.02758,0.006 0.151651,0.009 0.214159,0.008 0.0728,0 0.159005,-10e-4 0.214158,-0.008"
       id="path1242"
       inkscape:connector-curvature="0"
       sodipodi:nodetypes="ccc" />
    <path
       style="fill:#464646;fill-opacity:1;fill-rule:evenodd;stroke:#464646;stroke-width:0.0183431;stroke-linecap:round;stroke-linejoin:round;stroke-miterlimit:4;stroke-dasharray:none;stroke-opacity:1"
       d="m 1.6168812,294.9943 0.03293,0.16986 0.0416,-0.16813"
       id="path1269"
       inkscape:connector-curvature="0" />
    <path
       style="fill:#464646;fill-opacity:1;fill-rule:evenodd;stroke:#464646;stroke-width:0.0183431;stroke-linecap:round;stroke-linejoin:round;stroke-miterlimit:4;stroke-dasharray:none;stroke-opacity:1"
       d="m 1.9519032,294.99256 0.03293,0.16987 0.0416,-0.16813"
       id="path1269-9"
       inkscape:connector-curvature="0" />
  </g>
</svg>
