<?xml version="1.0" encoding="UTF-8" standalone="no"?>
<!-- Created with Inkscape (http://www.inkscape.org/) -->

<svg
   xmlns:dc="http://purl.org/dc/elements/1.1/"
   xmlns:cc="http://creativecommons.org/ns#"
   xmlns:rdf="http://www.w3.org/1999/02/22-rdf-syntax-ns#"
   xmlns:svg="http://www.w3.org/2000/svg"
   xmlns="http://www.w3.org/2000/svg"
   xmlns:sodipodi="http://sodipodi.sourceforge.net/DTD/sodipodi-0.dtd"
   xmlns:inkscape="http://www.inkscape.org/namespaces/inkscape"
   width="210mm"
   height="297mm"
   viewBox="0 0 210 297"
   version="1.1"
   id="svg844"
   inkscape:version="0.92.5 (0.92.5+68)"
   sodipodi:docname="vampirepuff-friend.svg"
   inkscape:export-filename="/home/abe/git/github/abetusk/2d/vampirepuff/vampirepuff-friend.png"
   inkscape:export-xdpi="300"
   inkscape:export-ydpi="300">
  <defs
     id="defs838" />
  <sodipodi:namedview
     id="base"
     pagecolor="#ffffff"
     bordercolor="#666666"
     borderopacity="1.0"
     inkscape:pageopacity="0.0"
     inkscape:pageshadow="2"
     inkscape:zoom="0.7"
     inkscape:cx="156.86924"
     inkscape:cy="703.12292"
     inkscape:document-units="mm"
     inkscape:current-layer="layer1"
     showgrid="false"
     inkscape:window-width="1468"
     inkscape:window-height="863"
     inkscape:window-x="330"
     inkscape:window-y="177"
     inkscape:window-maximized="0" />
  <metadata
     id="metadata841">
    <rdf:RDF>
      <cc:Work
         rdf:about="">
        <dc:format>image/svg+xml</dc:format>
        <dc:type
           rdf:resource="http://purl.org/dc/dcmitype/StillImage" />
        <dc:title></dc:title>
      </cc:Work>
    </rdf:RDF>
  </metadata>
  <g
     inkscape:label="Layer 1"
     inkscape:groupmode="layer"
     id="layer1">
    <path
       style="opacity:1;vector-effect:none;fill:none;fill-opacity:1;fill-rule:nonzero;stroke:#464646;stroke-width:2;stroke-linecap:round;stroke-linejoin:round;stroke-miterlimit:4;stroke-dasharray:none;stroke-dashoffset:0;stroke-opacity:1"
       d="m 126.24423,102.05922 a 7.370536,7.370536 0 0 0 -7.06572,5.2865 52.349704,52.349704 0 0 0 -0.12868,0.0155 7.370536,7.370536 0 0 0 -5.65702,-2.65669 7.370536,7.370536 0 0 0 -6.56084,4.0287 7.370536,7.370536 0 0 0 -5.53454,-2.51665 7.370536,7.370536 0 0 0 -7.044527,5.20434 7.370536,7.370536 0 0 0 -2.02675,-0.29042 7.370536,7.370536 0 0 0 -7.37061,7.37061 7.370536,7.370536 0 0 0 2.13527,5.18366 7.370536,7.370536 0 0 0 -1.94614,-0.27027 7.370536,7.370536 0 0 0 -7.370605,7.37061 7.370536,7.370536 0 0 0 1.969905,5.00589 52.349704,52.349704 0 0 0 -0.371552,0.76895 7.370536,7.370536 0 0 0 -6.133994,7.26519 7.370536,7.370536 0 0 0 0.78445,3.30419 7.370536,7.370536 0 0 0 -3.619418,6.3345 7.370536,7.370536 0 0 0 2.961576,5.89473 7.370536,7.370536 0 0 0 -2.205551,5.25549 7.370536,7.370536 0 0 0 4.545976,6.80527 52.349704,52.349704 0 0 0 0.06563,0.29197 7.370536,7.370536 0 0 0 -1.965772,4.99815 7.370536,7.370536 0 0 0 5.088577,7.00319 7.370536,7.370536 0 0 0 -0.930693,3.58014 7.370536,7.370536 0 0 0 7.370611,7.3701 7.370536,7.370536 0 0 0 1.90221,-0.2527 7.370536,7.370536 0 0 0 -0.0124,0.2527 7.370536,7.370536 0 0 0 7.37061,7.37061 7.370536,7.370536 0 0 0 0.96221,-0.0718 7.370536,7.370536 0 0 0 7.353037,6.87554 7.370536,7.370536 0 0 0 4.02508,-1.19888 52.349704,52.349704 0 0 0 0.35864,0.13073 7.370536,7.370536 0 0 0 6.76651,4.47003 7.370536,7.370536 0 0 0 4.37802,-1.45108 52.349704,52.349704 0 0 0 0.48886,0.0739 7.370536,7.370536 0 0 0 4.77181,1.75493 7.370536,7.370536 0 0 0 3.99097,-1.17462 52.349704,52.349704 0 0 0 0.15296,-0.006 7.370536,7.370536 0 0 0 6.81715,4.58214 7.370536,7.370536 0 0 0 6.86315,-4.70461 7.370536,7.370536 0 0 0 2.77502,0.54674 7.370536,7.370536 0 0 0 7.16338,-5.66944 7.370536,7.370536 0 0 0 3.23133,0.75604 7.370536,7.370536 0 0 0 7.37061,-7.37062 7.370536,7.370536 0 0 0 -0.16846,-1.52496 7.370536,7.370536 0 0 0 1.68,0.20204 7.370536,7.370536 0 0 0 7.37061,-7.3706 7.370536,7.370536 0 0 0 -0.44493,-2.5027 7.370536,7.370536 0 0 0 5.54746,-7.13547 7.370536,7.370536 0 0 0 -0.7493,-3.2272 52.349704,52.349704 0 0 0 0.35501,-0.97306 7.370536,7.370536 0 0 0 0.77257,0.0424 7.370536,7.370536 0 0 0 7.37061,-7.37061 7.370536,7.370536 0 0 0 -4.4111,-6.74584 7.370536,7.370536 0 0 0 2.52128,-5.53816 7.370536,7.370536 0 0 0 -2.51767,-5.53971 7.370536,7.370536 0 0 0 1.38337,-4.2876 7.370536,7.370536 0 0 0 -2.98328,-5.9123 7.370536,7.370536 0 0 0 0.90434,-3.53725 7.370536,7.370536 0 0 0 -7.37009,-7.37061 7.370536,7.370536 0 0 0 -0.3855,0.014 7.370536,7.370536 0 0 0 0.57413,-2.84892 7.370536,7.370536 0 0 0 -6.6301,-7.33288 7.370536,7.370536 0 0 0 0.58239,-2.87217 7.370536,7.370536 0 0 0 -7.37009,-7.37061 7.370536,7.370536 0 0 0 -4.21628,1.33532 7.370536,7.370536 0 0 0 -7.12307,-5.49321 7.370536,7.370536 0 0 0 -3.36672,0.81546 7.370536,7.370536 0 0 0 -6.46059,-3.83904 7.370536,7.370536 0 0 0 -4.74751,1.74252 7.370536,7.370536 0 0 0 -5.83582,-2.87631 z"
       id="path815"
       inkscape:connector-curvature="0" />
    <path
       style="fill:#464646;fill-opacity:1;fill-rule:evenodd;stroke:#464646;stroke-width:2;stroke-linecap:butt;stroke-linejoin:miter;stroke-miterlimit:4;stroke-dasharray:none;stroke-opacity:1"
       d="m 141.51133,169.96993 c 0.0657,1.48414 -0.90155,2.7425 -2.64739,2.95311 -2.03719,0.22574 -3.218,-0.96342 -3.65301,-2.10643 -0.90294,-2.45671 -1.25569,-8.95102 -1.28337,-12.53973 0.053,-3.60164 0.2143,-7.78812 0.90204,-11.69304 0.61855,-2.8703 2.36414,-3.52211 4.04246,-3.34087 2.31386,0.51454 2.63928,2.49802 2.30519,4.2429 -0.30067,1.73725 -0.65839,8.16013 -0.56795,10.79101 -0.0529,2.85903 0.46773,8.85331 0.90203,11.69305 z"
       id="path1115-3-7-7-1"
       inkscape:connector-curvature="0"
       sodipodi:nodetypes="ccccccccc" />
    <path
       style="fill:#464646;fill-opacity:1;fill-rule:evenodd;stroke:#464646;stroke-width:2;stroke-linecap:butt;stroke-linejoin:miter;stroke-miterlimit:4;stroke-dasharray:none;stroke-opacity:1"
       d="m 93.133183,169.96993 c 0.0657,1.48414 -0.90156,2.7425 -2.64739,2.95311 -2.0372,0.22574 -3.218,-0.96342 -3.65301,-2.10643 -0.90295,-2.45671 -1.25569,-8.95102 -1.28337,-12.53973 0.053,-3.60164 0.21429,-7.78812 0.90204,-11.69304 0.61855,-2.8703 2.36413,-3.52211 4.04245,-3.34087 2.31386,0.51454 2.63929,2.49802 2.30519,4.2429 -0.30067,1.73725 -0.65838,8.16013 -0.56794,10.79101 -0.0529,2.85903 0.46772,8.85331 0.90203,11.69305 z"
       id="path1115-3-7-7-1-9"
       inkscape:connector-curvature="0"
       sodipodi:nodetypes="ccccccccc" />
    <path
       style="fill:none;fill-rule:evenodd;stroke:#464646;stroke-width:3.56597066;stroke-linecap:round;stroke-linejoin:miter;stroke-miterlimit:4;stroke-dasharray:none;stroke-opacity:1"
       d="m 101.85972,162.20622 c 1.50339,0.30068 8.26749,0.46772 11.67518,0.43431 3.96859,0 8.66839,-0.0668 11.67517,-0.43431"
       id="path1242"
       inkscape:connector-curvature="0"
       sodipodi:nodetypes="ccc" />
    <path
       style="fill:#464646;fill-opacity:1;fill-rule:evenodd;stroke:#464646;stroke-width:1;stroke-linecap:round;stroke-linejoin:round;stroke-miterlimit:4;stroke-dasharray:none;stroke-opacity:1"
       d="m 101.85972,162.63967 1.79539,9.26042 2.26786,-9.16592"
       id="path1269"
       inkscape:connector-curvature="0" />
    <path
       style="fill:#464646;fill-opacity:1;fill-rule:evenodd;stroke:#464646;stroke-width:1;stroke-linecap:round;stroke-linejoin:round;stroke-miterlimit:4;stroke-dasharray:none;stroke-opacity:1"
       d="m 120.12395,162.54517 1.7954,9.26042 2.26785,-9.16592"
       id="path1269-9"
       inkscape:connector-curvature="0" />
    <text
       xml:space="preserve"
       style="font-style:normal;font-variant:normal;font-weight:normal;font-stretch:normal;font-size:21.7531929px;line-height:125%;font-family:'Double Feature';-inkscape-font-specification:'Double Feature, Normal';font-variant-ligatures:normal;font-variant-caps:normal;font-variant-numeric:normal;font-feature-settings:normal;text-align:center;letter-spacing:0px;word-spacing:0px;writing-mode:lr-tb;text-anchor:middle;fill:#464646;fill-opacity:1;stroke:none;stroke-width:0.25492021px;stroke-linecap:butt;stroke-linejoin:miter;stroke-opacity:1"
       x="63.806297"
       y="53.333797"
       id="text822"><tspan
         sodipodi:role="line"
         id="tspan835"
         x="63.806297"
         y="53.333797"
         style="stroke-width:0.25492021px">let's be</tspan><tspan
         sodipodi:role="line"
         id="tspan837"
         x="63.806297"
         y="80.525291"
         style="stroke-width:0.25492021px">friends!</tspan></text>
    <path
       style="opacity:1;vector-effect:none;fill:none;fill-opacity:1;fill-rule:nonzero;stroke:#464646;stroke-width:2;stroke-linecap:round;stroke-linejoin:round;stroke-miterlimit:4;stroke-dasharray:none;stroke-dashoffset:0;stroke-opacity:1"
       d="m 65.295391,98.200694 c 33.648297,0 60.925629,-17.005648 60.925629,-37.983181 0,-20.977533 -27.277332,-37.983182 -60.925629,-37.983181 -33.648296,0 -60.9256284,17.00565 -60.9256284,37.983181 0,10.488766 6.8193334,19.984561 17.8447034,26.858165 5.512685,3.436802 12.076879,6.218056 19.365921,8.140109 3.644521,0.961027 7.470253,1.707254 11.436365,2.213224 0.60862,5.999929 0.656141,8.805139 2.910293,12.404799 2.577824,4.11654 11.309066,9.18827 11.309066,9.18827 0,0 -3.208306,-7.13801 -3.499876,-10.96293 -0.252881,-3.31737 -0.425223,-6.4256 1.559156,-9.858456 z"
       id="path832"
       inkscape:connector-curvature="0"
       sodipodi:nodetypes="cssssscacac" />
  </g>
</svg>
