<?xml version="1.0" standalone="no"?>
<!DOCTYPE svg PUBLIC "-//W3C//DTD SVG 1.1//EN" "http://www.w3.org/Graphics/SVG/1.1/DTD/svg11.dtd">
<svg width="58" height="58" viewBox="-14 -29 58 58" xmlns="http://www.w3.org/2000/svg" version="1.1">
<title>OpenSCAD Model</title>
<path d="
M 10.7495,28.9291 L 11.2361,28.8042 L 11.7031,28.6193 L 12.1433,28.3773 L 12.5497,28.082 L 12.9159,27.7382
 L 13.2361,27.3511 L 13.5052,26.927 L 13.7191,26.4725 L 13.8743,25.9948 L 13.9684,25.5013 L 14,25
 L 13.9998,22.996 L 13.9842,22.7493 L 13.9372,22.5026 L 13.8596,22.2637 L 13.7526,22.0365 L 13.618,21.8244
 L 13.4579,21.6309 L 13.2749,21.459 L 13.0717,21.3113 L 12.8516,21.1903 L 12.618,21.0979 L 12.3748,21.0354
 L 12.1256,21.0039 L 12.0002,21.0039 L 12.0007,20.996 L 11.8744,20.996 L 11.6252,20.9646 L 11.382,20.9021
 L 11.1484,20.8096 L 10.9283,20.6886 L 10.7251,20.541 L 10.5421,20.3691 L 10.382,20.1756 L 10.2474,19.9635
 L 10.1404,19.7362 L 10.0628,19.4974 L 10.0158,19.2507 L 10,19 L 10,8 L 10.0158,7.74933
 L 10.0628,7.50261 L 10.1404,7.26375 L 10.2474,7.03648 L 10.382,6.82442 L 10.5421,6.63091 L 10.7251,6.45897
 L 10.9283,6.31134 L 11.1484,6.19034 L 11.382,6.09789 L 11.6252,6.03542 L 11.8744,6.00394 L 12.0007,6.00394
 L 12.0002,5.99605 L 12.1256,5.99605 L 12.3748,5.96457 L 12.618,5.9021 L 12.8516,5.80965 L 13.0717,5.68864
 L 13.2749,5.54102 L 13.4579,5.36908 L 13.618,5.17557 L 13.7526,4.9635 L 13.8596,4.73624 L 13.9372,4.49738
 L 13.9842,4.25066 L 14,4.00394 L 14,-25 L 13.9684,-25.5013 L 13.8743,-25.9948 L 13.7191,-26.4725
 L 13.5052,-26.927 L 13.2361,-27.3511 L 12.9159,-27.7382 L 12.5497,-28.082 L 12.1433,-28.3773 L 11.7031,-28.6193
 L 11.2361,-28.8042 L 10.7495,-28.9291 L 10.2512,-28.9921 L -10.2512,-28.9921 L -10.7495,-28.9291 L -11.2361,-28.8042
 L -11.7031,-28.6193 L -12.1433,-28.3773 L -12.5497,-28.082 L -12.9159,-27.7382 L -13.2361,-27.3511 L -13.5052,-26.927
 L -13.7191,-26.4725 L -13.8743,-25.9948 L -13.9684,-25.5013 L -14,-25 L -13.9998,4.00394 L -13.9842,4.25066
 L -13.9372,4.49738 L -13.8596,4.73624 L -13.7526,4.9635 L -13.618,5.17557 L -13.4579,5.36908 L -13.2749,5.54102
 L -13.0717,5.68864 L -12.8516,5.80965 L -12.618,5.9021 L -12.3748,5.96457 L -12.1256,5.99605 L -12.0002,5.99605
 L -12.0007,6.00394 L -11.8744,6.00394 L -11.6252,6.03542 L -11.382,6.09789 L -11.1484,6.19034 L -10.9283,6.31134
 L -10.7251,6.45897 L -10.5421,6.63091 L -10.382,6.82442 L -10.2474,7.03648 L -10.1404,7.26375 L -10.0628,7.50261
 L -10.0158,7.74933 L -10,8 L -10,19 L -10.0158,19.2507 L -10.0628,19.4974 L -10.1404,19.7362
 L -10.2474,19.9635 L -10.382,20.1756 L -10.5421,20.3691 L -10.7251,20.541 L -10.9283,20.6886 L -11.1484,20.8096
 L -11.382,20.9021 L -11.6252,20.9646 L -11.8744,20.996 L -12.0007,20.996 L -12.0002,21.0039 L -12.1256,21.0039
 L -12.3748,21.0354 L -12.618,21.0979 L -12.8516,21.1903 L -13.0717,21.3113 L -13.2749,21.459 L -13.4579,21.6309
 L -13.618,21.8244 L -13.7526,22.0365 L -13.8596,22.2637 L -13.9372,22.5026 L -13.9842,22.7493 L -14,22.996
 L -14,25 L -13.9684,25.5013 L -13.8743,25.9948 L -13.7191,26.4725 L -13.5052,26.927 L -13.2361,27.3511
 L -12.9159,27.7382 L -12.5497,28.082 L -12.1433,28.3773 L -11.7031,28.6193 L -11.2361,28.8042 L -10.7495,28.9291
 L -10.2512,28.9921 L 10.2512,28.9921 z
M -10.0628,-24.002 L -10.1874,-24.0177 L -10.309,-24.0489 L -10.4258,-24.0952 L -10.5358,-24.1557 L -10.6374,-24.2295
 L -10.729,-24.3154 L -10.809,-24.4122 L -10.8763,-24.5182 L -10.9298,-24.6319 L -10.9686,-24.7513 L -10.9921,-24.8747
 L -11,-25 L -10.9921,-25.1253 L -10.9686,-25.2487 L -10.9298,-25.3681 L -10.8763,-25.4818 L -10.809,-25.5878
 L -10.729,-25.6845 L -10.6374,-25.7705 L -10.5358,-25.8443 L -10.4258,-25.9048 L -10.309,-25.951 L -10.1874,-25.9823
 L -10.0628,-25.998 L -9.93719,-25.998 L -9.81261,-25.9823 L -9.69098,-25.951 L -9.57422,-25.9048 L -9.46417,-25.8443
 L -9.36256,-25.7705 L -9.27103,-25.6845 L -9.19098,-25.5878 L -9.12369,-25.4818 L -9.07022,-25.3681 L -9.0314,-25.2487
 L -9.00787,-25.1253 L -9,-25 L -9.00787,-24.8747 L -9.0314,-24.7513 L -9.07022,-24.6319 L -9.12369,-24.5182
 L -9.19098,-24.4122 L -9.27103,-24.3154 L -9.36256,-24.2295 L -9.46417,-24.1557 L -9.57422,-24.0952 L -9.69098,-24.0489
 L -9.81261,-24.0177 L -9.93719,-24.002 z
M 9.93719,-24.002 L 9.81261,-24.0177 L 9.69098,-24.0489 L 9.57422,-24.0952 L 9.46417,-24.1557 L 9.36256,-24.2295
 L 9.27103,-24.3154 L 9.19098,-24.4122 L 9.12369,-24.5182 L 9.07022,-24.6319 L 9.0314,-24.7513 L 9.00787,-24.8747
 L 9,-25 L 9.00787,-25.1253 L 9.0314,-25.2487 L 9.07022,-25.3681 L 9.12369,-25.4818 L 9.19098,-25.5878
 L 9.27103,-25.6845 L 9.36256,-25.7705 L 9.46417,-25.8443 L 9.57422,-25.9048 L 9.69098,-25.951 L 9.81261,-25.9823
 L 9.93719,-25.998 L 10.0628,-25.998 L 10.1874,-25.9823 L 10.309,-25.951 L 10.4258,-25.9048 L 10.5358,-25.8443
 L 10.6374,-25.7705 L 10.729,-25.6845 L 10.809,-25.5878 L 10.8763,-25.4818 L 10.9298,-25.3681 L 10.9686,-25.2487
 L 10.9921,-25.1253 L 11,-25 L 10.9921,-24.8747 L 10.9686,-24.7513 L 10.9298,-24.6319 L 10.8763,-24.5182
 L 10.809,-24.4122 L 10.729,-24.3154 L 10.6374,-24.2295 L 10.5358,-24.1557 L 10.4258,-24.0952 L 10.309,-24.0489
 L 10.1874,-24.0177 L 10.0628,-24.002 z
M -5.06279,-14.002 L -5.18738,-14.0177 L -5.30901,-14.0489 L -5.42577,-14.0952 L -5.53581,-14.1557 L -5.63742,-14.2295
 L -5.72896,-14.3154 L -5.80901,-14.4122 L -5.8763,-14.5182 L -5.92976,-14.6319 L -5.96858,-14.7513 L -5.99211,-14.8747
 L -6,-15 L -6,-23 L -5.99211,-23.1253 L -5.96858,-23.2487 L -5.92976,-23.3681 L -5.8763,-23.4818
 L -5.80901,-23.5878 L -5.72896,-23.6845 L -5.63742,-23.7705 L -5.53581,-23.8443 L -5.42577,-23.9048 L -5.30901,-23.951
 L -5.18738,-23.9823 L -5.06279,-23.998 L 5.06279,-23.998 L 5.18738,-23.9823 L 5.30901,-23.951 L 5.42577,-23.9048
 L 5.53581,-23.8443 L 5.63742,-23.7705 L 5.72896,-23.6845 L 5.80901,-23.5878 L 5.8763,-23.4818 L 5.92976,-23.3681
 L 5.96858,-23.2487 L 5.99211,-23.1253 L 6,-23 L 6,-15 L 5.99211,-14.8747 L 5.96858,-14.7513
 L 5.92976,-14.6319 L 5.8763,-14.5182 L 5.80901,-14.4122 L 5.72896,-14.3154 L 5.63742,-14.2295 L 5.53581,-14.1557
 L 5.42577,-14.0952 L 5.30901,-14.0489 L 5.18738,-14.0177 L 5.06279,-14.002 z
M -5.06279,0.998016 L -5.18738,0.982285 L -5.30901,0.95105 L -5.42577,0.904816 L -5.53581,0.844315 L -5.63742,0.770508
 L -5.72896,0.68454 L -5.80901,0.587784 L -5.8763,0.48175 L -5.92976,0.368118 L -5.96858,0.248688 L -5.99211,0.12532
 L -6,-0 L -6,-8 L -5.99211,-8.12532 L -5.96858,-8.24869 L -5.92976,-8.36812 L -5.8763,-8.48175
 L -5.80901,-8.58778 L -5.72896,-8.68454 L -5.63742,-8.77051 L -5.53581,-8.84431 L -5.42577,-8.90482 L -5.30901,-8.95105
 L -5.18738,-8.98228 L -5.06279,-8.99802 L 5.06279,-8.99802 L 5.18738,-8.98228 L 5.30901,-8.95105 L 5.42577,-8.90482
 L 5.53581,-8.84431 L 5.63742,-8.77051 L 5.72896,-8.68454 L 5.80901,-8.58778 L 5.8763,-8.48175 L 5.92976,-8.36812
 L 5.96858,-8.24869 L 5.99211,-8.12532 L 6,-8 L 6,-0 L 5.99211,0.12532 L 5.96858,0.248688
 L 5.92976,0.368118 L 5.8763,0.48175 L 5.80901,0.587784 L 5.72896,0.68454 L 5.63742,0.770508 L 5.53581,0.844315
 L 5.42577,0.904816 L 5.30901,0.95105 L 5.18738,0.982285 L 5.06279,0.998016 z
M 9.93719,0.998016 L 9.81261,0.982285 L 9.69098,0.95105 L 9.57422,0.904816 L 9.46417,0.844315 L 9.36256,0.770508
 L 9.27103,0.68454 L 9.19098,0.587784 L 9.12369,0.48175 L 9.07022,0.368118 L 9.0314,0.248688 L 9.00787,0.12532
 L 9,-0 L 9.00787,-0.12532 L 9.0314,-0.248688 L 9.07022,-0.368118 L 9.12369,-0.48175 L 9.19098,-0.587784
 L 9.27103,-0.68454 L 9.36256,-0.770508 L 9.46417,-0.844315 L 9.57422,-0.904816 L 9.69098,-0.95105 L 9.81261,-0.982285
 L 9.93719,-0.998016 L 10.0628,-0.998016 L 10.1874,-0.982285 L 10.309,-0.95105 L 10.4258,-0.904816 L 10.5358,-0.844315
 L 10.6374,-0.770508 L 10.729,-0.68454 L 10.809,-0.587784 L 10.8763,-0.48175 L 10.9298,-0.368118 L 10.9686,-0.248688
 L 10.9921,-0.12532 L 11,-0 L 10.9921,0.12532 L 10.9686,0.248688 L 10.9298,0.368118 L 10.8763,0.48175
 L 10.809,0.587784 L 10.729,0.68454 L 10.6374,0.770508 L 10.5358,0.844315 L 10.4258,0.904816 L 10.309,0.95105
 L 10.1874,0.982285 L 10.0628,0.998016 z
M -10.0628,0.998016 L -10.1874,0.982285 L -10.309,0.95105 L -10.4258,0.904816 L -10.5358,0.844315 L -10.6374,0.770508
 L -10.729,0.68454 L -10.809,0.587784 L -10.8763,0.48175 L -10.9298,0.368118 L -10.9686,0.248688 L -10.9921,0.12532
 L -11,-0 L -10.9921,-0.12532 L -10.9686,-0.248688 L -10.9298,-0.368118 L -10.8763,-0.48175 L -10.809,-0.587784
 L -10.729,-0.68454 L -10.6374,-0.770508 L -10.5358,-0.844315 L -10.4258,-0.904816 L -10.309,-0.95105 L -10.1874,-0.982285
 L -10.0628,-0.998016 L -9.93719,-0.998016 L -9.81261,-0.982285 L -9.69098,-0.95105 L -9.57422,-0.904816 L -9.46417,-0.844315
 L -9.36256,-0.770508 L -9.27103,-0.68454 L -9.19098,-0.587784 L -9.12369,-0.48175 L -9.07022,-0.368118 L -9.0314,-0.248688
 L -9.00787,-0.12532 L -9,-0 L -9.00787,0.12532 L -9.0314,0.248688 L -9.07022,0.368118 L -9.12369,0.48175
 L -9.19098,0.587784 L -9.27103,0.68454 L -9.36256,0.770508 L -9.46417,0.844315 L -9.57422,0.904816 L -9.69098,0.95105
 L -9.81261,0.982285 L -9.93719,0.998016 z
M -10.0628,25.998 L -10.1874,25.9823 L -10.309,25.951 L -10.4258,25.9048 L -10.5358,25.8443 L -10.6374,25.7705
 L -10.729,25.6845 L -10.809,25.5878 L -10.8763,25.4818 L -10.9298,25.3681 L -10.9686,25.2487 L -10.9921,25.1253
 L -11,25 L -10.9921,24.8747 L -10.9686,24.7513 L -10.9298,24.6319 L -10.8763,24.5182 L -10.809,24.4122
 L -10.729,24.3154 L -10.6374,24.2295 L -10.5358,24.1557 L -10.4258,24.0952 L -10.309,24.0489 L -10.1874,24.0177
 L -10.0628,24.002 L -9.93719,24.002 L -9.81261,24.0177 L -9.69098,24.0489 L -9.57422,24.0952 L -9.46417,24.1557
 L -9.36256,24.2295 L -9.27103,24.3154 L -9.19098,24.4122 L -9.12369,24.5182 L -9.07022,24.6319 L -9.0314,24.7513
 L -9.00787,24.8747 L -9,25 L -9.00787,25.1253 L -9.0314,25.2487 L -9.07022,25.3681 L -9.12369,25.4818
 L -9.19098,25.5878 L -9.27103,25.6845 L -9.36256,25.7705 L -9.46417,25.8443 L -9.57422,25.9048 L -9.69098,25.951
 L -9.81261,25.9823 L -9.93719,25.998 z
M 9.93719,25.998 L 9.81261,25.9823 L 9.69098,25.951 L 9.57422,25.9048 L 9.46417,25.8443 L 9.36256,25.7705
 L 9.27103,25.6845 L 9.19098,25.5878 L 9.12369,25.4818 L 9.07022,25.3681 L 9.0314,25.2487 L 9.00787,25.1253
 L 9,25 L 9.00787,24.8747 L 9.0314,24.7513 L 9.07022,24.6319 L 9.12369,24.5182 L 9.19098,24.4122
 L 9.27103,24.3154 L 9.36256,24.2295 L 9.46417,24.1557 L 9.57422,24.0952 L 9.69098,24.0489 L 9.81261,24.0177
 L 9.93719,24.002 L 10.0628,24.002 L 10.1874,24.0177 L 10.309,24.0489 L 10.4258,24.0952 L 10.5358,24.1557
 L 10.6374,24.2295 L 10.729,24.3154 L 10.809,24.4122 L 10.8763,24.5182 L 10.9298,24.6319 L 10.9686,24.7513
 L 10.9921,24.8747 L 11,25 L 10.9921,25.1253 L 10.9686,25.2487 L 10.9298,25.3681 L 10.8763,25.4818
 L 10.809,25.5878 L 10.729,25.6845 L 10.6374,25.7705 L 10.5358,25.8443 L 10.4258,25.9048 L 10.309,25.951
 L 10.1874,25.9823 L 10.0628,25.998 z
M 40.7495,28.9291 L 41.2361,28.8042 L 41.7031,28.6193 L 42.1433,28.3773 L 42.5497,28.082 L 42.9159,27.7382
 L 43.2361,27.3511 L 43.5052,26.927 L 43.7191,26.4725 L 43.8743,25.9948 L 43.9684,25.5013 L 44,25
 L 43.9998,22.996 L 43.9842,22.7493 L 43.9372,22.5026 L 43.8596,22.2637 L 43.7526,22.0365 L 43.618,21.8244
 L 43.4579,21.6309 L 43.2749,21.459 L 43.0717,21.3113 L 42.8516,21.1903 L 42.618,21.0979 L 42.3748,21.0354
 L 42.1256,21.0039 L 42.0002,21.0039 L 42.0007,20.996 L 41.8744,20.996 L 41.6252,20.9646 L 41.382,20.9021
 L 41.1484,20.8096 L 40.9283,20.6886 L 40.7251,20.541 L 40.5421,20.3691 L 40.382,20.1756 L 40.2474,19.9635
 L 40.1404,19.7362 L 40.0628,19.4974 L 40.0158,19.2507 L 40,19 L 40,8 L 40.0158,7.74933
 L 40.0628,7.50261 L 40.1404,7.26375 L 40.2474,7.03648 L 40.382,6.82442 L 40.5421,6.63091 L 40.7251,6.45897
 L 40.9283,6.31134 L 41.1484,6.19034 L 41.382,6.09789 L 41.6252,6.03542 L 41.8744,6.00394 L 42.0007,6.00394
 L 42.0002,5.99605 L 42.1256,5.99605 L 42.3748,5.96457 L 42.618,5.9021 L 42.8516,5.80965 L 43.0717,5.68864
 L 43.2749,5.54102 L 43.4579,5.36908 L 43.618,5.17557 L 43.7526,4.9635 L 43.8596,4.73624 L 43.9372,4.49738
 L 43.9842,4.25066 L 44,4.00394 L 44,-25 L 43.9684,-25.5013 L 43.8743,-25.9948 L 43.7191,-26.4725
 L 43.5052,-26.927 L 43.2361,-27.3511 L 42.9159,-27.7382 L 42.5497,-28.082 L 42.1433,-28.3773 L 41.7031,-28.6193
 L 41.2361,-28.8042 L 40.7495,-28.9291 L 40.2512,-28.9921 L 19.7488,-28.9921 L 19.2505,-28.9291 L 18.7639,-28.8042
 L 18.2969,-28.6193 L 17.8567,-28.3773 L 17.4503,-28.082 L 17.0841,-27.7382 L 16.7639,-27.3511 L 16.4948,-26.927
 L 16.2809,-26.4725 L 16.1257,-25.9948 L 16.0316,-25.5013 L 16,-25 L 16.0002,4.00394 L 16.0158,4.25066
 L 16.0628,4.49738 L 16.1404,4.73624 L 16.2474,4.9635 L 16.382,5.17557 L 16.5421,5.36908 L 16.7251,5.54102
 L 16.9283,5.68864 L 17.1484,5.80965 L 17.382,5.9021 L 17.6252,5.96457 L 17.8744,5.99605 L 17.9998,5.99605
 L 17.9993,6.00394 L 18.1256,6.00394 L 18.3748,6.03542 L 18.618,6.09789 L 18.8516,6.19034 L 19.0717,6.31134
 L 19.2749,6.45897 L 19.4579,6.63091 L 19.618,6.82442 L 19.7526,7.03648 L 19.8596,7.26375 L 19.9372,7.50261
 L 19.9842,7.74933 L 20,8 L 20,19 L 19.9842,19.2507 L 19.9372,19.4974 L 19.8596,19.7362
 L 19.7526,19.9635 L 19.618,20.1756 L 19.4579,20.3691 L 19.2749,20.541 L 19.0717,20.6886 L 18.8516,20.8096
 L 18.618,20.9021 L 18.3748,20.9646 L 18.1256,20.996 L 17.9993,20.996 L 17.9998,21.0039 L 17.8744,21.0039
 L 17.6252,21.0354 L 17.382,21.0979 L 17.1484,21.1903 L 16.9283,21.3113 L 16.7251,21.459 L 16.5421,21.6309
 L 16.382,21.8244 L 16.2474,22.0365 L 16.1404,22.2637 L 16.0628,22.5026 L 16.0158,22.7493 L 16,22.996
 L 16,25 L 16.0316,25.5013 L 16.1257,25.9948 L 16.2809,26.4725 L 16.4948,26.927 L 16.7639,27.3511
 L 17.0841,27.7382 L 17.4503,28.082 L 17.8567,28.3773 L 18.2969,28.6193 L 18.7639,28.8042 L 19.2505,28.9291
 L 19.7488,28.9921 L 40.2512,28.9921 z
M 39.9372,-24.002 L 39.8126,-24.0177 L 39.691,-24.0489 L 39.5742,-24.0952 L 39.4642,-24.1557 L 39.3626,-24.2295
 L 39.271,-24.3154 L 39.191,-24.4122 L 39.1237,-24.5182 L 39.0702,-24.6319 L 39.0314,-24.7513 L 39.0079,-24.8747
 L 39,-25 L 39.0079,-25.1253 L 39.0314,-25.2487 L 39.0702,-25.3681 L 39.1237,-25.4818 L 39.191,-25.5878
 L 39.271,-25.6845 L 39.3626,-25.7705 L 39.4642,-25.8443 L 39.5742,-25.9048 L 39.691,-25.951 L 39.8126,-25.9823
 L 39.9372,-25.998 L 40.0628,-25.998 L 40.1874,-25.9823 L 40.309,-25.951 L 40.4258,-25.9048 L 40.5358,-25.8443
 L 40.6374,-25.7705 L 40.729,-25.6845 L 40.809,-25.5878 L 40.8763,-25.4818 L 40.9298,-25.3681 L 40.9686,-25.2487
 L 40.9921,-25.1253 L 41,-25 L 40.9921,-24.8747 L 40.9686,-24.7513 L 40.9298,-24.6319 L 40.8763,-24.5182
 L 40.809,-24.4122 L 40.729,-24.3154 L 40.6374,-24.2295 L 40.5358,-24.1557 L 40.4258,-24.0952 L 40.309,-24.0489
 L 40.1874,-24.0177 L 40.0628,-24.002 z
M 19.9372,-24.002 L 19.8126,-24.0177 L 19.691,-24.0489 L 19.5742,-24.0952 L 19.4642,-24.1557 L 19.3626,-24.2295
 L 19.271,-24.3154 L 19.191,-24.4122 L 19.1237,-24.5182 L 19.0702,-24.6319 L 19.0314,-24.7513 L 19.0079,-24.8747
 L 19,-25 L 19.0079,-25.1253 L 19.0314,-25.2487 L 19.0702,-25.3681 L 19.1237,-25.4818 L 19.191,-25.5878
 L 19.271,-25.6845 L 19.3626,-25.7705 L 19.4642,-25.8443 L 19.5742,-25.9048 L 19.691,-25.951 L 19.8126,-25.9823
 L 19.9372,-25.998 L 20.0628,-25.998 L 20.1874,-25.9823 L 20.309,-25.951 L 20.4258,-25.9048 L 20.5358,-25.8443
 L 20.6374,-25.7705 L 20.729,-25.6845 L 20.809,-25.5878 L 20.8763,-25.4818 L 20.9298,-25.3681 L 20.9686,-25.2487
 L 20.9921,-25.1253 L 21,-25 L 20.9921,-24.8747 L 20.9686,-24.7513 L 20.9298,-24.6319 L 20.8763,-24.5182
 L 20.809,-24.4122 L 20.729,-24.3154 L 20.6374,-24.2295 L 20.5358,-24.1557 L 20.4258,-24.0952 L 20.309,-24.0489
 L 20.1874,-24.0177 L 20.0628,-24.002 z
M 24.9372,-14.002 L 24.8126,-14.0177 L 24.691,-14.0489 L 24.5742,-14.0952 L 24.4642,-14.1557 L 24.3626,-14.2295
 L 24.271,-14.3154 L 24.191,-14.4122 L 24.1237,-14.5182 L 24.0702,-14.6319 L 24.0314,-14.7513 L 24.0079,-14.8747
 L 24,-15 L 24,-23 L 24.0079,-23.1253 L 24.0314,-23.2487 L 24.0702,-23.3681 L 24.1237,-23.4818
 L 24.191,-23.5878 L 24.271,-23.6845 L 24.3626,-23.7705 L 24.4642,-23.8443 L 24.5742,-23.9048 L 24.691,-23.951
 L 24.8126,-23.9823 L 24.9372,-23.998 L 35.0628,-23.998 L 35.1874,-23.9823 L 35.309,-23.951 L 35.4258,-23.9048
 L 35.5358,-23.8443 L 35.6374,-23.7705 L 35.729,-23.6845 L 35.809,-23.5878 L 35.8763,-23.4818 L 35.9298,-23.3681
 L 35.9686,-23.2487 L 35.9921,-23.1253 L 36,-23 L 36,-15 L 35.9921,-14.8747 L 35.9686,-14.7513
 L 35.9298,-14.6319 L 35.8763,-14.5182 L 35.809,-14.4122 L 35.729,-14.3154 L 35.6374,-14.2295 L 35.5358,-14.1557
 L 35.4258,-14.0952 L 35.309,-14.0489 L 35.1874,-14.0177 L 35.0628,-14.002 z
M 24.9372,0.998016 L 24.8126,0.982285 L 24.691,0.95105 L 24.5742,0.904816 L 24.4642,0.844315 L 24.3626,0.770508
 L 24.271,0.68454 L 24.191,0.587784 L 24.1237,0.48175 L 24.0702,0.368118 L 24.0314,0.248688 L 24.0079,0.12532
 L 24,-0 L 24,-8 L 24.0079,-8.12532 L 24.0314,-8.24869 L 24.0702,-8.36812 L 24.1237,-8.48175
 L 24.191,-8.58778 L 24.271,-8.68454 L 24.3626,-8.77051 L 24.4642,-8.84431 L 24.5742,-8.90482 L 24.691,-8.95105
 L 24.8126,-8.98228 L 24.9372,-8.99802 L 35.0628,-8.99802 L 35.1874,-8.98228 L 35.309,-8.95105 L 35.4258,-8.90482
 L 35.5358,-8.84431 L 35.6374,-8.77051 L 35.729,-8.68454 L 35.809,-8.58778 L 35.8763,-8.48175 L 35.9298,-8.36812
 L 35.9686,-8.24869 L 35.9921,-8.12532 L 36,-8 L 36,-0 L 35.9921,0.12532 L 35.9686,0.248688
 L 35.9298,0.368118 L 35.8763,0.48175 L 35.809,0.587784 L 35.729,0.68454 L 35.6374,0.770508 L 35.5358,0.844315
 L 35.4258,0.904816 L 35.309,0.95105 L 35.1874,0.982285 L 35.0628,0.998016 z
M 39.9372,0.998016 L 39.8126,0.982285 L 39.691,0.95105 L 39.5742,0.904816 L 39.4642,0.844315 L 39.3626,0.770508
 L 39.271,0.68454 L 39.191,0.587784 L 39.1237,0.48175 L 39.0702,0.368118 L 39.0314,0.248688 L 39.0079,0.12532
 L 39,-0 L 39.0079,-0.12532 L 39.0314,-0.248688 L 39.0702,-0.368118 L 39.1237,-0.48175 L 39.191,-0.587784
 L 39.271,-0.68454 L 39.3626,-0.770508 L 39.4642,-0.844315 L 39.5742,-0.904816 L 39.691,-0.95105 L 39.8126,-0.982285
 L 39.9372,-0.998016 L 40.0628,-0.998016 L 40.1874,-0.982285 L 40.309,-0.95105 L 40.4258,-0.904816 L 40.5358,-0.844315
 L 40.6374,-0.770508 L 40.729,-0.68454 L 40.809,-0.587784 L 40.8763,-0.48175 L 40.9298,-0.368118 L 40.9686,-0.248688
 L 40.9921,-0.12532 L 41,-0 L 40.9921,0.12532 L 40.9686,0.248688 L 40.9298,0.368118 L 40.8763,0.48175
 L 40.809,0.587784 L 40.729,0.68454 L 40.6374,0.770508 L 40.5358,0.844315 L 40.4258,0.904816 L 40.309,0.95105
 L 40.1874,0.982285 L 40.0628,0.998016 z
M 19.9372,0.998016 L 19.8126,0.982285 L 19.691,0.95105 L 19.5742,0.904816 L 19.4642,0.844315 L 19.3626,0.770508
 L 19.271,0.68454 L 19.191,0.587784 L 19.1237,0.48175 L 19.0702,0.368118 L 19.0314,0.248688 L 19.0079,0.12532
 L 19,-0 L 19.0079,-0.12532 L 19.0314,-0.248688 L 19.0702,-0.368118 L 19.1237,-0.48175 L 19.191,-0.587784
 L 19.271,-0.68454 L 19.3626,-0.770508 L 19.4642,-0.844315 L 19.5742,-0.904816 L 19.691,-0.95105 L 19.8126,-0.982285
 L 19.9372,-0.998016 L 20.0628,-0.998016 L 20.1874,-0.982285 L 20.309,-0.95105 L 20.4258,-0.904816 L 20.5358,-0.844315
 L 20.6374,-0.770508 L 20.729,-0.68454 L 20.809,-0.587784 L 20.8763,-0.48175 L 20.9298,-0.368118 L 20.9686,-0.248688
 L 20.9921,-0.12532 L 21,-0 L 20.9921,0.12532 L 20.9686,0.248688 L 20.9298,0.368118 L 20.8763,0.48175
 L 20.809,0.587784 L 20.729,0.68454 L 20.6374,0.770508 L 20.5358,0.844315 L 20.4258,0.904816 L 20.309,0.95105
 L 20.1874,0.982285 L 20.0628,0.998016 z
M 19.9372,25.998 L 19.8126,25.9823 L 19.691,25.951 L 19.5742,25.9048 L 19.4642,25.8443 L 19.3626,25.7705
 L 19.271,25.6845 L 19.191,25.5878 L 19.1237,25.4818 L 19.0702,25.3681 L 19.0314,25.2487 L 19.0079,25.1253
 L 19,25 L 19.0079,24.8747 L 19.0314,24.7513 L 19.0702,24.6319 L 19.1237,24.5182 L 19.191,24.4122
 L 19.271,24.3154 L 19.3626,24.2295 L 19.4642,24.1557 L 19.5742,24.0952 L 19.691,24.0489 L 19.8126,24.0177
 L 19.9372,24.002 L 20.0628,24.002 L 20.1874,24.0177 L 20.309,24.0489 L 20.4258,24.0952 L 20.5358,24.1557
 L 20.6374,24.2295 L 20.729,24.3154 L 20.809,24.4122 L 20.8763,24.5182 L 20.9298,24.6319 L 20.9686,24.7513
 L 20.9921,24.8747 L 21,25 L 20.9921,25.1253 L 20.9686,25.2487 L 20.9298,25.3681 L 20.8763,25.4818
 L 20.809,25.5878 L 20.729,25.6845 L 20.6374,25.7705 L 20.5358,25.8443 L 20.4258,25.9048 L 20.309,25.951
 L 20.1874,25.9823 L 20.0628,25.998 z
M 39.9372,25.998 L 39.8126,25.9823 L 39.691,25.951 L 39.5742,25.9048 L 39.4642,25.8443 L 39.3626,25.7705
 L 39.271,25.6845 L 39.191,25.5878 L 39.1237,25.4818 L 39.0702,25.3681 L 39.0314,25.2487 L 39.0079,25.1253
 L 39,25 L 39.0079,24.8747 L 39.0314,24.7513 L 39.0702,24.6319 L 39.1237,24.5182 L 39.191,24.4122
 L 39.271,24.3154 L 39.3626,24.2295 L 39.4642,24.1557 L 39.5742,24.0952 L 39.691,24.0489 L 39.8126,24.0177
 L 39.9372,24.002 L 40.0628,24.002 L 40.1874,24.0177 L 40.309,24.0489 L 40.4258,24.0952 L 40.5358,24.1557
 L 40.6374,24.2295 L 40.729,24.3154 L 40.809,24.4122 L 40.8763,24.5182 L 40.9298,24.6319 L 40.9686,24.7513
 L 40.9921,24.8747 L 41,25 L 40.9921,25.1253 L 40.9686,25.2487 L 40.9298,25.3681 L 40.8763,25.4818
 L 40.809,25.5878 L 40.729,25.6845 L 40.6374,25.7705 L 40.5358,25.8443 L 40.4258,25.9048 L 40.309,25.951
 L 40.1874,25.9823 L 40.0628,25.998 z
" stroke="black" fill="none" stroke-width="0.5"/></svg>
