<?xml version="1.0" encoding="UTF-8" standalone="no"?>
<!-- Created with Inkscape (http://www.inkscape.org/) -->

<svg
   xmlns:dc="http://purl.org/dc/elements/1.1/"
   xmlns:cc="http://creativecommons.org/ns#"
   xmlns:rdf="http://www.w3.org/1999/02/22-rdf-syntax-ns#"
   xmlns:svg="http://www.w3.org/2000/svg"
   xmlns="http://www.w3.org/2000/svg"
   xmlns:sodipodi="http://sodipodi.sourceforge.net/DTD/sodipodi-0.dtd"
   xmlns:inkscape="http://www.inkscape.org/namespaces/inkscape"
   width="210mm"
   height="297mm"
   viewBox="0 0 210 297"
   version="1.1"
   id="svg982"
   inkscape:version="0.92.5 (0.92.5+68)"
   sodipodi:docname="planchette_small_zing.svg">
  <defs
     id="defs976" />
  <sodipodi:namedview
     id="base"
     pagecolor="#ffffff"
     bordercolor="#666666"
     borderopacity="1.0"
     inkscape:pageopacity="0.0"
     inkscape:pageshadow="2"
     inkscape:zoom="1.4"
     inkscape:cx="358.7258"
     inkscape:cy="404.09392"
     inkscape:document-units="mm"
     inkscape:current-layer="layer1"
     showgrid="false"
     inkscape:window-width="1311"
     inkscape:window-height="851"
     inkscape:window-x="2147"
     inkscape:window-y="58"
     inkscape:window-maximized="0" />
  <metadata
     id="metadata979">
    <rdf:RDF>
      <cc:Work
         rdf:about="">
        <dc:format>image/svg+xml</dc:format>
        <dc:type
           rdf:resource="http://purl.org/dc/dcmitype/StillImage" />
        <dc:title></dc:title>
      </cc:Work>
    </rdf:RDF>
  </metadata>
  <g
     inkscape:label="Layer 1"
     inkscape:groupmode="layer"
     id="layer1">
    <path
       inkscape:connector-curvature="0"
       style="font-style:italic;font-variant:normal;font-weight:normal;font-stretch:normal;font-size:161.68954468px;line-height:125%;font-family:'Lucida Calligraphy';-inkscape-font-specification:'Lucida Calligraphy, Italic';text-align:start;letter-spacing:0px;word-spacing:0px;writing-mode:lr-tb;text-anchor:start;fill:none;fill-opacity:1;stroke:#000000;stroke-width:0.0254;stroke-linecap:butt;stroke-linejoin:miter;stroke-miterlimit:4;stroke-dasharray:none;stroke-opacity:1"
       d="m 94.554637,152.88911 1.479338,1.0358 1.154028,0.53817 0.327368,0.15268 0.482741,0.22506 0.348894,0.0935 1.744404,0.46739 0.35983,0.0315 1.79903,0.15742 0.35984,-0.0315 1.7991,-0.15742 0.3489,-0.0935 1.74439,-0.46739 0.32738,-0.15267 1.63669,-0.76324 0.29589,-0.20715 1.47935,-1.03581 0.99012,-0.99015 0.28688,-0.28686 0.2554,-0.25539 0.20716,-0.2959 1.03589,-1.47934 0.26556,-0.56949 0.1526,-0.32735 0.49773,-1.06731 0.25867,-0.96533 0.0934,-0.34888 0.2088,-0.77909 0.0315,-0.35982 0.15736,-1.79904 -0.0315,-0.35983 -0.15736,-1.79911 -0.45901,-1.71276 -0.0935,-0.34883 -0.1526,-0.32751 -0.77167,-1.66811 -0.20717,-0.29624 -1.03588,-1.47915 -0.2554,-0.25575 -1.277,-1.27663 -0.29583,-0.20746 -1.47941,-1.0358 -0.32729,-0.15275 -1.63678,-0.763 -0.34888,-0.0931 -1.74441,-0.46747 -0.35983,-0.032 -1.79911,-0.15702 -0.35976,0.0312 -1.7991,0.15771 -0.348898,0.0931 -1.7444,0.46748 -0.327368,0.15274 -1.636769,0.763 -0.295826,0.20745 -1.479336,1.03581 -0.255472,0.25504 -1.276935,1.27736 -0.207241,0.29555 -1.035806,1.47982 -0.152672,0.32751 -0.771672,1.66811 -0.09342,0.34883 -0.314652,1.17364 -0.14436,0.53913 -0.03148,0.35985 -0.157432,1.79908 0.03148,0.35986 0.157432,1.79901 0.09349,0.34889 0.467395,1.7444 0.497659,1.06731 0.152672,0.32735 0.26556,0.56949 0.207163,0.29583 1.035884,1.47941 0.2554,0.2554 1.277006,1.277 z"
       id="path4178" />
    <path
       inkscape:connector-curvature="0"
       style="font-style:italic;font-variant:normal;font-weight:normal;font-stretch:normal;font-size:161.68954468px;line-height:125%;font-family:'Lucida Calligraphy';-inkscape-font-specification:'Lucida Calligraphy, Italic';text-align:start;letter-spacing:0px;word-spacing:0px;writing-mode:lr-tb;text-anchor:start;fill:none;fill-opacity:1;stroke:#000000;stroke-width:0.0254;stroke-linecap:butt;stroke-linejoin:miter;stroke-miterlimit:4;stroke-dasharray:none;stroke-opacity:1"
       d="m 141.07684,187.37228 0.73062,4.04277 0.18056,2.28542 0.17714,2.24158 -0.0248,1.50283 -0.024,1.4583 -0.15958,1.3345 -0.15417,1.28878 -0.18029,0.80188 -0.17066,0.75907 -0.23873,0.73567 -0.22524,0.69404 -0.29637,0.67272 -0.27746,0.62968 -0.35356,0.61327 -0.32888,0.57049 -0.41002,0.55719 -0.38031,0.51692 -0.46595,0.50457 -0.43253,0.46847 -0.52106,0.45532 -0.48603,0.4247 -0.57573,0.40958 -0.537,0.38202 -0.96449,0.53582 -0.92397,0.51323 -0.70946,0.30996 -0.67352,0.29422 -1.16217,0.40237 -1.12299,0.38876 -0.59121,0.1368 -0.54268,0.12546 -0.62913,0.0708 -0.5795,0.0652 -0.89533,0.005 -0.84797,0.005 -1.45736,-0.1434 -1.41567,-0.13928 -4.78555,-0.8705 -4.79113,-0.87147 -5.56002,-0.40947 -5.60045,-0.41247 h -0.40346 -0.4365 l -5.560103,0.4095 -5.600467,0.41244 -4.785546,0.87048 -4.79113,0.87149 -1.457368,0.14335 -1.415671,0.13933 -0.895241,-0.005 -0.847963,-0.005 -0.629118,-0.0708 -0.579516,-0.0652 -0.591304,-0.13672 -0.542674,-0.12554 -1.162165,-0.40237 -1.122893,-0.38876 -0.709466,-0.30987 -0.673605,-0.29431 -0.964584,-0.53583 -0.923888,-0.51322 -0.575725,-0.40958 -0.53691,-0.38202 -0.521151,-0.45531 -0.48602,-0.42472 -0.465866,-0.50457 -0.432537,-0.46846 -0.410022,-0.55727 -0.380394,-0.51684 -0.353558,-0.61335 -0.328819,-0.57041 -0.296445,-0.6728 -0.277425,-0.6296 -0.238692,-0.73566 -0.225201,-0.69405 -0.180309,-0.80185 -0.170682,-0.7591 -0.159615,-1.33461 -0.154148,-1.28867 -0.02468,-1.50286 -0.02396,-1.45827 0.180571,-2.28542 0.177112,-2.24158 0.738689,-4.08716 0.730655,-4.04268 2.520688,-8.79627 2.510206,-8.75969 2.416008,-6.66246 2.406731,-6.63683 2.625567,-6.2034 2.61494,-6.17753 6.484623,-12.74733 6.469223,-12.71585 5.216462,-8.4787 4.823366,-7.838434 5.21647,8.477824 4.82346,7.83931 6.48462,12.74646 6.46923,12.71672 2.62565,6.20294 2.61485,6.17799 2.41601,6.66249 2.40664,6.6368 2.52075,8.79627 2.5102,8.75969 z"
       id="path8-4" />
    <path
       style="fill:none;stroke-width:0.0254;stroke:#000000;stroke-opacity:1;stroke-miterlimit:4;stroke-dasharray:none"
       d="m 103.17986,169.11798 c -0.30343,-0.0324 -0.60989,-0.0524 -0.91982,-0.0524 h -0.006 -0.003 c -0.31461,0 -0.62367,0.0199 -0.93013,0.0524 -11.676622,0.55666 -17.237491,11.19229 -17.237491,11.19229 0,0 5.843089,11.24034 18.171161,11.24034 12.32289,0 18.16253,-11.2399 18.16253,-11.2399 0,0 -5.55957,-10.63607 -17.23709,-11.19273 z m -0.92544,19.23687 c -7.831605,0 -12.592551,-5.33145 -14.508358,-8.04414 1.150957,-1.6336 3.345091,-4.21598 6.618323,-6.01406 -0.433712,1.02239 -0.671352,2.14868 -0.671352,3.32734 0,4.72805 3.83031,8.56054 8.557917,8.56054 4.72892,0 8.5601,-3.83249 8.5601,-8.56054 0,-1.17217 -0.23849,-2.29109 -0.66529,-3.30916 3.25896,1.79936 5.45656,4.37397 6.61055,5.99848 -1.91496,2.70967 -6.67677,8.04154 -14.50189,8.04154 z"
       id="path1629"
       inkscape:connector-curvature="0"
       sodipodi:nodetypes="cscsccscccsccsssccs" />
    <path
       style="opacity:1;vector-effect:none;fill:none;fill-opacity:1;fill-rule:nonzero;stroke:#000000;stroke-width:0.0254;stroke-linecap:round;stroke-linejoin:round;stroke-miterlimit:4;stroke-dasharray:none;stroke-dashoffset:0;stroke-opacity:1;paint-order:fill markers stroke"
       inkscape:transform-center-x="0.60491863"
       inkscape:transform-center-y="-0.30412716"
       d="m 82.8414,161.20272 6.239133,-0.407 -3.472038,5.19975 2.315077,5.808 -6.018172,-1.69529 -4.808337,3.99654 -0.247397,-6.2475 -5.286793,-3.338 5.865273,-2.16587 1.540919,-6.05954 z"
       id="path2201"
       inkscape:connector-curvature="0"
       sodipodi:nodetypes="ccccccccccc" />
    <path
       style="color:#000000;font-style:normal;font-variant:normal;font-weight:normal;font-stretch:normal;font-size:medium;line-height:normal;font-family:sans-serif;font-variant-ligatures:normal;font-variant-position:normal;font-variant-caps:normal;font-variant-numeric:normal;font-variant-alternates:normal;font-feature-settings:normal;text-indent:0;text-align:start;text-decoration:none;text-decoration-line:none;text-decoration-style:solid;text-decoration-color:#000000;letter-spacing:normal;word-spacing:normal;text-transform:none;writing-mode:lr-tb;direction:ltr;text-orientation:mixed;dominant-baseline:auto;baseline-shift:baseline;text-anchor:start;white-space:normal;shape-padding:0;clip-rule:nonzero;display:inline;overflow:visible;visibility:visible;opacity:1;isolation:auto;mix-blend-mode:normal;color-interpolation:sRGB;color-interpolation-filters:linearRGB;solid-color:#000000;solid-opacity:1;vector-effect:none;fill:none;fill-opacity:1;fill-rule:evenodd;stroke:#000000;stroke-width:0.0254;stroke-linecap:round;stroke-linejoin:miter;stroke-miterlimit:4;stroke-dasharray:none;stroke-dashoffset:0;stroke-opacity:1;color-rendering:auto;image-rendering:auto;shape-rendering:auto;text-rendering:auto;enable-background:accumulate"
       d="m 102.22487,193.4586 a 1.750175,1.750175 0 0 0 -1.72461,1.77539 v 12.12696 a 1.750175,1.750175 0 1 0 3.5,0 v -12.12696 a 1.750175,1.750175 0 0 0 -1.77539,-1.77539 z"
       id="path827"
       inkscape:connector-curvature="0" />
    <path
       style="color:#000000;font-style:normal;font-variant:normal;font-weight:normal;font-stretch:normal;font-size:medium;line-height:normal;font-family:sans-serif;font-variant-ligatures:normal;font-variant-position:normal;font-variant-caps:normal;font-variant-numeric:normal;font-variant-alternates:normal;font-feature-settings:normal;text-indent:0;text-align:start;text-decoration:none;text-decoration-line:none;text-decoration-style:solid;text-decoration-color:#000000;letter-spacing:normal;word-spacing:normal;text-transform:none;writing-mode:lr-tb;direction:ltr;text-orientation:mixed;dominant-baseline:auto;baseline-shift:baseline;text-anchor:start;white-space:normal;shape-padding:0;clip-rule:nonzero;display:inline;overflow:visible;visibility:visible;opacity:1;isolation:auto;mix-blend-mode:normal;color-interpolation:sRGB;color-interpolation-filters:linearRGB;solid-color:#000000;solid-opacity:1;vector-effect:none;fill:none;fill-opacity:1;fill-rule:evenodd;stroke:#000000;stroke-width:0.0254;stroke-linecap:round;stroke-linejoin:miter;stroke-miterlimit:4;stroke-dasharray:none;stroke-dashoffset:0;stroke-opacity:1;color-rendering:auto;image-rendering:auto;shape-rendering:auto;text-rendering:auto;enable-background:accumulate"
       d="m 90.019267,190.86776 a 1.750175,1.750175 0 0 0 -1.5625,0.86329 l -9.064454,14.93164 a 1.7501784,1.7501784 0 1 0 2.992188,1.8164 l 9.064453,-14.93164 a 1.750175,1.750175 0 0 0 -1.429687,-2.67969 z"
       id="path827-1-5"
       inkscape:connector-curvature="0" />
    <path
       style="color:#000000;font-style:normal;font-variant:normal;font-weight:normal;font-stretch:normal;font-size:medium;line-height:normal;font-family:sans-serif;font-variant-ligatures:normal;font-variant-position:normal;font-variant-caps:normal;font-variant-numeric:normal;font-variant-alternates:normal;font-feature-settings:normal;text-indent:0;text-align:start;text-decoration:none;text-decoration-line:none;text-decoration-style:solid;text-decoration-color:#000000;letter-spacing:normal;word-spacing:normal;text-transform:none;writing-mode:lr-tb;direction:ltr;text-orientation:mixed;dominant-baseline:auto;baseline-shift:baseline;text-anchor:start;white-space:normal;shape-padding:0;clip-rule:nonzero;display:inline;overflow:visible;visibility:visible;opacity:1;isolation:auto;mix-blend-mode:normal;color-interpolation:sRGB;color-interpolation-filters:linearRGB;solid-color:#000000;solid-opacity:1;vector-effect:none;fill:none;fill-opacity:1;fill-rule:evenodd;stroke:#000000;stroke-width:0.0254;stroke-linecap:round;stroke-linejoin:miter;stroke-miterlimit:4;stroke-dasharray:none;stroke-dashoffset:0;stroke-opacity:1;color-rendering:auto;image-rendering:auto;shape-rendering:auto;text-rendering:auto;enable-background:accumulate"
       d="m 84.075258,183.78686 a 1.750175,1.750175 0 0 0 -1.083985,0.38671 L 64.92682,198.31029 a 1.750186,1.750186 0 1 0 2.158203,2.75586 l 18.064453,-14.13476 a 1.750175,1.750175 0 0 0 -1.074218,-3.14453 z"
       id="path827-1-5-1"
       inkscape:connector-curvature="0" />
    <path
       style="color:#000000;font-style:normal;font-variant:normal;font-weight:normal;font-stretch:normal;font-size:medium;line-height:normal;font-family:sans-serif;font-variant-ligatures:normal;font-variant-position:normal;font-variant-caps:normal;font-variant-numeric:normal;font-variant-alternates:normal;font-feature-settings:normal;text-indent:0;text-align:start;text-decoration:none;text-decoration-line:none;text-decoration-style:solid;text-decoration-color:#000000;letter-spacing:normal;word-spacing:normal;text-transform:none;writing-mode:lr-tb;direction:ltr;text-orientation:mixed;dominant-baseline:auto;baseline-shift:baseline;text-anchor:start;white-space:normal;shape-padding:0;clip-rule:nonzero;display:inline;overflow:visible;visibility:visible;opacity:1;isolation:auto;mix-blend-mode:normal;color-interpolation:sRGB;color-interpolation-filters:linearRGB;solid-color:#000000;solid-opacity:1;vector-effect:none;fill:none;fill-opacity:1;fill-rule:evenodd;stroke:#000000;stroke-width:0.0254;stroke-linecap:round;stroke-linejoin:miter;stroke-miterlimit:4;stroke-dasharray:none;stroke-dashoffset:0;stroke-opacity:1;color-rendering:auto;image-rendering:auto;shape-rendering:auto;text-rendering:auto;enable-background:accumulate"
       d="m 114.59451,190.86889 a 1.750175,1.750175 0 0 0 -1.55273,2.67773 l 9.06445,14.93164 a 1.7501793,1.7501793 0 1 0 2.99219,-1.8164 l -9.06446,-14.93164 a 1.750175,1.750175 0 0 0 -1.43945,-0.86133 z"
       id="path827-1-5-9"
       inkscape:connector-curvature="0" />
    <path
       style="color:#000000;font-style:normal;font-variant:normal;font-weight:normal;font-stretch:normal;font-size:medium;line-height:normal;font-family:sans-serif;font-variant-ligatures:normal;font-variant-position:normal;font-variant-caps:normal;font-variant-numeric:normal;font-variant-alternates:normal;font-feature-settings:normal;text-indent:0;text-align:start;text-decoration:none;text-decoration-line:none;text-decoration-style:solid;text-decoration-color:#000000;letter-spacing:normal;word-spacing:normal;text-transform:none;writing-mode:lr-tb;direction:ltr;text-orientation:mixed;dominant-baseline:auto;baseline-shift:baseline;text-anchor:start;white-space:normal;shape-padding:0;clip-rule:nonzero;display:inline;overflow:visible;visibility:visible;opacity:1;isolation:auto;mix-blend-mode:normal;color-interpolation:sRGB;color-interpolation-filters:linearRGB;solid-color:#000000;solid-opacity:1;vector-effect:none;fill:none;fill-opacity:1;fill-rule:evenodd;stroke:#000000;stroke-width:0.0254;stroke-linecap:round;stroke-linejoin:miter;stroke-miterlimit:4;stroke-dasharray:none;stroke-dashoffset:0;stroke-opacity:1;color-rendering:auto;image-rendering:auto;shape-rendering:auto;text-rendering:auto;enable-background:accumulate"
       d="m 120.36077,183.77303 a 1.750175,1.750175 0 0 0 -1.01953,3.14453 l 18.06445,14.13476 a 1.750175,1.750175 0 1 0 2.15625,-2.75586 l -18.06445,-14.13672 a 1.750175,1.750175 0 0 0 -1.13672,-0.38671 z"
       id="path827-1-5-1-0"
       inkscape:connector-curvature="0" />
    <path
       style="opacity:1;vector-effect:none;fill:none;fill-opacity:1;fill-rule:nonzero;stroke:#000000;stroke-width:0.0254;stroke-linecap:round;stroke-linejoin:round;stroke-miterlimit:4;stroke-dasharray:none;stroke-dashoffset:0;stroke-opacity:1;paint-order:fill markers stroke"
       d="m 108.34602,115.31541 a 6.1708416,6.7758259 0 0 1 -6.09575,5.77588 6.1708416,6.7758259 0 0 1 -6.096269,-5.76451 7.1924261,7.1924261 0 0 0 -1.09606,3.79925 7.1924261,7.1924261 0 0 0 7.192329,7.19284 7.1924261,7.1924261 0 0 0 7.19232,-7.19284 7.1924261,7.1924261 0 0 0 -1.09657,-3.81062 z"
       id="path901"
       inkscape:connector-curvature="0" />
    <path
       inkscape:connector-curvature="0"
       style="opacity:1;vector-effect:none;fill:none;fill-opacity:1;fill-rule:nonzero;stroke:#000000;stroke-width:0.0254;stroke-linecap:round;stroke-linejoin:round;stroke-miterlimit:4;stroke-dasharray:none;stroke-dashoffset:0;stroke-opacity:1;paint-order:fill markers stroke"
       inkscape:transform-center-x="-0.60491774"
       inkscape:transform-center-y="-0.30412716"
       d="m 115.34551,160.79572 3.47204,5.19975 -2.31508,5.808 6.01817,-1.69529 4.80834,3.99654 0.2474,-6.2475 5.28679,-3.338 -5.86527,-2.16587 -1.54092,-6.05954 -3.87234,4.90891 z"
       id="path2201-9" />
  </g>
</svg>
