<?xml version="1.0" encoding="UTF-8" standalone="no"?>
<!-- Created with Inkscape (http://www.inkscape.org/) -->

<svg
   xmlns:dc="http://purl.org/dc/elements/1.1/"
   xmlns:cc="http://creativecommons.org/ns#"
   xmlns:rdf="http://www.w3.org/1999/02/22-rdf-syntax-ns#"
   xmlns:svg="http://www.w3.org/2000/svg"
   xmlns="http://www.w3.org/2000/svg"
   xmlns:sodipodi="http://sodipodi.sourceforge.net/DTD/sodipodi-0.dtd"
   xmlns:inkscape="http://www.inkscape.org/namespaces/inkscape"
   width="210mm"
   height="297mm"
   viewBox="0 0 210 297"
   version="1.1"
   id="svg829"
   inkscape:version="0.92.5 (0.92.5+68)"
   sodipodi:docname="planchette_tmp.svg">
  <defs
     id="defs823" />
  <sodipodi:namedview
     id="base"
     pagecolor="#ffffff"
     bordercolor="#666666"
     borderopacity="1.0"
     inkscape:pageopacity="0.0"
     inkscape:pageshadow="2"
     inkscape:zoom="0.49497475"
     inkscape:cx="382.70747"
     inkscape:cy="673.26793"
     inkscape:document-units="mm"
     inkscape:current-layer="layer1"
     showgrid="false"
     inkscape:window-width="1533"
     inkscape:window-height="1034"
     inkscape:window-x="2170"
     inkscape:window-y="27"
     inkscape:window-maximized="0" />
  <metadata
     id="metadata826">
    <rdf:RDF>
      <cc:Work
         rdf:about="">
        <dc:format>image/svg+xml</dc:format>
        <dc:type
           rdf:resource="http://purl.org/dc/dcmitype/StillImage" />
        <dc:title></dc:title>
      </cc:Work>
    </rdf:RDF>
  </metadata>
  <g
     inkscape:label="Layer 1"
     inkscape:groupmode="layer"
     id="layer1">
    <path
       inkscape:connector-curvature="0"
       style="font-style:italic;font-variant:normal;font-weight:normal;font-stretch:normal;font-size:161.68954468px;line-height:125%;font-family:'Lucida Calligraphy';-inkscape-font-specification:'Lucida Calligraphy, Italic';text-align:start;letter-spacing:0px;word-spacing:0px;writing-mode:lr-tb;text-anchor:start;fill:none;fill-opacity:1;stroke:#0000ff;stroke-width:0.05mm;stroke-linecap:butt;stroke-linejoin:miter;stroke-miterlimit:4;stroke-dasharray:none;stroke-opacity:1"
       d="m 91.264591,135.68828 2.082299,1.458 1.624399,0.75752 0.4608,0.2149 0.679501,0.31679 0.491098,0.13161 2.4554,0.6579 0.506502,0.0443 2.5323,0.22159 0.5065,-0.0443 2.5324,-0.22159 0.4911,-0.13161 2.4554,-0.6579 0.4608,-0.2149 2.3038,-1.07432 0.41649,-0.29159 2.08231,-1.45799 1.3937,-1.39372 0.40379,-0.40378 0.3595,-0.35949 0.29161,-0.41651 1.4581,-2.08231 0.3738,-0.8016 0.2148,-0.46078 0.7006,-1.50233 0.3641,-1.35878 0.1315,-0.4911 0.2939,-1.09662 0.0443,-0.50649 0.2215,-2.53231 -0.0443,-0.5065 -0.2215,-2.5324 -0.6461,-2.41088 -0.1316,-0.491 -0.2148,-0.461 -1.0862,-2.34801 -0.2916,-0.41698 -1.45811,-2.08203 -0.3595,-0.35999 -1.79749,-1.79699 -0.4164,-0.29201 -2.0824,-1.45799 -0.4607,-0.215 -2.3039,-1.074 -0.4911,-0.13101 -2.4554,-0.65799 -0.5065,-0.045 -2.5324,-0.22103 -0.5064,0.044 -2.532399,0.222 -0.491099,0.13098 -2.455399,0.65803 -0.460801,0.21499 -2.303899,1.074 -0.416402,0.292 -2.082298,1.458 -0.359601,0.35898 -1.797399,1.79801 -0.291711,0.41601 -1.457989,2.08299 -0.2149,0.461 -1.0862,2.34801 -0.1315,0.49101 -0.442899,1.652 -0.2032,0.75887 -0.0443,0.50653 -0.221599,2.53237 0.0443,0.50653 0.221602,2.53228 0.131598,0.49109 0.6579,2.4554 0.7005,1.50233 0.2149,0.46078 0.373801,0.8016 0.2916,0.41642 1.4581,2.0824 0.3595,0.35949 1.7975,1.7975 z"
       id="path4178" />
    <path
       inkscape:connector-curvature="0"
       style="font-style:italic;font-variant:normal;font-weight:normal;font-stretch:normal;font-size:161.68954468px;line-height:125%;font-family:'Lucida Calligraphy';-inkscape-font-specification:'Lucida Calligraphy, Italic';text-align:start;letter-spacing:0px;word-spacing:0px;writing-mode:lr-tb;text-anchor:start;fill:none;fill-opacity:1;stroke:#0000ff;stroke-width:0.05mm;stroke-linecap:butt;stroke-linejoin:miter;stroke-miterlimit:4;stroke-dasharray:none;stroke-opacity:1"
       d="m 145.21099,168.39709 0.8113,4.48919 0.2005,2.5378 0.1967,2.48911 -0.0275,1.66878 -0.0266,1.61933 -0.17721,1.48187 -0.17119,1.4311 -0.2002,0.89043 -0.18951,0.84289 -0.26509,0.8169 -0.25011,0.77069 -0.3291,0.747 -0.3081,0.69922 -0.3926,0.68099 -0.3652,0.63348 -0.45529,0.61872 -0.42231,0.57401 -0.5174,0.56028 -0.4803,0.5202 -0.5786,0.50561 -0.5397,0.47159 -0.6393,0.45481 -0.5963,0.42421 -1.071,0.59499 -1.026,0.5699 -0.7878,0.34419 -0.7479,0.32671 -1.2905,0.4468 -1.247,0.43169 -0.6565,0.15191 -0.6026,0.13931 -0.6986,0.0786 -0.6435,0.0724 -0.9942,0.006 -0.9416,0.006 -1.6183,-0.15923 -1.572,-0.15467 -5.314,-0.96662 -5.3202,-0.96771 -6.174,-0.45468 -6.21889,-0.45802 h -0.44801 -0.4847 l -6.174091,0.45472 -6.218908,0.45798 -5.314001,0.96661 -5.3202,0.96772 -1.6183,0.15919 -1.572,0.15471 -0.9941,-0.006 -0.9416,-0.006 -0.69859,-0.0786 -0.64351,-0.0724 -0.656601,-0.15182 -0.6026,-0.1394 -1.2905,-0.4468 -1.246891,-0.43169 -0.787809,-0.34409 -0.74799,-0.32681 -1.0711,-0.595 -1.02591,-0.56989 -0.6393,-0.45481 -0.5962,-0.42421 -0.5787,-0.50559 -0.53969,-0.47162 -0.51731,-0.56028 -0.4803,-0.52019 -0.4553,-0.61881 -0.4224,-0.57392 -0.3926,-0.68108 -0.36513,-0.63339 -0.32918,-0.7471 -0.30806,-0.69912 -0.26505,-0.8169 -0.25007,-0.77069 -0.20022,-0.8904 -0.18953,-0.84292 -0.17724,-1.48199 -0.17117,-1.43098 -0.0274,-1.66881 -0.0266,-1.6193 0.20051,-2.5378 0.19667,-2.48911 0.82026,-4.53849 0.81134,-4.48909 2.79904,-9.76762 2.7874,-9.727 2.6828,-7.39818 2.672499,-7.36971 2.915502,-6.88841 2.9037,-6.85971 7.2007,-14.15498 7.183601,-14.12002 5.792498,-9.41498 5.356001,-8.70401 5.79251,9.414 5.3561,8.70499 7.2007,14.15401 7.1836,14.12099 2.9156,6.88791 2.9036,6.86021 2.6828,7.39821 2.6724,7.36968 2.7991,9.76761 2.7874,9.72701 z"
       id="path8-4" />
    <path
       style="fill:#010101;stroke-width:0.43285337"
       d="m 102.9215,150.92905 c -0.30343,-0.0324 -0.60989,-0.0524 -0.91982,-0.0524 h -0.006 -0.003 c -0.31461,0 -0.62367,0.0199 -0.93013,0.0524 -11.676648,0.55666 -17.237518,11.19229 -17.237518,11.19229 0,0 5.843091,11.24033 18.171188,11.24033 12.32289,0 18.16253,-11.23989 18.16253,-11.23989 0,0 -5.55957,-10.63607 -17.23709,-11.19273 z m -0.92544,19.23686 c -7.831632,0 -12.592577,-5.33144 -14.508383,-8.04413 1.150956,-1.63361 3.34509,-4.21598 6.618321,-6.01407 -0.43371,1.02239 -0.671351,2.14869 -0.671351,3.32735 0,4.72804 3.830322,8.56053 8.557943,8.56053 4.72892,0 8.5601,-3.83249 8.5601,-8.56053 0,-1.17217 -0.23849,-2.29109 -0.66529,-3.30917 3.25896,1.79937 5.45656,4.37397 6.61055,5.99849 -1.91496,2.70967 -6.67677,8.04153 -14.50189,8.04153 z"
       id="path1629"
       inkscape:connector-curvature="0"
       sodipodi:nodetypes="cscsccscccsccsssccs" />
    <path
       style="color:#000000;font-style:normal;font-variant:normal;font-weight:normal;font-stretch:normal;font-size:medium;line-height:normal;font-family:sans-serif;font-variant-ligatures:normal;font-variant-position:normal;font-variant-caps:normal;font-variant-numeric:normal;font-variant-alternates:normal;font-feature-settings:normal;text-indent:0;text-align:start;text-decoration:none;text-decoration-line:none;text-decoration-style:solid;text-decoration-color:#000000;letter-spacing:normal;word-spacing:normal;text-transform:none;writing-mode:lr-tb;direction:ltr;text-orientation:mixed;dominant-baseline:auto;baseline-shift:baseline;text-anchor:start;white-space:normal;shape-padding:0;clip-rule:nonzero;display:inline;overflow:visible;visibility:visible;opacity:1;isolation:auto;mix-blend-mode:normal;color-interpolation:sRGB;color-interpolation-filters:linearRGB;solid-color:#000000;solid-opacity:1;vector-effect:none;fill:#000000;fill-opacity:1;fill-rule:evenodd;stroke:none;stroke-width:3.5;stroke-linecap:round;stroke-linejoin:miter;stroke-miterlimit:4;stroke-dasharray:none;stroke-dashoffset:0;stroke-opacity:1;color-rendering:auto;image-rendering:auto;shape-rendering:auto;text-rendering:auto;enable-background:accumulate"
       d="m 101.99785,175.79883 a 1.750175,1.750175 0 0 0 -1.72461,1.77539 v 12.12696 a 1.750175,1.750175 0 1 0 3.5,0 v -12.12696 a 1.750175,1.750175 0 0 0 -1.77539,-1.77539 z"
       id="path827"
       inkscape:connector-curvature="0" />
    <path
       style="color:#000000;font-style:normal;font-variant:normal;font-weight:normal;font-stretch:normal;font-size:medium;line-height:normal;font-family:sans-serif;font-variant-ligatures:normal;font-variant-position:normal;font-variant-caps:normal;font-variant-numeric:normal;font-variant-alternates:normal;font-feature-settings:normal;text-indent:0;text-align:start;text-decoration:none;text-decoration-line:none;text-decoration-style:solid;text-decoration-color:#000000;letter-spacing:normal;word-spacing:normal;text-transform:none;writing-mode:lr-tb;direction:ltr;text-orientation:mixed;dominant-baseline:auto;baseline-shift:baseline;text-anchor:start;white-space:normal;shape-padding:0;clip-rule:nonzero;display:inline;overflow:visible;visibility:visible;opacity:1;isolation:auto;mix-blend-mode:normal;color-interpolation:sRGB;color-interpolation-filters:linearRGB;solid-color:#000000;solid-opacity:1;vector-effect:none;fill:#000000;fill-opacity:1;fill-rule:evenodd;stroke:none;stroke-width:3.5;stroke-linecap:round;stroke-linejoin:miter;stroke-miterlimit:4;stroke-dasharray:none;stroke-dashoffset:0;stroke-opacity:1;color-rendering:auto;image-rendering:auto;shape-rendering:auto;text-rendering:auto;enable-background:accumulate"
       d="m 91.650197,173.73633 a 1.750175,1.750175 0 0 0 -1.562499,0.86329 l -9.064454,14.93164 a 1.7501789,1.7501789 0 1 0 2.992188,1.8164 l 9.064451,-14.93164 a 1.750175,1.750175 0 0 0 -1.429686,-2.67969 z"
       id="path827-1-5"
       inkscape:connector-curvature="0" />
    <path
       style="color:#000000;font-style:normal;font-variant:normal;font-weight:normal;font-stretch:normal;font-size:medium;line-height:normal;font-family:sans-serif;font-variant-ligatures:normal;font-variant-position:normal;font-variant-caps:normal;font-variant-numeric:normal;font-variant-alternates:normal;font-feature-settings:normal;text-indent:0;text-align:start;text-decoration:none;text-decoration-line:none;text-decoration-style:solid;text-decoration-color:#000000;letter-spacing:normal;word-spacing:normal;text-transform:none;writing-mode:lr-tb;direction:ltr;text-orientation:mixed;dominant-baseline:auto;baseline-shift:baseline;text-anchor:start;white-space:normal;shape-padding:0;clip-rule:nonzero;display:inline;overflow:visible;visibility:visible;opacity:1;isolation:auto;mix-blend-mode:normal;color-interpolation:sRGB;color-interpolation-filters:linearRGB;solid-color:#000000;solid-opacity:1;vector-effect:none;fill:#000000;fill-opacity:1;fill-rule:evenodd;stroke:none;stroke-width:3.5;stroke-linecap:round;stroke-linejoin:miter;stroke-miterlimit:4;stroke-dasharray:none;stroke-dashoffset:0;stroke-opacity:1;color-rendering:auto;image-rendering:auto;shape-rendering:auto;text-rendering:auto;enable-background:accumulate"
       d="m 83.060354,166.65627 a 1.750175,1.750175 0 0 0 -1.083985,0.38671 l -18.064454,14.13671 a 1.7501862,1.7501862 0 1 0 2.158203,2.75586 l 18.064454,-14.13476 a 1.750175,1.750175 0 0 0 -1.074218,-3.14452 z"
       id="path827-1-5-1"
       inkscape:connector-curvature="0" />
    <path
       style="color:#000000;font-style:normal;font-variant:normal;font-weight:normal;font-stretch:normal;font-size:medium;line-height:normal;font-family:sans-serif;font-variant-ligatures:normal;font-variant-position:normal;font-variant-caps:normal;font-variant-numeric:normal;font-variant-alternates:normal;font-feature-settings:normal;text-indent:0;text-align:start;text-decoration:none;text-decoration-line:none;text-decoration-style:solid;text-decoration-color:#000000;letter-spacing:normal;word-spacing:normal;text-transform:none;writing-mode:lr-tb;direction:ltr;text-orientation:mixed;dominant-baseline:auto;baseline-shift:baseline;text-anchor:start;white-space:normal;shape-padding:0;clip-rule:nonzero;display:inline;overflow:visible;visibility:visible;opacity:1;isolation:auto;mix-blend-mode:normal;color-interpolation:sRGB;color-interpolation-filters:linearRGB;solid-color:#000000;solid-opacity:1;vector-effect:none;fill:#000000;fill-opacity:1;fill-rule:evenodd;stroke:none;stroke-width:3.5;stroke-linecap:round;stroke-linejoin:miter;stroke-miterlimit:4;stroke-dasharray:none;stroke-dashoffset:0;stroke-opacity:1;color-rendering:auto;image-rendering:auto;shape-rendering:auto;text-rendering:auto;enable-background:accumulate"
       d="m 112.52129,173.73829 a 1.750175,1.750175 0 0 0 -1.55273,2.67773 l 9.06445,14.93164 a 1.7501803,1.7501803 0 1 0 2.99219,-1.8164 l -9.06446,-14.93164 a 1.750175,1.750175 0 0 0 -1.43945,-0.86133 z"
       id="path827-1-5-9"
       inkscape:connector-curvature="0" />
    <path
       style="color:#000000;font-style:normal;font-variant:normal;font-weight:normal;font-stretch:normal;font-size:medium;line-height:normal;font-family:sans-serif;font-variant-ligatures:normal;font-variant-position:normal;font-variant-caps:normal;font-variant-numeric:normal;font-variant-alternates:normal;font-feature-settings:normal;text-indent:0;text-align:start;text-decoration:none;text-decoration-line:none;text-decoration-style:solid;text-decoration-color:#000000;letter-spacing:normal;word-spacing:normal;text-transform:none;writing-mode:lr-tb;direction:ltr;text-orientation:mixed;dominant-baseline:auto;baseline-shift:baseline;text-anchor:start;white-space:normal;shape-padding:0;clip-rule:nonzero;display:inline;overflow:visible;visibility:visible;opacity:1;isolation:auto;mix-blend-mode:normal;color-interpolation:sRGB;color-interpolation-filters:linearRGB;solid-color:#000000;solid-opacity:1;vector-effect:none;fill:#000000;fill-opacity:1;fill-rule:evenodd;stroke:none;stroke-width:3.5;stroke-linecap:round;stroke-linejoin:miter;stroke-miterlimit:4;stroke-dasharray:none;stroke-dashoffset:0;stroke-opacity:1;color-rendering:auto;image-rendering:auto;shape-rendering:auto;text-rendering:auto;enable-background:accumulate"
       d="m 120.9334,166.65627 a 1.750175,1.750175 0 0 0 -1.01953,3.14452 l 18.06445,14.13476 a 1.750175,1.750175 0 1 0 2.15625,-2.75586 l -18.06445,-14.13671 a 1.750175,1.750175 0 0 0 -1.13672,-0.38671 z"
       id="path827-1-5-1-0"
       inkscape:connector-curvature="0" />
    <path
       style="opacity:1;vector-effect:none;fill:#000000;fill-opacity:1;fill-rule:nonzero;stroke:#000000;stroke-width:1;stroke-linecap:round;stroke-linejoin:round;stroke-miterlimit:4;stroke-dasharray:none;stroke-dashoffset:0;stroke-opacity:1;paint-order:fill markers stroke"
       d="m 108.19264,88.65975 a 6.1708416,6.775826 0 0 1 -6.09575,5.77588 6.1708416,6.775826 0 0 1 -6.096272,-5.76451 7.1924262,7.1924262 0 0 0 -1.09606,3.79925 7.1924262,7.1924262 0 0 0 7.192332,7.19284 7.1924262,7.1924262 0 0 0 7.19232,-7.19284 7.1924262,7.1924262 0 0 0 -1.09657,-3.81062 z"
       id="path901"
       inkscape:connector-curvature="0" />
    <path
       inkscape:connector-curvature="0"
       style="opacity:1;vector-effect:none;fill:#000000;fill-opacity:1;fill-rule:nonzero;stroke:#000000;stroke-width:0.75;stroke-linecap:round;stroke-linejoin:round;stroke-miterlimit:4;stroke-dasharray:none;stroke-dashoffset:0;stroke-opacity:1;paint-order:fill markers stroke"
       inkscape:transform-center-x="-0.60491774"
       inkscape:transform-center-y="-0.30412716"
       d="m 117.50565,144.72347 3.47204,5.19974 -2.31508,5.808 6.01817,-1.69528 4.80834,3.99654 0.2474,-6.24751 5.28679,-3.33799 -5.86527,-2.16588 -1.54092,-6.05954 -3.87234,4.90891 z"
       id="path2201-9" />
    <path
       inkscape:connector-curvature="0"
       style="opacity:1;vector-effect:none;fill:#000000;fill-opacity:1;fill-rule:nonzero;stroke:#000000;stroke-width:0.75;stroke-linecap:round;stroke-linejoin:round;stroke-miterlimit:4;stroke-dasharray:none;stroke-dashoffset:0;stroke-opacity:1;paint-order:fill markers stroke"
       inkscape:transform-center-x="0.89908726"
       inkscape:transform-center-y="-7.16e-06"
       d="m 68.479045,149.52554 5.606717,2.76709 0.899077,6.18742 4.364244,-4.47724 6.162383,1.05693 -2.909491,-5.5342 2.909491,-5.53418 -6.162383,1.05693 -4.364244,-4.47726 -0.899087,6.18741 z"
       id="path2201-9-5" />
  </g>
</svg>
