<?xml version="1.0" encoding="UTF-8" standalone="no"?>
<!-- Created with Inkscape (http://www.inkscape.org/) -->

<svg
   xmlns:dc="http://purl.org/dc/elements/1.1/"
   xmlns:cc="http://creativecommons.org/ns#"
   xmlns:rdf="http://www.w3.org/1999/02/22-rdf-syntax-ns#"
   xmlns:svg="http://www.w3.org/2000/svg"
   xmlns="http://www.w3.org/2000/svg"
   xmlns:sodipodi="http://sodipodi.sourceforge.net/DTD/sodipodi-0.dtd"
   xmlns:inkscape="http://www.inkscape.org/namespaces/inkscape"
   width="210mm"
   height="297mm"
   viewBox="0 0 210 297"
   version="1.1"
   id="svg1417"
   inkscape:version="0.92.5 (0.92.5+68)"
   sodipodi:docname="planchette_innards.svg">
  <defs
     id="defs1411" />
  <sodipodi:namedview
     id="base"
     pagecolor="#ffffff"
     bordercolor="#666666"
     borderopacity="1.0"
     inkscape:pageopacity="0.0"
     inkscape:pageshadow="2"
     inkscape:zoom="1.4"
     inkscape:cx="434.99062"
     inkscape:cy="650.66615"
     inkscape:document-units="mm"
     inkscape:current-layer="layer1"
     showgrid="false"
     inkscape:window-width="1533"
     inkscape:window-height="1010"
     inkscape:window-x="2307"
     inkscape:window-y="45"
     inkscape:window-maximized="0" />
  <metadata
     id="metadata1414">
    <rdf:RDF>
      <cc:Work
         rdf:about="">
        <dc:format>image/svg+xml</dc:format>
        <dc:type
           rdf:resource="http://purl.org/dc/dcmitype/StillImage" />
        <dc:title></dc:title>
      </cc:Work>
    </rdf:RDF>
  </metadata>
  <g
     inkscape:label="Layer 1"
     inkscape:groupmode="layer"
     id="layer1">
    <path
       style="fill:#010101;stroke-width:0.43285337"
       d="m 106.2799,72.215246 c -0.30343,-0.0324 -0.60989,-0.0524 -0.91982,-0.0524 h -0.006 -0.003 c -0.31461,0 -0.62367,0.0199 -0.93013,0.0524 -11.676651,0.55666 -17.237521,11.1923 -17.237521,11.1923 0,0 5.843091,11.24033 18.171191,11.24033 12.32289,0 18.16253,-11.2399 18.16253,-11.2399 0,0 -5.55957,-10.63607 -17.23709,-11.19273 z m -0.92544,19.23687 c -7.831634,0 -12.59258,-5.33144 -14.508386,-8.04414 1.150956,-1.6336 3.34509,-4.21598 6.618322,-6.01406 -0.43371,1.02239 -0.671351,2.14868 -0.671351,3.32734 0,4.72805 3.830325,8.56054 8.557945,8.56054 4.72892,0 8.5601,-3.83249 8.5601,-8.56054 0,-1.17217 -0.23849,-2.29109 -0.66529,-3.30916 3.25896,1.79937 5.45656,4.37397 6.61055,5.99849 -1.91496,2.70966 -6.67677,8.04153 -14.50189,8.04153 z"
       id="path1629"
       inkscape:connector-curvature="0"
       sodipodi:nodetypes="cscsccscccsccsssccs" />
    <path
       style="opacity:1;vector-effect:none;fill:#000000;fill-opacity:1;fill-rule:nonzero;stroke:#000000;stroke-width:0.75;stroke-linecap:round;stroke-linejoin:round;stroke-miterlimit:4;stroke-dasharray:none;stroke-dashoffset:0;stroke-opacity:1;paint-order:fill markers stroke"
       inkscape:transform-center-x="0.60491863"
       inkscape:transform-center-y="-0.30412716"
       d="m 89.836524,66.009666 -3.472037,5.19975 2.315075,5.808 -6.01817,-1.69528 -4.808337,3.99653 -0.247397,-6.2475 -5.286793,-3.338 5.865273,-2.16587 1.540919,-6.05954 3.872335,4.90891 z"
       id="path2201"
       inkscape:connector-curvature="0" />
    <path
       style="color:#000000;font-style:normal;font-variant:normal;font-weight:normal;font-stretch:normal;font-size:medium;line-height:normal;font-family:sans-serif;font-variant-ligatures:normal;font-variant-position:normal;font-variant-caps:normal;font-variant-numeric:normal;font-variant-alternates:normal;font-feature-settings:normal;text-indent:0;text-align:start;text-decoration:none;text-decoration-line:none;text-decoration-style:solid;text-decoration-color:#000000;letter-spacing:normal;word-spacing:normal;text-transform:none;writing-mode:lr-tb;direction:ltr;text-orientation:mixed;dominant-baseline:auto;baseline-shift:baseline;text-anchor:start;white-space:normal;shape-padding:0;clip-rule:nonzero;display:inline;overflow:visible;visibility:visible;opacity:1;isolation:auto;mix-blend-mode:normal;color-interpolation:sRGB;color-interpolation-filters:linearRGB;solid-color:#000000;solid-opacity:1;vector-effect:none;fill:#000000;fill-opacity:1;fill-rule:evenodd;stroke:none;stroke-width:3.5;stroke-linecap:round;stroke-linejoin:miter;stroke-miterlimit:4;stroke-dasharray:none;stroke-dashoffset:0;stroke-opacity:1;color-rendering:auto;image-rendering:auto;shape-rendering:auto;text-rendering:auto;enable-background:accumulate"
       d="m 105.35625,97.085036 a 1.750175,1.750175 0 0 0 -1.72461,1.77539 v 12.126964 a 1.750175,1.750175 0 1 0 3.5,0 V 98.860426 a 1.750175,1.750175 0 0 0 -1.77539,-1.77539 z"
       id="path827"
       inkscape:connector-curvature="0" />
    <path
       style="color:#000000;font-style:normal;font-variant:normal;font-weight:normal;font-stretch:normal;font-size:medium;line-height:normal;font-family:sans-serif;font-variant-ligatures:normal;font-variant-position:normal;font-variant-caps:normal;font-variant-numeric:normal;font-variant-alternates:normal;font-feature-settings:normal;text-indent:0;text-align:start;text-decoration:none;text-decoration-line:none;text-decoration-style:solid;text-decoration-color:#000000;letter-spacing:normal;word-spacing:normal;text-transform:none;writing-mode:lr-tb;direction:ltr;text-orientation:mixed;dominant-baseline:auto;baseline-shift:baseline;text-anchor:start;white-space:normal;shape-padding:0;clip-rule:nonzero;display:inline;overflow:visible;visibility:visible;opacity:1;isolation:auto;mix-blend-mode:normal;color-interpolation:sRGB;color-interpolation-filters:linearRGB;solid-color:#000000;solid-opacity:1;vector-effect:none;fill:#000000;fill-opacity:1;fill-rule:evenodd;stroke:none;stroke-width:3.5;stroke-linecap:round;stroke-linejoin:miter;stroke-miterlimit:4;stroke-dasharray:none;stroke-dashoffset:0;stroke-opacity:1;color-rendering:auto;image-rendering:auto;shape-rendering:auto;text-rendering:auto;enable-background:accumulate"
       d="m 95.008594,95.022536 a 1.750175,1.750175 0 0 0 -1.562499,0.86329 l -9.064454,14.931644 a 1.7501789,1.7501789 0 1 0 2.992188,1.8164 l 9.064452,-14.931644 a 1.750175,1.750175 0 0 0 -1.429687,-2.67969 z"
       id="path827-1-5"
       inkscape:connector-curvature="0" />
    <path
       style="color:#000000;font-style:normal;font-variant:normal;font-weight:normal;font-stretch:normal;font-size:medium;line-height:normal;font-family:sans-serif;font-variant-ligatures:normal;font-variant-position:normal;font-variant-caps:normal;font-variant-numeric:normal;font-variant-alternates:normal;font-feature-settings:normal;text-indent:0;text-align:start;text-decoration:none;text-decoration-line:none;text-decoration-style:solid;text-decoration-color:#000000;letter-spacing:normal;word-spacing:normal;text-transform:none;writing-mode:lr-tb;direction:ltr;text-orientation:mixed;dominant-baseline:auto;baseline-shift:baseline;text-anchor:start;white-space:normal;shape-padding:0;clip-rule:nonzero;display:inline;overflow:visible;visibility:visible;opacity:1;isolation:auto;mix-blend-mode:normal;color-interpolation:sRGB;color-interpolation-filters:linearRGB;solid-color:#000000;solid-opacity:1;vector-effect:none;fill:#000000;fill-opacity:1;fill-rule:evenodd;stroke:none;stroke-width:3.5;stroke-linecap:round;stroke-linejoin:miter;stroke-miterlimit:4;stroke-dasharray:none;stroke-dashoffset:0;stroke-opacity:1;color-rendering:auto;image-rendering:auto;shape-rendering:auto;text-rendering:auto;enable-background:accumulate"
       d="m 86.418751,87.942466 a 1.750175,1.750175 0 0 0 -1.083985,0.38671 L 67.270313,102.4659 a 1.7501862,1.7501862 0 1 0 2.158203,2.75586 L 87.492969,91.086996 a 1.750175,1.750175 0 0 0 -1.074218,-3.14453 z"
       id="path827-1-5-1"
       inkscape:connector-curvature="0" />
    <path
       style="color:#000000;font-style:normal;font-variant:normal;font-weight:normal;font-stretch:normal;font-size:medium;line-height:normal;font-family:sans-serif;font-variant-ligatures:normal;font-variant-position:normal;font-variant-caps:normal;font-variant-numeric:normal;font-variant-alternates:normal;font-feature-settings:normal;text-indent:0;text-align:start;text-decoration:none;text-decoration-line:none;text-decoration-style:solid;text-decoration-color:#000000;letter-spacing:normal;word-spacing:normal;text-transform:none;writing-mode:lr-tb;direction:ltr;text-orientation:mixed;dominant-baseline:auto;baseline-shift:baseline;text-anchor:start;white-space:normal;shape-padding:0;clip-rule:nonzero;display:inline;overflow:visible;visibility:visible;opacity:1;isolation:auto;mix-blend-mode:normal;color-interpolation:sRGB;color-interpolation-filters:linearRGB;solid-color:#000000;solid-opacity:1;vector-effect:none;fill:#000000;fill-opacity:1;fill-rule:evenodd;stroke:none;stroke-width:3.5;stroke-linecap:round;stroke-linejoin:miter;stroke-miterlimit:4;stroke-dasharray:none;stroke-dashoffset:0;stroke-opacity:1;color-rendering:auto;image-rendering:auto;shape-rendering:auto;text-rendering:auto;enable-background:accumulate"
       d="m 115.87969,95.024496 a 1.750175,1.750175 0 0 0 -1.55273,2.67773 l 9.06445,14.931644 a 1.7501803,1.7501803 0 1 0 2.99219,-1.8164 l -9.06446,-14.931644 a 1.750175,1.750175 0 0 0 -1.43945,-0.86133 z"
       id="path827-1-5-9"
       inkscape:connector-curvature="0" />
    <path
       style="color:#000000;font-style:normal;font-variant:normal;font-weight:normal;font-stretch:normal;font-size:medium;line-height:normal;font-family:sans-serif;font-variant-ligatures:normal;font-variant-position:normal;font-variant-caps:normal;font-variant-numeric:normal;font-variant-alternates:normal;font-feature-settings:normal;text-indent:0;text-align:start;text-decoration:none;text-decoration-line:none;text-decoration-style:solid;text-decoration-color:#000000;letter-spacing:normal;word-spacing:normal;text-transform:none;writing-mode:lr-tb;direction:ltr;text-orientation:mixed;dominant-baseline:auto;baseline-shift:baseline;text-anchor:start;white-space:normal;shape-padding:0;clip-rule:nonzero;display:inline;overflow:visible;visibility:visible;opacity:1;isolation:auto;mix-blend-mode:normal;color-interpolation:sRGB;color-interpolation-filters:linearRGB;solid-color:#000000;solid-opacity:1;vector-effect:none;fill:#000000;fill-opacity:1;fill-rule:evenodd;stroke:none;stroke-width:3.5;stroke-linecap:round;stroke-linejoin:miter;stroke-miterlimit:4;stroke-dasharray:none;stroke-dashoffset:0;stroke-opacity:1;color-rendering:auto;image-rendering:auto;shape-rendering:auto;text-rendering:auto;enable-background:accumulate"
       d="m 124.2918,87.942466 a 1.750175,1.750175 0 0 0 -1.01953,3.14453 l 18.06445,14.134764 a 1.750175,1.750175 0 1 0 2.15625,-2.75586 L 125.42852,88.329176 a 1.750175,1.750175 0 0 0 -1.13672,-0.38671 z"
       id="path827-1-5-1-0"
       inkscape:connector-curvature="0" />
    <path
       style="opacity:1;vector-effect:none;fill:#000000;fill-opacity:1;fill-rule:nonzero;stroke:#000000;stroke-width:1;stroke-linecap:round;stroke-linejoin:round;stroke-miterlimit:4;stroke-dasharray:none;stroke-dashoffset:0;stroke-opacity:1;paint-order:fill markers stroke"
       d="m 110.41711,54.169174 a 6.1708416,6.775826 0 0 1 -6.09575,5.77588 6.1708416,6.775826 0 0 1 -6.096273,-5.76451 7.1924262,7.1924262 0 0 0 -1.09606,3.79925 7.1924262,7.1924262 0 0 0 7.192333,7.19284 7.1924262,7.1924262 0 0 0 7.19232,-7.19284 7.1924262,7.1924262 0 0 0 -1.09657,-3.81062 z"
       id="path901"
       inkscape:connector-curvature="0" />
    <path
       inkscape:connector-curvature="0"
       style="opacity:1;vector-effect:none;fill:#000000;fill-opacity:1;fill-rule:nonzero;stroke:#000000;stroke-width:0.75;stroke-linecap:round;stroke-linejoin:round;stroke-miterlimit:4;stroke-dasharray:none;stroke-dashoffset:0;stroke-opacity:1;paint-order:fill markers stroke"
       inkscape:transform-center-x="-0.60491774"
       inkscape:transform-center-y="-0.30412716"
       d="m 120.86405,66.009666 3.47204,5.19975 -2.31508,5.808 6.01817,-1.69528 4.80834,3.99653 0.2474,-6.2475 5.28679,-3.338 -5.86527,-2.16587 -1.54092,-6.05954 -3.87234,4.90891 z"
       id="path2201-9" />
  </g>
</svg>
