<?xml version="1.0" encoding="UTF-8" standalone="no"?>
<!-- Created with Inkscape (http://www.inkscape.org/) -->

<svg
   xmlns:dc="http://purl.org/dc/elements/1.1/"
   xmlns:cc="http://creativecommons.org/ns#"
   xmlns:rdf="http://www.w3.org/1999/02/22-rdf-syntax-ns#"
   xmlns:svg="http://www.w3.org/2000/svg"
   xmlns="http://www.w3.org/2000/svg"
   xmlns:sodipodi="http://sodipodi.sourceforge.net/DTD/sodipodi-0.dtd"
   xmlns:inkscape="http://www.inkscape.org/namespaces/inkscape"
   width="210mm"
   height="297mm"
   viewBox="0 0 210 297"
   version="1.1"
   id="svg982"
   inkscape:version="0.92.5 (0.92.5+68)"
   sodipodi:docname="planchette_segmentation.svg">
  <defs
     id="defs976" />
  <sodipodi:namedview
     id="base"
     pagecolor="#ffffff"
     bordercolor="#666666"
     borderopacity="1.0"
     inkscape:pageopacity="0.0"
     inkscape:pageshadow="2"
     inkscape:zoom="2.8"
     inkscape:cx="447.70827"
     inkscape:cy="401.12787"
     inkscape:document-units="mm"
     inkscape:current-layer="layer1"
     showgrid="false"
     inkscape:window-width="1688"
     inkscape:window-height="995"
     inkscape:window-x="1982"
     inkscape:window-y="12"
     inkscape:window-maximized="0" />
  <metadata
     id="metadata979">
    <rdf:RDF>
      <cc:Work
         rdf:about="">
        <dc:format>image/svg+xml</dc:format>
        <dc:type
           rdf:resource="http://purl.org/dc/dcmitype/StillImage" />
        <dc:title />
      </cc:Work>
    </rdf:RDF>
  </metadata>
  <g
     inkscape:label="Layer 1"
     inkscape:groupmode="layer"
     id="layer1">
    <path
       inkscape:connector-curvature="0"
       style="font-style:italic;font-variant:normal;font-weight:normal;font-stretch:normal;font-size:161.68954468px;line-height:125%;font-family:'Lucida Calligraphy';-inkscape-font-specification:'Lucida Calligraphy, Italic';text-align:start;letter-spacing:0px;word-spacing:0px;writing-mode:lr-tb;text-anchor:start;fill:none;fill-opacity:1;stroke:#0000ff;stroke-width:0.05mm;stroke-linecap:butt;stroke-linejoin:miter;stroke-miterlimit:4;stroke-dasharray:none;stroke-opacity:1"
       d="m 96.51283,151.76054 2.0823,1.45799 1.6244,0.75753 0.4608,0.2149 0.6795,0.31679 0.4911,0.13161 2.4554,0.6579 0.5065,0.0443 2.5323,0.22159 0.5065,-0.0443 2.5324,-0.22159 0.4911,-0.13161 2.4554,-0.6579 0.4608,-0.2149 2.3038,-1.07432 0.41649,-0.29159 2.08231,-1.45799 1.3937,-1.39372 0.40379,-0.40378 0.3595,-0.35949 0.29161,-0.41651 1.4581,-2.08231 0.3738,-0.8016 0.2148,-0.46078 0.7006,-1.50233 0.3641,-1.35878 0.1315,-0.4911 0.2939,-1.09662 0.0443,-0.50649 0.2215,-2.53231 -0.0443,-0.5065 -0.2215,-2.5324 -0.6461,-2.41088 -0.1316,-0.491 -0.2148,-0.461 -1.0862,-2.34801 -0.2916,-0.41698 -1.45811,-2.08203 -0.3595,-0.35999 -1.79749,-1.79699 -0.4164,-0.29201 -2.0824,-1.45799 -0.4607,-0.215 -2.3039,-1.074 -0.4911,-0.13101 -2.4554,-0.65799 -0.5065,-0.045 -2.5324,-0.22103 -0.5064,0.044 -2.5324,0.222 -0.4911,0.13098 -2.4554,0.65803 -0.4608,0.21499 -2.3039,1.074 -0.4164,0.292 -2.0823,1.458 -0.3596,0.35898 -1.7974,1.79801 -0.29171,0.41601 -1.45799,2.08299 -0.2149,0.461 -1.0862,2.34801 -0.1315,0.49101 -0.4429,1.652 -0.2032,0.75887 -0.0443,0.50653 -0.2216,2.53237 0.0443,0.50653 0.2216,2.53228 0.1316,0.49109 0.6579,2.4554 0.7005,1.50233 0.2149,0.46078 0.3738,0.8016 0.2916,0.41642 1.4581,2.0824 0.3595,0.35949 1.7975,1.7975 z"
       id="path4178" />
    <path
       inkscape:connector-curvature="0"
       style="font-style:italic;font-variant:normal;font-weight:normal;font-stretch:normal;font-size:161.68954468px;line-height:125%;font-family:'Lucida Calligraphy';-inkscape-font-specification:'Lucida Calligraphy, Italic';text-align:start;letter-spacing:0px;word-spacing:0px;writing-mode:lr-tb;text-anchor:start;fill:none;fill-opacity:1;stroke:#0000ff;stroke-width:0.05mm;stroke-linecap:butt;stroke-linejoin:miter;stroke-miterlimit:4;stroke-dasharray:none;stroke-opacity:1"
       d="m 150.45923,184.46934 0.8113,4.4892 0.2005,2.5378 0.1967,2.48911 -0.0275,1.66878 -0.0266,1.61933 -0.17721,1.48187 -0.17119,1.4311 -0.2002,0.89043 -0.18951,0.84289 -0.26509,0.8169 -0.25011,0.77069 -0.3291,0.747 -0.3081,0.69922 -0.3926,0.68099 -0.3652,0.63348 -0.45529,0.61872 -0.42231,0.57401 -0.5174,0.56028 -0.4803,0.5202 -0.5786,0.50561 -0.5397,0.47159 -0.6393,0.45481 -0.5963,0.42421 -1.071,0.59499 -1.026,0.5699 -0.7878,0.34419 -0.7479,0.32671 -1.2905,0.4468 -1.247,0.43169 -0.6565,0.15191 -0.6026,0.13931 -0.6986,0.0786 -0.6435,0.0724 -0.9942,0.006 -0.9416,0.006 -1.6183,-0.15923 -1.572,-0.15467 -5.314,-0.96662 -5.3202,-0.96771 -6.174,-0.45468 -6.21889,-0.45802 h -0.44801 -0.4847 l -6.17409,0.45472 -6.21891,0.45798 -5.314,0.96661 -5.3202,0.96772 -1.6183,0.15919 -1.572,0.15471 -0.9941,-0.006 -0.9416,-0.006 -0.69859,-0.0786 -0.64351,-0.0724 -0.6566,-0.15182 -0.6026,-0.1394 -1.2905,-0.4468 -1.24689,-0.43169 -0.78781,-0.34409 -0.74799,-0.32681 -1.0711,-0.595 -1.02591,-0.56989 -0.6393,-0.45481 -0.5962,-0.42421 -0.5787,-0.50559 -0.53969,-0.47162 -0.51731,-0.56028 -0.4803,-0.52019 -0.4553,-0.61881 -0.4224,-0.57392 -0.3926,-0.68108 -0.36513,-0.63339 -0.32918,-0.7471 -0.30806,-0.69912 -0.26505,-0.8169 -0.25007,-0.77069 -0.20022,-0.8904 -0.18953,-0.84292 -0.17724,-1.48199 -0.17117,-1.43098 -0.0274,-1.66881 -0.0266,-1.6193 0.20051,-2.5378 0.19667,-2.48911 0.82026,-4.53849 0.81134,-4.4891 2.79904,-9.76762 2.7874,-9.72699 2.6828,-7.39818 2.6725,-7.36971 2.9155,-6.88842 2.9037,-6.8597 7.2007,-14.15498 7.1836,-14.12002 5.7925,-9.41498 5.356,-8.70401 5.79251,9.414 5.3561,8.70499 7.2007,14.15401 7.1836,14.12099 2.9156,6.88791 2.9036,6.86021 2.6828,7.39821 2.6724,7.36968 2.7991,9.76761 2.7874,9.727 z"
       id="path8-4" />
    <path
       style="fill:none;fill-rule:evenodd;stroke:#000000;stroke-width:0.26458332px;stroke-linecap:butt;stroke-linejoin:miter;stroke-opacity:1"
       d="m 66.176308,196.82187 0.757806,4.50021 4.602407,4.07649 6.800313,-4.0447 12.919006,-14.68607 -1.286236,-3.70837 -3.574729,-1.63702 -18.628499,11.801 z"
       id="path823"
       inkscape:connector-curvature="0"
       sodipodi:nodetypes="ccccccccc" />
    <path
       style="fill:none;fill-rule:evenodd;stroke:#000000;stroke-width:0.26458332px;stroke-linecap:butt;stroke-linejoin:miter;stroke-opacity:1"
       d="m 72.051711,164.23586 8.882441,-10.91406 12.37872,5.66964 -2.084775,13.33548 -11.664109,2.77576 z"
       id="path828"
       inkscape:connector-curvature="0" />
    <path
       style="fill:none;fill-rule:evenodd;stroke:#000000;stroke-width:0.26458332px;stroke-linecap:butt;stroke-linejoin:miter;stroke-opacity:1"
       d="m 129.4096,179.87463 -0.14174,-3.83882 -4.91369,-1.73633 -2.07887,-0.89769 -0.75595,-2.83483 -2.42327,-7.93611 -5.95681,-2.2111 -11.21647,0.007 -6.465716,2.18008 -2.631036,8.91001 -0.776752,1.72054 -1.146023,0.30602 -5.368443,2.35645 -0.02953,3.13602 4.698166,2.77084 3.2039,3.24135 3.236421,2.22061 2.849764,1.63882 3.225649,1.45922 9.12655,0.22405 3.07383,-1.33436 3.38697,-2.48383 3.70889,-3.14192 2.69308,-3.11831 z"
       id="path830"
       inkscape:connector-curvature="0"
       sodipodi:nodetypes="ccccccccccccccccccccccccc" />
    <path
       style="fill:none;fill-rule:evenodd;stroke:#000000;stroke-width:0.26458332px;stroke-linecap:butt;stroke-linejoin:miter;stroke-opacity:1"
       d="m 100.35464,193.09568 -1.076831,-2.60819 -2.710798,-1.45285 -3.837892,0.38528 -9.747709,14.42991 -0.995545,3.91397 4.239953,3.13788 5.438732,-1.00701 z"
       id="path832"
       inkscape:connector-curvature="0"
       sodipodi:nodetypes="ccccccccc" />
    <path
       style="fill:none;fill-rule:evenodd;stroke:#000000;stroke-width:0.26458332px;stroke-linecap:butt;stroke-linejoin:miter;stroke-opacity:1"
       d="m 102.23052,206.33296 -1.92969,-6.54371 2.41703,-7.11068 3.16272,-1.32292 h 3.16555 l 2.46217,1.16161 3.09564,7.04149 -2.00704,7.04148 -3.8815,1.52812 -2.69308,0.0945 z"
       id="path834"
       inkscape:connector-curvature="0"
       sodipodi:nodetypes="ccccccccccc" />
    <path
       style="fill:none;fill-rule:evenodd;stroke:#000000;stroke-width:0.26458332px;stroke-linecap:butt;stroke-linejoin:miter;stroke-opacity:1"
       d="m 114.71577,191.87537 0.47247,-1.46466 2.69308,-1.70089 3.09735,0.46576 9.47569,15.15008 1.26617,4.28048 -2.08755,1.60165 -2.14094,0.0649 -1.73192,-0.55075 -3.47393,-1.0948 -6.86171,-14.90909 z"
       id="path836"
       inkscape:connector-curvature="0"
       sodipodi:nodetypes="cccccccccccc" />
    <path
       style="fill:none;fill-rule:evenodd;stroke:#000000;stroke-width:0.26458332px;stroke-linecap:butt;stroke-linejoin:miter;stroke-opacity:1"
       d="m 122.96582,187.05478 0.58515,-2.5027 0.28348,-1.32291 0.89769,-1.18118 1.74814,-0.47247 2.64584,1.74814 18.56865,10.50112 0.98884,6.33561 -1.38835,2.07747 -1.36205,2.49796 -4.35066,0.18084 z"
       id="path838"
       inkscape:connector-curvature="0"
       sodipodi:nodetypes="cccccccccccc" />
    <path
       style="fill:none;fill-rule:evenodd;stroke:#000000;stroke-width:0.26458332px;stroke-linecap:butt;stroke-linejoin:miter;stroke-opacity:1"
       d="m 123.24386,172.3151 -1.37016,-11.96531 11.07619,-5.30332 8.28535,9.25421 -5.81311,10.74089 z"
       id="path840"
       inkscape:connector-curvature="0" />
    <path
       style="fill:none;fill-rule:evenodd;stroke:#000000;stroke-width:0.26458332px;stroke-linecap:butt;stroke-linejoin:miter;stroke-opacity:1"
       d="m 98.958891,107.25595 0.921316,-3.47265 0.498873,-2.20162 2.06769,-3.940023 3.41089,-5.041234 1.71779,-0.624957 1.72116,0.510486 2.89718,4.581909 1.35662,3.281059 1.00336,2.16748 1.4613,4.90492 -0.63784,4.27585 -1.7127,4.02781 -3.71615,3.82458 -5.03181,-0.0945 -4.45759,-4.09624 -0.909501,-3.07106 z"
       id="path842"
       inkscape:connector-curvature="0"
       sodipodi:nodetypes="cccccccccccccccccc" />
  </g>
</svg>
