<?xml version="1.0" encoding="UTF-8" standalone="no"?>
<!-- Created with Inkscape (http://www.inkscape.org/) -->

<svg
   xmlns:dc="http://purl.org/dc/elements/1.1/"
   xmlns:cc="http://creativecommons.org/ns#"
   xmlns:rdf="http://www.w3.org/1999/02/22-rdf-syntax-ns#"
   xmlns:svg="http://www.w3.org/2000/svg"
   xmlns="http://www.w3.org/2000/svg"
   xmlns:sodipodi="http://sodipodi.sourceforge.net/DTD/sodipodi-0.dtd"
   xmlns:inkscape="http://www.inkscape.org/namespaces/inkscape"
   width="210mm"
   height="297mm"
   viewBox="0 0 210 297"
   version="1.1"
   id="svg982"
   inkscape:version="0.92.5 (0.92.5+68)"
   sodipodi:docname="planchette_simple.svg">
  <defs
     id="defs976" />
  <sodipodi:namedview
     id="base"
     pagecolor="#ffffff"
     bordercolor="#666666"
     borderopacity="1.0"
     inkscape:pageopacity="0.0"
     inkscape:pageshadow="2"
     inkscape:zoom="1.979899"
     inkscape:cx="363.39121"
     inkscape:cy="504.41842"
     inkscape:document-units="mm"
     inkscape:current-layer="layer1"
     showgrid="false"
     inkscape:window-width="1311"
     inkscape:window-height="851"
     inkscape:window-x="2147"
     inkscape:window-y="58"
     inkscape:window-maximized="0" />
  <metadata
     id="metadata979">
    <rdf:RDF>
      <cc:Work
         rdf:about="">
        <dc:format>image/svg+xml</dc:format>
        <dc:type
           rdf:resource="http://purl.org/dc/dcmitype/StillImage" />
        <dc:title />
      </cc:Work>
    </rdf:RDF>
  </metadata>
  <g
     inkscape:label="Layer 1"
     inkscape:groupmode="layer"
     id="layer1">
    <path
       inkscape:connector-curvature="0"
       style="font-style:italic;font-variant:normal;font-weight:normal;font-stretch:normal;font-size:161.68954468px;line-height:125%;font-family:'Lucida Calligraphy';-inkscape-font-specification:'Lucida Calligraphy, Italic';text-align:start;letter-spacing:0px;word-spacing:0px;writing-mode:lr-tb;text-anchor:start;fill:none;fill-opacity:1;stroke:#0000ff;stroke-width:0.05mm;stroke-linecap:butt;stroke-linejoin:miter;stroke-miterlimit:4;stroke-dasharray:none;stroke-opacity:1"
       d="m 96.51283,151.76054 2.0823,1.45799 1.6244,0.75753 0.4608,0.2149 0.6795,0.31679 0.4911,0.13161 2.4554,0.6579 0.5065,0.0443 2.5323,0.22159 0.5065,-0.0443 2.5324,-0.22159 0.4911,-0.13161 2.4554,-0.6579 0.4608,-0.2149 2.3038,-1.07432 0.41649,-0.29159 2.08231,-1.45799 1.3937,-1.39372 0.40379,-0.40378 0.3595,-0.35949 0.29161,-0.41651 1.4581,-2.08231 0.3738,-0.8016 0.2148,-0.46078 0.7006,-1.50233 0.3641,-1.35878 0.1315,-0.4911 0.2939,-1.09662 0.0443,-0.50649 0.2215,-2.53231 -0.0443,-0.5065 -0.2215,-2.5324 -0.6461,-2.41088 -0.1316,-0.491 -0.2148,-0.461 -1.0862,-2.34801 -0.2916,-0.41698 -1.45811,-2.08203 -0.3595,-0.35999 -1.79749,-1.79699 -0.4164,-0.29201 -2.0824,-1.45799 -0.4607,-0.215 -2.3039,-1.074 -0.4911,-0.13101 -2.4554,-0.65799 -0.5065,-0.045 -2.5324,-0.22103 -0.5064,0.044 -2.5324,0.222 -0.4911,0.13098 -2.4554,0.65803 -0.4608,0.21499 -2.3039,1.074 -0.4164,0.292 -2.0823,1.458 -0.3596,0.35898 -1.7974,1.79801 -0.29171,0.41601 -1.45799,2.08299 -0.2149,0.461 -1.0862,2.34801 -0.1315,0.49101 -0.4429,1.652 -0.2032,0.75887 -0.0443,0.50653 -0.2216,2.53237 0.0443,0.50653 0.2216,2.53228 0.1316,0.49109 0.6579,2.4554 0.7005,1.50233 0.2149,0.46078 0.3738,0.8016 0.2916,0.41642 1.4581,2.0824 0.3595,0.35949 1.7975,1.7975 z"
       id="path4178" />
    <path
       inkscape:connector-curvature="0"
       style="font-style:italic;font-variant:normal;font-weight:normal;font-stretch:normal;font-size:161.68954468px;line-height:125%;font-family:'Lucida Calligraphy';-inkscape-font-specification:'Lucida Calligraphy, Italic';text-align:start;letter-spacing:0px;word-spacing:0px;writing-mode:lr-tb;text-anchor:start;fill:none;fill-opacity:1;stroke:#0000ff;stroke-width:0.05mm;stroke-linecap:butt;stroke-linejoin:miter;stroke-miterlimit:4;stroke-dasharray:none;stroke-opacity:1"
       d="m 150.45923,184.46934 0.8113,4.4892 0.2005,2.5378 0.1967,2.48911 -0.0275,1.66878 -0.0266,1.61933 -0.17721,1.48187 -0.17119,1.4311 -0.2002,0.89043 -0.18951,0.84289 -0.26509,0.8169 -0.25011,0.77069 -0.3291,0.747 -0.3081,0.69922 -0.3926,0.68099 -0.3652,0.63348 -0.45529,0.61872 -0.42231,0.57401 -0.5174,0.56028 -0.4803,0.5202 -0.5786,0.50561 -0.5397,0.47159 -0.6393,0.45481 -0.5963,0.42421 -1.071,0.59499 -1.026,0.5699 -0.7878,0.34419 -0.7479,0.32671 -1.2905,0.4468 -1.247,0.43169 -0.6565,0.15191 -0.6026,0.13931 -0.6986,0.0786 -0.6435,0.0724 -0.9942,0.006 -0.9416,0.006 -1.6183,-0.15923 -1.572,-0.15467 -5.314,-0.96662 -5.3202,-0.96771 -6.174,-0.45468 -6.21889,-0.45802 h -0.44801 -0.4847 l -6.17409,0.45472 -6.21891,0.45798 -5.314,0.96661 -5.3202,0.96772 -1.6183,0.15919 -1.572,0.15471 -0.9941,-0.006 -0.9416,-0.006 -0.69859,-0.0786 -0.64351,-0.0724 -0.6566,-0.15182 -0.6026,-0.1394 -1.2905,-0.4468 -1.24689,-0.43169 -0.78781,-0.34409 -0.74799,-0.32681 -1.0711,-0.595 -1.02591,-0.56989 -0.6393,-0.45481 -0.5962,-0.42421 -0.5787,-0.50559 -0.53969,-0.47162 -0.51731,-0.56028 -0.4803,-0.52019 -0.4553,-0.61881 -0.4224,-0.57392 -0.3926,-0.68108 -0.36513,-0.63339 -0.32918,-0.7471 -0.30806,-0.69912 -0.26505,-0.8169 -0.25007,-0.77069 -0.20022,-0.8904 -0.18953,-0.84292 -0.17724,-1.48199 -0.17117,-1.43098 -0.0274,-1.66881 -0.0266,-1.6193 0.20051,-2.5378 0.19667,-2.48911 0.82026,-4.53849 0.81134,-4.4891 2.79904,-9.76762 2.7874,-9.72699 2.6828,-7.39818 2.6725,-7.36971 2.9155,-6.88842 2.9037,-6.8597 7.2007,-14.15498 7.1836,-14.12002 5.7925,-9.41498 5.356,-8.70401 5.79251,9.414 5.3561,8.70499 7.2007,14.15401 7.1836,14.12099 2.9156,6.88791 2.9036,6.86021 2.6828,7.39821 2.6724,7.36968 2.7991,9.76761 2.7874,9.727 z"
       id="path8-4" />
    <path
       style="fill:#010101;stroke-width:0.43285334"
       d="m 108.16974,167.0013 c -0.30343,-0.0324 -0.60989,-0.0524 -0.91982,-0.0524 h -0.006 -0.003 c -0.31461,0 -0.62367,0.0199 -0.93013,0.0524 -11.676647,0.55666 -17.237516,11.19229 -17.237516,11.19229 0,0 5.843089,11.24034 18.171186,11.24034 12.32289,0 18.16253,-11.2399 18.16253,-11.2399 0,0 -5.55957,-10.63607 -17.23709,-11.19273 z m -0.92544,19.23687 c -7.83163,0 -12.592576,-5.33145 -14.508383,-8.04414 1.150957,-1.6336 3.345091,-4.21598 6.618323,-6.01406 -0.433712,1.02239 -0.671352,2.14868 -0.671352,3.32734 0,4.72805 3.830322,8.56054 8.557942,8.56054 4.72892,0 8.5601,-3.83249 8.5601,-8.56054 0,-1.17217 -0.23849,-2.29109 -0.66529,-3.30916 3.25896,1.79936 5.45656,4.37397 6.61055,5.99848 -1.91496,2.70967 -6.67677,8.04154 -14.50189,8.04154 z"
       id="path1629"
       inkscape:connector-curvature="0"
       sodipodi:nodetypes="cscsccscccsccsssccs" />
    <path
       style="opacity:1;vector-effect:none;fill:#000000;fill-opacity:1;fill-rule:nonzero;stroke:#000000;stroke-width:0.75;stroke-linecap:round;stroke-linejoin:round;stroke-miterlimit:4;stroke-dasharray:none;stroke-dashoffset:0;stroke-opacity:1;paint-order:fill markers stroke"
       inkscape:transform-center-x="0.60491863"
       inkscape:transform-center-y="-0.30412716"
       d="m 91.726368,160.79572 -3.472038,5.19975 2.315077,5.808 -6.018172,-1.69529 -4.808337,3.99654 -0.247397,-6.2475 -5.286793,-3.338 5.865273,-2.16587 1.540919,-6.05954 3.872335,4.90891 z"
       id="path2201"
       inkscape:connector-curvature="0" />
    <path
       style="color:#000000;font-style:normal;font-variant:normal;font-weight:normal;font-stretch:normal;font-size:medium;line-height:normal;font-family:sans-serif;font-variant-ligatures:normal;font-variant-position:normal;font-variant-caps:normal;font-variant-numeric:normal;font-variant-alternates:normal;font-feature-settings:normal;text-indent:0;text-align:start;text-decoration:none;text-decoration-line:none;text-decoration-style:solid;text-decoration-color:#000000;letter-spacing:normal;word-spacing:normal;text-transform:none;writing-mode:lr-tb;direction:ltr;text-orientation:mixed;dominant-baseline:auto;baseline-shift:baseline;text-anchor:start;white-space:normal;shape-padding:0;clip-rule:nonzero;display:inline;overflow:visible;visibility:visible;opacity:1;isolation:auto;mix-blend-mode:normal;color-interpolation:sRGB;color-interpolation-filters:linearRGB;solid-color:#000000;solid-opacity:1;vector-effect:none;fill:#000000;fill-opacity:1;fill-rule:evenodd;stroke:none;stroke-width:3.5;stroke-linecap:round;stroke-linejoin:miter;stroke-miterlimit:4;stroke-dasharray:none;stroke-dashoffset:0;stroke-opacity:1;color-rendering:auto;image-rendering:auto;shape-rendering:auto;text-rendering:auto;enable-background:accumulate"
       d="m 107.24609,191.87109 a 1.750175,1.750175 0 0 0 -1.72461,1.77539 v 12.12696 a 1.750175,1.750175 0 1 0 3.5,0 v -12.12696 a 1.750175,1.750175 0 0 0 -1.77539,-1.77539 z"
       id="path827"
       inkscape:connector-curvature="0" />
    <path
       style="color:#000000;font-style:normal;font-variant:normal;font-weight:normal;font-stretch:normal;font-size:medium;line-height:normal;font-family:sans-serif;font-variant-ligatures:normal;font-variant-position:normal;font-variant-caps:normal;font-variant-numeric:normal;font-variant-alternates:normal;font-feature-settings:normal;text-indent:0;text-align:start;text-decoration:none;text-decoration-line:none;text-decoration-style:solid;text-decoration-color:#000000;letter-spacing:normal;word-spacing:normal;text-transform:none;writing-mode:lr-tb;direction:ltr;text-orientation:mixed;dominant-baseline:auto;baseline-shift:baseline;text-anchor:start;white-space:normal;shape-padding:0;clip-rule:nonzero;display:inline;overflow:visible;visibility:visible;opacity:1;isolation:auto;mix-blend-mode:normal;color-interpolation:sRGB;color-interpolation-filters:linearRGB;solid-color:#000000;solid-opacity:1;vector-effect:none;fill:#000000;fill-opacity:1;fill-rule:evenodd;stroke:none;stroke-width:3.5;stroke-linecap:round;stroke-linejoin:miter;stroke-miterlimit:4;stroke-dasharray:none;stroke-dashoffset:0;stroke-opacity:1;color-rendering:auto;image-rendering:auto;shape-rendering:auto;text-rendering:auto;enable-background:accumulate"
       d="m 96.898438,189.80859 a 1.750175,1.750175 0 0 0 -1.5625,0.86329 l -9.064454,14.93164 a 1.7501784,1.7501784 0 1 0 2.992188,1.8164 l 9.064453,-14.93164 a 1.750175,1.750175 0 0 0 -1.429687,-2.67969 z"
       id="path827-1-5"
       inkscape:connector-curvature="0" />
    <path
       style="color:#000000;font-style:normal;font-variant:normal;font-weight:normal;font-stretch:normal;font-size:medium;line-height:normal;font-family:sans-serif;font-variant-ligatures:normal;font-variant-position:normal;font-variant-caps:normal;font-variant-numeric:normal;font-variant-alternates:normal;font-feature-settings:normal;text-indent:0;text-align:start;text-decoration:none;text-decoration-line:none;text-decoration-style:solid;text-decoration-color:#000000;letter-spacing:normal;word-spacing:normal;text-transform:none;writing-mode:lr-tb;direction:ltr;text-orientation:mixed;dominant-baseline:auto;baseline-shift:baseline;text-anchor:start;white-space:normal;shape-padding:0;clip-rule:nonzero;display:inline;overflow:visible;visibility:visible;opacity:1;isolation:auto;mix-blend-mode:normal;color-interpolation:sRGB;color-interpolation-filters:linearRGB;solid-color:#000000;solid-opacity:1;vector-effect:none;fill:#000000;fill-opacity:1;fill-rule:evenodd;stroke:none;stroke-width:3.5;stroke-linecap:round;stroke-linejoin:miter;stroke-miterlimit:4;stroke-dasharray:none;stroke-dashoffset:0;stroke-opacity:1;color-rendering:auto;image-rendering:auto;shape-rendering:auto;text-rendering:auto;enable-background:accumulate"
       d="m 88.308594,182.72852 a 1.750175,1.750175 0 0 0 -1.083985,0.38671 l -18.064453,14.13672 a 1.750186,1.750186 0 1 0 2.158203,2.75586 l 18.064453,-14.13476 a 1.750175,1.750175 0 0 0 -1.074218,-3.14453 z"
       id="path827-1-5-1"
       inkscape:connector-curvature="0" />
    <path
       style="color:#000000;font-style:normal;font-variant:normal;font-weight:normal;font-stretch:normal;font-size:medium;line-height:normal;font-family:sans-serif;font-variant-ligatures:normal;font-variant-position:normal;font-variant-caps:normal;font-variant-numeric:normal;font-variant-alternates:normal;font-feature-settings:normal;text-indent:0;text-align:start;text-decoration:none;text-decoration-line:none;text-decoration-style:solid;text-decoration-color:#000000;letter-spacing:normal;word-spacing:normal;text-transform:none;writing-mode:lr-tb;direction:ltr;text-orientation:mixed;dominant-baseline:auto;baseline-shift:baseline;text-anchor:start;white-space:normal;shape-padding:0;clip-rule:nonzero;display:inline;overflow:visible;visibility:visible;opacity:1;isolation:auto;mix-blend-mode:normal;color-interpolation:sRGB;color-interpolation-filters:linearRGB;solid-color:#000000;solid-opacity:1;vector-effect:none;fill:#000000;fill-opacity:1;fill-rule:evenodd;stroke:none;stroke-width:3.5;stroke-linecap:round;stroke-linejoin:miter;stroke-miterlimit:4;stroke-dasharray:none;stroke-dashoffset:0;stroke-opacity:1;color-rendering:auto;image-rendering:auto;shape-rendering:auto;text-rendering:auto;enable-background:accumulate"
       d="m 117.76953,189.81055 a 1.750175,1.750175 0 0 0 -1.55273,2.67773 l 9.06445,14.93164 a 1.7501793,1.7501793 0 1 0 2.99219,-1.8164 l -9.06446,-14.93164 a 1.750175,1.750175 0 0 0 -1.43945,-0.86133 z"
       id="path827-1-5-9"
       inkscape:connector-curvature="0" />
    <path
       style="color:#000000;font-style:normal;font-variant:normal;font-weight:normal;font-stretch:normal;font-size:medium;line-height:normal;font-family:sans-serif;font-variant-ligatures:normal;font-variant-position:normal;font-variant-caps:normal;font-variant-numeric:normal;font-variant-alternates:normal;font-feature-settings:normal;text-indent:0;text-align:start;text-decoration:none;text-decoration-line:none;text-decoration-style:solid;text-decoration-color:#000000;letter-spacing:normal;word-spacing:normal;text-transform:none;writing-mode:lr-tb;direction:ltr;text-orientation:mixed;dominant-baseline:auto;baseline-shift:baseline;text-anchor:start;white-space:normal;shape-padding:0;clip-rule:nonzero;display:inline;overflow:visible;visibility:visible;opacity:1;isolation:auto;mix-blend-mode:normal;color-interpolation:sRGB;color-interpolation-filters:linearRGB;solid-color:#000000;solid-opacity:1;vector-effect:none;fill:#000000;fill-opacity:1;fill-rule:evenodd;stroke:none;stroke-width:3.5;stroke-linecap:round;stroke-linejoin:miter;stroke-miterlimit:4;stroke-dasharray:none;stroke-dashoffset:0;stroke-opacity:1;color-rendering:auto;image-rendering:auto;shape-rendering:auto;text-rendering:auto;enable-background:accumulate"
       d="m 126.18164,182.72852 a 1.750175,1.750175 0 0 0 -1.01953,3.14453 l 18.06445,14.13476 a 1.750175,1.750175 0 1 0 2.15625,-2.75586 l -18.06445,-14.13672 a 1.750175,1.750175 0 0 0 -1.13672,-0.38671 z"
       id="path827-1-5-1-0"
       inkscape:connector-curvature="0" />
    <path
       style="opacity:1;vector-effect:none;fill:#000000;fill-opacity:1;fill-rule:nonzero;stroke:#000000;stroke-width:1;stroke-linecap:round;stroke-linejoin:round;stroke-miterlimit:4;stroke-dasharray:none;stroke-dashoffset:0;stroke-opacity:1;paint-order:fill markers stroke"
       d="m 113.44088,104.73201 a 6.1708416,6.7758259 0 0 1 -6.09575,5.77588 6.1708416,6.7758259 0 0 1 -6.09627,-5.76451 7.1924261,7.1924261 0 0 0 -1.09606,3.79925 7.1924261,7.1924261 0 0 0 7.19233,7.19284 7.1924261,7.1924261 0 0 0 7.19232,-7.19284 7.1924261,7.1924261 0 0 0 -1.09657,-3.81062 z"
       id="path901"
       inkscape:connector-curvature="0" />
    <path
       inkscape:connector-curvature="0"
       style="opacity:1;vector-effect:none;fill:#000000;fill-opacity:1;fill-rule:nonzero;stroke:#000000;stroke-width:0.75;stroke-linecap:round;stroke-linejoin:round;stroke-miterlimit:4;stroke-dasharray:none;stroke-dashoffset:0;stroke-opacity:1;paint-order:fill markers stroke"
       inkscape:transform-center-x="-0.60491774"
       inkscape:transform-center-y="-0.30412716"
       d="m 122.75389,160.79572 3.47204,5.19975 -2.31508,5.808 6.01817,-1.69529 4.80834,3.99654 0.2474,-6.2475 5.28679,-3.338 -5.86527,-2.16587 -1.54092,-6.05954 -3.87234,4.90891 z"
       id="path2201-9" />
  </g>
</svg>
