<?xml version="1.0" encoding="UTF-8" standalone="no"?>
<!-- Created with Inkscape (http://www.inkscape.org/) -->

<svg
   xmlns:dc="http://purl.org/dc/elements/1.1/"
   xmlns:cc="http://creativecommons.org/ns#"
   xmlns:rdf="http://www.w3.org/1999/02/22-rdf-syntax-ns#"
   xmlns:svg="http://www.w3.org/2000/svg"
   xmlns="http://www.w3.org/2000/svg"
   xmlns:sodipodi="http://sodipodi.sourceforge.net/DTD/sodipodi-0.dtd"
   xmlns:inkscape="http://www.inkscape.org/namespaces/inkscape"
   width="210mm"
   height="297mm"
   viewBox="0 0 210 297"
   version="1.1"
   id="svg829"
   inkscape:version="0.92.5 (0.92.5+68)"
   sodipodi:docname="planchette_outline.svg">
  <defs
     id="defs823" />
  <sodipodi:namedview
     id="base"
     pagecolor="#ffffff"
     bordercolor="#666666"
     borderopacity="1.0"
     inkscape:pageopacity="0.0"
     inkscape:pageshadow="2"
     inkscape:zoom="0.35"
     inkscape:cx="-115.71429"
     inkscape:cy="560"
     inkscape:document-units="mm"
     inkscape:current-layer="layer1"
     showgrid="false"
     inkscape:window-width="1145"
     inkscape:window-height="837"
     inkscape:window-x="2362"
     inkscape:window-y="158"
     inkscape:window-maximized="0" />
  <metadata
     id="metadata826">
    <rdf:RDF>
      <cc:Work
         rdf:about="">
        <dc:format>image/svg+xml</dc:format>
        <dc:type
           rdf:resource="http://purl.org/dc/dcmitype/StillImage" />
        <dc:title></dc:title>
      </cc:Work>
    </rdf:RDF>
  </metadata>
  <g
     inkscape:label="Layer 1"
     inkscape:groupmode="layer"
     id="layer1">
    <path
       inkscape:connector-curvature="0"
       style="font-style:italic;font-variant:normal;font-weight:normal;font-stretch:normal;font-size:161.68954468px;line-height:125%;font-family:'Lucida Calligraphy';-inkscape-font-specification:'Lucida Calligraphy, Italic';text-align:start;letter-spacing:0px;word-spacing:0px;writing-mode:lr-tb;text-anchor:start;fill:none;fill-opacity:1;stroke:#0000ff;stroke-width:0.05mm;stroke-linecap:butt;stroke-linejoin:miter;stroke-miterlimit:4;stroke-dasharray:none;stroke-opacity:1"
       d="m 90.46525,112.537 2.0823,1.45799 1.624399,0.75753 0.4608,0.2149 0.679501,0.31679 0.491098,0.13161 2.4554,0.6579 0.506502,0.0443 2.5323,0.22158 0.5065,-0.0443 2.5324,-0.22159 0.4911,-0.13161 2.4554,-0.6579 0.4608,-0.2149 2.3038,-1.07432 0.41649,-0.29159 2.08231,-1.45799 1.3937,-1.39372 0.40379,-0.40378 0.3595,-0.35949 0.29161,-0.41651 1.4581,-2.08231 0.3738,-0.8016 0.2148,-0.46078 0.7006,-1.50233 0.3641,-1.35878 0.1315,-0.4911 0.2939,-1.09662 0.0443,-0.50649 0.2215,-2.532313 -0.0443,-0.5065 -0.2215,-2.5324 -0.6461,-2.41088 -0.1316,-0.491 -0.2148,-0.461 -1.0862,-2.34801 -0.2916,-0.41698 -1.45811,-2.082028 -0.3595,-0.35999 -1.79749,-1.796989 -0.4164,-0.29201 -2.0824,-1.457989 -0.4607,-0.215 -2.3039,-1.074002 -0.4911,-0.131009 -2.4554,-0.657989 -0.5065,-0.045 -2.5324,-0.22103 -0.5064,0.044 -2.532399,0.221999 -0.491099,0.130982 -2.455399,0.658029 -0.460801,0.21499 -2.303899,1.073999 -0.416402,0.292 -2.082299,1.458002 -0.359601,0.358979 -1.797399,1.79801 -0.291711,0.41601 -1.457989,2.082986 -0.2149,0.461 -1.0862,2.34801 -0.1315,0.49101 -0.442899,1.652 -0.2032,0.75887 -0.0443,0.50653 -0.221599,2.53237 0.0443,0.50654 0.221602,2.532283 0.131598,0.49109 0.6579,2.4554 0.7005,1.50233 0.2149,0.46078 0.373801,0.8016 0.2916,0.41642 1.4581,2.08239 0.3595,0.3595 1.7975,1.7975 z"
       id="path4178" />
    <path
       inkscape:connector-curvature="0"
       style="font-style:italic;font-variant:normal;font-weight:normal;font-stretch:normal;font-size:161.68954468px;line-height:125%;font-family:'Lucida Calligraphy';-inkscape-font-specification:'Lucida Calligraphy, Italic';text-align:start;letter-spacing:0px;word-spacing:0px;writing-mode:lr-tb;text-anchor:start;fill:none;fill-opacity:1;stroke:#0000ff;stroke-width:0.05mm;stroke-linecap:butt;stroke-linejoin:miter;stroke-miterlimit:4;stroke-dasharray:none;stroke-opacity:1"
       d="m 144.41165,145.2458 0.8113,4.4892 0.2005,2.5378 0.1967,2.48911 -0.0275,1.66878 -0.0266,1.61933 -0.17721,1.48187 -0.17119,1.4311 -0.2002,0.89043 -0.18951,0.84289 -0.26509,0.8169 -0.25011,0.77069 -0.3291,0.747 -0.3081,0.69922 -0.3926,0.68099 -0.3652,0.63348 -0.45529,0.61872 -0.42231,0.57401 -0.5174,0.56028 -0.4803,0.5202 -0.5786,0.50561 -0.5397,0.47159 -0.6393,0.45481 -0.5963,0.42421 -1.071,0.59499 -1.026,0.5699 -0.7878,0.34419 -0.7479,0.32671 -1.2905,0.4468 -1.247,0.43169 -0.6565,0.15191 -0.6026,0.13931 -0.6986,0.0786 -0.6435,0.0724 -0.9942,0.006 -0.9416,0.006 -1.6183,-0.15923 -1.572,-0.15467 -5.314,-0.96662 -5.3202,-0.96771 -6.174,-0.45468 -6.21889,-0.45802 h -0.44801 -0.4847 l -6.174091,0.45472 -6.218909,0.45798 -5.314001,0.96661 -5.3202,0.96772 -1.6183,0.15919 -1.572,0.15471 -0.9941,-0.006 -0.9416,-0.006 -0.69859,-0.0786 -0.64351,-0.0724 -0.6566,-0.15182 -0.6026,-0.1394 -1.2905,-0.4468 -1.246891,-0.43169 -0.787809,-0.34409 -0.74799,-0.32681 -1.0711,-0.595 -1.02591,-0.56989 -0.6393,-0.45481 -0.5962,-0.42421 -0.5787,-0.50559 -0.53969,-0.47162 -0.51731,-0.56028 -0.4803,-0.52019 -0.4553,-0.61881 -0.4224,-0.57392 -0.3926,-0.68108 -0.36513,-0.63339 -0.32918,-0.7471 -0.30806,-0.69912 -0.26505,-0.8169 -0.25007,-0.77069 -0.20022,-0.8904 -0.18953,-0.84292 -0.17724,-1.48199 -0.17117,-1.43098 -0.0274,-1.66881 -0.0266,-1.6193 0.20051,-2.5378 0.19667,-2.48911 0.82026,-4.53849 0.81134,-4.4891 2.79904,-9.76762 2.7874,-9.72699 2.6828,-7.39818 2.672499,-7.36971 2.915501,-6.888423 2.9037,-6.8597 7.2007,-14.154985 7.183601,-14.120019 5.792499,-9.41498 5.356001,-8.70401 5.79251,9.414 5.3561,8.70499 7.2007,14.15401 7.1836,14.120994 2.9156,6.88791 2.9036,6.860213 2.6828,7.39821 2.6724,7.36968 2.7991,9.76761 2.7874,9.727 z"
       id="path8-4" />
  </g>
</svg>
